<svg xmlns="http://www.w3.org/2000/svg" xmlns:xlink="http://www.w3.org/1999/xlink" width="473" zoomAndPan="magnify" viewBox="0 0 354.75 425.249996" height="567" preserveAspectRatio="xMidYMid meet" version="1.0"><defs><clipPath id="4c06ae85a7"><path d="M 0.1875 44 L 354.3125 44 L 354.3125 424.5 L 0.1875 424.5 Z M 0.1875 44 " clip-rule="nonzero"/></clipPath></defs><path fill="#f4d7b9" d="M 295.273438 156.578125 C 296.089844 148.996094 287.214844 128.773438 287.429688 132.875 C 273.203125 110.941406 245.441406 102.3125 221.484375 95.074219 C 170.636719 78.285156 130.925781 98.558594 95.199219 134.492188 C 74.105469 154.195312 54.035156 176.203125 43.445312 203.476562 C 22.617188 255.507812 53.839844 314.839844 101.324219 339.695312 C 105.152344 341.769531 109.328125 343.738281 112.980469 346.242188 C 132.609375 357.582031 155.65625 361.507812 177.53125 366.441406 C 218.449219 375.796875 269.839844 371.339844 293.957031 332.378906 C 310.3125 304.730469 305.96875 271.214844 304.6875 240.53125 C 302.761719 213.644531 299.386719 183.265625 295.273438 156.578125 Z M 295.273438 156.578125 " fill-opacity="1" fill-rule="evenodd"/><g clip-path="url(#4c06ae85a7)"><path fill="#000000" d="M 76.550781 79.847656 C 103.058594 55.066406 142.242188 43.054688 178.070312 45.15625 C 197.472656 46.292969 216.171875 51.15625 233.707031 59.507812 C 239.191406 62.121094 244.535156 65.179688 249.464844 68.777344 C 252.789062 70.328125 256.039062 72.007812 259.1875 73.832031 C 274.953125 82.96875 287.144531 96.800781 294.945312 113.214844 C 298.667969 121.046875 301.605469 129.304688 303.269531 137.816406 L 303.539062 139.21875 C 304.386719 143.488281 306.066406 149.113281 303.941406 153.113281 C 302.535156 155.761719 299.585938 157.429688 296.792969 157.207031 C 297.398438 159.664062 298.125 162.117188 298.589844 164.589844 L 299.855469 171.328125 C 300.0625 172.449219 300.273438 173.574219 300.476562 174.695312 C 301.695312 181.390625 302.820312 188.074219 303.71875 194.820312 C 305.597656 208.867188 307.296875 222.941406 308.792969 237.039062 C 309.867188 247.121094 310.875 257.214844 311.851562 267.304688 L 312.433594 273.355469 C 313.4375 283.777344 314.222656 294.289062 313.539062 304.757812 C 312.515625 320.457031 307.683594 334.78125 298.3125 346.433594 C 299.207031 348.582031 299.507812 351 300.179688 353.671875 C 301.109375 357.367188 302.320312 360.984375 303.613281 364.574219 C 304.214844 365.980469 304.820312 367.390625 305.417969 368.804688 L 306.992188 372.550781 L 308.21875 375.003906 C 309.546875 377.675781 310.835938 380.386719 311.652344 383.148438 C 316.949219 385.976562 321.273438 390.589844 321.484375 396.910156 C 321.671875 402.625 318.707031 408.671875 313.699219 411.585938 C 308.757812 414.460938 303.667969 413.328125 298.9375 411.132812 C 294.808594 412.332031 290.394531 412.484375 286.304688 411.203125 C 283.160156 414.050781 279.101562 416.019531 274.601562 416.546875 C 267.820312 417.355469 261.378906 415.457031 255.160156 412.957031 L 254.726562 412.785156 C 254.53125 412.707031 254.335938 412.625 254.148438 412.542969 C 246.992188 412.199219 239.863281 409.367188 234.785156 404.351562 C 233.132812 402.730469 231.703125 400.871094 230.550781 398.789062 C 226.363281 391.222656 225.714844 381.929688 229.832031 374.421875 C 228.949219 374.457031 228.058594 374.496094 227.171875 374.519531 C 215.394531 374.855469 203.59375 374.253906 191.84375 373.480469 L 189.070312 373.289062 C 181.46875 372.742188 170.253906 371.453125 170.042969 362.03125 C 170.011719 360.824219 171.253906 359.917969 172.390625 360.242188 C 176.710938 361.460938 180.957031 363.378906 185.433594 364.066406 C 191.289062 364.972656 197.351562 365.070312 203.269531 365.398438 L 204.96875 365.496094 C 216.898438 366.148438 229.253906 366.542969 240.988281 364.179688 C 249.746094 362.417969 258.871094 359.214844 266.898438 355.246094 C 274.601562 351.429688 281.601562 346.433594 287.246094 339.914062 C 299.683594 325.570312 301.332031 305.332031 300.722656 287.183594 C 299.988281 265.511719 297.445312 243.867188 296.007812 222.222656 L 295.355469 212.5 C 294.820312 204.390625 294.332031 196.269531 294.128906 188.15625 C 293.976562 182.234375 294.074219 176.296875 294.105469 170.375 C 294.121094 167.417969 294.082031 164.445312 294.148438 161.488281 C 294.1875 159.828125 294.382812 158.203125 294.523438 156.578125 C 293.867188 156.234375 293.25 155.753906 292.699219 155.117188 C 292.261719 154.617188 291.925781 154.085938 291.695312 153.546875 C 288.902344 152.730469 287.605469 151.644531 285.796875 149.179688 C 284.269531 147.105469 282.539062 145.191406 280.6875 143.394531 C 276.75 139.574219 272.25 136.453125 267.496094 133.734375 C 257.667969 128.113281 246.902344 124.355469 236.046875 121.269531 C 219.425781 116.554688 202.160156 114.128906 185.292969 110.339844 C 180.644531 116.820312 175.714844 123.113281 170.566406 129.199219 C 154.492188 148.183594 136.058594 165.113281 116.308594 180.207031 C 112.289062 183.285156 108.214844 186.316406 104.082031 189.257812 C 98.640625 197.558594 93.136719 205.816406 87.554688 214.023438 L 85.15625 217.535156 L 85.117188 217.601562 C 84.789062 218.105469 84.472656 218.605469 84.160156 219.109375 C 83.496094 220.171875 82.746094 221.195312 81.953125 222.191406 C 81.433594 222.949219 80.910156 223.703125 80.378906 224.460938 C 81.398438 225.007812 82.328125 225.621094 83.050781 226.300781 C 84.535156 227.703125 84.289062 229.925781 83.050781 231.347656 C 79.070312 235.945312 72.765625 229.957031 68.183594 228.359375 C 63.21875 229.871094 59.078125 235.78125 57.019531 240.292969 C 54.054688 246.800781 52.867188 254.648438 54.207031 261.691406 C 55.433594 268.128906 58.742188 273.695312 64.246094 277.183594 C 64.441406 277.300781 64.648438 277.429688 64.851562 277.542969 C 64.859375 277.558594 64.859375 277.558594 64.867188 277.546875 C 65.054688 277.667969 65.25 277.78125 65.445312 277.886719 C 68.027344 279.308594 70.863281 280.148438 73.804688 280.347656 C 75.488281 280.46875 77.25 280.378906 78.933594 280.582031 C 80.664062 280.78125 82.085938 281.578125 83.75 281.996094 C 85.582031 282.46875 86.765625 284.929688 85.613281 286.585938 C 85.042969 287.402344 84.503906 288.179688 83.929688 288.878906 C 85.824219 291.109375 87.46875 293.570312 88.960938 295.914062 C 90.996094 299.125 92.800781 302.53125 94.449219 306.007812 C 95.96875 308.003906 97.417969 310.042969 98.828125 312.125 C 106.800781 323.9375 112.902344 337.097656 116.652344 350.851562 C 120.367188 364.457031 122.6875 379.734375 119.25 393.625 C 116.085938 406.398438 106.839844 416.976562 93.152344 417.65625 C 90.296875 417.796875 87.488281 417.480469 84.847656 416.753906 C 79.042969 420.335938 71.851562 422.140625 65.417969 422.351562 C 60.210938 422.523438 54.511719 421.425781 50.261719 418.277344 C 45.21875 420.472656 39.746094 421.71875 34.988281 422.003906 C 29.664062 422.320312 24.09375 420.867188 19.753906 417.996094 C 15.621094 421.53125 11.167969 424.519531 6.101562 426.566406 C -2.605469 430.085938 -12.964844 429.652344 -20.9375 424.386719 C -28.925781 419.117188 -32.992188 409.652344 -30.550781 400.265625 C -28.304688 391.609375 -21.246094 385.261719 -14.613281 379.796875 L -13.300781 378.722656 C -6.742188 373.367188 -0.113281 368.183594 4.097656 360.636719 C 8.566406 352.632812 10.199219 343.335938 10.640625 334.277344 C 11.597656 314.332031 7.539062 294.566406 6.304688 274.726562 C 5.03125 254.234375 5.742188 233.683594 8.535156 213.34375 C 13.964844 173.828125 28.25 135.089844 54.09375 104.289062 C 57.832031 99.832031 61.835938 95.585938 66.054688 91.558594 C 69.277344 87.339844 72.761719 83.390625 76.550781 79.847656 Z M 420.324219 305.46875 C 420.46875 305.476562 420.601562 305.484375 420.730469 305.535156 C 420.8125 305.570312 420.886719 305.628906 420.953125 305.691406 L 421.582031 306.320312 C 421.808594 306.546875 421.792969 306.890625 421.582031 307.113281 C 421.398438 307.320312 421.066406 307.324219 420.851562 307.167969 L 420.789062 307.113281 L 420.136719 306.460938 C 420.066406 306.386719 420.003906 306.300781 419.972656 306.195312 C 419.941406 306.089844 419.941406 305.96875 419.933594 305.855469 C 419.929688 305.65625 420.121094 305.46875 420.324219 305.46875 Z M 69.058594 244.300781 C 75.0625 242.480469 82.265625 246.808594 85.84375 251.375 C 87.640625 253.667969 88.152344 256.804688 85.84375 259.058594 C 83.882812 260.972656 80.050781 261.324219 78.15625 259.058594 C 76.007812 256.472656 74.253906 252.894531 71.1875 251.242188 C 67.855469 249.445312 63.390625 249.894531 62.605469 254.273438 C 62.472656 255.015625 61.40625 254.765625 61.363281 254.101562 C 61.070312 249.667969 64.957031 245.535156 69.058594 244.300781 Z M 69.058594 244.300781 " fill-opacity="1" fill-rule="evenodd"/></g></svg>