<svg xmlns="http://www.w3.org/2000/svg" xmlns:xlink="http://www.w3.org/1999/xlink" width="473" zoomAndPan="magnify" viewBox="0 0 354.75 425.249996" height="567" preserveAspectRatio="xMidYMid meet" version="1.0"><defs><clipPath id="c1843ed781"><path d="M 0.1875 35 L 346 35 L 346 405 L 0.1875 405 Z M 0.1875 35 " clip-rule="nonzero"/></clipPath><clipPath id="1ca1ff9902"><path d="M 64.871094 244.890625 L 81.789062 244.890625 L 81.789062 260.394531 L 64.871094 260.394531 Z M 64.871094 244.890625 " clip-rule="nonzero"/></clipPath><clipPath id="cd547d4b08"><path d="M 64.949219 247.289062 C 64.949219 247.289062 65.023438 247.140625 65.023438 247.0625 C 65.023438 246.988281 65.023438 246.914062 65.023438 246.914062 C 65.023438 246.914062 65.097656 246.765625 65.097656 246.691406 C 65.097656 246.613281 65.171875 246.539062 65.171875 246.539062 C 65.171875 246.539062 65.246094 246.390625 65.246094 246.390625 C 65.324219 246.316406 65.324219 246.316406 65.398438 246.242188 C 65.398438 246.242188 65.398438 246.164062 65.398438 246.089844 C 65.472656 246.089844 65.546875 245.941406 65.546875 245.941406 C 65.546875 245.941406 65.621094 245.867188 65.695312 245.792969 C 65.695312 245.714844 65.773438 245.640625 65.847656 245.640625 C 65.847656 245.640625 65.921875 245.566406 65.996094 245.566406 C 66.070312 245.492188 66.144531 245.417969 66.144531 245.417969 C 66.144531 245.417969 66.296875 245.417969 66.371094 245.34375 C 66.445312 245.34375 66.519531 245.265625 66.519531 245.265625 C 66.519531 245.265625 66.671875 245.265625 66.746094 245.265625 C 66.820312 245.265625 66.96875 245.191406 66.96875 245.191406 C 66.96875 245.191406 67.121094 245.117188 67.195312 245.117188 C 67.195312 245.042969 67.34375 245.042969 67.34375 245.042969 C 67.34375 245.042969 67.492188 245.042969 67.570312 245.042969 C 67.644531 244.96875 67.792969 244.96875 67.792969 244.96875 C 67.792969 244.96875 67.941406 245.042969 68.019531 245.042969 C 68.09375 245.042969 68.242188 245.042969 68.242188 245.042969 C 68.242188 245.042969 68.390625 245.117188 68.46875 245.117188 C 68.46875 245.191406 68.542969 245.191406 68.542969 245.191406 C 68.765625 245.265625 69.367188 245.34375 69.738281 245.417969 C 70.265625 245.492188 70.789062 245.566406 71.3125 245.792969 C 71.835938 245.941406 72.285156 246.089844 72.808594 246.316406 C 73.332031 246.613281 74.15625 247.140625 74.308594 247.214844 C 74.308594 247.289062 74.308594 247.289062 74.382812 247.289062 C 74.457031 247.363281 74.605469 247.4375 74.832031 247.511719 C 75.128906 247.8125 75.804688 248.335938 76.253906 248.710938 C 76.628906 249.011719 76.925781 249.308594 77.300781 249.609375 C 77.75 249.910156 78.273438 250.207031 78.574219 250.507812 C 78.875 250.808594 79.097656 251.183594 79.25 251.332031 C 79.25 251.332031 79.25 251.332031 79.324219 251.40625 C 79.472656 251.554688 79.996094 252.304688 80.296875 252.605469 C 80.445312 252.828125 80.519531 252.902344 80.671875 253.128906 C 80.96875 253.578125 81.417969 254.402344 81.570312 255.074219 C 81.71875 255.675781 81.792969 256.496094 81.644531 257.097656 C 81.570312 257.621094 81.195312 258.371094 80.96875 258.59375 C 80.894531 258.667969 80.820312 258.667969 80.820312 258.742188 C 80.746094 258.820312 80.820312 258.894531 80.746094 258.894531 C 80.671875 258.96875 80.59375 258.96875 80.445312 259.042969 C 80.296875 259.191406 79.996094 259.566406 79.699219 259.71875 C 79.472656 259.867188 79.097656 259.867188 78.800781 259.941406 C 78.5 260.089844 78.273438 260.316406 77.976562 260.316406 C 77.527344 260.390625 76.777344 260.242188 76.328125 260.089844 C 76.027344 260.015625 75.65625 259.792969 75.578125 259.71875 C 75.503906 259.71875 75.503906 259.71875 75.503906 259.71875 C 75.503906 259.71875 75.429688 259.640625 75.429688 259.640625 C 75.355469 259.640625 75.207031 259.566406 74.980469 259.417969 C 74.757812 259.191406 74.082031 258.519531 73.933594 258.292969 C 73.859375 258.21875 73.859375 258.21875 73.859375 258.144531 C 73.707031 257.84375 73.109375 257.171875 72.882812 256.796875 C 72.808594 256.496094 72.734375 256.199219 72.660156 256.125 C 72.660156 256.125 72.660156 256.125 72.660156 256.046875 C 72.585938 255.972656 72.433594 255.449219 72.359375 255.226562 C 72.285156 255 72.136719 254.625 72.0625 254.550781 C 71.984375 254.476562 71.910156 254.328125 71.910156 254.328125 C 71.910156 254.328125 71.535156 253.503906 71.460938 253.429688 C 71.460938 253.351562 71.460938 253.351562 71.386719 253.351562 C 71.3125 253.203125 71.085938 252.679688 70.863281 252.304688 C 70.714844 252.082031 70.5625 251.855469 70.265625 251.554688 C 69.890625 251.183594 69.289062 250.734375 68.839844 250.433594 C 68.390625 250.058594 67.570312 249.609375 67.492188 249.535156 C 67.492188 249.535156 67.417969 249.460938 67.34375 249.460938 C 67.34375 249.386719 67.195312 249.308594 67.195312 249.308594 C 67.195312 249.308594 67.195312 249.234375 67.121094 249.160156 C 67.042969 249.085938 66.519531 248.9375 66.371094 248.859375 C 66.296875 248.859375 66.222656 248.859375 66.144531 248.785156 C 66.070312 248.785156 65.996094 248.785156 65.996094 248.785156 C 65.996094 248.785156 65.847656 248.710938 65.847656 248.710938 C 65.773438 248.636719 65.621094 248.5625 65.621094 248.5625 C 65.621094 248.5625 65.546875 248.488281 65.472656 248.488281 C 65.472656 248.410156 65.324219 248.335938 65.324219 248.335938 C 65.324219 248.335938 65.324219 248.1875 65.246094 248.1875 C 65.246094 248.113281 65.171875 248.039062 65.171875 248.039062 C 65.171875 248.039062 65.097656 247.886719 65.097656 247.8125 C 65.023438 247.738281 65.023438 247.664062 65.023438 247.664062 C 65.023438 247.664062 65.023438 247.511719 65.023438 247.4375 C 64.949219 247.363281 64.949219 247.289062 64.949219 247.289062 " clip-rule="nonzero"/></clipPath><clipPath id="1314b3a722"><path d="M 57.15625 244.199219 L 82.777344 244.199219 L 82.777344 262.308594 L 57.15625 262.308594 Z M 57.15625 244.199219 " clip-rule="nonzero"/></clipPath><clipPath id="17d2def583"><path d="M 63.359375 246.507812 C 63.519531 245.589844 64.882812 246.257812 64.964844 246.589844 C 65.042969 246.839844 64.882812 247.257812 64.722656 247.339844 C 64.242188 247.589844 61.835938 246.671875 61.757812 246.257812 C 61.675781 246.089844 61.917969 245.757812 62.15625 245.671875 C 62.800781 245.507812 65.445312 246.671875 65.765625 247.257812 C 65.925781 247.507812 65.847656 247.839844 65.6875 248.007812 C 65.203125 248.339844 61.917969 247.257812 61.597656 246.757812 C 61.433594 246.507812 61.515625 246.089844 61.675781 246.007812 C 61.917969 245.839844 62.636719 246.171875 63.28125 246.339844 C 64 246.589844 65.765625 246.921875 66.007812 247.421875 C 66.167969 247.589844 66.085938 248.007812 65.925781 248.171875 C 65.445312 248.507812 61.675781 247.339844 61.597656 246.921875 C 61.515625 246.671875 61.996094 246.257812 62.398438 246.257812 C 63.199219 246.089844 66.167969 247.257812 66.488281 247.839844 C 66.648438 248.089844 66.648438 248.507812 66.488281 248.589844 C 66.007812 248.921875 62.238281 247.757812 61.835938 247.171875 C 61.675781 246.921875 61.675781 246.507812 61.835938 246.339844 C 61.996094 246.171875 62.636719 246.339844 63.199219 246.507812 C 64.484375 246.921875 68.492188 248.507812 68.734375 249.253906 C 68.8125 249.589844 68.652344 250.003906 68.332031 250.089844 C 67.609375 250.339844 63.039062 247.671875 63.039062 247.257812 C 63.121094 247.007812 64 246.839844 64.644531 247.007812 C 65.847656 247.257812 68.09375 248.921875 69.617188 250.671875 C 71.703125 252.839844 73.707031 258.167969 75.390625 259.835938 C 76.273438 260.753906 77.074219 261.335938 77.957031 261.417969 C 78.839844 261.417969 80.363281 260.417969 80.925781 259.667969 C 81.484375 259.085938 81.648438 258.335938 81.726562 257.585938 C 81.726562 256.835938 81.566406 256.085938 81.164062 255.253906 C 80.445312 253.753906 78.679688 251.589844 77.074219 250.089844 C 75.550781 248.671875 71.703125 247.007812 71.863281 246.421875 C 71.863281 246.171875 72.742188 246.089844 73.226562 246.171875 C 73.945312 246.339844 74.828125 247.007812 75.632812 247.757812 C 76.753906 248.757812 79 251.753906 78.917969 251.839844 C 78.757812 252.003906 74.589844 248.757812 74.347656 247.921875 C 74.347656 247.671875 74.507812 247.257812 74.75 247.257812 C 74.988281 247.089844 75.710938 247.671875 76.273438 248.007812 C 77.15625 248.671875 78.917969 250.003906 79.242188 250.839844 C 79.402344 251.253906 79.320312 251.839844 79.160156 251.921875 C 78.519531 252.171875 73.546875 248.007812 73.464844 247.089844 C 73.386719 246.839844 73.707031 246.507812 73.945312 246.421875 C 74.507812 246.339844 75.710938 247.171875 76.511719 247.921875 C 77.476562 248.839844 79.320312 251.753906 79.160156 251.839844 C 79 252.089844 75.070312 249.171875 74.988281 248.421875 C 74.988281 248.089844 75.230469 247.757812 75.550781 247.757812 C 76.191406 247.589844 78.359375 249.339844 79.320312 250.421875 C 80.203125 251.421875 81.40625 253.253906 81.324219 253.921875 C 81.324219 254.253906 80.84375 254.585938 80.84375 254.585938 C 80.84375 254.585938 81.324219 253.835938 81.324219 253.835938 C 81.324219 253.753906 80.925781 254.503906 80.683594 254.421875 C 80.042969 254.335938 79.402344 251.921875 78.277344 250.671875 C 76.835938 249.171875 72.421875 246.839844 72.503906 246.507812 C 72.582031 246.339844 74.507812 246.757812 75.390625 247.257812 C 76.351562 247.839844 77.316406 248.757812 78.117188 249.839844 C 79 251.089844 80.523438 254.171875 80.445312 254.171875 C 80.363281 254.253906 78.199219 251.589844 78.277344 251.003906 C 78.359375 250.671875 78.679688 250.421875 79 250.503906 C 79.5625 250.589844 80.925781 252.753906 81.484375 253.671875 C 81.886719 254.253906 82.367188 255.003906 82.207031 255.335938 C 82.207031 255.585938 81.808594 255.921875 81.566406 255.835938 C 80.925781 255.753906 79.082031 252.339844 79.082031 251.589844 C 79.082031 251.253906 79.402344 251.003906 79.5625 250.921875 C 79.800781 250.921875 80.121094 251.253906 80.363281 251.589844 C 80.84375 252.171875 81.808594 254.585938 81.648438 254.753906 C 81.40625 254.835938 79.160156 252.589844 79.160156 251.921875 C 79.082031 251.671875 79.320312 251.339844 79.480469 251.339844 C 79.722656 251.253906 80.121094 251.503906 80.445312 251.921875 C 81.164062 252.753906 82.851562 255.753906 82.769531 257.253906 C 82.6875 258.417969 81.808594 259.585938 80.925781 260.253906 C 79.882812 261.003906 77.714844 261.335938 76.675781 261.253906 C 76.113281 261.167969 75.710938 261.003906 75.3125 260.667969 C 74.828125 260.167969 74.507812 259.417969 74.347656 258.503906 C 74.027344 257.335938 73.785156 254.671875 74.1875 254.003906 C 74.347656 253.753906 74.75 253.671875 74.988281 253.753906 C 75.390625 253.921875 76.113281 255.671875 76.03125 255.753906 C 75.710938 256.003906 70.660156 248.671875 68.09375 247.257812 C 66.328125 246.339844 62.878906 246.839844 62.800781 246.421875 C 62.71875 246.171875 63.601562 245.589844 64.164062 245.507812 C 65.042969 245.257812 67.851562 245.921875 67.851562 246.089844 C 67.851562 246.257812 61.433594 246.507812 61.355469 246.171875 C 61.273438 246.007812 63.601562 245.089844 64.644531 245.007812 C 65.6875 244.839844 67.371094 245.089844 67.691406 245.507812 C 67.851562 245.671875 67.851562 246.089844 67.691406 246.339844 C 67.210938 246.839844 62.800781 246.671875 62.238281 246.171875 C 62.078125 246.007812 62.078125 245.589844 62.238281 245.421875 C 62.476562 245.089844 63.441406 244.921875 64.324219 244.839844 C 65.605469 244.839844 68.8125 245.339844 69.296875 245.921875 C 69.535156 246.171875 69.535156 246.589844 69.375 246.757812 C 68.894531 247.339844 63.039062 246.671875 62.398438 246.007812 C 62.238281 245.757812 62.238281 245.421875 62.398438 245.171875 C 62.800781 244.839844 64.402344 244.675781 65.445312 244.675781 C 66.570312 244.757812 68.652344 245.007812 69.054688 245.507812 C 69.214844 245.671875 69.296875 246.089844 69.136719 246.257812 C 68.734375 246.757812 64 246.589844 63.441406 246.007812 C 63.199219 245.839844 63.199219 245.421875 63.359375 245.257812 C 63.601562 244.839844 64.882812 244.675781 65.765625 244.675781 C 66.730469 244.675781 68.652344 244.921875 68.972656 245.339844 C 69.136719 245.507812 69.136719 245.921875 68.894531 246.171875 C 68.332031 246.671875 63.601562 246.507812 63.039062 246.007812 C 62.878906 245.757812 62.878906 245.421875 63.039062 245.171875 C 63.28125 244.839844 64.402344 244.757812 65.203125 244.757812 C 66.167969 244.675781 67.773438 244.675781 68.414062 245.007812 C 68.734375 245.171875 69.136719 245.671875 69.054688 245.839844 C 68.8125 246.339844 63.039062 246.171875 62.476562 245.507812 C 62.238281 245.339844 62.238281 244.921875 62.398438 244.757812 C 62.71875 244.339844 64.082031 244.257812 65.125 244.257812 C 66.570312 244.257812 70.257812 244.921875 70.5 245.507812 C 70.578125 245.671875 70.417969 246.089844 70.097656 246.171875 C 69.375 246.507812 65.042969 245.339844 65.042969 245.171875 C 65.042969 245.007812 67.53125 245.007812 68.574219 245.089844 C 69.457031 245.257812 70.738281 245.507812 70.980469 245.839844 C 71.058594 246.089844 70.980469 246.507812 70.738281 246.671875 C 70.015625 247.089844 66.648438 245.839844 64.644531 245.839844 C 62.878906 245.839844 59.992188 247.007812 59.429688 246.507812 C 59.191406 246.339844 59.191406 245.839844 59.351562 245.589844 C 59.832031 245.089844 64.082031 245.589844 64.804688 246.089844 C 65.125 246.257812 65.285156 246.589844 65.285156 246.757812 C 65.203125 247.007812 64.804688 247.089844 64.324219 247.171875 C 63.28125 247.257812 58.707031 246.089844 58.707031 246.007812 C 58.707031 245.921875 63.921875 246.007812 64.324219 246.589844 C 64.5625 246.839844 64.484375 247.257812 64.242188 247.421875 C 63.761719 247.921875 59.910156 247.589844 59.511719 247.089844 C 59.351562 246.921875 59.511719 246.421875 59.671875 246.257812 C 59.992188 246.007812 61.273438 246.507812 62.15625 246.671875 C 63.121094 246.839844 64.882812 247.089844 65.203125 247.507812 C 65.367188 247.757812 65.203125 248.339844 65.203125 248.339844 C 65.203125 248.339844 65.203125 247.507812 65.203125 247.507812 C 65.125 247.507812 65.125 248.257812 64.804688 248.421875 C 64.324219 248.589844 62.15625 247.421875 61.835938 246.839844 C 61.675781 246.507812 61.675781 246.007812 61.996094 245.839844 C 62.71875 245.339844 69.375 248.257812 69.855469 249.253906 C 69.9375 249.503906 69.855469 249.921875 69.617188 250.089844 C 68.972656 250.421875 65.527344 247.757812 63.519531 247.171875 C 61.597656 246.589844 58.308594 247.089844 57.90625 246.589844 C 57.828125 246.339844 57.90625 246.007812 58.148438 245.757812 C 58.707031 245.257812 61.515625 245.171875 62.800781 245.089844 C 63.761719 245.089844 64.964844 244.839844 65.203125 245.171875 C 65.445312 245.339844 65.445312 245.839844 65.203125 246.007812 C 64.722656 246.589844 59.910156 246.339844 59.910156 246.089844 C 59.910156 245.921875 64.402344 244.257812 64.964844 244.675781 C 65.125 244.839844 65.125 245.339844 64.964844 245.589844 C 64.402344 246.171875 59.992188 246.921875 59.429688 246.507812 C 59.191406 246.339844 59.191406 245.921875 59.351562 245.671875 C 59.671875 245.171875 61.355469 244.839844 62.316406 244.675781 C 63.121094 244.589844 64.324219 244.339844 64.644531 244.675781 C 64.804688 244.839844 64.882812 245.257812 64.722656 245.507812 C 64.242188 246.171875 58.949219 246.421875 58.867188 246.257812 C 58.867188 246.089844 61.515625 245.089844 62.71875 245.007812 C 63.921875 244.921875 65.765625 245.257812 66.246094 245.757812 C 66.570312 246.007812 66.730469 246.507812 66.570312 246.757812 C 66.085938 247.421875 58.628906 246.839844 58.628906 246.589844 C 58.546875 246.421875 59.992188 246.007812 60.714844 245.921875 C 61.515625 245.921875 62.800781 245.921875 63.039062 246.257812 C 63.199219 246.421875 63.28125 246.921875 63.039062 247.089844 C 62.636719 247.589844 59.75 247.339844 58.707031 247.171875 C 58.066406 247.007812 57.183594 246.757812 57.183594 246.589844 C 57.183594 246.339844 57.988281 246.089844 58.628906 245.921875 C 59.589844 245.757812 61.835938 245.671875 62.398438 246.089844 C 62.558594 246.257812 62.71875 246.589844 62.636719 246.839844 C 62.316406 247.257812 57.988281 247.757812 57.585938 247.257812 C 57.425781 247.089844 57.503906 246.507812 57.746094 246.257812 C 58.148438 245.839844 59.511719 245.757812 60.554688 245.757812 C 61.597656 245.757812 63.679688 245.757812 64 246.257812 C 64.242188 246.421875 64.242188 246.921875 64 247.171875 C 63.441406 247.671875 58.707031 247.507812 57.988281 247.007812 C 57.746094 246.839844 57.664062 246.507812 57.746094 246.257812 C 57.90625 245.757812 59.589844 245.257812 60.792969 245.007812 C 62.078125 244.757812 63.761719 244.675781 65.367188 244.921875 C 67.128906 245.257812 69.375 246.007812 70.738281 246.921875 C 71.863281 247.671875 72.90625 249.671875 73.226562 249.589844 C 73.304688 249.503906 73.304688 248.839844 73.304688 248.839844 C 73.226562 248.839844 73.226562 249.503906 72.984375 249.589844 C 72.503906 249.753906 71.140625 247.921875 69.9375 247.339844 C 68.652344 246.671875 66.890625 246.171875 65.367188 245.921875 C 63.839844 245.671875 62.15625 245.671875 60.875 245.921875 C 59.832031 246.089844 58.546875 247.171875 58.066406 247.007812 C 57.828125 246.921875 57.664062 246.421875 57.828125 246.171875 C 58.148438 245.671875 62.476562 245.839844 63.519531 246.089844 C 63.921875 246.171875 64.324219 246.339844 64.324219 246.507812 C 64.402344 246.671875 64.164062 247.007812 63.921875 247.171875 C 63.039062 247.589844 58.066406 247.839844 57.585938 247.257812 C 57.425781 247.089844 57.503906 246.589844 57.664062 246.421875 C 58.226562 245.921875 61.757812 245.589844 62.238281 246.089844 C 62.476562 246.257812 62.476562 246.839844 62.238281 247.007812 C 61.757812 247.507812 57.183594 246.757812 57.183594 246.589844 C 57.183594 246.421875 61.273438 246.007812 62.316406 246.089844 C 62.71875 246.171875 63.121094 246.257812 63.199219 246.421875 C 63.28125 246.589844 63.121094 247.007812 62.878906 247.171875 C 62.238281 247.507812 58.949219 247.507812 58.386719 247.007812 C 58.148438 246.671875 58.148438 246.007812 58.386719 245.671875 C 59.109375 244.921875 63.839844 245.421875 65.203125 245.589844 C 65.925781 245.671875 66.570312 245.757812 66.730469 246.007812 C 66.808594 246.171875 66.730469 246.589844 66.488281 246.757812 C 65.925781 247.007812 64.164062 246.007812 62.960938 245.921875 C 61.675781 245.757812 59.191406 246.589844 58.867188 246.257812 C 58.789062 246.089844 58.949219 245.757812 59.191406 245.507812 C 59.832031 245.007812 62.800781 244.675781 63.839844 244.675781 C 64.242188 244.675781 64.722656 244.589844 64.804688 244.757812 C 64.964844 244.921875 64.882812 245.339844 64.644531 245.589844 C 64 246.089844 59.191406 246.089844 59.191406 245.921875 C 59.191406 245.757812 64.402344 244.257812 64.964844 244.675781 C 65.125 244.839844 65.125 245.339844 64.964844 245.589844 C 64.484375 246.089844 59.910156 246.257812 59.910156 246.089844 C 59.910156 246.007812 63.121094 245.171875 64.082031 245.089844 C 64.644531 245.089844 65.285156 245.007812 65.445312 245.257812 C 65.527344 245.421875 65.445312 245.839844 65.203125 246.007812 C 64.484375 246.671875 58.308594 247.089844 57.90625 246.589844 C 57.828125 246.339844 57.988281 245.921875 58.226562 245.757812 C 58.949219 245.339844 61.675781 245.921875 63.441406 246.339844 C 65.203125 246.757812 67.691406 247.921875 68.8125 248.589844 C 69.375 248.839844 69.855469 249.089844 69.9375 249.421875 C 70.015625 249.589844 69.855469 249.921875 69.617188 250.089844 C 68.734375 250.421875 62.71875 247.921875 61.996094 246.839844 C 61.757812 246.507812 61.757812 245.921875 61.996094 245.839844 C 62.316406 245.589844 65.125 247.007812 65.285156 247.589844 C 65.367188 247.839844 64.804688 248.421875 64.804688 248.421875 C 64.804688 248.421875 65.203125 247.589844 65.285156 247.589844 C 65.367188 247.589844 65.367188 248.171875 65.203125 248.339844 C 64.644531 248.757812 59.992188 247.757812 59.511719 247.089844 C 59.351562 246.839844 59.429688 246.421875 59.671875 246.257812 C 60.230469 245.839844 64 246.089844 64.324219 246.589844 C 64.484375 246.757812 64.402344 247.257812 64.164062 247.421875 C 63.519531 247.839844 58.707031 246.257812 58.707031 246.007812 C 58.707031 245.757812 64.484375 245.589844 64.964844 246.171875 C 65.125 246.421875 65.042969 246.921875 64.882812 247.089844 C 64.242188 247.589844 59.832031 247.089844 59.351562 246.507812 C 59.109375 246.257812 59.109375 245.839844 59.351562 245.589844 C 60.070312 244.839844 66.890625 245.171875 68.894531 245.339844 C 69.855469 245.507812 70.820312 245.589844 70.980469 245.839844 C 71.058594 246.089844 70.738281 246.671875 70.738281 246.671875 C 70.660156 246.589844 70.898438 245.757812 70.898438 245.757812 C 70.898438 245.757812 70.980469 246.421875 70.738281 246.589844 C 70.097656 247.007812 65.042969 245.507812 65.125 245.257812 C 65.125 245.089844 69.617188 244.675781 70.175781 245.171875 C 70.339844 245.421875 70.015625 246.171875 70.097656 246.171875 C 70.175781 246.257812 70.5 245.421875 70.5 245.507812 C 70.5 245.507812 70.417969 246.007812 70.097656 246.171875 C 69.214844 246.671875 62.238281 245.089844 62.238281 244.839844 C 62.238281 244.675781 67.050781 244.257812 68.09375 244.839844 C 68.574219 245.089844 68.972656 245.757812 68.894531 246.007812 C 68.574219 246.507812 62.960938 246.089844 62.878906 245.839844 C 62.878906 245.671875 65.847656 244.839844 66.96875 244.839844 C 67.773438 244.839844 68.734375 245.007812 68.972656 245.339844 C 69.054688 245.589844 68.8125 246.171875 68.8125 246.171875 C 68.8125 246.171875 68.972656 245.339844 68.972656 245.339844 C 68.972656 245.339844 69.054688 245.921875 68.8125 246.171875 C 68.253906 246.671875 63.679688 246.507812 63.28125 245.921875 C 63.199219 245.757812 63.28125 245.339844 63.519531 245.171875 C 64.082031 244.757812 67.289062 245.171875 68.253906 245.339844 C 68.734375 245.421875 69.136719 245.421875 69.214844 245.589844 C 69.296875 245.757812 69.214844 246.171875 68.972656 246.339844 C 68.171875 246.839844 62.636719 246.421875 62.316406 245.839844 C 62.15625 245.671875 62.316406 245.339844 62.558594 245.171875 C 63.121094 244.757812 65.765625 245.007812 66.96875 245.257812 C 67.933594 245.339844 69.136719 245.589844 69.375 246.007812 C 69.535156 246.171875 69.535156 246.589844 69.296875 246.757812 C 68.652344 247.339844 62.800781 246.839844 62.238281 246.171875 C 62.078125 245.921875 62.15625 245.507812 62.398438 245.339844 C 62.878906 244.921875 65.285156 245.257812 66.328125 245.339844 C 66.890625 245.339844 67.609375 245.257812 67.773438 245.507812 C 67.933594 245.671875 67.851562 246.171875 67.609375 246.339844 C 66.890625 246.839844 61.355469 246.339844 61.355469 246.171875 C 61.355469 246.089844 66.246094 245.171875 66.890625 245.671875 C 67.210938 245.839844 67.289062 246.339844 67.210938 246.589844 C 66.890625 247.007812 63.441406 247.007812 63.039062 246.507812 C 62.878906 246.339844 63.121094 245.671875 63.121094 245.671875 C 63.121094 245.671875 62.960938 246.589844 62.960938 246.589844 C 62.960938 246.589844 62.878906 245.839844 63.121094 245.671875 C 63.441406 245.339844 64.5625 245.507812 65.445312 245.671875 C 66.730469 245.921875 68.332031 246.421875 69.855469 247.589844 C 72.023438 249.171875 76.03125 253.753906 76.59375 255.253906 C 76.753906 255.671875 76.753906 256.171875 76.59375 256.253906 C 76.433594 256.421875 76.113281 256.335938 75.871094 256.253906 C 75.3125 255.921875 73.945312 254.503906 74.109375 254.171875 C 74.109375 253.921875 74.828125 253.671875 74.988281 253.835938 C 75.472656 254.171875 74.828125 257.171875 75.230469 258.335938 C 75.550781 259.167969 76.03125 260.003906 76.675781 260.253906 C 77.476562 260.585938 78.757812 260.335938 79.640625 259.917969 C 80.523438 259.503906 81.566406 258.753906 81.886719 257.835938 C 82.128906 256.921875 81.40625 255.253906 80.925781 254.253906 C 80.445312 253.253906 79 252.171875 79.082031 251.753906 C 79.160156 251.503906 79.5625 251.339844 79.800781 251.421875 C 80.363281 251.589844 82.046875 253.585938 81.96875 254.171875 C 81.96875 254.421875 81.484375 254.671875 81.246094 254.585938 C 80.683594 254.421875 79.160156 251.089844 79.242188 251.089844 C 79.320312 251.003906 82.367188 254.753906 82.207031 255.335938 C 82.207031 255.671875 81.808594 255.835938 81.484375 255.753906 C 80.765625 255.585938 78.199219 251.921875 78.359375 251.089844 C 78.359375 250.753906 78.679688 250.421875 79 250.503906 C 79.480469 250.503906 80.765625 252.839844 81.003906 253.671875 C 81.164062 254.085938 81.164062 254.671875 81.003906 254.753906 C 80.925781 254.921875 80.523438 254.753906 80.203125 254.503906 C 79.480469 254.003906 78.679688 251.753906 77.476562 250.503906 C 76.273438 249.171875 73.144531 247.839844 72.90625 247.007812 C 72.824219 246.757812 72.984375 246.339844 73.226562 246.257812 C 73.867188 246.089844 77.316406 248.589844 78.679688 249.839844 C 79.640625 250.753906 80.523438 251.839844 80.84375 252.753906 C 81.085938 253.335938 81.085938 254.503906 80.925781 254.585938 C 80.683594 254.671875 79.800781 252.253906 78.839844 251.253906 C 77.878906 250.171875 75.070312 249.007812 74.988281 248.421875 C 74.988281 248.089844 75.632812 247.757812 75.632812 247.757812 C 75.632812 247.757812 74.988281 248.339844 74.988281 248.339844 C 74.910156 248.339844 75.230469 247.757812 75.550781 247.757812 C 76.03125 247.671875 77.316406 248.921875 78.039062 249.589844 C 78.597656 250.089844 79.480469 250.839844 79.480469 251.253906 C 79.480469 251.503906 79.160156 251.839844 78.839844 251.839844 C 77.957031 251.839844 73.625 248.089844 73.546875 247.171875 C 73.464844 246.839844 74.109375 246.507812 74.027344 246.507812 C 74.027344 246.421875 73.464844 247.171875 73.464844 247.089844 C 73.464844 247.089844 73.625 246.507812 73.867188 246.421875 C 74.1875 246.339844 74.828125 246.757812 75.472656 247.171875 C 76.59375 248.089844 79.5625 251.753906 79.402344 251.921875 C 79.242188 252.089844 74.429688 248.757812 74.347656 247.921875 C 74.347656 247.671875 74.667969 247.339844 74.910156 247.257812 C 75.550781 247.171875 77.476562 248.757812 78.199219 249.753906 C 78.839844 250.589844 79.480469 252.421875 79.242188 252.589844 C 78.679688 253.003906 71.941406 247.671875 71.863281 246.671875 C 71.863281 246.339844 72.183594 246.007812 72.503906 246.007812 C 73.386719 245.921875 76.511719 248.339844 78.117188 249.753906 C 79.480469 251.089844 80.765625 252.671875 81.566406 254.085938 C 82.128906 255.085938 82.609375 256.085938 82.609375 257.171875 C 82.609375 258.335938 82.128906 259.917969 81.324219 260.753906 C 80.523438 261.667969 78.917969 262.335938 77.796875 262.25 C 76.675781 262.167969 75.710938 261.335938 74.667969 260.335938 C 72.90625 258.503906 71.300781 253.671875 69.214844 251.421875 C 67.371094 249.503906 63.039062 248.007812 63.039062 247.257812 C 63.039062 247.007812 63.519531 246.757812 63.921875 246.757812 C 64.882812 246.671875 68.492188 248.589844 68.734375 249.253906 C 68.8125 249.589844 68.652344 250.003906 68.332031 250.089844 C 67.53125 250.421875 62.238281 248.007812 61.835938 247.171875 C 61.675781 246.839844 61.757812 246.507812 61.996094 246.339844 C 62.558594 246.007812 66.085938 247.257812 66.488281 247.839844 C 66.648438 248.089844 66.648438 248.507812 66.488281 248.589844 C 66.007812 248.921875 61.757812 247.507812 61.597656 246.921875 C 61.515625 246.671875 61.757812 246.339844 62.078125 246.171875 C 62.71875 245.921875 65.6875 246.839844 66.007812 247.421875 C 66.167969 247.589844 66.085938 248.089844 65.925781 248.171875 C 65.445312 248.507812 61.835938 247.339844 61.597656 246.757812 C 61.433594 246.507812 61.597656 246.089844 61.757812 246.007812 C 62.316406 245.671875 65.445312 246.671875 65.765625 247.257812 C 65.925781 247.421875 65.847656 247.921875 65.6875 248.007812 C 65.203125 248.257812 61.675781 246.507812 61.757812 246.257812 C 61.757812 246.089844 64.964844 246.421875 65.042969 246.671875 C 65.042969 246.757812 64.402344 247.171875 64.082031 247.089844 C 63.761719 246.921875 63.441406 245.671875 63.359375 245.671875 C 63.28125 245.671875 63.359375 246.507812 63.359375 246.507812 " clip-rule="nonzero"/></clipPath><clipPath id="b86e3aa0ee"><path d="M 67.304688 245.078125 L 81.914062 245.078125 L 81.914062 261.605469 L 67.304688 261.605469 Z M 67.304688 245.078125 " clip-rule="nonzero"/></clipPath><clipPath id="b3e9222aa3"><path d="M 76.703125 253.878906 C 79.324219 257.695312 79.097656 257.921875 78.875 257.921875 C 78.351562 257.921875 76.179688 255.597656 76.179688 255.597656 C 76.179688 255.597656 78.574219 257.546875 78.574219 257.546875 C 78.574219 257.546875 77.75 256.496094 77.527344 256.574219 C 77.300781 256.648438 77.078125 257.394531 77.152344 257.769531 C 77.300781 258.144531 78.125 258.742188 78.273438 258.667969 C 78.351562 258.59375 77.976562 257.246094 77.75 257.171875 C 77.527344 257.171875 77.003906 257.546875 76.925781 257.84375 C 76.925781 258.21875 77.902344 259.492188 78.199219 259.492188 C 78.5 259.492188 78.949219 258.820312 78.875 258.667969 C 78.800781 258.59375 77.824219 258.667969 77.75 258.894531 C 77.601562 259.117188 77.902344 259.792969 78.199219 260.015625 C 78.425781 260.167969 79.023438 260.316406 79.171875 260.167969 C 79.324219 260.015625 79.25 259.417969 79.097656 259.269531 C 78.949219 259.042969 78.050781 258.96875 77.902344 259.117188 C 77.824219 259.269531 78.199219 260.242188 78.351562 260.242188 C 78.5 260.242188 78.875 259.640625 78.800781 259.492188 C 78.648438 259.191406 76.851562 258.96875 76.851562 259.042969 C 76.777344 259.191406 78.425781 260.167969 78.425781 260.242188 C 78.425781 260.242188 77.375 259.492188 77.300781 259.566406 C 77.300781 259.640625 78.199219 260.464844 78.125 260.539062 C 78.125 260.617188 77.300781 260.242188 77.300781 260.242188 C 77.300781 260.242188 78.574219 260.316406 78.648438 260.539062 C 78.722656 260.691406 78.199219 261.363281 78.050781 261.289062 C 77.902344 261.289062 77.675781 260.316406 77.824219 259.941406 C 78.125 259.417969 79.847656 259.269531 80.144531 258.820312 C 80.296875 258.59375 80.070312 257.996094 80.144531 257.996094 C 80.222656 257.921875 80.519531 258.742188 80.671875 258.742188 C 80.894531 258.667969 81.492188 257.394531 81.34375 256.722656 C 80.96875 255.597656 78.125 254.25 77.152344 253.277344 C 76.476562 252.679688 75.65625 252.082031 75.65625 251.632812 C 75.65625 251.40625 76.105469 251.105469 76.105469 251.105469 C 76.105469 251.105469 75.65625 251.78125 75.65625 251.78125 C 75.730469 251.78125 75.953125 251.183594 76.179688 251.183594 C 76.402344 251.183594 77.152344 252.15625 77.078125 252.53125 C 77.078125 252.828125 76.777344 253.203125 76.402344 253.351562 C 75.804688 253.503906 73.632812 252.082031 73.332031 252.378906 C 73.035156 252.679688 74.230469 254.625 74.082031 254.699219 C 73.859375 254.851562 71.535156 252.304688 71.535156 251.707031 C 71.613281 251.480469 71.984375 251.257812 72.136719 251.257812 C 72.511719 251.40625 73.410156 254.550781 73.183594 254.625 C 72.960938 254.777344 70.265625 250.957031 70.265625 250.957031 C 70.339844 250.882812 72.734375 253.054688 72.734375 253.652344 C 72.734375 253.878906 72.511719 254.175781 72.285156 254.175781 C 71.761719 254.175781 68.992188 249.910156 69.367188 249.460938 C 69.738281 249.085938 74.082031 251.707031 74.15625 251.554688 C 74.308594 251.257812 68.917969 248.039062 69.140625 247.511719 C 69.214844 247.214844 70.113281 247.214844 70.789062 247.363281 C 71.835938 247.589844 74.605469 249.085938 74.679688 249.535156 C 74.757812 249.757812 74.457031 250.058594 74.230469 250.058594 C 73.332031 250.132812 67.792969 246.316406 67.941406 245.941406 C 68.019531 245.640625 70.265625 246.089844 71.3125 246.464844 C 72.285156 246.839844 73.859375 247.664062 74.082031 248.113281 C 74.15625 248.410156 74.082031 248.710938 73.859375 248.859375 C 73.257812 249.085938 69.066406 246.914062 68.917969 246.242188 C 68.917969 246.015625 69.367188 245.640625 69.664062 245.566406 C 69.964844 245.492188 70.414062 245.792969 71.011719 246.089844 C 71.761719 246.464844 73.707031 247.140625 73.933594 247.664062 C 74.082031 247.886719 74.007812 248.335938 73.78125 248.410156 C 73.257812 248.636719 68.992188 245.867188 69.066406 245.566406 C 69.140625 245.34375 70.714844 245.566406 71.535156 245.867188 C 72.511719 246.164062 74.15625 246.914062 74.308594 247.363281 C 74.382812 247.589844 74.308594 248.039062 74.007812 248.113281 C 73.410156 248.335938 69.515625 246.242188 69.441406 245.714844 C 69.441406 245.417969 69.964844 245.191406 70.339844 245.117188 C 70.9375 245.042969 71.910156 245.566406 72.734375 245.941406 C 73.558594 246.390625 75.054688 247.0625 75.207031 247.511719 C 75.28125 247.664062 75.128906 247.960938 74.90625 248.113281 C 74.230469 248.410156 69.816406 246.914062 69.738281 246.390625 C 69.664062 246.164062 70.113281 245.714844 70.488281 245.640625 C 71.238281 245.492188 72.808594 246.242188 73.933594 246.988281 C 75.355469 247.8125 77.902344 249.910156 78.199219 250.882812 C 78.351562 251.332031 78.273438 251.78125 77.976562 251.929688 C 77.003906 252.453125 67.34375 247.214844 67.417969 247.0625 C 67.492188 246.988281 69.816406 247.664062 70.9375 248.261719 C 72.359375 248.9375 75.054688 250.65625 75.207031 251.257812 C 75.28125 251.480469 75.054688 251.78125 74.832031 251.855469 C 74.15625 252.003906 69.367188 248.335938 69.515625 248.039062 C 69.589844 247.8125 71.011719 248.113281 71.835938 248.488281 C 73.183594 249.011719 76.105469 250.808594 76.476562 251.554688 C 76.554688 251.78125 76.476562 252.15625 76.328125 252.230469 C 75.953125 252.304688 73.558594 250.132812 73.558594 249.609375 C 73.484375 249.460938 73.78125 249.160156 73.933594 249.160156 C 74.457031 249.234375 76.402344 253.203125 76.328125 253.277344 C 76.253906 253.277344 73.410156 250.207031 73.484375 249.609375 C 73.484375 249.386719 73.707031 249.160156 73.933594 249.160156 C 74.457031 249.234375 76.476562 252.003906 76.328125 252.230469 C 76.027344 252.453125 69.589844 248.710938 69.515625 248.039062 C 69.515625 247.8125 69.738281 247.664062 69.964844 247.589844 C 70.714844 247.589844 75.054688 250.507812 75.207031 251.257812 C 75.28125 251.480469 75.128906 251.78125 74.832031 251.855469 C 74.007812 252.003906 67.195312 247.8125 67.34375 247.363281 C 67.492188 247.0625 70.339844 247.511719 71.984375 248.039062 C 74.007812 248.710938 78.425781 250.65625 78.5 251.332031 C 78.5 251.554688 78.199219 251.929688 77.902344 251.929688 C 77.152344 251.929688 75.28125 248.785156 73.859375 247.8125 C 72.511719 246.988281 69.738281 246.765625 69.738281 246.390625 C 69.664062 246.164062 70.488281 245.714844 71.085938 245.714844 C 71.984375 245.640625 74.382812 246.613281 74.757812 247.214844 C 74.980469 247.511719 74.90625 247.960938 74.679688 248.113281 C 74.15625 248.410156 69.441406 245.417969 69.441406 245.34375 C 69.515625 245.265625 74.15625 246.765625 74.308594 247.363281 C 74.382812 247.589844 74.15625 247.960938 73.859375 248.039062 C 73.183594 248.1875 69.589844 245.417969 69.589844 245.417969 C 69.589844 245.34375 73.707031 246.988281 73.933594 247.664062 C 74.007812 247.886719 73.859375 248.261719 73.558594 248.335938 C 72.960938 248.5625 69.367188 246.390625 69.441406 246.242188 C 69.441406 246.164062 72.585938 247.140625 73.410156 247.664062 C 73.78125 247.886719 74.230469 248.113281 74.230469 248.335938 C 74.230469 248.5625 74.007812 248.785156 73.78125 248.859375 C 72.960938 248.9375 68.390625 245.867188 68.390625 245.941406 C 68.390625 245.941406 74.605469 248.859375 74.679688 249.535156 C 74.757812 249.757812 74.457031 250.058594 74.230469 250.058594 C 73.484375 250.132812 69.738281 247.214844 69.664062 247.289062 C 69.589844 247.4375 74.605469 250.734375 74.605469 251.480469 C 74.605469 251.78125 74.230469 252.082031 73.859375 252.15625 C 73.035156 252.230469 69.964844 249.757812 69.816406 249.984375 C 69.589844 250.285156 73.035156 253.128906 73.035156 253.878906 C 73.035156 254.175781 72.660156 254.550781 72.433594 254.476562 C 71.910156 254.476562 70.1875 251.03125 70.265625 250.957031 C 70.414062 250.808594 73.484375 253.429688 73.558594 254.027344 C 73.558594 254.328125 73.332031 254.625 73.183594 254.625 C 72.808594 254.625 71.460938 252.230469 71.535156 251.707031 C 71.613281 251.480469 71.910156 251.257812 72.136719 251.257812 C 72.660156 251.40625 74.082031 254.699219 74.082031 254.699219 C 74.082031 254.699219 72.285156 252.453125 72.511719 252.082031 C 72.808594 251.632812 75.878906 252.980469 76.253906 252.53125 C 76.554688 252.304688 75.878906 251.183594 76.105469 251.105469 C 76.554688 250.882812 81.121094 255.074219 81.570312 256.273438 C 81.792969 256.796875 81.644531 257.546875 81.492188 257.621094 C 81.269531 257.695312 80.445312 256.722656 80.519531 256.574219 C 80.519531 256.421875 81.570312 256.421875 81.71875 256.648438 C 81.867188 256.871094 81.417969 258.070312 81.195312 258.070312 C 80.96875 258.144531 80.445312 257.171875 80.519531 257.023438 C 80.59375 256.796875 81.570312 256.871094 81.71875 257.097656 C 82.019531 257.394531 81.792969 258.742188 81.492188 258.820312 C 81.269531 258.96875 80.296875 258.371094 80.296875 258.070312 C 80.222656 257.769531 80.96875 256.945312 81.195312 257.023438 C 81.417969 257.097656 81.71875 258.667969 81.492188 259.042969 C 81.269531 259.34375 80.371094 259.492188 80.144531 259.34375 C 79.847656 259.042969 80.070312 257.246094 80.371094 257.097656 C 80.59375 257.023438 81.71875 258.070312 81.644531 258.445312 C 81.570312 258.894531 80.144531 259.640625 79.847656 259.492188 C 79.546875 259.269531 79.699219 257.320312 79.921875 257.246094 C 80.144531 257.171875 81.269531 258.371094 81.121094 258.742188 C 81.042969 259.117188 79.472656 259.640625 79.171875 259.417969 C 78.949219 259.269531 79.097656 257.769531 79.472656 257.546875 C 79.699219 257.394531 80.371094 257.546875 80.519531 257.84375 C 80.746094 258.070312 80.820312 258.742188 80.59375 259.117188 C 80.371094 259.566406 79.023438 260.242188 78.648438 260.089844 C 78.351562 259.941406 78.199219 258.667969 78.425781 258.371094 C 78.574219 258.144531 79.171875 258.070312 79.472656 258.21875 C 79.699219 258.371094 80.070312 258.820312 80.070312 259.191406 C 79.996094 259.640625 78.949219 260.539062 78.5 260.691406 C 78.125 260.691406 77.601562 260.464844 77.453125 260.167969 C 77.300781 259.941406 77.375 259.34375 77.527344 259.191406 C 77.75 259.042969 78.574219 259.269531 78.800781 259.492188 C 79.097656 259.792969 79.324219 260.464844 79.097656 260.765625 C 78.949219 261.140625 77.601562 261.589844 77.453125 261.4375 C 77.375 261.363281 77.675781 260.539062 77.976562 260.464844 C 78.273438 260.390625 79.324219 261.363281 79.25 261.515625 C 79.171875 261.664062 77.824219 261.589844 77.601562 261.289062 C 77.453125 260.988281 77.675781 259.941406 77.976562 259.792969 C 78.273438 259.640625 79.324219 260.015625 79.472656 260.242188 C 79.546875 260.539062 79.097656 261.214844 78.800781 261.289062 C 78.5 261.4375 77.976562 261.214844 77.675781 260.988281 C 77.375 260.839844 77.003906 260.464844 77.003906 260.167969 C 77.003906 259.792969 77.375 259.191406 77.675781 259.042969 C 78.050781 258.96875 78.875 259.417969 79.023438 259.71875 C 79.25 260.015625 79.25 260.617188 79.023438 260.765625 C 78.800781 261.066406 77.675781 260.988281 77.300781 260.839844 C 77.003906 260.691406 76.777344 260.316406 76.777344 260.089844 C 76.851562 259.867188 77.226562 259.34375 77.527344 259.34375 C 77.902344 259.34375 78.875 260.242188 78.800781 260.539062 C 78.722656 260.765625 77.601562 261.140625 77.226562 260.988281 C 76.925781 260.914062 76.554688 260.316406 76.554688 260.089844 C 76.554688 259.867188 76.851562 259.566406 77.078125 259.492188 C 77.453125 259.417969 78.648438 260.089844 78.800781 260.390625 C 78.875 260.617188 78.722656 260.988281 78.5 261.140625 C 78.273438 261.289062 77.601562 261.214844 77.226562 260.988281 C 76.777344 260.765625 76.105469 260.015625 76.027344 259.640625 C 76.027344 259.34375 76.328125 259.042969 76.554688 258.96875 C 77.003906 258.820312 77.976562 258.894531 78.425781 259.191406 C 78.875 259.417969 79.398438 259.941406 79.324219 260.316406 C 79.324219 260.539062 78.875 260.914062 78.5 260.988281 C 78.125 260.988281 77.527344 260.617188 77.152344 260.390625 C 76.777344 260.089844 76.253906 259.566406 76.179688 259.269531 C 76.105469 258.96875 76.253906 258.59375 76.476562 258.445312 C 76.925781 258.21875 78.949219 258.59375 79.398438 259.042969 C 79.699219 259.34375 79.773438 259.941406 79.621094 260.242188 C 79.472656 260.617188 78.574219 260.988281 78.125 260.914062 C 77.675781 260.914062 77.078125 260.390625 77.003906 260.015625 C 76.851562 259.566406 77.152344 258.742188 77.527344 258.445312 C 77.902344 258.21875 78.800781 258.144531 79.25 258.292969 C 79.621094 258.519531 79.921875 259.042969 79.996094 259.417969 C 79.996094 259.941406 79.773438 260.765625 79.398438 260.988281 C 78.949219 261.140625 77.976562 260.839844 77.601562 260.464844 C 77.152344 260.089844 76.777344 259.269531 76.925781 258.820312 C 77.003906 258.292969 77.824219 257.546875 78.273438 257.546875 C 78.722656 257.472656 79.398438 258.070312 79.546875 258.519531 C 79.773438 258.96875 79.546875 260.015625 79.171875 260.242188 C 78.722656 260.464844 77.152344 259.71875 76.703125 259.117188 C 76.328125 258.667969 76.105469 257.695312 76.328125 257.246094 C 76.476562 256.871094 76.925781 256.421875 77.300781 256.496094 C 77.824219 256.496094 79.023438 257.695312 79.097656 258.21875 C 79.097656 258.667969 78.5 259.492188 78.125 259.566406 C 77.75 259.640625 77.152344 259.191406 76.851562 258.742188 C 76.476562 258.292969 76.253906 257.546875 76.328125 257.023438 C 76.328125 256.574219 76.628906 256.046875 76.925781 255.898438 C 77.226562 255.75 77.902344 255.898438 78.351562 256.125 C 78.800781 256.421875 79.472656 257.320312 79.398438 257.695312 C 79.324219 258.070312 78.574219 258.59375 78.125 258.519531 C 77.527344 258.519531 76.253906 257.171875 75.953125 256.496094 C 75.730469 256.046875 75.578125 255.300781 75.804688 255.074219 C 75.953125 254.925781 76.628906 254.925781 77.078125 255.148438 C 77.75 255.449219 79.472656 257.320312 79.324219 257.621094 C 79.25 257.84375 78.648438 257.84375 78.273438 257.695312 C 77.75 257.472656 77.078125 256.648438 76.703125 256.046875 C 76.402344 255.449219 75.878906 254.175781 76.105469 253.878906 C 76.179688 253.800781 76.703125 253.878906 76.703125 253.878906 " clip-rule="nonzero"/></clipPath><clipPath id="5d0d24c10e"><path d="M 75.835938 254.058594 L 81.429688 254.058594 L 81.429688 260.371094 L 75.835938 260.371094 Z M 75.835938 254.058594 " clip-rule="nonzero"/></clipPath><clipPath id="0135b08f3c"><path d="M 79.324219 257.769531 C 80.070312 259.191406 80.296875 258.144531 80.445312 258.144531 C 80.519531 258.21875 80.371094 259.71875 80.371094 259.71875 C 80.371094 259.71875 80.820312 258.445312 80.519531 257.769531 C 80.222656 256.871094 77.601562 255.523438 77.601562 254.925781 C 77.675781 254.699219 78.050781 254.328125 78.273438 254.402344 C 78.722656 254.476562 79.996094 257.171875 79.773438 257.320312 C 79.546875 257.546875 75.730469 254.25 75.878906 254.101562 C 75.953125 253.953125 78.273438 255.074219 79.023438 255.597656 C 79.546875 255.972656 80.144531 256.496094 80.144531 256.796875 C 80.144531 257.023438 79.847656 257.320312 79.621094 257.246094 C 79.171875 257.171875 77.675781 254.402344 77.824219 254.328125 C 77.976562 254.175781 80.371094 255.898438 80.894531 256.871094 C 81.34375 257.546875 81.492188 258.59375 81.34375 259.117188 C 81.195312 259.566406 80.519531 259.941406 80.222656 259.941406 C 79.996094 259.867188 79.773438 259.492188 79.773438 259.191406 C 79.699219 258.742188 79.996094 257.84375 80.296875 257.695312 C 80.519531 257.546875 81.042969 257.695312 81.195312 257.921875 C 81.417969 258.292969 81.121094 260.089844 80.746094 260.316406 C 80.445312 260.464844 79.773438 260.167969 79.546875 259.867188 C 79.324219 259.566406 79.398438 258.894531 79.546875 258.445312 C 79.699219 257.996094 79.996094 257.394531 80.296875 257.320312 C 80.519531 257.246094 80.894531 257.394531 81.042969 257.621094 C 81.195312 257.996094 81.121094 259.34375 80.820312 259.71875 C 80.671875 259.941406 80.144531 260.015625 79.921875 259.941406 C 79.621094 259.792969 79.398438 259.269531 79.398438 258.96875 C 79.472656 258.59375 79.847656 258.070312 80.144531 257.996094 C 80.371094 257.996094 80.820312 258.21875 80.894531 258.519531 C 80.96875 258.820312 80.519531 260.089844 80.222656 260.089844 C 79.921875 260.167969 78.875 258.894531 78.949219 258.59375 C 79.023438 258.371094 80.070312 258.070312 80.222656 258.292969 C 80.371094 258.445312 80.070312 259.867188 79.847656 259.867188 C 79.546875 259.941406 78.949219 259.191406 78.800781 258.820312 C 78.648438 258.445312 78.574219 257.695312 78.722656 257.621094 C 78.875 257.472656 79.324219 257.769531 79.324219 257.769531 " clip-rule="nonzero"/></clipPath></defs><path fill="#f4d7b9" d="M 222.996094 108.679688 C 136.832031 105.535156 54.496094 163.445312 26.773438 245.296875 C 24.761719 251.71875 31.027344 257.714844 37.355469 256.632812 C 30.886719 289.203125 45.023438 333.046875 81.851562 337.667969 C 89.394531 338.617188 96.976562 338.070312 104.527344 338.761719 C 111.261719 339.378906 147.914062 360 161.640625 364.828125 C 190.535156 374.921875 263.246094 373.074219 292.171875 364.828125 C 293.226562 367.222656 315.6875 275.101562 320.804688 246.539062 C 322.671875 234.164062 305.625 225.003906 306.882812 212.25 C 308.496094 195.871094 327.65625 175.898438 321.785156 160.300781 C 306.3125 120.609375 261.40625 109.535156 222.996094 108.679688 Z M 222.996094 108.679688 " fill-opacity="1" fill-rule="evenodd"/><g clip-path="url(#c1843ed781)"><path fill="#ffde59" d="M 180.203125 36.527344 C 184.074219 36.847656 187.96875 37.394531 191.792969 38.113281 C 203.421875 36.210938 215.453125 38.324219 226.726562 41.984375 C 253.132812 50.554688 278.550781 65.441406 298.449219 84.867188 C 308.691406 94.871094 317.070312 106.394531 322.226562 119.792969 C 324.847656 126.59375 326.324219 133.847656 326.75 141.117188 L 326.796875 141.996094 C 326.917969 144.410156 326.972656 147.300781 326.683594 150.167969 C 327.605469 155.949219 328.425781 161.78125 328.488281 167.628906 C 328.519531 170.339844 328.339844 173.046875 328.011719 175.730469 L 328.125 175.988281 C 327.648438 179.195312 327.078125 182.390625 326.425781 185.566406 L 326.265625 185.777344 C 326.175781 186.425781 326.074219 187.070312 325.976562 187.714844 C 325.625 189.347656 325.253906 190.976562 324.863281 192.601562 C 324.015625 196.117188 323.078125 199.609375 322.066406 203.082031 C 321.890625 203.691406 322.058594 204.171875 322.390625 204.488281 C 321.65625 207.128906 320.851562 209.753906 319.957031 212.347656 C 320.394531 214.621094 320.835938 216.890625 321.308594 219.152344 C 323.753906 230.921875 325.828125 242.765625 328.613281 254.46875 C 334.257812 278.214844 342.839844 301.582031 345.199219 325.996094 C 347.03125 344.929688 343.984375 365.632812 332.214844 381.097656 C 322.070312 394.425781 306.8125 402.292969 290.335938 404.390625 C 282.449219 405.402344 274.363281 404.9375 266.652344 402.945312 L 265.8125 402.722656 C 261.949219 401.683594 257.035156 400.054688 253.445312 397.433594 C 249.554688 396.066406 245.878906 393.535156 243.660156 391.0625 C 240.636719 387.6875 237.335938 381.914062 238.160156 377.117188 C 233.660156 377.484375 229.128906 377.585938 224.675781 377.574219 C 213.699219 377.550781 202.625 376.679688 192.070312 373.492188 C 182.652344 370.648438 171.675781 365.894531 166.105469 357.3125 C 165.84375 356.910156 166.277344 356.324219 166.734375 356.480469 C 171.234375 358.0625 175.441406 360.195312 180.082031 361.402344 C 184.652344 362.582031 189.21875 363.699219 193.925781 364.1875 C 203.132812 365.132812 212.480469 365.007812 221.714844 364.550781 L 224.886719 364.386719 C 234.773438 363.855469 244.988281 363.101562 254.234375 359.402344 C 257.859375 357.949219 261.21875 355.925781 264.277344 353.519531 L 264.757812 353.136719 C 266.398438 351.804688 268.089844 350.679688 269.8125 349.617188 C 270.058594 349.300781 270.308594 348.988281 270.554688 348.664062 C 274.46875 343.640625 278.675781 338.796875 282.203125 333.488281 C 289.210938 322.957031 291.914062 312.011719 292.28125 299.449219 C 292.664062 286.1875 292.710938 272.910156 292.867188 259.644531 L 292.925781 255.222656 C 293.125 240.054688 293.15625 224.835938 294.324219 209.703125 C 294.863281 202.671875 295.628906 195.675781 296.804688 188.730469 L 297.066406 187.242188 L 298.964844 176.53125 C 299.425781 173.949219 299.691406 171.289062 300.277344 168.71875 C 299.617188 167.640625 298.859375 166.605469 297.976562 165.617188 C 297.164062 164.703125 296.339844 163.820312 295.515625 162.941406 L 294.921875 162.417969 C 293.566406 161.207031 292.402344 160.050781 291.308594 158.386719 L 291.042969 157.976562 C 289.871094 156.558594 288.765625 155.078125 287.789062 153.453125 L 287.605469 153.136719 C 287.363281 152.828125 287.121094 152.523438 286.867188 152.21875 C 286.085938 151.277344 285.261719 150.386719 284.414062 149.535156 C 281.433594 155.292969 277.214844 160.277344 271.246094 163.394531 C 269.089844 164.523438 266.457031 163.558594 265.75 161.160156 C 263.960938 155.105469 261.25 149.472656 257.664062 144.375 C 251.671875 154.34375 242.171875 162.144531 230.972656 165.949219 C 228.175781 166.898438 225.710938 163.964844 226.371094 161.34375 C 228.390625 153.289062 228.792969 145.09375 227.605469 136.996094 C 223.378906 140.015625 219.019531 142.859375 214.542969 145.496094 C 204.585938 153.195312 194.03125 160.125 182.425781 165.097656 C 179.742188 166.25 175.707031 164.316406 176.925781 160.871094 C 177.949219 157.972656 178.792969 155.023438 179.335938 151.992188 L 179.453125 151.292969 C 179.457031 151.273438 179.460938 151.25 179.460938 151.230469 C 152.578125 188.3125 87.390625 224.046875 82.386719 224.394531 L 82.25 224.394531 C 85.375 227.378906 87.898438 231.066406 89.546875 235.304688 C 91.28125 239.757812 84.214844 241.695312 82.386719 237.4375 L 82.328125 237.296875 C 79.515625 230.074219 72.5625 224.898438 64.996094 223.671875 C 60.421875 224.503906 56.101562 226.707031 53.152344 230.050781 C 47.351562 236.632812 47.296875 244.570312 51.257812 252.054688 L 51.839844 253.148438 C 53.984375 257.148438 56.242188 261.15625 57.449219 265.546875 C 58.925781 270.9375 57.808594 276.402344 58.773438 281.785156 L 58.828125 282.070312 C 59.285156 284.464844 60.273438 287.1875 63.125 286.53125 C 63.34375 286.480469 63.558594 286.414062 63.769531 286.339844 C 64.371094 286.820312 65.09375 287.214844 65.996094 287.480469 C 68.203125 288.121094 70.640625 287.808594 72.835938 287.289062 C 74.960938 286.789062 77.019531 286.003906 79.003906 285.082031 C 79.222656 285.625 79.359375 286.191406 79.371094 286.734375 C 79.4375 289.519531 78.285156 291.8125 76.511719 293.675781 C 79.339844 297.253906 81.757812 301.191406 84.484375 304.84375 C 88.402344 310.085938 92.40625 315.214844 96.664062 320.179688 C 101.097656 325.351562 105.925781 330.242188 110.9375 334.859375 C 114.445312 338.09375 120.25 341.554688 122.449219 346.246094 C 124.980469 347.035156 127.128906 348.972656 127.914062 352.164062 C 129.347656 357.941406 129.765625 371.484375 128.640625 377.363281 C 127.527344 383.1875 123.273438 386.820312 118.570312 389.886719 C 117.269531 390.742188 115.792969 390.652344 114.597656 390.015625 C 113.542969 391.042969 112.351562 391.984375 110.988281 392.824219 C 105.957031 395.929688 100.109375 397.058594 94.316406 397.710938 C 86.492188 400.210938 78.054688 400.871094 69.714844 399.3125 C 66.988281 399.636719 64.261719 399.929688 61.53125 400.167969 C 33.574219 402.601562 5.15625 400.527344 -22.113281 393.871094 C -34.621094 390.816406 -46.4375 385.265625 -57.441406 378.132812 C -76.414062 365.84375 -84.441406 331.34375 -73.433594 298.363281 L -72.5625 295.761719 C -67.601562 281.027344 -62.253906 266.371094 -55.085938 252.625 L -54.226562 250.988281 C -47.636719 238.453125 -40.386719 225.929688 -30.757812 215.46875 C -25.9375 210.234375 -20.335938 205.480469 -14.011719 202.15625 C -11.609375 200.894531 -8.804688 200.023438 -6.066406 199.03125 L -6.007812 198.34375 L -5.949219 197.660156 C -5.769531 195.460938 -5.539062 193.269531 -5.242188 191.082031 C -4.136719 182.898438 -2.574219 174.839844 -0.355469 166.878906 C 1.863281 158.910156 4.59375 151.074219 7.882812 143.480469 C 13.363281 130.808594 20.25 118.789062 28.195312 107.511719 C 28.761719 106.347656 29.339844 105.1875 29.929688 104.035156 C 36.628906 90.941406 45.304688 78.453125 56.5 68.785156 C 69.347656 57.691406 84.820312 50.804688 100.972656 45.96875 C 117.71875 40.957031 135.191406 37.53125 152.644531 36.375 C 161.832031 35.769531 171.03125 35.761719 180.203125 36.527344 Z M 57.71875 246.890625 C 66.128906 241.386719 77.582031 245.160156 81.84375 254.101562 C 84.917969 260.578125 74.746094 264.222656 73.136719 257.769531 C 71.53125 251.300781 64.652344 246.667969 58.042969 247.65625 C 57.585938 247.730469 57.300781 247.160156 57.71875 246.890625 Z M 57.71875 246.890625 " fill-opacity="1" fill-rule="evenodd"/></g><g clip-path="url(#1ca1ff9902)"><g clip-path="url(#cd547d4b08)"><path fill="#000000" d="M 61.953125 241.972656 L 84.707031 241.972656 L 84.707031 263.3125 L 61.953125 263.3125 Z M 61.953125 241.972656 " fill-opacity="1" fill-rule="nonzero"/></g></g><g clip-path="url(#1314b3a722)"><g clip-path="url(#17d2def583)"><path fill="#000000" d="M 53.976562 240.925781 L 86.050781 240.925781 L 86.050781 265.582031 L 53.976562 265.582031 Z M 53.976562 240.925781 " fill-opacity="1" fill-rule="nonzero"/></g></g><g clip-path="url(#b86e3aa0ee)"><g clip-path="url(#b3e9222aa3)"><path fill="#000000" d="M 64.347656 242.121094 L 84.789062 242.121094 L 84.789062 264.476562 L 64.347656 264.476562 Z M 64.347656 242.121094 " fill-opacity="1" fill-rule="nonzero"/></g></g><g clip-path="url(#5d0d24c10e)"><g clip-path="url(#0135b08f3c)"><path fill="#000000" d="M 72.882812 251.105469 L 84.339844 251.105469 L 84.339844 263.367188 L 72.882812 263.367188 Z M 72.882812 251.105469 " fill-opacity="1" fill-rule="nonzero"/></g></g></svg>