<svg xmlns="http://www.w3.org/2000/svg" xmlns:xlink="http://www.w3.org/1999/xlink" width="473" zoomAndPan="magnify" viewBox="0 0 354.75 425.249996" height="567" preserveAspectRatio="xMidYMid meet" version="1.0"><defs><clipPath id="30dd95de2c"><path d="M 0.1875 31 L 350 31 L 350 408 L 0.1875 408 Z M 0.1875 31 " clip-rule="nonzero"/></clipPath></defs><g clip-path="url(#30dd95de2c)"><path fill="#000000" d="M 349.027344 375.058594 C 340.484375 334.957031 335.003906 294.34375 330.101562 253.675781 C 327.726562 233.976562 325.832031 214.226562 323.640625 194.515625 C 321.589844 176.148438 319.199219 157.722656 314.40625 139.84375 C 309.953125 123.230469 303.4375 106.785156 293.839844 92.4375 C 284.84375 78.992188 273.53125 67.46875 260.539062 57.851562 C 234.875 38.839844 202.054688 28.726562 170.128906 32.082031 C 165.308594 32.589844 160.53125 33.40625 155.808594 34.5 C 157.3125 34.054688 158.832031 33.644531 160.367188 33.285156 C 160.859375 33.167969 160.640625 32.5 160.15625 32.546875 C 30.28125 44.34375 -0.269531 270.210938 -3.046875 315.753906 C -3.265625 319.296875 -3.4375 322.828125 -3.5625 326.371094 C -4.539062 334.269531 -5.261719 342.191406 -5.609375 350.132812 C -5.996094 359.296875 -5.808594 368.523438 -4.964844 377.65625 C -4.09375 387.019531 -3.109375 396.621094 0.800781 405.230469 C 3.195312 410.53125 114.898438 403.269531 116.050781 397.007812 C 118.386719 384.371094 119.585938 371.328125 118.851562 358.476562 C 118.507812 352.3125 117.871094 346.195312 116.554688 340.160156 C 116.195312 338.515625 115.8125 335.421875 114.847656 332.972656 C 125.035156 313.613281 136.246094 294.808594 147.78125 276.21875 C 171.792969 237.511719 197.320312 199.523438 216.945312 158.300781 C 226.78125 137.644531 236.476562 115.707031 241.121094 93.074219 L 241.867188 93.226562 C 241.777344 93.496094 241.839844 93.832031 242.109375 94.019531 C 263.4375 108.761719 277.691406 131.101562 286.933594 155.023438 C 297.691406 182.871094 302.90625 212.945312 302.160156 242.789062 C 300.96875 290.210938 282.992188 348.816406 232.136719 363.804688 C 220.53125 367.226562 208 368.191406 196.109375 365.691406 C 190.5 364.507812 185.003906 362.6875 179.945312 359.996094 C 174.328125 357.007812 169.71875 352.777344 164.457031 349.296875 C 159.640625 346.113281 153.957031 352.320312 156.726562 357.03125 C 162.84375 367.4375 176.007812 373.800781 187.3125 376.929688 C 199.371094 380.277344 212.09375 380.433594 224.378906 378.308594 C 225.316406 378.148438 226.242188 377.96875 227.164062 377.777344 C 227.375 380.859375 228.699219 383.929688 230.855469 386.421875 C 231.820312 387.546875 233.011719 388.519531 234.34375 389.335938 C 234.515625 392.34375 236.457031 395.371094 239.609375 396.027344 C 256.445312 399.53125 326.371094 390.347656 343.1875 385.335938 C 347.703125 383.988281 349.984375 379.566406 349.027344 375.058594 " fill-opacity="1" fill-rule="evenodd"/></g><path fill="#f4d7b9" d="M 305.109375 230.453125 C 303.847656 171.621094 289.1875 106.492188 238.941406 70.136719 C 235.738281 67.816406 230.9375 68.941406 228.285156 71.589844 C 226.105469 72.015625 224.105469 73.332031 222.773438 75.757812 C 193.0625 129.988281 161.785156 183.363281 128.953125 235.765625 C 107.871094 269.648438 82.265625 303.570312 78.886719 344.640625 C 78.304688 345.417969 72.875 351.542969 76.039062 351.097656 C 77.441406 350.363281 78.871094 349.757812 80.375 349.3125 C 84.390625 355.164062 93.710938 354.246094 95.925781 347.640625 C 103.609375 347.859375 111.214844 349.824219 118.535156 352.101562 C 136.488281 357.722656 154.734375 363.277344 173.058594 367.570312 C 233.421875 383.59375 298.28125 363.210938 303.105469 292.835938 C 309.585938 283.707031 306.078125 243.019531 305.109375 230.453125 Z M 305.109375 230.453125 " fill-opacity="1" fill-rule="evenodd"/></svg>