<svg xmlns="http://www.w3.org/2000/svg" xmlns:xlink="http://www.w3.org/1999/xlink" width="473" zoomAndPan="magnify" viewBox="0 0 354.75 425.249996" height="567" preserveAspectRatio="xMidYMid meet" version="1.0"><defs><clipPath id="4a182ea325"><path d="M 0.1875 10 L 341 10 L 341 415 L 0.1875 415 Z M 0.1875 10 " clip-rule="nonzero"/></clipPath><clipPath id="4df53958a8"><path d="M 75.199219 240.195312 L 92.121094 240.195312 L 92.121094 255.699219 L 75.199219 255.699219 Z M 75.199219 240.195312 " clip-rule="nonzero"/></clipPath><clipPath id="ce9e680cf3"><path d="M 75.277344 242.59375 C 75.277344 242.59375 75.351562 242.445312 75.351562 242.367188 C 75.351562 242.292969 75.351562 242.21875 75.351562 242.21875 C 75.351562 242.21875 75.429688 242.070312 75.429688 241.996094 C 75.429688 241.917969 75.503906 241.84375 75.503906 241.84375 C 75.503906 241.84375 75.578125 241.695312 75.578125 241.695312 C 75.652344 241.621094 75.652344 241.621094 75.726562 241.546875 C 75.726562 241.546875 75.726562 241.46875 75.726562 241.394531 C 75.800781 241.394531 75.878906 241.246094 75.878906 241.246094 C 75.878906 241.246094 75.953125 241.171875 76.027344 241.097656 C 76.027344 241.019531 76.101562 240.945312 76.175781 240.945312 C 76.175781 240.945312 76.25 240.871094 76.328125 240.871094 C 76.402344 240.796875 76.476562 240.722656 76.476562 240.722656 C 76.476562 240.722656 76.625 240.722656 76.699219 240.648438 C 76.777344 240.648438 76.851562 240.570312 76.851562 240.570312 C 76.851562 240.570312 77 240.570312 77.074219 240.570312 C 77.148438 240.570312 77.300781 240.496094 77.300781 240.496094 C 77.300781 240.496094 77.449219 240.421875 77.523438 240.421875 C 77.523438 240.347656 77.675781 240.347656 77.675781 240.347656 C 77.675781 240.347656 77.824219 240.347656 77.898438 240.347656 C 77.972656 240.273438 78.125 240.273438 78.125 240.273438 C 78.125 240.273438 78.273438 240.347656 78.347656 240.347656 C 78.421875 240.347656 78.574219 240.347656 78.574219 240.347656 C 78.574219 240.347656 78.722656 240.421875 78.796875 240.421875 C 78.796875 240.496094 78.871094 240.496094 78.871094 240.496094 C 79.097656 240.570312 79.695312 240.648438 80.070312 240.722656 C 80.59375 240.796875 81.117188 240.871094 81.640625 241.097656 C 82.164062 241.246094 82.613281 241.394531 83.140625 241.621094 C 83.664062 241.917969 84.488281 242.445312 84.636719 242.519531 C 84.636719 242.59375 84.636719 242.59375 84.710938 242.59375 C 84.785156 242.667969 84.9375 242.742188 85.160156 242.816406 C 85.460938 243.117188 86.132812 243.640625 86.582031 244.015625 C 86.957031 244.316406 87.257812 244.613281 87.632812 244.914062 C 88.082031 245.214844 88.605469 245.511719 88.902344 245.8125 C 89.203125 246.113281 89.429688 246.488281 89.578125 246.636719 C 89.578125 246.636719 89.578125 246.636719 89.652344 246.710938 C 89.800781 246.859375 90.328125 247.609375 90.625 247.910156 C 90.777344 248.132812 90.851562 248.207031 91 248.433594 C 91.300781 248.882812 91.75 249.707031 91.898438 250.378906 C 92.046875 250.980469 92.125 251.800781 91.972656 252.402344 C 91.898438 252.925781 91.523438 253.675781 91.300781 253.898438 C 91.226562 253.972656 91.148438 253.972656 91.148438 254.046875 C 91.074219 254.125 91.148438 254.199219 91.074219 254.199219 C 91 254.273438 90.925781 254.273438 90.777344 254.347656 C 90.625 254.496094 90.328125 254.871094 90.027344 255.023438 C 89.800781 255.171875 89.429688 255.171875 89.128906 255.246094 C 88.828125 255.394531 88.605469 255.621094 88.304688 255.621094 C 87.855469 255.695312 87.105469 255.546875 86.65625 255.394531 C 86.359375 255.320312 85.984375 255.097656 85.910156 255.023438 C 85.835938 255.023438 85.835938 255.023438 85.835938 255.023438 C 85.835938 255.023438 85.757812 254.945312 85.757812 254.945312 C 85.683594 254.945312 85.535156 254.871094 85.308594 254.722656 C 85.085938 254.496094 84.410156 253.824219 84.261719 253.597656 C 84.1875 253.523438 84.1875 253.523438 84.1875 253.449219 C 84.039062 253.148438 83.4375 252.476562 83.214844 252.101562 C 83.140625 251.800781 83.0625 251.503906 82.988281 251.429688 C 82.988281 251.429688 82.988281 251.429688 82.988281 251.351562 C 82.914062 251.277344 82.765625 250.753906 82.691406 250.53125 C 82.613281 250.304688 82.464844 249.929688 82.390625 249.855469 C 82.316406 249.78125 82.242188 249.632812 82.242188 249.632812 C 82.242188 249.632812 81.867188 248.808594 81.792969 248.734375 C 81.792969 248.65625 81.792969 248.65625 81.714844 248.65625 C 81.640625 248.507812 81.417969 247.984375 81.191406 247.609375 C 81.042969 247.386719 80.894531 247.160156 80.59375 246.859375 C 80.21875 246.488281 79.621094 246.039062 79.171875 245.738281 C 78.722656 245.363281 77.898438 244.914062 77.824219 244.839844 C 77.824219 244.839844 77.75 244.765625 77.675781 244.765625 C 77.675781 244.691406 77.523438 244.613281 77.523438 244.613281 C 77.523438 244.613281 77.523438 244.539062 77.449219 244.464844 C 77.375 244.390625 76.851562 244.242188 76.699219 244.164062 C 76.625 244.164062 76.550781 244.164062 76.476562 244.089844 C 76.402344 244.089844 76.328125 244.089844 76.328125 244.089844 C 76.328125 244.089844 76.175781 244.015625 76.175781 244.015625 C 76.101562 243.941406 75.953125 243.867188 75.953125 243.867188 C 75.953125 243.867188 75.878906 243.792969 75.800781 243.792969 C 75.800781 243.714844 75.652344 243.640625 75.652344 243.640625 C 75.652344 243.640625 75.652344 243.492188 75.578125 243.492188 C 75.578125 243.417969 75.503906 243.34375 75.503906 243.34375 C 75.503906 243.34375 75.429688 243.191406 75.429688 243.117188 C 75.351562 243.042969 75.351562 242.96875 75.351562 242.96875 C 75.351562 242.96875 75.351562 242.816406 75.351562 242.742188 C 75.277344 242.667969 75.277344 242.59375 75.277344 242.59375 " clip-rule="nonzero"/></clipPath><clipPath id="0c3bcbf88b"><path d="M 67.484375 239.503906 L 93.105469 239.503906 L 93.105469 257.613281 L 67.484375 257.613281 Z M 67.484375 239.503906 " clip-rule="nonzero"/></clipPath><clipPath id="b6e81d5a0a"><path d="M 73.691406 241.8125 C 73.851562 240.894531 75.214844 241.5625 75.292969 241.894531 C 75.375 242.144531 75.214844 242.5625 75.054688 242.644531 C 74.574219 242.894531 72.167969 241.976562 72.085938 241.5625 C 72.007812 241.394531 72.246094 241.0625 72.488281 240.976562 C 73.128906 240.8125 75.777344 241.976562 76.097656 242.5625 C 76.257812 242.8125 76.175781 243.144531 76.015625 243.3125 C 75.535156 243.644531 72.246094 242.5625 71.925781 242.0625 C 71.765625 241.8125 71.84375 241.394531 72.007812 241.3125 C 72.246094 241.144531 72.96875 241.476562 73.609375 241.644531 C 74.332031 241.894531 76.097656 242.226562 76.335938 242.726562 C 76.496094 242.894531 76.417969 243.3125 76.257812 243.476562 C 75.777344 243.808594 72.007812 242.644531 71.925781 242.226562 C 71.84375 241.976562 72.328125 241.5625 72.726562 241.5625 C 73.53125 241.394531 76.496094 242.5625 76.816406 243.144531 C 76.976562 243.394531 76.976562 243.808594 76.816406 243.894531 C 76.335938 244.226562 72.566406 243.0625 72.167969 242.476562 C 72.007812 242.226562 72.007812 241.8125 72.167969 241.644531 C 72.328125 241.476562 72.96875 241.644531 73.53125 241.8125 C 74.8125 242.226562 78.824219 243.808594 79.0625 244.558594 C 79.144531 244.894531 78.984375 245.308594 78.664062 245.394531 C 77.941406 245.644531 73.371094 242.976562 73.371094 242.5625 C 73.449219 242.3125 74.332031 242.144531 74.972656 242.3125 C 76.175781 242.5625 78.421875 244.226562 79.945312 245.976562 C 82.03125 248.140625 84.035156 253.472656 85.71875 255.140625 C 86.601562 256.058594 87.40625 256.640625 88.285156 256.722656 C 89.167969 256.722656 90.691406 255.722656 91.253906 254.972656 C 91.816406 254.390625 91.976562 253.640625 92.058594 252.890625 C 92.058594 252.140625 91.894531 251.390625 91.496094 250.558594 C 90.773438 249.058594 89.007812 246.894531 87.40625 245.394531 C 85.882812 243.976562 82.03125 242.3125 82.191406 241.726562 C 82.191406 241.476562 83.074219 241.394531 83.554688 241.476562 C 84.277344 241.644531 85.160156 242.3125 85.960938 243.0625 C 87.085938 244.058594 89.328125 247.058594 89.25 247.144531 C 89.089844 247.308594 84.917969 244.058594 84.679688 243.226562 C 84.679688 242.976562 84.839844 242.5625 85.078125 242.5625 C 85.320312 242.394531 86.042969 242.976562 86.601562 243.3125 C 87.484375 243.976562 89.25 245.308594 89.570312 246.144531 C 89.730469 246.558594 89.652344 247.144531 89.488281 247.226562 C 88.847656 247.476562 83.875 243.3125 83.796875 242.394531 C 83.714844 242.144531 84.035156 241.8125 84.277344 241.726562 C 84.839844 241.644531 86.042969 242.476562 86.84375 243.226562 C 87.804688 244.144531 89.652344 247.058594 89.488281 247.144531 C 89.328125 247.394531 85.398438 244.476562 85.320312 243.726562 C 85.320312 243.394531 85.558594 243.0625 85.882812 243.0625 C 86.523438 242.894531 88.6875 244.644531 89.652344 245.726562 C 90.53125 246.726562 91.734375 248.558594 91.65625 249.226562 C 91.65625 249.558594 91.175781 249.890625 91.175781 249.890625 C 91.175781 249.890625 91.65625 249.140625 91.65625 249.140625 C 91.65625 249.058594 91.253906 249.808594 91.015625 249.726562 C 90.371094 249.640625 89.730469 247.226562 88.609375 245.976562 C 87.164062 244.476562 82.753906 242.144531 82.832031 241.8125 C 82.914062 241.644531 84.839844 242.0625 85.71875 242.5625 C 86.683594 243.144531 87.644531 244.058594 88.449219 245.144531 C 89.328125 246.394531 90.855469 249.476562 90.773438 249.476562 C 90.691406 249.558594 88.527344 246.894531 88.609375 246.308594 C 88.6875 245.976562 89.007812 245.726562 89.328125 245.808594 C 89.890625 245.894531 91.253906 248.058594 91.816406 248.976562 C 92.21875 249.558594 92.699219 250.308594 92.539062 250.640625 C 92.539062 250.890625 92.136719 251.226562 91.894531 251.140625 C 91.253906 251.058594 89.410156 247.644531 89.410156 246.894531 C 89.410156 246.558594 89.730469 246.308594 89.890625 246.226562 C 90.132812 246.226562 90.453125 246.558594 90.691406 246.894531 C 91.175781 247.476562 92.136719 249.890625 91.976562 250.058594 C 91.734375 250.140625 89.488281 247.890625 89.488281 247.226562 C 89.410156 246.976562 89.652344 246.644531 89.8125 246.644531 C 90.050781 246.558594 90.453125 246.808594 90.773438 247.226562 C 91.496094 248.058594 93.179688 251.058594 93.097656 252.558594 C 93.019531 253.722656 92.136719 254.890625 91.253906 255.558594 C 90.210938 256.304688 88.046875 256.640625 87.003906 256.554688 C 86.441406 256.472656 86.042969 256.304688 85.640625 255.972656 C 85.160156 255.472656 84.839844 254.722656 84.679688 253.808594 C 84.355469 252.640625 84.117188 249.976562 84.515625 249.308594 C 84.679688 249.058594 85.078125 248.976562 85.320312 249.058594 C 85.71875 249.226562 86.441406 250.976562 86.363281 251.058594 C 86.042969 251.308594 80.988281 243.976562 78.421875 242.5625 C 76.65625 241.644531 73.207031 242.144531 73.128906 241.726562 C 73.046875 241.476562 73.929688 240.894531 74.492188 240.8125 C 75.375 240.5625 78.179688 241.226562 78.179688 241.394531 C 78.179688 241.5625 71.765625 241.8125 71.683594 241.476562 C 71.605469 241.3125 73.929688 240.394531 74.972656 240.3125 C 76.015625 240.144531 77.699219 240.394531 78.019531 240.8125 C 78.179688 240.976562 78.179688 241.394531 78.019531 241.644531 C 77.539062 242.144531 73.128906 241.976562 72.566406 241.476562 C 72.40625 241.3125 72.40625 240.894531 72.566406 240.726562 C 72.808594 240.394531 73.769531 240.226562 74.652344 240.144531 C 75.9375 240.144531 79.144531 240.644531 79.625 241.226562 C 79.867188 241.476562 79.867188 241.894531 79.707031 242.0625 C 79.222656 242.644531 73.371094 241.976562 72.726562 241.3125 C 72.566406 241.0625 72.566406 240.726562 72.726562 240.476562 C 73.128906 240.144531 74.734375 239.976562 75.777344 239.976562 C 76.898438 240.0625 78.984375 240.3125 79.382812 240.8125 C 79.546875 240.976562 79.625 241.394531 79.464844 241.5625 C 79.0625 242.0625 74.332031 241.894531 73.769531 241.3125 C 73.53125 241.144531 73.53125 240.726562 73.691406 240.5625 C 73.929688 240.144531 75.214844 239.976562 76.097656 239.976562 C 77.058594 239.976562 78.984375 240.226562 79.304688 240.644531 C 79.464844 240.8125 79.464844 241.226562 79.222656 241.476562 C 78.664062 241.976562 73.929688 241.8125 73.371094 241.3125 C 73.207031 241.0625 73.207031 240.726562 73.371094 240.476562 C 73.609375 240.144531 74.734375 240.0625 75.535156 240.0625 C 76.496094 239.976562 78.101562 239.976562 78.742188 240.3125 C 79.0625 240.476562 79.464844 240.976562 79.382812 241.144531 C 79.144531 241.644531 73.371094 241.476562 72.808594 240.8125 C 72.566406 240.644531 72.566406 240.226562 72.726562 240.0625 C 73.046875 239.644531 74.410156 239.5625 75.453125 239.5625 C 76.898438 239.5625 80.585938 240.226562 80.828125 240.8125 C 80.910156 240.976562 80.746094 241.394531 80.425781 241.476562 C 79.707031 241.8125 75.375 240.644531 75.375 240.476562 C 75.375 240.3125 77.859375 240.3125 78.902344 240.394531 C 79.785156 240.5625 81.070312 240.8125 81.308594 241.144531 C 81.390625 241.394531 81.308594 241.8125 81.070312 241.976562 C 80.347656 242.394531 76.976562 241.144531 74.972656 241.144531 C 73.207031 241.144531 70.320312 242.3125 69.761719 241.8125 C 69.519531 241.644531 69.519531 241.144531 69.679688 240.894531 C 70.160156 240.394531 74.410156 240.894531 75.132812 241.394531 C 75.453125 241.5625 75.613281 241.894531 75.613281 242.0625 C 75.535156 242.3125 75.132812 242.394531 74.652344 242.476562 C 73.609375 242.5625 69.039062 241.394531 69.039062 241.3125 C 69.039062 241.226562 74.25 241.3125 74.652344 241.894531 C 74.894531 242.144531 74.8125 242.5625 74.574219 242.726562 C 74.089844 243.226562 70.242188 242.894531 69.839844 242.394531 C 69.679688 242.226562 69.839844 241.726562 70 241.5625 C 70.320312 241.3125 71.605469 241.8125 72.488281 241.976562 C 73.449219 242.144531 75.214844 242.394531 75.535156 242.8125 C 75.695312 243.0625 75.535156 243.644531 75.535156 243.644531 C 75.535156 243.644531 75.535156 242.8125 75.535156 242.8125 C 75.453125 242.8125 75.453125 243.5625 75.132812 243.726562 C 74.652344 243.894531 72.488281 242.726562 72.167969 242.144531 C 72.007812 241.8125 72.007812 241.3125 72.328125 241.144531 C 73.046875 240.644531 79.707031 243.5625 80.1875 244.558594 C 80.265625 244.808594 80.1875 245.226562 79.945312 245.394531 C 79.304688 245.726562 75.855469 243.0625 73.851562 242.476562 C 71.925781 241.894531 68.636719 242.394531 68.238281 241.894531 C 68.15625 241.644531 68.238281 241.3125 68.476562 241.0625 C 69.039062 240.5625 71.84375 240.476562 73.128906 240.394531 C 74.089844 240.394531 75.292969 240.144531 75.535156 240.476562 C 75.777344 240.644531 75.777344 241.144531 75.535156 241.3125 C 75.054688 241.894531 70.242188 241.644531 70.242188 241.394531 C 70.242188 241.226562 74.734375 239.5625 75.292969 239.976562 C 75.453125 240.144531 75.453125 240.644531 75.292969 240.894531 C 74.734375 241.476562 70.320312 242.226562 69.761719 241.8125 C 69.519531 241.644531 69.519531 241.226562 69.679688 240.976562 C 70 240.476562 71.683594 240.144531 72.648438 239.976562 C 73.449219 239.894531 74.652344 239.644531 74.972656 239.976562 C 75.132812 240.144531 75.214844 240.5625 75.054688 240.8125 C 74.574219 241.476562 69.277344 241.726562 69.199219 241.5625 C 69.199219 241.394531 71.84375 240.394531 73.046875 240.3125 C 74.25 240.226562 76.097656 240.5625 76.578125 241.0625 C 76.898438 241.3125 77.058594 241.8125 76.898438 242.0625 C 76.417969 242.726562 68.957031 242.144531 68.957031 241.894531 C 68.878906 241.726562 70.320312 241.3125 71.042969 241.226562 C 71.84375 241.226562 73.128906 241.226562 73.371094 241.5625 C 73.53125 241.726562 73.609375 242.226562 73.371094 242.394531 C 72.96875 242.894531 70.082031 242.644531 69.039062 242.476562 C 68.398438 242.3125 67.515625 242.0625 67.515625 241.894531 C 67.515625 241.644531 68.316406 241.394531 68.957031 241.226562 C 69.921875 241.0625 72.167969 240.976562 72.726562 241.394531 C 72.886719 241.5625 73.046875 241.894531 72.96875 242.144531 C 72.648438 242.5625 68.316406 243.0625 67.914062 242.5625 C 67.753906 242.394531 67.835938 241.8125 68.074219 241.5625 C 68.476562 241.144531 69.839844 241.0625 70.882812 241.0625 C 71.925781 241.0625 74.011719 241.0625 74.332031 241.5625 C 74.574219 241.726562 74.574219 242.226562 74.332031 242.476562 C 73.769531 242.976562 69.039062 242.8125 68.316406 242.3125 C 68.074219 242.144531 67.996094 241.8125 68.074219 241.5625 C 68.238281 241.0625 69.921875 240.5625 71.125 240.3125 C 72.40625 240.0625 74.089844 239.976562 75.695312 240.226562 C 77.460938 240.5625 79.707031 241.3125 81.070312 242.226562 C 82.191406 242.976562 83.234375 244.976562 83.554688 244.894531 C 83.636719 244.808594 83.636719 244.144531 83.636719 244.144531 C 83.554688 244.144531 83.554688 244.808594 83.316406 244.894531 C 82.832031 245.058594 81.46875 243.226562 80.265625 242.644531 C 78.984375 241.976562 77.21875 241.476562 75.695312 241.226562 C 74.171875 240.976562 72.488281 240.976562 71.203125 241.226562 C 70.160156 241.394531 68.878906 242.476562 68.398438 242.3125 C 68.15625 242.226562 67.996094 241.726562 68.15625 241.476562 C 68.476562 240.976562 72.808594 241.144531 73.851562 241.394531 C 74.25 241.476562 74.652344 241.644531 74.652344 241.8125 C 74.734375 241.976562 74.492188 242.3125 74.25 242.476562 C 73.371094 242.894531 68.398438 243.144531 67.914062 242.5625 C 67.753906 242.394531 67.835938 241.894531 67.996094 241.726562 C 68.558594 241.226562 72.085938 240.894531 72.566406 241.394531 C 72.808594 241.5625 72.808594 242.144531 72.566406 242.3125 C 72.085938 242.8125 67.515625 242.0625 67.515625 241.894531 C 67.515625 241.726562 71.605469 241.3125 72.648438 241.394531 C 73.046875 241.476562 73.449219 241.5625 73.53125 241.726562 C 73.609375 241.894531 73.449219 242.3125 73.207031 242.476562 C 72.566406 242.8125 69.277344 242.8125 68.71875 242.3125 C 68.476562 241.976562 68.476562 241.3125 68.71875 240.976562 C 69.4375 240.226562 74.171875 240.726562 75.535156 240.894531 C 76.257812 240.976562 76.898438 241.0625 77.058594 241.3125 C 77.140625 241.476562 77.058594 241.894531 76.816406 242.0625 C 76.257812 242.3125 74.492188 241.3125 73.289062 241.226562 C 72.007812 241.0625 69.519531 241.894531 69.199219 241.5625 C 69.117188 241.394531 69.277344 241.0625 69.519531 240.8125 C 70.160156 240.3125 73.128906 239.976562 74.171875 239.976562 C 74.574219 239.976562 75.054688 239.894531 75.132812 240.0625 C 75.292969 240.226562 75.214844 240.644531 74.972656 240.894531 C 74.332031 241.394531 69.519531 241.394531 69.519531 241.226562 C 69.519531 241.0625 74.734375 239.5625 75.292969 239.976562 C 75.453125 240.144531 75.453125 240.644531 75.292969 240.894531 C 74.8125 241.394531 70.242188 241.5625 70.242188 241.394531 C 70.242188 241.3125 73.449219 240.476562 74.410156 240.394531 C 74.972656 240.394531 75.613281 240.3125 75.777344 240.5625 C 75.855469 240.726562 75.777344 241.144531 75.535156 241.3125 C 74.8125 241.976562 68.636719 242.394531 68.238281 241.894531 C 68.15625 241.644531 68.316406 241.226562 68.558594 241.0625 C 69.277344 240.644531 72.007812 241.226562 73.769531 241.644531 C 75.535156 242.0625 78.019531 243.226562 79.144531 243.894531 C 79.707031 244.144531 80.1875 244.394531 80.265625 244.726562 C 80.347656 244.894531 80.1875 245.226562 79.945312 245.394531 C 79.0625 245.726562 73.046875 243.226562 72.328125 242.144531 C 72.085938 241.8125 72.085938 241.226562 72.328125 241.144531 C 72.648438 240.894531 75.453125 242.3125 75.613281 242.894531 C 75.695312 243.144531 75.132812 243.726562 75.132812 243.726562 C 75.132812 243.726562 75.535156 242.894531 75.613281 242.894531 C 75.695312 242.894531 75.695312 243.476562 75.535156 243.644531 C 74.972656 244.058594 70.320312 243.0625 69.839844 242.394531 C 69.679688 242.144531 69.761719 241.726562 70 241.5625 C 70.5625 241.144531 74.332031 241.394531 74.652344 241.894531 C 74.8125 242.0625 74.734375 242.5625 74.492188 242.726562 C 73.851562 243.144531 69.039062 241.5625 69.039062 241.3125 C 69.039062 241.0625 74.8125 240.894531 75.292969 241.476562 C 75.453125 241.726562 75.375 242.226562 75.214844 242.394531 C 74.574219 242.894531 70.160156 242.394531 69.679688 241.8125 C 69.4375 241.5625 69.4375 241.144531 69.679688 240.894531 C 70.402344 240.144531 77.21875 240.476562 79.222656 240.644531 C 80.1875 240.8125 81.148438 240.894531 81.308594 241.144531 C 81.390625 241.394531 81.070312 241.976562 81.070312 241.976562 C 80.988281 241.894531 81.230469 241.0625 81.230469 241.0625 C 81.230469 241.0625 81.308594 241.726562 81.070312 241.894531 C 80.425781 242.3125 75.375 240.8125 75.453125 240.5625 C 75.453125 240.394531 79.945312 239.976562 80.507812 240.476562 C 80.667969 240.726562 80.347656 241.476562 80.425781 241.476562 C 80.507812 241.5625 80.828125 240.726562 80.828125 240.8125 C 80.828125 240.8125 80.746094 241.3125 80.425781 241.476562 C 79.546875 241.976562 72.566406 240.394531 72.566406 240.144531 C 72.566406 239.976562 77.378906 239.5625 78.421875 240.144531 C 78.902344 240.394531 79.304688 241.0625 79.222656 241.3125 C 78.902344 241.8125 73.289062 241.394531 73.207031 241.144531 C 73.207031 240.976562 76.175781 240.144531 77.300781 240.144531 C 78.101562 240.144531 79.0625 240.3125 79.304688 240.644531 C 79.382812 240.894531 79.144531 241.476562 79.144531 241.476562 C 79.144531 241.476562 79.304688 240.644531 79.304688 240.644531 C 79.304688 240.644531 79.382812 241.226562 79.144531 241.476562 C 78.582031 241.976562 74.011719 241.8125 73.609375 241.226562 C 73.53125 241.0625 73.609375 240.644531 73.851562 240.476562 C 74.410156 240.0625 77.621094 240.476562 78.582031 240.644531 C 79.0625 240.726562 79.464844 240.726562 79.546875 240.894531 C 79.625 241.0625 79.546875 241.476562 79.304688 241.644531 C 78.503906 242.144531 72.96875 241.726562 72.648438 241.144531 C 72.488281 240.976562 72.648438 240.644531 72.886719 240.476562 C 73.449219 240.0625 76.097656 240.3125 77.300781 240.5625 C 78.261719 240.644531 79.464844 240.894531 79.707031 241.3125 C 79.867188 241.476562 79.867188 241.894531 79.625 242.0625 C 78.984375 242.644531 73.128906 242.144531 72.566406 241.476562 C 72.40625 241.226562 72.488281 240.8125 72.726562 240.644531 C 73.207031 240.226562 75.613281 240.5625 76.65625 240.644531 C 77.21875 240.644531 77.941406 240.5625 78.101562 240.8125 C 78.261719 240.976562 78.179688 241.476562 77.941406 241.644531 C 77.21875 242.144531 71.683594 241.644531 71.683594 241.476562 C 71.683594 241.394531 76.578125 240.476562 77.21875 240.976562 C 77.539062 241.144531 77.621094 241.644531 77.539062 241.894531 C 77.21875 242.3125 73.769531 242.3125 73.371094 241.8125 C 73.207031 241.644531 73.449219 240.976562 73.449219 240.976562 C 73.449219 240.976562 73.289062 241.894531 73.289062 241.894531 C 73.289062 241.894531 73.207031 241.144531 73.449219 240.976562 C 73.769531 240.644531 74.894531 240.8125 75.777344 240.976562 C 77.058594 241.226562 78.664062 241.726562 80.1875 242.894531 C 82.351562 244.476562 86.363281 249.058594 86.921875 250.558594 C 87.085938 250.976562 87.085938 251.476562 86.921875 251.558594 C 86.761719 251.726562 86.441406 251.640625 86.203125 251.558594 C 85.640625 251.226562 84.277344 249.808594 84.4375 249.476562 C 84.4375 249.226562 85.160156 248.976562 85.320312 249.140625 C 85.800781 249.476562 85.160156 252.472656 85.558594 253.640625 C 85.882812 254.472656 86.363281 255.308594 87.003906 255.558594 C 87.804688 255.890625 89.089844 255.640625 89.972656 255.222656 C 90.855469 254.808594 91.894531 254.058594 92.21875 253.140625 C 92.457031 252.222656 91.734375 250.558594 91.253906 249.558594 C 90.773438 248.558594 89.328125 247.476562 89.410156 247.058594 C 89.488281 246.808594 89.890625 246.644531 90.132812 246.726562 C 90.691406 246.894531 92.378906 248.890625 92.296875 249.476562 C 92.296875 249.726562 91.816406 249.976562 91.574219 249.890625 C 91.015625 249.726562 89.488281 246.394531 89.570312 246.394531 C 89.652344 246.308594 92.699219 250.058594 92.539062 250.640625 C 92.539062 250.976562 92.136719 251.140625 91.816406 251.058594 C 91.09375 250.890625 88.527344 247.226562 88.6875 246.394531 C 88.6875 246.058594 89.007812 245.726562 89.328125 245.808594 C 89.8125 245.808594 91.09375 248.140625 91.335938 248.976562 C 91.496094 249.390625 91.496094 249.976562 91.335938 250.058594 C 91.253906 250.226562 90.855469 250.058594 90.53125 249.808594 C 89.8125 249.308594 89.007812 247.058594 87.804688 245.808594 C 86.601562 244.476562 83.476562 243.144531 83.234375 242.3125 C 83.152344 242.0625 83.316406 241.644531 83.554688 241.5625 C 84.195312 241.394531 87.644531 243.894531 89.007812 245.144531 C 89.972656 246.058594 90.855469 247.144531 91.175781 248.058594 C 91.414062 248.640625 91.414062 249.808594 91.253906 249.890625 C 91.015625 249.976562 90.132812 247.558594 89.167969 246.558594 C 88.207031 245.476562 85.398438 244.308594 85.320312 243.726562 C 85.320312 243.394531 85.960938 243.0625 85.960938 243.0625 C 85.960938 243.0625 85.320312 243.644531 85.320312 243.644531 C 85.238281 243.644531 85.558594 243.0625 85.882812 243.0625 C 86.363281 242.976562 87.644531 244.226562 88.367188 244.894531 C 88.929688 245.394531 89.8125 246.144531 89.8125 246.558594 C 89.8125 246.808594 89.488281 247.144531 89.167969 247.144531 C 88.285156 247.144531 83.957031 243.394531 83.875 242.476562 C 83.796875 242.144531 84.4375 241.8125 84.355469 241.8125 C 84.355469 241.726562 83.796875 242.476562 83.796875 242.394531 C 83.796875 242.394531 83.957031 241.8125 84.195312 241.726562 C 84.515625 241.644531 85.160156 242.0625 85.800781 242.476562 C 86.921875 243.394531 89.890625 247.058594 89.730469 247.226562 C 89.570312 247.394531 84.757812 244.058594 84.679688 243.226562 C 84.679688 242.976562 85 242.644531 85.238281 242.5625 C 85.882812 242.476562 87.804688 244.058594 88.527344 245.058594 C 89.167969 245.894531 89.8125 247.726562 89.570312 247.890625 C 89.007812 248.308594 82.273438 242.976562 82.191406 241.976562 C 82.191406 241.644531 82.511719 241.3125 82.832031 241.3125 C 83.714844 241.226562 86.84375 243.644531 88.449219 245.058594 C 89.8125 246.394531 91.09375 247.976562 91.894531 249.390625 C 92.457031 250.390625 92.9375 251.390625 92.9375 252.472656 C 92.9375 253.640625 92.457031 255.222656 91.65625 256.058594 C 90.855469 256.972656 89.25 257.640625 88.125 257.554688 C 87.003906 257.472656 86.042969 256.640625 85 255.640625 C 83.234375 253.808594 81.628906 248.976562 79.546875 246.726562 C 77.699219 244.808594 73.371094 243.3125 73.371094 242.5625 C 73.371094 242.3125 73.851562 242.0625 74.25 242.0625 C 75.214844 241.976562 78.824219 243.894531 79.0625 244.558594 C 79.144531 244.894531 78.984375 245.308594 78.664062 245.394531 C 77.859375 245.726562 72.566406 243.3125 72.167969 242.476562 C 72.007812 242.144531 72.085938 241.8125 72.328125 241.644531 C 72.886719 241.3125 76.417969 242.5625 76.816406 243.144531 C 76.976562 243.394531 76.976562 243.808594 76.816406 243.894531 C 76.335938 244.226562 72.085938 242.8125 71.925781 242.226562 C 71.84375 241.976562 72.085938 241.644531 72.40625 241.476562 C 73.046875 241.226562 76.015625 242.144531 76.335938 242.726562 C 76.496094 242.894531 76.417969 243.394531 76.257812 243.476562 C 75.777344 243.808594 72.167969 242.644531 71.925781 242.0625 C 71.765625 241.8125 71.925781 241.394531 72.085938 241.3125 C 72.648438 240.976562 75.777344 241.976562 76.097656 242.5625 C 76.257812 242.726562 76.175781 243.226562 76.015625 243.3125 C 75.535156 243.5625 72.007812 241.8125 72.085938 241.5625 C 72.085938 241.394531 75.292969 241.726562 75.375 241.976562 C 75.375 242.0625 74.734375 242.476562 74.410156 242.394531 C 74.089844 242.226562 73.769531 240.976562 73.691406 240.976562 C 73.609375 240.976562 73.691406 241.8125 73.691406 241.8125 " clip-rule="nonzero"/></clipPath><clipPath id="69f287b5a0"><path d="M 77.632812 240.382812 L 92.242188 240.382812 L 92.242188 256.910156 L 77.632812 256.910156 Z M 77.632812 240.382812 " clip-rule="nonzero"/></clipPath><clipPath id="b1d098b41e"><path d="M 87.03125 249.183594 C 89.652344 253 89.429688 253.226562 89.203125 253.226562 C 88.679688 253.226562 86.507812 250.902344 86.507812 250.902344 C 86.507812 250.902344 88.902344 252.851562 88.902344 252.851562 C 88.902344 252.851562 88.082031 251.800781 87.855469 251.878906 C 87.632812 251.953125 87.40625 252.699219 87.480469 253.074219 C 87.632812 253.449219 88.453125 254.046875 88.605469 253.972656 C 88.679688 253.898438 88.304688 252.550781 88.082031 252.476562 C 87.855469 252.476562 87.332031 252.851562 87.257812 253.148438 C 87.257812 253.523438 88.230469 254.796875 88.53125 254.796875 C 88.828125 254.796875 89.277344 254.125 89.203125 253.972656 C 89.128906 253.898438 88.15625 253.972656 88.082031 254.199219 C 87.929688 254.421875 88.230469 255.097656 88.53125 255.320312 C 88.753906 255.472656 89.351562 255.621094 89.503906 255.472656 C 89.652344 255.320312 89.578125 254.722656 89.429688 254.574219 C 89.277344 254.347656 88.378906 254.273438 88.230469 254.421875 C 88.15625 254.574219 88.53125 255.546875 88.679688 255.546875 C 88.828125 255.546875 89.203125 254.945312 89.128906 254.796875 C 88.980469 254.496094 87.183594 254.273438 87.183594 254.347656 C 87.105469 254.496094 88.753906 255.472656 88.753906 255.546875 C 88.753906 255.546875 87.707031 254.796875 87.632812 254.871094 C 87.632812 254.945312 88.53125 255.769531 88.453125 255.84375 C 88.453125 255.921875 87.632812 255.546875 87.632812 255.546875 C 87.632812 255.546875 88.902344 255.621094 88.980469 255.84375 C 89.054688 255.996094 88.53125 256.667969 88.378906 256.59375 C 88.230469 256.59375 88.003906 255.621094 88.15625 255.246094 C 88.453125 254.722656 90.175781 254.574219 90.476562 254.125 C 90.625 253.898438 90.402344 253.300781 90.476562 253.300781 C 90.550781 253.226562 90.851562 254.046875 91 254.046875 C 91.226562 253.972656 91.824219 252.699219 91.675781 252.027344 C 91.300781 250.902344 88.453125 249.554688 87.480469 248.582031 C 86.808594 247.984375 85.984375 247.386719 85.984375 246.9375 C 85.984375 246.710938 86.433594 246.410156 86.433594 246.410156 C 86.433594 246.410156 85.984375 247.085938 85.984375 247.085938 C 86.058594 247.085938 86.285156 246.488281 86.507812 246.488281 C 86.734375 246.488281 87.480469 247.460938 87.40625 247.835938 C 87.40625 248.132812 87.105469 248.507812 86.734375 248.65625 C 86.132812 248.808594 83.960938 247.386719 83.664062 247.683594 C 83.363281 247.984375 84.5625 249.929688 84.410156 250.003906 C 84.1875 250.15625 81.867188 247.609375 81.867188 247.011719 C 81.941406 246.785156 82.316406 246.5625 82.464844 246.5625 C 82.839844 246.710938 83.738281 249.855469 83.511719 249.929688 C 83.289062 250.082031 80.59375 246.261719 80.59375 246.261719 C 80.667969 246.1875 83.0625 248.359375 83.0625 248.957031 C 83.0625 249.183594 82.839844 249.480469 82.613281 249.480469 C 82.089844 249.480469 79.320312 245.214844 79.695312 244.765625 C 80.070312 244.390625 84.410156 247.011719 84.488281 246.859375 C 84.636719 246.5625 79.246094 243.34375 79.472656 242.816406 C 79.546875 242.519531 80.445312 242.519531 81.117188 242.667969 C 82.164062 242.894531 84.9375 244.390625 85.011719 244.839844 C 85.085938 245.0625 84.785156 245.363281 84.5625 245.363281 C 83.664062 245.4375 78.125 241.621094 78.273438 241.246094 C 78.347656 240.945312 80.59375 241.394531 81.640625 241.769531 C 82.613281 242.144531 84.1875 242.96875 84.410156 243.417969 C 84.488281 243.714844 84.410156 244.015625 84.1875 244.164062 C 83.589844 244.390625 79.394531 242.21875 79.246094 241.546875 C 79.246094 241.320312 79.695312 240.945312 79.996094 240.871094 C 80.292969 240.796875 80.742188 241.097656 81.34375 241.394531 C 82.089844 241.769531 84.039062 242.445312 84.261719 242.96875 C 84.410156 243.191406 84.335938 243.640625 84.113281 243.714844 C 83.589844 243.941406 79.320312 241.171875 79.394531 240.871094 C 79.472656 240.648438 81.042969 240.871094 81.867188 241.171875 C 82.839844 241.46875 84.488281 242.21875 84.636719 242.667969 C 84.710938 242.894531 84.636719 243.34375 84.335938 243.417969 C 83.738281 243.640625 79.84375 241.546875 79.769531 241.019531 C 79.769531 240.722656 80.292969 240.496094 80.667969 240.421875 C 81.265625 240.347656 82.242188 240.871094 83.0625 241.246094 C 83.886719 241.695312 85.386719 242.367188 85.535156 242.816406 C 85.609375 242.96875 85.460938 243.265625 85.234375 243.417969 C 84.5625 243.714844 80.144531 242.21875 80.070312 241.695312 C 79.996094 241.46875 80.445312 241.019531 80.816406 240.945312 C 81.566406 240.796875 83.140625 241.546875 84.261719 242.292969 C 85.683594 243.117188 88.230469 245.214844 88.53125 246.1875 C 88.679688 246.636719 88.605469 247.085938 88.304688 247.234375 C 87.332031 247.757812 77.675781 242.519531 77.75 242.367188 C 77.824219 242.292969 80.144531 242.96875 81.265625 243.566406 C 82.691406 244.242188 85.386719 245.960938 85.535156 246.5625 C 85.609375 246.785156 85.386719 247.085938 85.160156 247.160156 C 84.488281 247.308594 79.695312 243.640625 79.84375 243.34375 C 79.921875 243.117188 81.34375 243.417969 82.164062 243.792969 C 83.511719 244.316406 86.433594 246.113281 86.808594 246.859375 C 86.882812 247.085938 86.808594 247.460938 86.65625 247.535156 C 86.285156 247.609375 83.886719 245.4375 83.886719 244.914062 C 83.8125 244.765625 84.113281 244.464844 84.261719 244.464844 C 84.785156 244.539062 86.734375 248.507812 86.65625 248.582031 C 86.582031 248.582031 83.738281 245.511719 83.8125 244.914062 C 83.8125 244.691406 84.039062 244.464844 84.261719 244.464844 C 84.785156 244.539062 86.808594 247.308594 86.65625 247.535156 C 86.359375 247.757812 79.921875 244.015625 79.84375 243.34375 C 79.84375 243.117188 80.070312 242.96875 80.292969 242.894531 C 81.042969 242.894531 85.386719 245.8125 85.535156 246.5625 C 85.609375 246.785156 85.460938 247.085938 85.160156 247.160156 C 84.335938 247.308594 77.523438 243.117188 77.675781 242.667969 C 77.824219 242.367188 80.667969 242.816406 82.316406 243.34375 C 84.335938 244.015625 88.753906 245.960938 88.828125 246.636719 C 88.828125 246.859375 88.53125 247.234375 88.230469 247.234375 C 87.480469 247.234375 85.609375 244.089844 84.1875 243.117188 C 82.839844 242.292969 80.070312 242.070312 80.070312 241.695312 C 79.996094 241.46875 80.816406 241.019531 81.417969 241.019531 C 82.316406 240.945312 84.710938 241.917969 85.085938 242.519531 C 85.308594 242.816406 85.234375 243.265625 85.011719 243.417969 C 84.488281 243.714844 79.769531 240.722656 79.769531 240.648438 C 79.84375 240.570312 84.488281 242.070312 84.636719 242.667969 C 84.710938 242.894531 84.488281 243.265625 84.1875 243.34375 C 83.511719 243.492188 79.921875 240.722656 79.921875 240.722656 C 79.921875 240.648438 84.039062 242.292969 84.261719 242.96875 C 84.335938 243.191406 84.1875 243.566406 83.886719 243.640625 C 83.289062 243.867188 79.695312 241.695312 79.769531 241.546875 C 79.769531 241.46875 82.914062 242.445312 83.738281 242.96875 C 84.113281 243.191406 84.5625 243.417969 84.5625 243.640625 C 84.5625 243.867188 84.335938 244.089844 84.113281 244.164062 C 83.289062 244.242188 78.722656 241.171875 78.722656 241.246094 C 78.722656 241.246094 84.9375 244.164062 85.011719 244.839844 C 85.085938 245.0625 84.785156 245.363281 84.5625 245.363281 C 83.8125 245.4375 80.070312 242.519531 79.996094 242.59375 C 79.921875 242.742188 84.9375 246.039062 84.9375 246.785156 C 84.9375 247.085938 84.5625 247.386719 84.1875 247.460938 C 83.363281 247.535156 80.292969 245.0625 80.144531 245.289062 C 79.921875 245.589844 83.363281 248.433594 83.363281 249.183594 C 83.363281 249.480469 82.988281 249.855469 82.765625 249.78125 C 82.242188 249.78125 80.519531 246.335938 80.59375 246.261719 C 80.742188 246.113281 83.8125 248.734375 83.886719 249.332031 C 83.886719 249.632812 83.664062 249.929688 83.511719 249.929688 C 83.140625 249.929688 81.792969 247.535156 81.867188 247.011719 C 81.941406 246.785156 82.242188 246.5625 82.464844 246.5625 C 82.988281 246.710938 84.410156 250.003906 84.410156 250.003906 C 84.410156 250.003906 82.613281 247.757812 82.839844 247.386719 C 83.140625 246.9375 86.207031 248.285156 86.582031 247.835938 C 86.882812 247.609375 86.207031 246.488281 86.433594 246.410156 C 86.882812 246.1875 91.449219 250.378906 91.898438 251.578125 C 92.125 252.101562 91.972656 252.851562 91.824219 252.925781 C 91.597656 253 90.777344 252.027344 90.851562 251.878906 C 90.851562 251.726562 91.898438 251.726562 92.046875 251.953125 C 92.199219 252.175781 91.75 253.375 91.523438 253.375 C 91.300781 253.449219 90.777344 252.476562 90.851562 252.328125 C 90.925781 252.101562 91.898438 252.175781 92.046875 252.402344 C 92.347656 252.699219 92.125 254.046875 91.824219 254.125 C 91.597656 254.273438 90.625 253.675781 90.625 253.375 C 90.550781 253.074219 91.300781 252.25 91.523438 252.328125 C 91.75 252.402344 92.046875 253.972656 91.824219 254.347656 C 91.597656 254.648438 90.699219 254.796875 90.476562 254.648438 C 90.175781 254.347656 90.402344 252.550781 90.699219 252.402344 C 90.925781 252.328125 92.046875 253.375 91.972656 253.75 C 91.898438 254.199219 90.476562 254.945312 90.175781 254.796875 C 89.878906 254.574219 90.027344 252.625 90.25 252.550781 C 90.476562 252.476562 91.597656 253.675781 91.449219 254.046875 C 91.375 254.421875 89.800781 254.945312 89.503906 254.722656 C 89.277344 254.574219 89.429688 253.074219 89.800781 252.851562 C 90.027344 252.699219 90.699219 252.851562 90.851562 253.148438 C 91.074219 253.375 91.148438 254.046875 90.925781 254.421875 C 90.699219 254.871094 89.351562 255.546875 88.980469 255.394531 C 88.679688 255.246094 88.53125 253.972656 88.753906 253.675781 C 88.902344 253.449219 89.503906 253.375 89.800781 253.523438 C 90.027344 253.675781 90.402344 254.125 90.402344 254.496094 C 90.328125 254.945312 89.277344 255.84375 88.828125 255.996094 C 88.453125 255.996094 87.929688 255.769531 87.78125 255.472656 C 87.632812 255.246094 87.707031 254.648438 87.855469 254.496094 C 88.082031 254.347656 88.902344 254.574219 89.128906 254.796875 C 89.429688 255.097656 89.652344 255.769531 89.429688 256.070312 C 89.277344 256.445312 87.929688 256.894531 87.78125 256.742188 C 87.707031 256.667969 88.003906 255.84375 88.304688 255.769531 C 88.605469 255.695312 89.652344 256.667969 89.578125 256.820312 C 89.503906 256.96875 88.15625 256.894531 87.929688 256.59375 C 87.78125 256.292969 88.003906 255.246094 88.304688 255.097656 C 88.605469 254.945312 89.652344 255.320312 89.800781 255.546875 C 89.878906 255.84375 89.429688 256.519531 89.128906 256.59375 C 88.828125 256.742188 88.304688 256.519531 88.003906 256.292969 C 87.707031 256.144531 87.332031 255.769531 87.332031 255.472656 C 87.332031 255.097656 87.707031 254.496094 88.003906 254.347656 C 88.378906 254.273438 89.203125 254.722656 89.351562 255.023438 C 89.578125 255.320312 89.578125 255.921875 89.351562 256.070312 C 89.128906 256.371094 88.003906 256.292969 87.632812 256.144531 C 87.332031 255.996094 87.105469 255.621094 87.105469 255.394531 C 87.183594 255.171875 87.554688 254.648438 87.855469 254.648438 C 88.230469 254.648438 89.203125 255.546875 89.128906 255.84375 C 89.054688 256.070312 87.929688 256.445312 87.554688 256.292969 C 87.257812 256.21875 86.882812 255.621094 86.882812 255.394531 C 86.882812 255.171875 87.183594 254.871094 87.40625 254.796875 C 87.78125 254.722656 88.980469 255.394531 89.128906 255.695312 C 89.203125 255.921875 89.054688 256.292969 88.828125 256.445312 C 88.605469 256.59375 87.929688 256.519531 87.554688 256.292969 C 87.105469 256.070312 86.433594 255.320312 86.359375 254.945312 C 86.359375 254.648438 86.65625 254.347656 86.882812 254.273438 C 87.332031 254.125 88.304688 254.199219 88.753906 254.496094 C 89.203125 254.722656 89.726562 255.246094 89.652344 255.621094 C 89.652344 255.84375 89.203125 256.21875 88.828125 256.292969 C 88.453125 256.292969 87.855469 255.921875 87.480469 255.695312 C 87.105469 255.394531 86.582031 254.871094 86.507812 254.574219 C 86.433594 254.273438 86.582031 253.898438 86.808594 253.75 C 87.257812 253.523438 89.277344 253.898438 89.726562 254.347656 C 90.027344 254.648438 90.101562 255.246094 89.953125 255.546875 C 89.800781 255.921875 88.902344 256.292969 88.453125 256.21875 C 88.003906 256.21875 87.40625 255.695312 87.332031 255.320312 C 87.183594 254.871094 87.480469 254.046875 87.855469 253.75 C 88.230469 253.523438 89.128906 253.449219 89.578125 253.597656 C 89.953125 253.824219 90.25 254.347656 90.328125 254.722656 C 90.328125 255.246094 90.101562 256.070312 89.726562 256.292969 C 89.277344 256.445312 88.304688 256.144531 87.929688 255.769531 C 87.480469 255.394531 87.105469 254.574219 87.257812 254.125 C 87.332031 253.597656 88.15625 252.851562 88.605469 252.851562 C 89.054688 252.777344 89.726562 253.375 89.878906 253.824219 C 90.101562 254.273438 89.878906 255.320312 89.503906 255.546875 C 89.054688 255.769531 87.480469 255.023438 87.03125 254.421875 C 86.65625 253.972656 86.433594 253 86.65625 252.550781 C 86.808594 252.175781 87.257812 251.726562 87.632812 251.800781 C 88.15625 251.800781 89.351562 253 89.429688 253.523438 C 89.429688 253.972656 88.828125 254.796875 88.453125 254.871094 C 88.082031 254.945312 87.480469 254.496094 87.183594 254.046875 C 86.808594 253.597656 86.582031 252.851562 86.65625 252.328125 C 86.65625 251.878906 86.957031 251.351562 87.257812 251.203125 C 87.554688 251.054688 88.230469 251.203125 88.679688 251.429688 C 89.128906 251.726562 89.800781 252.625 89.726562 253 C 89.652344 253.375 88.902344 253.898438 88.453125 253.824219 C 87.855469 253.824219 86.582031 252.476562 86.285156 251.800781 C 86.058594 251.351562 85.910156 250.605469 86.132812 250.378906 C 86.285156 250.230469 86.957031 250.230469 87.40625 250.453125 C 88.082031 250.753906 89.800781 252.625 89.652344 252.925781 C 89.578125 253.148438 88.980469 253.148438 88.605469 253 C 88.082031 252.777344 87.40625 251.953125 87.03125 251.351562 C 86.734375 250.753906 86.207031 249.480469 86.433594 249.183594 C 86.507812 249.105469 87.03125 249.183594 87.03125 249.183594 " clip-rule="nonzero"/></clipPath><clipPath id="5c7037e289"><path d="M 86.167969 249.363281 L 91.761719 249.363281 L 91.761719 255.675781 L 86.167969 255.675781 Z M 86.167969 249.363281 " clip-rule="nonzero"/></clipPath><clipPath id="7c7f78705c"><path d="M 89.652344 253.074219 C 90.402344 254.496094 90.625 253.449219 90.777344 253.449219 C 90.851562 253.523438 90.699219 255.023438 90.699219 255.023438 C 90.699219 255.023438 91.148438 253.75 90.851562 253.074219 C 90.550781 252.175781 87.929688 250.828125 87.929688 250.230469 C 88.003906 250.003906 88.378906 249.632812 88.605469 249.707031 C 89.054688 249.78125 90.328125 252.476562 90.101562 252.625 C 89.878906 252.851562 86.058594 249.554688 86.207031 249.40625 C 86.285156 249.257812 88.605469 250.378906 89.351562 250.902344 C 89.878906 251.277344 90.476562 251.800781 90.476562 252.101562 C 90.476562 252.328125 90.175781 252.625 89.953125 252.550781 C 89.503906 252.476562 88.003906 249.707031 88.15625 249.632812 C 88.304688 249.480469 90.699219 251.203125 91.226562 252.175781 C 91.675781 252.851562 91.824219 253.898438 91.675781 254.421875 C 91.523438 254.871094 90.851562 255.246094 90.550781 255.246094 C 90.328125 255.171875 90.101562 254.796875 90.101562 254.496094 C 90.027344 254.046875 90.328125 253.148438 90.625 253 C 90.851562 252.851562 91.375 253 91.523438 253.226562 C 91.75 253.597656 91.449219 255.394531 91.074219 255.621094 C 90.777344 255.769531 90.101562 255.472656 89.878906 255.171875 C 89.652344 254.871094 89.726562 254.199219 89.878906 253.75 C 90.027344 253.300781 90.328125 252.699219 90.625 252.625 C 90.851562 252.550781 91.226562 252.699219 91.375 252.925781 C 91.523438 253.300781 91.449219 254.648438 91.148438 255.023438 C 91 255.246094 90.476562 255.320312 90.25 255.246094 C 89.953125 255.097656 89.726562 254.574219 89.726562 254.273438 C 89.800781 253.898438 90.175781 253.375 90.476562 253.300781 C 90.699219 253.300781 91.148438 253.523438 91.226562 253.824219 C 91.300781 254.125 90.851562 255.394531 90.550781 255.394531 C 90.25 255.472656 89.203125 254.199219 89.277344 253.898438 C 89.351562 253.675781 90.402344 253.375 90.550781 253.597656 C 90.699219 253.75 90.402344 255.171875 90.175781 255.171875 C 89.878906 255.246094 89.277344 254.496094 89.128906 254.125 C 88.980469 253.75 88.902344 253 89.054688 252.925781 C 89.203125 252.777344 89.652344 253.074219 89.652344 253.074219 " clip-rule="nonzero"/></clipPath></defs><path fill="#f4d7b9" d="M 192.28125 29.183594 C 234.792969 29.183594 288.035156 77.675781 303.617188 98.308594 C 316.71875 115.660156 314.863281 205.039062 314.863281 258.054688 C 314.863281 269.144531 309.851562 290.132812 308.03125 300.738281 C 301.363281 339.605469 272.3125 372.203125 214.816406 372.203125 C 168 372.203125 131.972656 357.375 97.132812 319.445312 C 89.183594 310.792969 50.367188 341.769531 42.425781 330.613281 C 21.691406 330.613281 4.351562 136.875 45.0625 78.761719 C 85.777344 20.652344 149.769531 29.183594 192.28125 29.183594 Z M 192.28125 29.183594 " fill-opacity="1" fill-rule="evenodd"/><g clip-path="url(#4a182ea325)"><path fill="#ffde59" d="M 64.511719 42.828125 C 89.074219 20.480469 121.800781 9.730469 154.816406 10.523438 C 171.917969 10.933594 188.957031 14.191406 205.105469 19.769531 C 213.183594 22.570312 221.007812 26.222656 228.488281 30.355469 C 231.183594 31.839844 233.667969 33.582031 236.058594 35.429688 L 236.65625 35.894531 L 236.664062 35.894531 C 243.078125 38.203125 248.804688 42.339844 254.003906 47.183594 C 264.417969 46.355469 274.914062 47.289062 284.984375 50.503906 C 298.996094 54.980469 311.972656 63.175781 321.085938 74.820312 C 331.695312 88.371094 335.226562 104.8125 333.964844 121.785156 L 333.734375 124.667969 C 332.488281 139.660156 330.257812 158.941406 317.953125 168.792969 C 317.019531 169.542969 315.984375 170.109375 314.914062 170.457031 C 322.84375 184.035156 329.347656 199.113281 333.242188 214.34375 C 348.105469 272.507812 336.679688 333.167969 318.808594 389.226562 C 317.339844 393.847656 310.355469 396.917969 306.800781 392.402344 C 300.449219 384.332031 291.226562 378.175781 280.851562 377.023438 C 274.449219 376.3125 268.078125 377.601562 262.027344 374.695312 C 259.65625 373.550781 257.363281 371.679688 255.71875 369.402344 C 245.503906 373.273438 234.507812 375.097656 223.597656 374.652344 C 205.699219 373.917969 186.5625 367.71875 174.246094 354.121094 C 172.269531 351.9375 171.769531 349.488281 172.222656 347.28125 C 173.769531 346.730469 175.355469 346.320312 176.988281 346.0625 C 192.605469 355.265625 209.820312 361.417969 228.320312 361.804688 C 239.011719 362.027344 249.4375 360.53125 258.105469 353.855469 C 259.984375 352.410156 261.707031 350.8125 263.300781 349.09375 C 281.425781 337.433594 294.203125 317.632812 300.277344 296.421875 C 305.9375 276.640625 305.242188 256.042969 303.296875 235.753906 L 302.269531 225.050781 C 300.773438 209.335938 299.382812 193.574219 298.992188 177.792969 L 299.109375 177.785156 C 302.9375 177.539062 302.964844 171.546875 299.109375 171.796875 C 289.140625 172.441406 279.242188 170.808594 269.300781 171.519531 C 269.21875 166.820312 268.882812 162.140625 267.5 157.609375 C 266.710938 155.019531 262.203125 154.507812 261.722656 157.609375 C 261.085938 161.757812 260.851562 165.882812 260.78125 170.046875 C 245.90625 169.851562 231.042969 168.597656 216.164062 169.113281 C 213.417969 166.183594 212.542969 160.996094 211.261719 157.382812 C 211.074219 156.851562 210.886719 156.328125 210.691406 155.796875 C 209.5625 160.957031 207.964844 166.003906 205.859375 170.945312 L 202.210938 170.957031 C 181.507812 171.054688 160.378906 171.671875 140.164062 175.972656 C 138.757812 174.894531 137.921875 173.011719 137.695312 171.300781 C 136.226562 160.179688 134.136719 149.351562 130.425781 138.753906 L 129.894531 137.257812 C 129.851562 137.132812 129.804688 137.003906 129.757812 136.863281 C 127.023438 141.277344 123.761719 145.386719 120.207031 149.21875 C 118.109375 151.476562 115.914062 153.632812 113.65625 155.730469 C 111.464844 158.164062 109.199219 160.558594 107.003906 163 C 107.089844 163.445312 107.167969 163.894531 107.226562 164.355469 C 107.898438 169.417969 107.96875 174.554688 107.476562 179.640625 C 106.585938 188.832031 103.992188 197.6875 99.824219 205.882812 L 99.691406 206.703125 C 99.058594 210.542969 98.15625 214.511719 96.054688 217.402344 C 98.679688 220.34375 100.703125 223.855469 101.875 227.757812 C 102.917969 231.234375 98.109375 234.246094 95.617188 231.402344 C 93.636719 229.140625 91.4375 227.273438 89.019531 225.78125 C 88.867188 225.988281 88.589844 226.089844 88.28125 225.917969 C 81.550781 222.183594 70.121094 223.3125 63.394531 226.832031 C 55.035156 231.203125 51.769531 240.179688 52.699219 249.277344 C 53.589844 257.96875 57.390625 268.128906 64.765625 272.582031 C 68.148438 274.625 70.785156 274.800781 74.378906 273.816406 C 75.527344 273.507812 76.953125 272.550781 77.5625 272.074219 L 78.164062 271.589844 C 80.523438 269.730469 82.714844 268.453125 85.496094 268.40625 C 88.339844 267.519531 91.199219 268.75 92.289062 271.730469 L 92.355469 271.925781 C 92.863281 273.445312 93.792969 275.351562 93.589844 277.675781 C 93.378906 280.160156 92.242188 282.421875 90.542969 284.238281 C 90.25 284.554688 89.9375 284.867188 89.613281 285.160156 C 118.886719 316.851562 122.648438 366.234375 107.636719 405.824219 C 106.984375 407.5625 106.289062 409.277344 105.5625 410.976562 C 103.054688 416.800781 93.394531 414.996094 92.167969 409.222656 C 91.800781 407.496094 91.398438 405.773438 90.953125 404.066406 C 90.144531 400.910156 89.210938 397.785156 88.164062 394.707031 L 87.765625 393.554688 C 86.875 391.007812 86.042969 388.441406 85.144531 385.894531 L 85.054688 385.605469 C 85.023438 385.488281 84.984375 385.355469 84.941406 385.207031 L 83.421875 388.523438 L 78.804688 398.535156 C 76.640625 403.203125 69.773438 400.664062 69.519531 396.164062 L 69.511719 396.011719 C 69.492188 395.179688 69.460938 394.355469 69.40625 393.539062 C 69.078125 387.421875 68.023438 381.476562 66.347656 375.660156 L 65.742188 376.414062 C 56.730469 387.550781 46.15625 397.992188 31.652344 400.5625 C 28.011719 401.207031 23.894531 397.402344 26.394531 393.726562 C 27.429688 392.207031 28.425781 390.648438 29.367188 389.070312 C 28.550781 388.6875 27.78125 388.292969 27.070312 387.886719 C 21.566406 384.796875 16.984375 380.394531 13.195312 375.398438 C 5.164062 364.8125 2.289062 351.484375 1.585938 338.445312 C 0.835938 324.660156 2.050781 310.128906 5.816406 296.832031 C 7.445312 291.082031 9.65625 285.566406 12.207031 280.210938 C 12.027344 279.734375 11.855469 279.253906 11.683594 278.773438 C 8.929688 271.09375 6.667969 263.238281 4.789062 255.296875 C 1 239.257812 -1.035156 222.714844 -1.28125 206.234375 C -1.730469 176.714844 3.359375 146.722656 14.089844 119.195312 C 25.167969 90.804688 41.835938 63.453125 64.511719 42.828125 Z M 50.714844 300.929688 C 48.679688 297.722656 43.585938 300.609375 45.476562 303.835938 L 45.546875 303.953125 C 48.773438 309.035156 50.285156 314.816406 52.144531 320.484375 C 53.332031 324.128906 59.121094 322.570312 57.914062 318.890625 L 57.515625 317.660156 C 55.667969 311.910156 53.984375 306.070312 50.714844 300.929688 Z M 68.433594 239.777344 L 69.785156 239.121094 C 74.050781 237.085938 77.785156 235.699219 82.824219 237.476562 C 89.570312 239.851562 96.792969 247.40625 92.234375 254.734375 C 90.558594 257.4375 87.578125 258.515625 84.507812 257.878906 C 79.332031 256.804688 78 252.144531 75.371094 248.320312 L 74.921875 247.671875 C 73.320312 245.359375 71.292969 242.15625 68.628906 241.25 C 68.023438 241.039062 67.769531 240.097656 68.433594 239.777344 Z M 72.238281 84.15625 L 72.671875 83.765625 C 75.570312 81.207031 71.316406 76.984375 68.433594 79.527344 C 55.242188 91.183594 50.660156 109.429688 43.816406 124.980469 C 42.285156 128.476562 47.441406 131.53125 48.992188 128.003906 C 55.519531 113.167969 59.851562 95.417969 72.238281 84.15625 Z M 230.761719 79.058594 C 227.316406 77.503906 224.300781 82.519531 227.613281 84.171875 L 227.738281 84.230469 C 239.386719 89.492188 244.34375 101.414062 249.089844 112.476562 C 250.601562 116.011719 255.761719 112.964844 254.265625 109.460938 L 253.40625 107.476562 C 248.453125 96.070312 242.679688 84.449219 230.761719 79.058594 Z M 249.023438 71.855469 C 245.371094 70.589844 243.804688 76.367188 247.429688 77.632812 C 257.304688 81.070312 264.078125 88.484375 269.792969 96.957031 C 271.933594 100.132812 277.121094 97.136719 274.957031 93.933594 C 268.324219 84.09375 260.449219 75.835938 249.023438 71.855469 Z M 249.023438 71.855469 " fill-opacity="1" fill-rule="evenodd"/></g><g clip-path="url(#4df53958a8)"><g clip-path="url(#ce9e680cf3)"><path fill="#000000" d="M 72.285156 237.277344 L 95.039062 237.277344 L 95.039062 258.613281 L 72.285156 258.613281 Z M 72.285156 237.277344 " fill-opacity="1" fill-rule="nonzero"/></g></g><g clip-path="url(#0c3bcbf88b)"><g clip-path="url(#b6e81d5a0a)"><path fill="#000000" d="M 64.304688 236.230469 L 96.382812 236.230469 L 96.382812 260.886719 L 64.304688 260.886719 Z M 64.304688 236.230469 " fill-opacity="1" fill-rule="nonzero"/></g></g><g clip-path="url(#69f287b5a0)"><g clip-path="url(#b1d098b41e)"><path fill="#000000" d="M 74.679688 237.425781 L 95.117188 237.425781 L 95.117188 259.78125 L 74.679688 259.78125 Z M 74.679688 237.425781 " fill-opacity="1" fill-rule="nonzero"/></g></g><g clip-path="url(#5c7037e289)"><g clip-path="url(#7c7f78705c)"><path fill="#000000" d="M 83.214844 246.410156 L 94.667969 246.410156 L 94.667969 258.671875 L 83.214844 258.671875 Z M 83.214844 246.410156 " fill-opacity="1" fill-rule="nonzero"/></g></g></svg>