<svg xmlns="http://www.w3.org/2000/svg" xmlns:xlink="http://www.w3.org/1999/xlink" width="473" zoomAndPan="magnify" viewBox="0 0 354.75 425.249996" height="567" preserveAspectRatio="xMidYMid meet" version="1.0"><defs><clipPath id="3ad4ddde30"><path d="M 0.1875 8 L 323 8 L 323 379 L 0.1875 379 Z M 0.1875 8 " clip-rule="nonzero"/></clipPath><clipPath id="112e28a644"><path d="M 62 113 L 71 113 L 71 131 L 62 131 Z M 62 113 " clip-rule="nonzero"/></clipPath><clipPath id="f6d7434093"><path d="M 71.738281 113.765625 L 70.25 131.207031 L 61.167969 130.433594 L 62.652344 112.992188 Z M 71.738281 113.765625 " clip-rule="nonzero"/></clipPath><clipPath id="ba7908eb5e"><path d="M 66.761719 113.371094 C 68.039062 113.589844 68.207031 113.925781 68.394531 114.050781 C 68.394531 114.050781 68.496094 114.058594 68.484375 114.164062 C 68.484375 114.164062 68.484375 114.164062 68.574219 114.28125 C 68.574219 114.28125 68.761719 114.402344 68.851562 114.519531 C 68.851562 114.519531 68.84375 114.625 68.835938 114.734375 C 68.925781 114.847656 69.015625 114.964844 69.105469 115.078125 C 69.183594 115.300781 69.15625 115.621094 69.246094 115.734375 C 69.328125 115.957031 69.417969 116.074219 69.40625 116.179688 C 69.507812 116.1875 69.496094 116.296875 69.496094 116.296875 C 69.488281 116.402344 69.585938 116.410156 69.578125 116.515625 C 69.667969 116.632812 69.71875 117.175781 69.683594 117.601562 C 69.753906 117.929688 69.710938 118.464844 69.585938 118.777344 C 69.574219 118.882812 69.46875 118.984375 69.449219 119.195312 C 69.441406 119.304688 69.53125 119.417969 69.511719 119.632812 C 69.492188 119.847656 69.457031 120.273438 69.4375 120.488281 C 69.421875 120.699219 69.5 120.921875 69.484375 121.136719 C 69.554688 121.464844 69.507812 122 69.492188 122.214844 C 69.472656 122.425781 69.453125 122.640625 69.445312 122.746094 C 69.445312 122.746094 69.535156 122.863281 69.535156 122.863281 C 69.527344 122.96875 69.515625 123.074219 69.507812 123.183594 C 69.585938 123.40625 69.460938 123.71875 69.453125 123.824219 C 69.550781 123.832031 69.542969 123.9375 69.542969 123.9375 C 69.542969 123.9375 69.632812 124.054688 69.632812 124.054688 C 69.632812 124.054688 69.621094 124.160156 69.621094 124.160156 C 69.613281 124.269531 69.703125 124.382812 69.703125 124.382812 C 69.703125 124.382812 69.695312 124.488281 69.695312 124.488281 C 69.683594 124.597656 69.683594 124.597656 69.675781 124.703125 C 69.667969 124.8125 69.820312 125.363281 69.898438 125.582031 C 69.988281 125.699219 69.972656 125.914062 70.070312 125.921875 C 70.0625 126.027344 70.0625 126.027344 70.0625 126.027344 C 70.0625 126.027344 70.160156 126.035156 70.25 126.152344 C 70.25 126.152344 70.339844 126.265625 70.339844 126.265625 C 70.339844 126.265625 70.339844 126.265625 70.328125 126.375 C 70.429688 126.382812 70.417969 126.488281 70.417969 126.488281 C 70.417969 126.488281 70.507812 126.605469 70.507812 126.605469 C 70.5 126.710938 70.492188 126.816406 70.492188 126.816406 C 70.492188 126.816406 70.480469 126.925781 70.480469 126.925781 C 70.472656 127.03125 70.5625 127.144531 70.5625 127.144531 C 70.5625 127.144531 70.515625 127.679688 70.507812 127.789062 C 70.507812 127.789062 70.410156 127.777344 70.410156 127.777344 C 70.398438 127.886719 70.480469 128.109375 70.371094 128.207031 C 70.363281 128.3125 70.238281 128.625 70.128906 128.722656 C 70.121094 128.832031 70.121094 128.832031 70.109375 128.9375 C 70.109375 128.9375 70.011719 128.929688 70.003906 129.035156 C 70.003906 129.035156 69.996094 129.144531 69.886719 129.242188 C 69.878906 129.347656 69.777344 129.339844 69.671875 129.4375 C 69.554688 129.644531 69.429688 129.957031 69.210938 130.152344 C 68.898438 130.339844 68.082031 130.59375 67.972656 130.691406 C 67.972656 130.691406 67.972656 130.691406 67.867188 130.789062 C 67.660156 130.878906 66.761719 130.910156 66.574219 130.789062 C 66.476562 130.78125 66.484375 130.671875 66.386719 130.664062 C 66.386719 130.664062 66.277344 130.761719 66.277344 130.761719 C 66.179688 130.753906 66.1875 130.648438 66.089844 130.640625 C 65.992188 130.632812 65.890625 130.621094 65.792969 130.613281 C 65.695312 130.605469 65.605469 130.492188 65.613281 130.382812 C 65.613281 130.382812 65.613281 130.382812 65.515625 130.375 C 65.515625 130.375 65.425781 130.261719 65.328125 130.25 C 65.238281 130.136719 65.136719 130.128906 65.039062 130.121094 C 65.039062 130.121094 64.949219 130.003906 64.949219 130.003906 C 64.761719 129.882812 64.207031 129.402344 64.035156 129.066406 C 63.945312 128.949219 63.972656 128.628906 63.882812 128.515625 C 63.785156 128.507812 63.785156 128.507812 63.695312 128.390625 C 63.605469 128.277344 63.265625 127.601562 62.996094 127.253906 C 62.828125 126.917969 62.753906 126.589844 62.691406 126.152344 C 62.53125 125.710938 62.46875 125.273438 62.40625 124.839844 C 62.34375 124.402344 62.273438 124.074219 62.210938 123.636719 C 62.140625 123.308594 62.078125 122.875 62.113281 122.445312 C 62.050781 122.011719 61.988281 121.574219 62.027344 121.148438 C 61.953125 120.820312 62.082031 120.507812 62.117188 120.078125 C 62.144531 119.757812 62.171875 119.4375 62.207031 119.011719 C 62.234375 118.691406 62.171875 118.253906 62.296875 117.941406 C 62.324219 117.621094 62.460938 117.203125 62.46875 117.097656 C 62.46875 117.097656 62.46875 117.097656 62.480469 116.988281 C 62.488281 116.882812 62.640625 116.25 62.867188 115.945312 C 63 115.527344 63.234375 115.117188 63.558594 114.820312 C 63.78125 114.519531 64.214844 114.125 64.527344 113.9375 C 64.84375 113.746094 65.238281 113.78125 65.445312 113.691406 C 65.445312 113.691406 65.550781 113.59375 65.550781 113.59375 C 65.550781 113.59375 65.550781 113.59375 65.652344 113.601562 C 65.75 113.609375 65.964844 113.414062 66.171875 113.320312 C 66.269531 113.332031 66.359375 113.445312 66.566406 113.355469 C 66.664062 113.363281 66.761719 113.371094 66.761719 113.371094 " clip-rule="nonzero"/></clipPath><clipPath id="01cb4b95d8"><path d="M 22 106 L 33 106 L 33 125 L 22 125 Z M 22 106 " clip-rule="nonzero"/></clipPath><clipPath id="687ca79c0e"><path d="M 34.121094 107.046875 L 32.640625 124.445312 L 21.804688 123.523438 L 23.285156 106.125 Z M 34.121094 107.046875 " clip-rule="nonzero"/></clipPath><clipPath id="bb456e385c"><path d="M 28.191406 106.546875 C 29.714844 106.785156 29.921875 107.125 30.148438 107.25 C 30.148438 107.25 30.265625 107.261719 30.257812 107.367188 C 30.257812 107.367188 30.257812 107.367188 30.367188 107.484375 C 30.367188 107.484375 30.59375 107.613281 30.699219 107.730469 C 30.699219 107.730469 30.691406 107.835938 30.683594 107.941406 C 30.792969 108.058594 30.898438 108.175781 31.007812 108.292969 C 31.109375 108.515625 31.082031 108.835938 31.1875 108.953125 C 31.289062 109.175781 31.398438 109.292969 31.386719 109.402344 C 31.507812 109.410156 31.496094 109.519531 31.496094 109.519531 C 31.488281 109.625 31.605469 109.636719 31.597656 109.742188 C 31.707031 109.859375 31.777344 110.402344 31.742188 110.828125 C 31.832031 111.160156 31.785156 111.695312 31.640625 112.003906 C 31.632812 112.113281 31.503906 112.207031 31.488281 112.421875 C 31.476562 112.527344 31.585938 112.644531 31.566406 112.859375 C 31.550781 113.074219 31.511719 113.5 31.496094 113.714844 C 31.476562 113.929688 31.578125 114.152344 31.558594 114.367188 C 31.648438 114.695312 31.605469 115.230469 31.585938 115.445312 C 31.566406 115.65625 31.550781 115.871094 31.539062 115.976562 C 31.539062 115.976562 31.648438 116.09375 31.648438 116.09375 C 31.640625 116.203125 31.628906 116.308594 31.621094 116.414062 C 31.722656 116.640625 31.574219 116.949219 31.566406 117.054688 C 31.683594 117.066406 31.675781 117.171875 31.675781 117.171875 C 31.675781 117.171875 31.785156 117.289062 31.785156 117.289062 C 31.785156 117.289062 31.773438 117.398438 31.773438 117.398438 C 31.765625 117.503906 31.875 117.621094 31.875 117.621094 C 31.875 117.621094 31.867188 117.726562 31.867188 117.726562 C 31.855469 117.835938 31.855469 117.835938 31.847656 117.941406 C 31.839844 118.046875 32.027344 118.601562 32.128906 118.824219 C 32.234375 118.941406 32.21875 119.15625 32.335938 119.167969 C 32.328125 119.273438 32.328125 119.273438 32.328125 119.273438 C 32.328125 119.273438 32.445312 119.28125 32.554688 119.398438 C 32.554688 119.398438 32.660156 119.515625 32.660156 119.515625 C 32.660156 119.515625 32.660156 119.515625 32.652344 119.625 C 32.769531 119.632812 32.761719 119.742188 32.761719 119.742188 C 32.761719 119.742188 32.871094 119.855469 32.871094 119.855469 C 32.859375 119.964844 32.851562 120.070312 32.851562 120.070312 C 32.851562 120.070312 32.84375 120.175781 32.84375 120.175781 C 32.832031 120.285156 32.941406 120.402344 32.941406 120.402344 C 32.941406 120.402344 32.894531 120.9375 32.886719 121.042969 C 32.886719 121.042969 32.769531 121.03125 32.769531 121.03125 C 32.761719 121.140625 32.859375 121.363281 32.734375 121.460938 C 32.722656 121.566406 32.578125 121.878906 32.453125 121.972656 C 32.441406 122.082031 32.441406 122.082031 32.433594 122.1875 C 32.433594 122.1875 32.316406 122.175781 32.308594 122.285156 C 32.308594 122.285156 32.296875 122.390625 32.171875 122.488281 C 32.164062 122.59375 32.042969 122.585938 31.917969 122.679688 C 31.78125 122.886719 31.636719 123.195312 31.382812 123.390625 C 31.011719 123.574219 30.042969 123.8125 29.917969 123.910156 C 29.917969 123.910156 29.917969 123.910156 29.789062 124.007812 C 29.546875 124.09375 28.476562 124.109375 28.25 123.984375 C 28.132812 123.972656 28.140625 123.867188 28.023438 123.855469 C 28.023438 123.855469 27.898438 123.953125 27.898438 123.953125 C 27.78125 123.945312 27.789062 123.835938 27.671875 123.828125 C 27.554688 123.816406 27.433594 123.804688 27.316406 123.796875 C 27.199219 123.785156 27.089844 123.667969 27.101562 123.5625 C 27.101562 123.5625 27.101562 123.5625 26.984375 123.554688 C 26.984375 123.554688 26.875 123.4375 26.757812 123.425781 C 26.648438 123.308594 26.53125 123.300781 26.414062 123.289062 C 26.414062 123.289062 26.304688 123.171875 26.304688 123.171875 C 26.078125 123.046875 25.40625 122.558594 25.199219 122.21875 C 25.089844 122.101562 25.117188 121.78125 25.007812 121.664062 C 24.890625 121.652344 24.890625 121.652344 24.785156 121.535156 C 24.675781 121.417969 24.257812 120.738281 23.933594 120.386719 C 23.722656 120.046875 23.632812 119.71875 23.554688 119.28125 C 23.355469 118.832031 23.273438 118.394531 23.191406 117.957031 C 23.109375 117.519531 23.019531 117.191406 22.9375 116.753906 C 22.847656 116.421875 22.765625 115.984375 22.800781 115.558594 C 22.722656 115.121094 22.640625 114.683594 22.675781 114.253906 C 22.585938 113.925781 22.730469 113.613281 22.765625 113.1875 C 22.792969 112.867188 22.820312 112.546875 22.859375 112.117188 C 22.886719 111.796875 22.804688 111.359375 22.949219 111.050781 C 22.976562 110.730469 23.128906 110.3125 23.140625 110.207031 C 23.140625 110.207031 23.140625 110.207031 23.148438 110.097656 C 23.15625 109.992188 23.328125 109.359375 23.59375 109.058594 C 23.746094 108.644531 24.019531 108.234375 24.398438 107.945312 C 24.660156 107.644531 25.167969 107.257812 25.539062 107.074219 C 25.910156 106.890625 26.382812 106.929688 26.625 106.84375 C 26.625 106.84375 26.753906 106.746094 26.753906 106.746094 C 26.753906 106.746094 26.753906 106.746094 26.871094 106.757812 C 26.988281 106.765625 27.242188 106.574219 27.488281 106.488281 C 27.605469 106.496094 27.714844 106.613281 27.957031 106.527344 C 28.074219 106.535156 28.191406 106.546875 28.191406 106.546875 " clip-rule="nonzero"/></clipPath><clipPath id="8ad2d19e3e"><path d="M 33 70 L 45 70 L 45 89 L 33 89 Z M 33 70 " clip-rule="nonzero"/></clipPath><clipPath id="bb0c029126"><path d="M 45.347656 71.289062 L 43.867188 88.6875 L 33.03125 87.765625 L 34.515625 70.367188 Z M 45.347656 71.289062 " clip-rule="nonzero"/></clipPath><clipPath id="1802d5b13d"><path d="M 39.421875 70.785156 C 40.941406 71.023438 41.148438 71.363281 41.375 71.492188 C 41.375 71.492188 41.492188 71.5 41.484375 71.609375 C 41.484375 71.609375 41.484375 71.609375 41.59375 71.726562 C 41.59375 71.726562 41.820312 71.851562 41.929688 71.96875 C 41.929688 71.96875 41.917969 72.074219 41.910156 72.183594 C 42.019531 72.300781 42.128906 72.414062 42.234375 72.53125 C 42.335938 72.757812 42.308594 73.078125 42.417969 73.195312 C 42.515625 73.417969 42.625 73.535156 42.617188 73.640625 C 42.734375 73.652344 42.722656 73.757812 42.722656 73.757812 C 42.714844 73.863281 42.832031 73.875 42.824219 73.980469 C 42.933594 74.097656 43.003906 74.644531 42.96875 75.070312 C 43.058594 75.402344 43.011719 75.933594 42.867188 76.246094 C 42.859375 76.351562 42.730469 76.449219 42.714844 76.664062 C 42.703125 76.769531 42.8125 76.886719 42.796875 77.101562 C 42.777344 77.3125 42.742188 77.742188 42.722656 77.953125 C 42.703125 78.167969 42.804688 78.390625 42.785156 78.605469 C 42.875 78.9375 42.832031 79.46875 42.8125 79.683594 C 42.792969 79.898438 42.777344 80.109375 42.765625 80.21875 C 42.765625 80.21875 42.875 80.335938 42.875 80.335938 C 42.867188 80.441406 42.859375 80.546875 42.847656 80.65625 C 42.949219 80.878906 42.804688 81.1875 42.792969 81.296875 C 42.910156 81.304688 42.902344 81.414062 42.902344 81.414062 C 42.902344 81.414062 43.011719 81.53125 43.011719 81.53125 C 43.011719 81.53125 43.003906 81.636719 43.003906 81.636719 C 42.992188 81.742188 43.101562 81.859375 43.101562 81.859375 C 43.101562 81.859375 43.09375 81.96875 43.09375 81.96875 C 43.082031 82.074219 43.082031 82.074219 43.074219 82.179688 C 43.066406 82.289062 43.253906 82.84375 43.355469 83.066406 C 43.464844 83.183594 43.445312 83.394531 43.5625 83.40625 C 43.554688 83.511719 43.554688 83.511719 43.554688 83.511719 C 43.554688 83.511719 43.671875 83.523438 43.78125 83.640625 C 43.78125 83.640625 43.886719 83.757812 43.886719 83.757812 C 43.886719 83.757812 43.886719 83.757812 43.878906 83.863281 C 43.996094 83.875 43.988281 83.980469 43.988281 83.980469 C 43.988281 83.980469 44.097656 84.097656 44.097656 84.097656 C 44.085938 84.203125 44.078125 84.3125 44.078125 84.3125 C 44.078125 84.3125 44.070312 84.417969 44.070312 84.417969 C 44.058594 84.523438 44.167969 84.640625 44.167969 84.640625 C 44.167969 84.640625 44.125 85.175781 44.113281 85.28125 C 44.113281 85.28125 43.996094 85.273438 43.996094 85.273438 C 43.988281 85.378906 44.085938 85.601562 43.960938 85.699219 C 43.953125 85.804688 43.804688 86.117188 43.679688 86.214844 C 43.671875 86.320312 43.671875 86.320312 43.660156 86.425781 C 43.660156 86.425781 43.542969 86.417969 43.535156 86.523438 C 43.535156 86.523438 43.527344 86.632812 43.398438 86.726562 C 43.390625 86.835938 43.273438 86.824219 43.144531 86.921875 C 43.007812 87.125 42.863281 87.4375 42.609375 87.628906 C 42.238281 87.8125 41.269531 88.054688 41.144531 88.148438 C 41.144531 88.148438 41.144531 88.148438 41.015625 88.246094 C 40.773438 88.332031 39.703125 88.351562 39.476562 88.222656 C 39.359375 88.214844 39.367188 88.105469 39.25 88.097656 C 39.25 88.097656 39.125 88.195312 39.125 88.195312 C 39.007812 88.183594 39.015625 88.078125 38.898438 88.066406 C 38.78125 88.054688 38.664062 88.046875 38.546875 88.035156 C 38.425781 88.027344 38.320312 87.910156 38.328125 87.804688 C 38.328125 87.804688 38.328125 87.804688 38.210938 87.792969 C 38.210938 87.792969 38.101562 87.675781 37.984375 87.664062 C 37.875 87.550781 37.757812 87.539062 37.640625 87.527344 C 37.640625 87.527344 37.53125 87.414062 37.53125 87.414062 C 37.304688 87.285156 36.636719 86.796875 36.425781 86.457031 C 36.316406 86.339844 36.34375 86.019531 36.238281 85.902344 C 36.121094 85.894531 36.121094 85.894531 36.011719 85.777344 C 35.902344 85.660156 35.484375 84.976562 35.160156 84.628906 C 34.953125 84.289062 34.863281 83.957031 34.78125 83.519531 C 34.582031 83.070312 34.5 82.636719 34.417969 82.199219 C 34.335938 81.761719 34.246094 81.429688 34.164062 80.992188 C 34.074219 80.660156 33.992188 80.222656 34.03125 79.796875 C 33.949219 79.359375 33.867188 78.921875 33.902344 78.496094 C 33.8125 78.164062 33.957031 77.855469 33.996094 77.425781 C 34.023438 77.105469 34.050781 76.785156 34.085938 76.359375 C 34.113281 76.039062 34.03125 75.601562 34.175781 75.289062 C 34.203125 74.96875 34.359375 74.550781 34.367188 74.445312 C 34.367188 74.445312 34.367188 74.445312 34.375 74.339844 C 34.386719 74.230469 34.558594 73.601562 34.820312 73.300781 C 34.972656 72.882812 35.246094 72.476562 35.625 72.183594 C 35.890625 71.886719 36.394531 71.496094 36.765625 71.3125 C 37.136719 71.128906 37.609375 71.171875 37.855469 71.082031 C 37.855469 71.082031 37.980469 70.988281 37.980469 70.988281 C 37.980469 70.988281 37.980469 70.988281 38.097656 70.996094 C 38.214844 71.007812 38.46875 70.8125 38.714844 70.726562 C 38.832031 70.738281 38.941406 70.851562 39.183594 70.765625 C 39.300781 70.777344 39.421875 70.785156 39.421875 70.785156 " clip-rule="nonzero"/></clipPath></defs><path fill="#f4d7b9" d="M 305.703125 188.714844 C 302.925781 166.539062 294.195312 142.992188 285.015625 122.320312 C 264.371094 78.605469 217.109375 72.589844 174.738281 63.574219 C 132.929688 57.488281 88.65625 51.992188 47.476562 64.136719 C 24.328125 69.808594 15.285156 97.378906 18.941406 119.136719 C 21.023438 132.695312 27.195312 145.527344 32.460938 158.089844 C 42.917969 183.894531 49.554688 211.519531 49.566406 239.457031 C 48.847656 257.714844 46.269531 278.554688 67.253906 286.289062 C 87.21875 296.214844 88.902344 323.128906 113.902344 338.398438 C 124.011719 358.875 151.546875 360.675781 171.367188 365.425781 C 183.890625 367.824219 196.558594 369.589844 209.261719 370.726562 C 246.042969 375.441406 275.464844 364.785156 294.71875 332.019531 C 307.601562 312.082031 317.195312 289.058594 314.824219 264.890625 C 312.464844 239.445312 308.53125 214.128906 305.703125 188.714844 Z M 305.703125 188.714844 " fill-opacity="1" fill-rule="evenodd"/><g clip-path="url(#3ad4ddde30)"><path fill="#000000" d="M 175.058594 10.449219 C 177.15625 8.070312 180.390625 8.886719 182.355469 10.769531 C 183.632812 11.144531 184.871094 11.707031 186.039062 12.445312 C 188.683594 12.109375 191.453125 12.109375 194.046875 12.203125 C 194.675781 11.851562 195.347656 11.535156 196.082031 11.265625 C 201.320312 9.351562 205.964844 10.324219 209.792969 12.890625 C 211.636719 11.144531 213.960938 10.050781 216.933594 10.214844 C 219.589844 10.363281 221.480469 11.613281 223.101562 13.257812 C 224.71875 10.925781 227.332031 9.265625 230.585938 9.03125 C 235.136719 8.710938 239.507812 10.535156 243.132812 13.359375 C 245.246094 10.9375 248.125 9.542969 251.335938 9.53125 C 253.445312 9.148438 255.675781 9.296875 257.6875 9.90625 C 260.609375 10.789062 263.175781 12.441406 265.21875 14.589844 C 268.453125 11.492188 272.414062 9.265625 276.976562 9.589844 C 282.882812 10.015625 287.78125 14.359375 290.054688 19.703125 C 294.054688 21.304688 297.746094 23.589844 300.828125 26.847656 C 300.992188 27.019531 301.152344 27.199219 301.316406 27.378906 C 302.976562 27.992188 304.542969 28.859375 305.921875 30.003906 C 310.285156 33.636719 311.257812 38.894531 309.8125 44.042969 C 310.015625 44.867188 310.1875 45.707031 310.34375 46.542969 C 314.433594 47.164062 318.144531 49.523438 320.257812 53.363281 C 323.148438 58.636719 322.578125 65.582031 319.449219 70.613281 C 318.101562 72.777344 316.394531 74.601562 314.476562 76.199219 C 316.648438 81.125 315.605469 87.003906 312.109375 90.988281 C 311.257812 92.359375 310.210938 93.601562 309.035156 94.722656 C 310.332031 99.816406 308.023438 105.070312 303.410156 107.792969 L 303.015625 108.78125 C 302.949219 108.945312 302.882812 109.105469 302.8125 109.269531 C 302.761719 109.480469 302.699219 109.679688 302.636719 109.886719 C 302.527344 111.691406 301.933594 113.46875 300.75 115.136719 C 298.332031 118.5625 295.332031 120.796875 293.746094 124.792969 L 293.585938 125.214844 C 292.902344 127.105469 290.695312 128.441406 288.8125 127.855469 C 299.253906 149.300781 304.730469 173.160156 308.488281 196.542969 C 310.363281 208.207031 311.808594 219.914062 312.980469 231.664062 L 314.132812 243.363281 C 315.144531 253.765625 316.042969 264.199219 316.050781 274.636719 C 316.066406 298.242188 309.3125 320.949219 294.816406 339.734375 C 281.109375 357.492188 261.710938 370.363281 239.796875 375.429688 C 217.171875 380.65625 190.632812 378.597656 170.34375 366.632812 C 164.359375 363.117188 169.601562 354.65625 175.6875 357.484375 C 187.210938 362.847656 198.917969 366.828125 211.691406 367.71875 C 224.140625 368.597656 236.621094 367.039062 248.429688 362.964844 C 267.960938 356.222656 284.582031 342.09375 295.265625 324.5 C 300.53125 315.828125 304.339844 306.417969 306.371094 296.476562 C 308.894531 284.082031 308.515625 271.273438 307.585938 258.722656 L 307.523438 257.867188 C 305.6875 233.683594 303.269531 209.351562 299.363281 185.410156 C 295.90625 164.238281 290.59375 143.496094 283.699219 123.210938 C 281 120.832031 277.976562 118.867188 274.742188 117.371094 C 251.066406 116.382812 227.34375 116.671875 203.695312 118.304688 C 183.527344 119.707031 163.457031 122.078125 143.539062 125.539062 L 141.40625 125.910156 C 136.996094 126.699219 132.097656 127.148438 127.945312 128.921875 C 124.378906 130.449219 122.933594 133.382812 122.035156 136.992188 C 119.777344 146.117188 119.429688 156.105469 119.050781 165.464844 C 118.675781 174.613281 119.519531 183.835938 118.789062 192.957031 C 118.167969 200.585938 116.210938 208.394531 110.558594 213.910156 C 107.601562 216.800781 103.964844 218.378906 100.550781 220.574219 C 98.339844 221.988281 97.40625 223.449219 97.691406 226.070312 C 98.304688 231.804688 102.921875 239.03125 97.734375 243.941406 C 96.820312 244.800781 95.242188 244.914062 94.34375 243.941406 C 92.203125 241.613281 89.246094 239.839844 86.707031 237.957031 C 85.644531 237.179688 86.527344 235.667969 87.734375 236.207031 C 89.320312 236.917969 90.9375 237.757812 92.589844 238.492188 C 88.9375 235.480469 83.742188 234.003906 79.414062 233.128906 C 77.234375 232.695312 74.945312 232.566406 72.675781 232.769531 C 71 233.570312 69.285156 234.3125 67.570312 235.039062 C 65.390625 235.953125 63.191406 236.785156 60.976562 237.570312 C 53.285156 243.835938 49.617188 254.027344 51.21875 263.992188 C 52.09375 269.492188 54.632812 275.476562 59.417969 278.6875 C 65.085938 282.492188 72.675781 280.859375 78.800781 283.679688 C 84.535156 286.324219 88.023438 291.664062 90.636719 297.1875 L 91.726562 299.488281 C 94.152344 304.582031 96.644531 309.539062 99.957031 314.175781 C 103.792969 319.542969 108.484375 324.363281 113.605469 328.503906 C 116.089844 330.507812 118.738281 332.3125 121.476562 333.953125 L 122.222656 334.398438 C 124.996094 336.023438 126.976562 337.570312 127.164062 341.007812 C 127.226562 342.203125 126.46875 343.296875 125.496094 343.917969 C 121.304688 346.578125 117.132812 343.253906 113.644531 340.933594 C 109.878906 338.429688 106.277344 335.617188 102.945312 332.546875 C 96.613281 326.722656 91.132812 319.804688 86.917969 312.296875 C 83.703125 306.574219 81.878906 298.527344 76.800781 294.09375 C 73.703125 291.390625 69.324219 291.371094 65.453125 290.875 C 61.851562 290.410156 58.445312 289.664062 55.238281 287.890625 C 42.207031 280.648438 38.523438 263.121094 41.613281 249.578125 C 42.136719 247.292969 42.871094 245.070312 43.777344 242.929688 C 38.925781 243.738281 33.476562 238.722656 35.445312 233.660156 C 35.59375 233.28125 35.765625 232.921875 35.929688 232.554688 C 32.734375 230.449219 30.210938 227.261719 29.011719 223.089844 C 28.398438 220.933594 28.308594 218.753906 28.632812 216.652344 C 27.082031 215.613281 25.800781 214.179688 24.976562 212.421875 C 22.402344 211.230469 20.121094 209.449219 18.757812 206.902344 C 16.871094 203.390625 17.109375 200.15625 18.546875 197.246094 C 18.34375 196.878906 18.148438 196.503906 17.964844 196.121094 C 12.683594 192.777344 9 187.011719 9.421875 180.617188 C 9.554688 178.5 10.078125 176.589844 10.886719 174.867188 C 10.820312 174.652344 10.753906 174.425781 10.695312 174.207031 C 6.277344 171.960938 2.621094 168.273438 1.320312 163.347656 C 0.015625 158.390625 1.550781 153.449219 4.621094 149.644531 C 0.128906 146.359375 -2.574219 141.769531 -0.933594 134.828125 C -0.265625 132.007812 1.074219 129.4375 2.882812 127.273438 C 2.878906 127.207031 2.863281 127.140625 2.847656 127.070312 L 2.425781 126.746094 C -3.117188 122.371094 -6.304688 116.792969 -2.902344 109.933594 C -1.375 106.851562 0.804688 104.703125 3.363281 103.285156 L 3.492188 102.882812 C 1.65625 98.953125 1.035156 94.585938 2.300781 89.996094 C 3.332031 86.21875 5.78125 83.207031 8.910156 81.207031 C 8.703125 79.515625 8.730469 77.710938 9.070312 75.757812 C 9.628906 72.457031 11.269531 69.574219 13.664062 67.53125 C 13.753906 67.09375 13.867188 66.667969 13.996094 66.242188 C 14.804688 63.628906 16.316406 60.792969 18.066406 58.6875 C 19.511719 56.941406 21.128906 56.304688 23.105469 56.238281 C 22.988281 54.628906 23.070312 52.996094 23.398438 51.34375 C 24.410156 46.238281 27.660156 41.4375 32.472656 39.257812 C 34.449219 38.367188 36.53125 38.105469 38.535156 38.324219 C 40.242188 34.730469 43.574219 32.125 47.671875 31.5625 C 49.265625 31.339844 50.746094 31.351562 52.109375 31.554688 C 52.882812 31.195312 53.683594 30.875 54.519531 30.582031 C 55.074219 30.386719 55.636719 30.207031 56.199219 30.027344 C 58.09375 27.679688 60.585938 25.796875 63.496094 24.667969 C 66.859375 23.359375 70.28125 23.492188 73.3125 24.59375 L 74.277344 24.390625 C 75.792969 21.769531 78.203125 19.742188 81.90625 18.820312 C 86.117188 17.78125 90.433594 19.230469 93.746094 21.875 C 93.757812 21.875 93.773438 21.875 93.796875 21.867188 C 95.527344 17.996094 98.484375 15.300781 103.449219 15.488281 C 106.539062 15.609375 109.332031 17.144531 111.488281 19.332031 C 112.6875 19.179688 113.882812 19.042969 115.089844 18.910156 C 116.363281 17.421875 117.777344 16.027344 119.34375 14.777344 C 121.902344 12.726562 125.234375 12.890625 127.121094 15.78125 C 127.53125 16.410156 127.914062 17.046875 128.296875 17.683594 L 130.027344 17.5625 C 132.0625 14.816406 134.839844 12.957031 138.644531 12.808594 C 142.132812 12.667969 144.617188 14.375 146.511719 16.761719 C 148.054688 16.722656 149.601562 16.695312 151.152344 16.671875 C 152.957031 14.582031 155.082031 12.742188 157.507812 11.214844 C 159.367188 10.046875 162.105469 10.441406 163.609375 12 C 164.628906 13.058594 165.574219 14.164062 166.453125 15.308594 C 168.722656 12.765625 171.785156 11.089844 175.058594 10.449219 Z M 64.867188 248.195312 C 68.363281 246.203125 73.066406 248.359375 76.449219 250.050781 C 80.574219 252.109375 84.671875 255.214844 87.195312 259.109375 C 90.628906 264.410156 82.550781 268.691406 78.9375 263.9375 C 76.710938 261.011719 74.9375 258.0625 72.242188 255.5 C 69.777344 253.148438 66.207031 251.578125 64.792969 248.476562 C 64.742188 248.375 64.753906 248.253906 64.867188 248.195312 Z M 67.324219 119.53125 L 67.390625 119.34375 C 68.382812 116.625 64.042969 115.453125 63.058594 118.152344 C 61.5625 122.238281 63.285156 126.683594 67.324219 128.449219 C 68.445312 128.9375 69.722656 128.769531 70.398438 127.644531 C 70.964844 126.695312 70.703125 125.054688 69.59375 124.570312 C 67.320312 123.578125 66.558594 121.824219 67.324219 119.53125 Z M 29.941406 111.925781 C 32.113281 110.011719 28.925781 106.84375 26.765625 108.75 C 24.746094 110.53125 23.25 112.949219 23.640625 115.730469 C 24.035156 118.566406 26.175781 120.566406 28.511719 121.980469 C 30.992188 123.480469 33.253906 119.597656 30.78125 118.101562 L 30.503906 117.933594 C 29.464844 117.289062 28.25 116.402344 28.074219 115.132812 C 27.886719 113.785156 29.027344 112.734375 29.941406 111.925781 Z M 42.269531 78.109375 L 42.425781 77.996094 C 44.757812 76.328125 42.515625 72.433594 40.15625 74.117188 C 37.992188 75.660156 36.257812 77.667969 36.074219 80.433594 C 35.898438 83.121094 37.265625 85.453125 39.054688 87.347656 C 41.046875 89.449219 44.21875 86.269531 42.230469 84.171875 C 40.296875 82.125 39.917969 79.890625 42.269531 78.109375 Z M 42.269531 78.109375 " fill-opacity="1" fill-rule="evenodd"/></g><g clip-path="url(#112e28a644)"><g clip-path="url(#f6d7434093)"><g clip-path="url(#ba7908eb5e)"><path fill="#e7191f" d="M 76.011719 109.855469 L 73.804688 135.785156 L 56.828125 134.339844 L 59.035156 108.410156 Z M 76.011719 109.855469 " fill-opacity="1" fill-rule="nonzero"/></g></g></g><g clip-path="url(#01cb4b95d8)"><g clip-path="url(#687ca79c0e)"><g clip-path="url(#bb456e385c)"><path fill="#e7191f" d="M 39.148438 103.175781 L 36.941406 129.113281 L 16.699219 127.390625 L 18.90625 101.453125 Z M 39.148438 103.175781 " fill-opacity="1" fill-rule="nonzero"/></g></g></g><g clip-path="url(#8ad2d19e3e)"><g clip-path="url(#bb0c029126)"><g clip-path="url(#1802d5b13d)"><path fill="#e7191f" d="M 50.378906 67.414062 L 48.167969 93.355469 L 27.925781 91.632812 L 30.132812 65.691406 Z M 50.378906 67.414062 " fill-opacity="1" fill-rule="nonzero"/></g></g></g></svg>