<svg xmlns="http://www.w3.org/2000/svg" xmlns:xlink="http://www.w3.org/1999/xlink" width="473" zoomAndPan="magnify" viewBox="0 0 354.75 425.249996" height="567" preserveAspectRatio="xMidYMid meet" version="1.0"><path fill="#f4d7b9" d="M 301.207031 167.871094 C 294.429688 139.304688 279.617188 112.722656 255.898438 91.238281 C 184.527344 20.679688 53.460938 58.976562 54.054688 165.304688 C 51.496094 177.726562 50.457031 190.496094 51.304688 203.160156 C 51.65625 208.5625 53.996094 216.105469 50.851562 220.96875 C 43.765625 230.066406 39.644531 236.773438 42.058594 248.878906 C 44.074219 259.445312 51.265625 266.933594 60.96875 270.910156 C 66.792969 272.582031 72.3125 276.21875 74.46875 281.765625 C 87.425781 305.488281 97.027344 325.21875 117.453125 341.386719 C 122.722656 345.546875 176.78125 370.507812 194.59375 370.507812 C 246.742188 370.507812 312.464844 351.621094 313.554688 293.371094 C 313.742188 280.578125 311.496094 267.636719 310.089844 254.945312 C 306.660156 225.980469 307.871094 195.964844 301.207031 167.871094 Z M 301.207031 167.871094 " fill-opacity="1" fill-rule="evenodd"/><path fill="#000000" d="M 300.03125 153.582031 C 300.050781 153.226562 300.554688 153.148438 300.652344 153.496094 C 302.59375 160.375 303.691406 167.378906 305.207031 174.363281 C 306.667969 181.089844 308.042969 187.835938 309.191406 194.621094 C 311.355469 207.429688 313.179688 220.269531 314.875 233.144531 L 315.296875 236.363281 C 318.246094 259.015625 323.117188 282.617188 318.859375 305.402344 C 315.222656 324.84375 303.042969 340.511719 287.34375 352.003906 C 272.476562 362.878906 254.457031 369.859375 236.5625 373.828125 C 217.355469 378.089844 194.589844 379.359375 178.960938 365.277344 C 172.703125 359.636719 181.234375 348.449219 188.019531 353.535156 C 203.957031 365.484375 224.230469 361.960938 242.210938 357.207031 L 242.757812 357.0625 C 258.539062 352.859375 274.425781 346.488281 286.957031 335.738281 C 300.808594 323.851562 307.660156 307.359375 308.449219 289.265625 C 308.894531 279.101562 307.945312 268.949219 306.925781 258.847656 L 306.8125 257.722656 C 305.636719 246.167969 304.40625 234.617188 303.269531 223.058594 C 302.234375 212.519531 301.339844 201.917969 300.867188 191.328125 L 300.648438 185.988281 C 300.1875 175.222656 299.570312 164.296875 300.03125 153.582031 Z M 113.128906 64.121094 C 139.0625 50.621094 168.867188 45.789062 197.726562 50.320312 C 225.472656 54.675781 250.933594 68.992188 269.964844 89.519531 C 279.257812 99.542969 287.503906 111.132812 292.777344 123.800781 C 295.394531 130.09375 297.445312 136.65625 298.535156 143.398438 C 299.097656 146.863281 299.648438 150.453125 299.753906 153.964844 C 299.851562 157.21875 298.898438 160.269531 299.011719 163.578125 C 299.027344 164.09375 298.234375 164.195312 298.113281 163.699219 C 297.210938 160.011719 295.039062 157.222656 293.679688 153.722656 C 292.660156 151.105469 291.503906 148.554688 290.328125 146.007812 L 289.316406 143.828125 C 286.382812 137.488281 282.878906 131.410156 279.410156 125.351562 C 272.425781 113.152344 263.464844 102.066406 252.96875 92.710938 C 234.546875 76.289062 210.910156 65.683594 186.238281 63.777344 C 160.632812 61.792969 134.660156 67.898438 112.792969 81.417969 C 90.929688 94.9375 74.394531 115.949219 65.808594 140.148438 C 61.480469 152.359375 59.085938 165.082031 58.53125 178.015625 C 58.25 184.5625 58.511719 191.167969 58.972656 197.703125 L 59.199219 200.816406 C 59.464844 204.554688 59.648438 208.277344 59.089844 211.925781 C 63.035156 210.695312 67.167969 210.183594 71.320312 210.792969 C 77.484375 211.699219 81.167969 214.226562 83.933594 219.734375 C 84.078125 220.023438 83.789062 220.308594 83.5 220.167969 C 79.914062 218.378906 74.113281 219.320312 70.316406 220.257812 C 66.367188 221.234375 62.808594 222.929688 59.449219 225.226562 C 53.238281 229.472656 48.367188 236.046875 47.171875 243.59375 C 46.015625 250.882812 49.011719 258.265625 54.035156 263.488281 C 56.625 266.179688 59.71875 268.503906 63.179688 269.953125 C 67.382812 271.714844 71.542969 271.660156 75.257812 274.566406 C 77.558594 276.363281 77.003906 279.433594 75.445312 281.429688 C 83.289062 290.03125 90.242188 299.441406 98.085938 308.074219 C 101.722656 312.078125 105.328125 316.082031 108.8125 320.214844 L 110.113281 321.769531 C 113.589844 325.96875 119.125 330.402344 120.714844 335.683594 C 121.703125 338.964844 118.1875 343.261719 114.632812 341.765625 C 109.175781 339.46875 105.285156 333.496094 101.597656 328.910156 L 101.359375 328.613281 C 97.492188 323.867188 94.0625 318.851562 90.925781 313.597656 L 89.894531 311.867188 C 84.222656 302.328125 78.597656 292.433594 74.980469 281.953125 C 74.742188 282.199219 74.488281 282.421875 74.222656 282.613281 C 69.011719 286.316406 61.4375 283.46875 56.234375 281.0625 C 51.320312 278.792969 46.816406 275.375 43.304688 271.257812 C 35.671875 262.300781 32.152344 250.703125 34.699219 239.078125 C 36.859375 229.234375 43.683594 219.65625 52.632812 214.675781 C 48.5 209.921875 46.792969 203.511719 45.652344 197.246094 C 44.203125 189.25 43.910156 181.054688 44.304688 172.941406 C 45.09375 156.789062 49.25 140.863281 55.675781 126.074219 C 67.175781 99.605469 87.503906 77.464844 113.128906 64.121094 Z M 58.550781 240.742188 C 63.992188 239.722656 69.066406 239.476562 74.316406 241.78125 C 80.011719 244.277344 84.019531 248.40625 87.742188 253.242188 C 91.980469 258.742188 81.117188 264.75 78.378906 257.449219 L 78.300781 257.222656 C 77.566406 255.0625 76.25 252.972656 74.585938 251.046875 C 74.085938 251.8125 73.417969 252.488281 72.636719 252.871094 C 71.683594 253.339844 70.234375 253.015625 70.003906 251.800781 C 69.753906 250.457031 70.03125 248.824219 70.808594 247.683594 L 70.917969 247.527344 C 67.140625 244.488281 62.597656 242.269531 58.550781 241.554688 C 58.148438 241.484375 58.152344 240.816406 58.550781 240.742188 Z M 58.550781 240.742188 " fill-opacity="1" fill-rule="evenodd"/></svg>