<svg xmlns="http://www.w3.org/2000/svg" xmlns:xlink="http://www.w3.org/1999/xlink" width="473" zoomAndPan="magnify" viewBox="0 0 354.75 425.249996" height="567" preserveAspectRatio="xMidYMid meet" version="1.0"><path fill="#f4d7b9" d="M 181.398438 56.34375 C 223.910156 56.34375 267.878906 89.296875 283.460938 110.324219 C 301.480469 134.636719 315.695312 251.351562 309.027344 290.957031 C 302.359375 330.5625 269.238281 373.730469 211.738281 373.730469 C 154.242188 373.730469 119.25 366.648438 117.847656 356.359375 C 116.914062 349.503906 104.269531 326.988281 79.925781 288.816406 C 55.023438 281.8125 42.523438 269.945312 42.425781 253.214844 C 42.328125 236.484375 49 225.074219 62.441406 218.988281 C 57.648438 152.964844 61.289062 111.359375 73.359375 94.171875 C 91.460938 68.386719 138.886719 56.34375 181.398438 56.34375 Z M 181.398438 56.34375 " fill-opacity="1" fill-rule="evenodd"/><path fill="#000000" d="M 159.753906 46.417969 L 160.511719 46.421875 C 207.546875 46.726562 255.386719 68.371094 283.367188 106.175781 L 284.210938 107.328125 C 284.257812 107.386719 285.09375 108.632812 285.292969 108.988281 C 286.453125 111.070312 287.816406 113.019531 288.867188 115.136719 C 289.75 116.933594 290.339844 118.941406 290.988281 120.855469 L 291.1875 121.425781 C 292.855469 126.203125 294.261719 131.023438 295.507812 135.925781 C 297.917969 145.472656 299.796875 155.167969 301.625 164.839844 C 308.152344 199.476562 312.421875 234.609375 314.574219 269.789062 L 314.996094 276.859375 C 315.429688 284.195312 315.757812 291.566406 314.933594 298.875 C 313.984375 307.390625 311.535156 315.378906 307.832031 323.089844 C 304.414062 330.203125 300.011719 336.789062 294.976562 342.847656 C 292.28125 346.089844 289.421875 349.242188 285.902344 351.613281 C 283.101562 353.5 279.828125 354.742188 276.675781 355.941406 C 271.550781 361.0625 264.96875 364.933594 258.539062 368.023438 C 247.9375 373.109375 236.445312 375.914062 224.816406 377.324219 C 212.929688 378.753906 200.917969 378.410156 189.128906 376.363281 C 177.859375 374.417969 165.78125 369.441406 158.84375 359.953125 C 158.246094 359.136719 159.359375 358.367188 160.09375 358.703125 C 180.234375 368.023438 202.863281 370.457031 224.816406 367.515625 C 235.058594 366.144531 245.136719 363.316406 254.488281 358.921875 C 262.378906 355.214844 269.03125 349.824219 276.117188 344.941406 C 277.492188 343.109375 278.886719 341.304688 280.472656 339.628906 L 282.949219 337.03125 C 284.800781 335.078125 286.621094 333.101562 288.273438 330.964844 C 293.382812 324.382812 297.609375 316.917969 300.402344 309.066406 C 305.835938 293.777344 304.367188 277.183594 303.40625 261.253906 L 303.324219 259.847656 C 302.335938 242.808594 300.726562 225.828125 298.496094 208.90625 C 296.261719 191.964844 293.425781 175.089844 290.070312 158.335938 C 288.417969 150.078125 286.558594 141.871094 284.921875 133.613281 C 284.074219 129.351562 283.484375 125.035156 282.839844 120.726562 C 282.449219 118.109375 282.457031 115.585938 282.449219 113.023438 C 282.375 113.144531 282.285156 113.257812 282.195312 113.367188 C 282.464844 114.003906 282.277344 114.820312 281.621094 115.195312 C 279.125 116.617188 276.25 116.140625 273.445312 116.148438 C 270.464844 116.160156 267.484375 116.167969 264.503906 116.175781 C 261.398438 116.1875 258.296875 116.1875 255.195312 116.183594 L 245.882812 116.160156 L 208.644531 116.050781 C 184.257812 115.976562 159.457031 116.945312 135.144531 114.648438 L 133.289062 114.464844 C 131.378906 114.242188 109.820312 111.605469 103.992188 110.925781 L 103.816406 110.90625 C 93.160156 109.679688 82.65625 107.859375 72.304688 105.132812 C 75.6875 106.488281 78.945312 108.316406 82.296875 109.699219 C 86.625 111.480469 91.066406 113.039062 95.503906 114.53125 C 104.617188 117.589844 113.742188 120.5625 122.816406 123.722656 C 125.417969 124.628906 131.328125 146.914062 132.820312 150.441406 L 132.863281 150.539062 C 133.621094 152.242188 134.660156 154.105469 134.082031 156.035156 C 132.8125 160.304688 126.066406 163.464844 122.71875 165.875 L 119.277344 168.355469 L 114.78125 171.613281 C 112.933594 172.933594 111.230469 173.945312 108.816406 173.1875 C 108.808594 173.179688 108.800781 173.179688 108.792969 173.179688 C 110.859375 182.773438 111.863281 213.789062 112.171875 219.230469 C 112.4375 223.972656 113.832031 230.042969 111.617188 234.363281 C 111.089844 235.386719 109.730469 236.195312 108.570312 236.113281 C 103.507812 235.734375 98.449219 235.359375 93.386719 234.984375 C 92.03125 234.878906 90.796875 234.109375 90.421875 232.730469 L 90.40625 232.65625 C 90.242188 232.699219 90.054688 232.671875 89.898438 232.507812 C 89.621094 232.230469 89.335938 231.960938 89.042969 231.699219 C 82.378906 225.753906 71.960938 224.285156 63.738281 227.378906 C 59.425781 228.996094 54.523438 231.71875 51.480469 235.253906 C 48.105469 239.175781 47.378906 244.65625 47.371094 249.664062 C 47.355469 259.324219 50.847656 269.101562 57.964844 275.800781 C 64.507812 281.953125 72.949219 283.742188 81.441406 285.503906 L 82.351562 285.691406 C 84.289062 286.097656 84.902344 288.988281 83.445312 290.199219 C 87.328125 294.003906 90.683594 298.539062 93.957031 302.726562 C 98.300781 308.277344 102.453125 314.050781 106.496094 319.835938 L 108.445312 322.632812 C 115.398438 332.554688 125.464844 346.222656 121.085938 358.628906 C 120.503906 360.296875 118.0625 360.898438 117.109375 359.144531 C 113.988281 353.378906 112.246094 347.03125 109.28125 341.199219 C 106.367188 335.480469 102.746094 330.179688 99.148438 324.878906 L 97.078125 321.804688 C 93.625 316.675781 90.207031 311.492188 87.035156 306.207031 L 84.828125 302.546875 C 82.757812 299.09375 80.703125 295.523438 79.175781 291.808594 C 68.957031 294.273438 57.84375 288.792969 50.664062 281.492188 C 41.636719 272.296875 37.390625 258.753906 38.558594 246.019531 C 39.175781 239.355469 41.144531 232.910156 46.023438 228.117188 C 46.519531 227.640625 47.035156 227.183594 47.566406 226.726562 C 47.378906 226.628906 47.222656 226.480469 47.148438 226.300781 C 43.875 218.527344 43.179688 209.265625 42.902344 200.898438 C 42.609375 192.242188 42.796875 183.566406 43.457031 174.925781 C 44.664062 159.082031 47.519531 143.324219 52.058594 128.09375 C 58.773438 105.589844 70.3125 83.554688 88.746094 68.457031 C 108.398438 52.347656 134.734375 46.375 159.753906 46.417969 Z M 61.910156 243.265625 C 64.6875 242.003906 69.019531 244.25 71.488281 245.679688 L 71.652344 245.773438 C 78.949219 250.019531 84.148438 257.25 86.550781 265.261719 C 88.09375 270.425781 79.429688 272.484375 78.695312 267.425781 C 78.097656 263.300781 76.71875 259.4375 74.453125 255.984375 C 73.914062 256.164062 73.386719 256.398438 72.917969 256.695312 C 71.113281 257.863281 70.0625 259.871094 67.558594 259.570312 C 65.699219 259.355469 63.796875 258.066406 63.925781 255.941406 C 64.128906 252.429688 66.957031 251.027344 69.988281 250.847656 C 69.558594 250.460938 69.121094 250.078125 68.671875 249.707031 L 68.183594 249.316406 C 67.628906 248.914062 61.695312 244.824219 61.527344 245.875 L 61.523438 245.9375 C 61.53125 246.355469 60.96875 246.597656 60.683594 246.28125 C 59.539062 245.054688 60.601562 243.863281 61.910156 243.265625 Z M 61.910156 243.265625 " fill-opacity="1" fill-rule="evenodd"/></svg>