<svg xmlns="http://www.w3.org/2000/svg" xmlns:xlink="http://www.w3.org/1999/xlink" width="473" zoomAndPan="magnify" viewBox="0 0 354.75 425.249996" height="567" preserveAspectRatio="xMidYMid meet" version="1.0"><path fill="#f4d7b9" d="M 302.152344 153.765625 C 315.726562 145.0625 334.242188 122.851562 323.71875 106.011719 C 319.445312 99.425781 313.617188 96.949219 307.21875 96.75 C 305.691406 94.835938 303.160156 94.277344 300.792969 94.261719 L 300.808594 94.160156 C 292.160156 94.320312 283.664062 97.347656 276.710938 102.40625 C 272.226562 98.464844 266.660156 96.226562 261.265625 93.804688 C 263.527344 82.425781 266.980469 71.332031 270.898438 60.425781 C 273.015625 54.144531 266.3125 47.53125 259.996094 49.429688 C 261.550781 42.621094 257.980469 34.714844 250.199219 34.804688 C 246.042969 34.804688 241.335938 37.03125 237.3125 38.039062 C 234.335938 38.78125 231.402344 39.546875 228.527344 40.515625 C 228.511719 40.4375 228.503906 40.359375 228.496094 40.28125 C 236.03125 35.003906 235.769531 22.859375 224.695312 24.039062 C 219.972656 24.457031 215.171875 27.671875 210.804688 29.632812 C 203.601562 30.066406 196.6875 32.355469 189.691406 33.996094 C 170.539062 38.746094 150.050781 43.519531 134.273438 55.574219 C 106.949219 66.105469 72.960938 82.386719 69.574219 114.566406 C 21.445312 95.945312 -14.910156 155.40625 28.734375 178.804688 C 37.300781 182.796875 47.199219 184.863281 56.570312 182.945312 C 54.355469 191.132812 52.242188 199.347656 50.261719 207.59375 C 33.59375 245.890625 20.117188 286.363281 24.964844 328.394531 C 25.035156 336.019531 34.828125 340.417969 40.242188 334.722656 C 44.71875 329.320312 50.152344 335.636719 48.691406 340.851562 C 47.308594 346.644531 51.386719 351.964844 57.320312 352.179688 C 64.421875 352.550781 70.0625 347.789062 75.089844 343.390625 C 74.992188 343.484375 75.222656 343.339844 75.554688 343.117188 C 87.953125 372.359375 99.574219 349.621094 114.855469 362.78125 C 118.425781 366.078125 120.933594 369.988281 125.507812 372.132812 C 136.238281 377.570312 144.710938 367.878906 154.960938 366.761719 C 164.433594 366.0625 173.800781 369.34375 182.886719 371.550781 C 193.496094 374.125 204.195312 375.476562 215.09375 374.265625 C 229.027344 372.71875 256.832031 366.421875 265.058594 361.238281 C 275.140625 368.003906 285.515625 359.980469 291.054688 350.738281 C 294.933594 354.46875 302.265625 355.042969 305.378906 349.289062 C 308.476562 342.871094 314.269531 333.0625 320.925781 334.515625 C 321.523438 334.699219 321.871094 334.8125 322.234375 335.074219 C 328.457031 340.367188 336.492188 336.351562 337.402344 328.660156 C 343.300781 278.835938 331.265625 228.855469 315.265625 181.96875 C 311.773438 172.164062 308.875 161.972656 302.152344 153.765625 Z M 302.152344 153.765625 " fill-opacity="1" fill-rule="evenodd"/><path fill="#000000" d="M 296.652344 152.386719 C 296.402344 151.699219 297.457031 151.300781 297.808594 151.902344 C 309.242188 171.558594 318.382812 192.441406 326.203125 213.773438 C 333.125 232.65625 339.261719 251.902344 343.632812 271.542969 L 343.929688 272.894531 C 348.042969 291.847656 350.070312 311.898438 344.675781 330.808594 L 344.417969 331.707031 C 343.175781 335.914062 341.53125 340.183594 337.695312 342.683594 C 334.472656 344.78125 330.828125 345.042969 327.117188 344.460938 C 323.992188 343.96875 321.011719 342.605469 317.878906 342.226562 C 315.515625 341.945312 314.902344 343.078125 314.210938 344.988281 L 313.640625 346.601562 C 311.183594 353.453125 308.1875 359.824219 300.175781 361.265625 C 295.863281 362.042969 291.179688 361.238281 287.441406 358.972656 C 287.398438 359.117188 287.355469 359.261719 287.320312 359.398438 L 287.140625 360.074219 C 286.359375 363.003906 285.355469 365.980469 283.285156 368.253906 C 280.390625 371.429688 276.242188 372.558594 272.058594 371.714844 C 270.160156 371.332031 268.375 370.46875 266.570312 369.75 C 266.128906 372.40625 263.078125 374.570312 260.289062 373.914062 C 258.777344 373.5625 257.613281 372.875 256.746094 371.988281 C 252.4375 375.316406 246.621094 377.019531 241.582031 378.308594 C 234.289062 380.171875 226.527344 380.941406 219.003906 380.714844 C 211.371094 380.488281 203.601562 379.015625 196.421875 376.429688 L 195.296875 376.023438 C 189.101562 373.738281 182.582031 370.84375 177.5625 366.570312 C 176.566406 366.082031 177.148438 364.269531 178.335938 364.652344 C 185.152344 366.855469 191.511719 369.445312 198.667969 370.507812 C 205.421875 371.507812 212.199219 371.671875 219.003906 371.261719 C 225.902344 370.84375 232.597656 369.4375 239.179688 367.355469 C 244.90625 365.542969 250.550781 362.273438 256.632812 361.847656 C 256.953125 361.40625 257.296875 360.984375 257.695312 360.59375 C 262.957031 355.484375 268.289062 358.039062 274.210938 359.902344 C 274.40625 359.964844 274.460938 360.066406 274.460938 360.167969 L 274.53125 360.066406 L 274.578125 360.003906 L 274.542969 360.046875 C 274.296875 360.324219 274.789062 359.292969 274.878906 359.082031 L 274.886719 359.058594 C 275.566406 357.199219 275.832031 355.203125 276.40625 353.316406 C 277.78125 348.804688 280.347656 344.675781 285.265625 343.597656 C 287.691406 343.0625 291 343.875 292.125 346.386719 C 293.046875 348.453125 294.5625 349.5 296.894531 349.445312 C 299.332031 349.390625 300.226562 347.96875 301.074219 345.828125 C 302.457031 342.347656 303.199219 338.726562 305.46875 335.65625 C 308.015625 332.199219 311.828125 330.183594 316.132812 330.019531 C 319.449219 329.890625 322.699219 330.859375 325.855469 331.753906 L 326.144531 331.839844 C 327.585938 332.292969 330.160156 333.3125 331.285156 332.5625 C 332.96875 331.4375 333.84375 324.871094 334.332031 322.417969 L 334.363281 322.265625 C 335.230469 318.082031 335.734375 313.867188 335.941406 309.597656 C 336.796875 291.753906 333.117188 274 329.046875 256.726562 C 320.65625 221.105469 309.167969 186.742188 296.652344 152.386719 Z M 57.519531 195.941406 C 57.746094 195.601562 58.242188 195.894531 58.0625 196.257812 C 57.238281 197.953125 56.941406 199.730469 56.382812 201.492188 C 55.769531 203.445312 54.726562 205.339844 53.949219 207.230469 C 52.695312 210.300781 51.480469 213.386719 50.253906 216.464844 C 47.792969 222.65625 45.5 228.941406 43.328125 235.242188 C 38.96875 247.898438 35.40625 260.914062 32.800781 274.042969 C 30.238281 286.945312 28.09375 300.4375 28.175781 313.625 C 28.214844 319.621094 28.867188 325.796875 31.25 331.367188 C 31.621094 332.242188 32.058594 333.097656 32.523438 333.929688 L 32.804688 334.425781 C 32.84375 334.496094 32.886719 334.566406 32.929688 334.632812 L 33.1875 335.046875 C 33.9375 333.945312 36.105469 332.484375 37 331.710938 L 37.121094 331.601562 L 41.316406 327.722656 C 43.140625 326.03125 45.777344 325.625 47.984375 326.863281 C 54.695312 330.617188 54.480469 337.589844 55.914062 344.175781 L 55.980469 344.460938 C 56.605469 347.226562 57.683594 349.527344 61 348.984375 C 64.457031 348.417969 66.453125 344.902344 67.582031 341.878906 L 67.726562 341.480469 C 69.722656 335.855469 76.898438 336.078125 78.964844 341.480469 L 79.738281 343.523438 C 81.339844 347.71875 83.523438 352.777344 87.65625 354.4375 C 91.132812 355.832031 95.113281 353.746094 98.277344 352.449219 C 100.015625 351.738281 102.042969 353.222656 102.507812 354.851562 C 102.632812 355.296875 102.71875 355.71875 102.785156 356.136719 C 106.089844 355.816406 109.253906 356.605469 112.503906 358.105469 C 116.757812 360.070312 122.109375 364.308594 122.910156 369.21875 C 123.855469 375.027344 117.128906 377.769531 113.660156 373.121094 C 111.472656 370.191406 110.683594 366.636719 108.070312 363.855469 C 106.535156 362.21875 104.625 360.800781 102.625 359.59375 C 100.832031 365.921875 90.785156 367.746094 84.796875 365.871094 C 79.046875 364.074219 75.234375 359.839844 72.390625 354.882812 C 67.066406 360.085938 59.683594 362.601562 52.285156 358.0625 C 48 355.4375 46 350.839844 45.226562 346.066406 C 44.996094 344.628906 44.980469 342.273438 44.570312 340.199219 L 44.171875 340.605469 C 40.554688 344.261719 36.355469 347.699219 31.617188 346.90625 C 25.410156 345.875 22.460938 338.964844 20.523438 333.699219 C 16.5 322.761719 17.242188 310.597656 18.605469 299.238281 C 20.097656 286.804688 22.597656 274.488281 25.910156 262.410156 C 29.136719 250.628906 33.316406 239.195312 38.230469 228.019531 C 40.734375 222.320312 43.625 216.765625 46.734375 211.371094 C 48.292969 208.664062 49.992188 206.03125 51.699219 203.414062 C 53.460938 200.714844 55.75 198.585938 57.519531 195.941406 Z M 20.320312 118.964844 C 29.4375 110.503906 41.628906 106.644531 53.921875 108.386719 C 59.726562 109.207031 65.25 111.304688 70.148438 114.539062 C 75.117188 117.824219 78.335938 121.886719 81.3125 126.96875 C 81.519531 127.324219 81.046875 127.660156 80.761719 127.394531 C 72.832031 120.089844 60.828125 116.191406 50.160156 116.601562 C 31.148438 117.335938 15.390625 134.15625 16.570312 153.324219 C 17.152344 162.765625 22.457031 172.300781 30.664062 177.160156 C 39.359375 182.308594 49.257812 180.601562 58.578125 178.332031 C 61.941406 177.515625 63.636719 181.296875 61.71875 183.730469 C 52.265625 195.71875 32.832031 192.585938 21.921875 184.335938 C 0.835938 168.402344 1.558594 136.375 20.320312 118.964844 Z M 50.9375 137.84375 L 51.746094 137.707031 C 58.546875 136.582031 73.027344 135.285156 75.160156 143.585938 C 76.242188 147.8125 72.046875 150.089844 68.371094 149.902344 C 65.339844 149.75 62.40625 148.800781 59.414062 148.15625 C 58.554688 151.125 58.261719 154.226562 57.84375 157.28125 C 57.480469 159.957031 53.175781 159.230469 53.226562 156.65625 C 53.296875 153.078125 54.960938 150.035156 57.578125 147.8125 C 56.96875 147.71875 56.351562 147.636719 55.734375 147.597656 C 48.296875 147.097656 40.949219 148.476562 34.003906 151.027344 L 34.738281 151.441406 C 35.089844 151.5625 34.941406 152.03125 34.589844 151.980469 L 31.132812 152.15625 C 29.6875 152.492188 28.835938 150.84375 29.746094 149.769531 C 35.097656 143.464844 42.820312 139.292969 50.9375 137.84375 Z M 298.945312 93.410156 C 309.332031 92.167969 319.648438 95.996094 325.222656 105.132812 C 330.394531 113.605469 330.84375 124.335938 327.175781 133.445312 C 325.089844 138.621094 321.941406 143.261719 318.042969 147.253906 C 316.117188 149.226562 313.90625 151.261719 311.464844 152.566406 C 308.621094 154.085938 306.503906 153.953125 303.503906 153.394531 C 301.570312 153.035156 300.238281 150.554688 300.855469 148.734375 L 301.316406 147.351562 C 301.816406 145.867188 302.285156 144.765625 303.660156 143.367188 C 304.859375 142.144531 306.296875 141.15625 307.613281 140.066406 C 310.449219 137.726562 313.082031 135.109375 315.054688 131.988281 C 318.65625 126.273438 319.90625 119.707031 317.871094 113.191406 C 315.6875 106.195312 309.910156 101.660156 302.671875 100.816406 C 298.558594 100.339844 294.386719 100.773438 290.332031 101.488281 L 287.859375 101.9375 C 284.410156 102.574219 281.597656 103.316406 279.21875 106.480469 C 279.019531 106.746094 278.628906 106.71875 278.515625 106.386719 C 277.320312 102.949219 280.964844 99.886719 283.542969 98.261719 C 288.023438 95.441406 293.738281 94.035156 298.945312 93.410156 Z M 253.683594 89.226562 C 253.175781 88.582031 253.609375 87.265625 254.605469 87.644531 C 266.171875 92.039062 275.914062 102.730469 282.585938 112.835938 C 284.601562 115.894531 286.414062 119.066406 288.046875 122.332031 C 290.378906 119.496094 293.863281 117.445312 297.125 116.050781 L 297.484375 115.898438 C 301.246094 114.339844 309.375 111.664062 311.679688 116.667969 C 312.417969 118.28125 312.125 119.933594 310.824219 121.179688 C 308.816406 123.109375 305.613281 122.378906 303.109375 122.355469 C 298.046875 122.3125 294.027344 123.910156 289.550781 125.464844 C 290.363281 127.242188 291.136719 129.039062 291.855469 130.863281 C 292.832031 133.34375 293.554688 135.957031 294.742188 138.351562 C 295.867188 140.625 297.636719 142.65625 299.148438 144.671875 C 301.1875 147.390625 298.460938 151.992188 295.136719 151.664062 C 288.253906 150.988281 285.511719 145.300781 283.617188 139.273438 L 282.582031 135.976562 C 281.035156 131.050781 279.441406 126.226562 277.117188 121.542969 C 274.125 115.519531 270.558594 109.636719 266.457031 104.304688 C 262.429688 99.078125 257.738281 94.410156 253.683594 89.226562 Z M 235.769531 18.25 C 240.046875 16.660156 243.640625 22.144531 241.511719 25.71875 C 239.640625 28.855469 238.527344 32.097656 238.09375 35.5 L 256.9375 31.007812 C 260.6875 30.117188 264.230469 33.425781 263.195312 37.265625 L 260.289062 48.050781 C 264.046875 46.792969 267.976562 46.046875 272.019531 45.785156 C 275.480469 45.5625 277.390625 49.136719 276.824219 52.09375 C 275.636719 58.257812 273.984375 64.308594 271.78125 70.1875 L 270.175781 74.417969 C 268.285156 79.34375 266.078125 84.316406 261.519531 87.09375 C 259.316406 88.433594 256.460938 86.699219 256.449219 84.183594 C 256.421875 78.09375 260.179688 72.890625 262.269531 67.277344 C 263.539062 63.871094 264.613281 60.402344 265.527344 56.890625 C 261.988281 57.890625 258.660156 59.480469 255.515625 61.570312 L 255.046875 61.886719 C 251.328125 64.4375 246.660156 60.296875 247.585938 56.320312 L 247.621094 56.179688 L 251.171875 42.863281 L 234.277344 46.9375 C 230.796875 47.78125 228.121094 45.347656 227.792969 42 C 227.441406 38.4375 227.667969 34.898438 228.40625 31.464844 C 217.242188 34.984375 205.847656 37.71875 194.417969 40.273438 L 192.703125 40.65625 C 167.617188 46.226562 141.988281 51.144531 118.972656 63.066406 C 108.808594 68.328125 99.492188 74.5625 91.015625 82.269531 C 86.828125 86.078125 82.996094 90.269531 79.640625 94.832031 C 78.070312 96.972656 76.597656 99.1875 75.25 101.472656 L 74.167969 103.335938 C 73.652344 104.238281 73.148438 105.164062 72.839844 106.132812 L 72.6875 106.617188 C 72.4375 107.433594 72.164062 108.511719 72.394531 109.230469 C 72.71875 110.265625 74.59375 111.964844 75.917969 111.5 C 76.097656 111.4375 76.1875 111.671875 76.085938 111.792969 C 74.921875 113.199219 73.277344 113.449219 71.605469 112.746094 C 68.964844 111.625 68.304688 109.074219 68.597656 106.414062 C 69.320312 99.824219 73.90625 92.558594 77.53125 87.179688 C 92.460938 65.027344 117.023438 51.773438 141.800781 43.46875 C 172.609375 33.144531 205.265625 29.617188 235.769531 18.25 Z M 235.769531 18.25 " fill-opacity="1" fill-rule="evenodd"/></svg>