<svg xmlns="http://www.w3.org/2000/svg" xmlns:xlink="http://www.w3.org/1999/xlink" width="473" zoomAndPan="magnify" viewBox="0 0 354.75 425.249996" height="567" preserveAspectRatio="xMidYMid meet" version="1.0"><defs><clipPath id="84a08489c1"><path d="M 0.1875 0 L 354.3125 0 L 354.3125 386 L 0.1875 386 Z M 0.1875 0 " clip-rule="nonzero"/></clipPath></defs><path fill="#f4d7b9" d="M 281.257812 38.199219 C 241.226562 26.453125 103.554688 38.496094 100.152344 41.039062 C 94.578125 45.667969 67.480469 60.355469 63.265625 63.710938 C 25.136719 104.117188 61.484375 164.128906 58.6875 212.875 C 58.867188 230.167969 51.496094 245.957031 48.109375 262.589844 C 46.679688 271.308594 46.996094 280.324219 51.539062 288.152344 C 59.527344 302.136719 76.398438 304.972656 90.117188 310.609375 C 96.945312 313.550781 103.324219 317.71875 109.171875 322.277344 C 148.539062 357.105469 170.453125 380.953125 227.898438 373.097656 C 228.191406 375.839844 230.621094 378.535156 233.632812 377.308594 C 240.683594 374.4375 247.6875 371.390625 254.800781 368.667969 C 256.320312 372.332031 260.691406 373.378906 263.648438 370.140625 L 263.664062 370.164062 C 276.835938 359.484375 285.210938 344.875 291.429688 329.242188 C 295.78125 320.21875 299.347656 310.808594 302.070312 301.113281 C 302.378906 300.019531 302.335938 299.039062 302.058594 298.195312 C 314.625 254.886719 319.277344 209.246094 315.96875 164.28125 C 315.296875 155.003906 313.546875 145.605469 313.976562 136.289062 C 314.367188 127.875 317.992188 119.914062 320.757812 112.074219 C 335.011719 78.75 313.222656 48.691406 281.257812 38.199219 Z M 281.257812 38.199219 " fill-opacity="1" fill-rule="evenodd"/><g clip-path="url(#84a08489c1)"><path fill="#000000" d="M 286.292969 -15.90625 L 286.71875 -16.234375 C 291.332031 -19.855469 295.683594 -24.601562 302.191406 -22.824219 C 307.53125 -21.363281 310.226562 -16.945312 311.371094 -11.609375 C 312.996094 -13.308594 314.578125 -15.066406 316.117188 -16.886719 C 320.3125 -21.828125 329.675781 -19.265625 330.925781 -12.96875 C 333.457031 -0.289062 333.585938 12.621094 331.121094 25.324219 C 330.746094 27.25 330.304688 29.164062 329.789062 31.058594 C 332.597656 27.5625 335.210938 23.917969 337.554688 20.078125 C 340.089844 15.90625 345.828125 17.972656 346.222656 22.425781 C 346.328125 23.582031 346.386719 24.75 346.402344 25.925781 C 348.191406 26.554688 349.425781 28.394531 348.957031 30.65625 C 346.351562 43.097656 343.046875 55.371094 339.082031 67.429688 C 345.460938 64.046875 352.609375 62.039062 359.339844 64.429688 C 370.03125 68.230469 372.578125 79.894531 370.488281 89.9375 C 367.859375 102.558594 359.59375 113.121094 348.933594 120.046875 C 347.667969 121.949219 346.417969 123.867188 345.226562 125.820312 C 345.203125 131.339844 344.203125 136.839844 342.179688 141.953125 C 339.902344 147.695312 335.890625 152.660156 330.949219 156.433594 C 329.214844 160.214844 324.613281 162.976562 320.574219 162.210938 L 320.363281 162.167969 L 320.355469 162.175781 C 321.390625 165.875 322.28125 169.609375 323.050781 173.355469 C 329.023438 202.355469 326 232.546875 320.554688 261.382812 L 320.378906 262.304688 C 315.488281 287.96875 309.800781 314.546875 298.742188 338.378906 C 288.738281 359.925781 271.78125 378.875 247.546875 383.574219 C 219.039062 389.109375 187.480469 380.339844 162.960938 365.71875 C 154.074219 360.417969 162.21875 346.449219 171.070312 351.839844 C 183.84375 359.609375 197.714844 365.039062 212.390625 367.898438 C 226.105469 370.5625 241.445312 371.46875 254.597656 365.945312 C 272.917969 358.246094 283.804688 339.449219 290.695312 321.75 C 294.75 311.304688 297.789062 300.523438 300.621094 289.699219 C 304.265625 275.78125 307.664062 261.773438 310.21875 247.609375 C 314.972656 221.1875 316.515625 193.746094 311.484375 167.253906 C 309.882812 158.800781 307.613281 150.292969 304.65625 142.117188 C 304.191406 141.542969 303.75 140.898438 303.355469 140.195312 C 300.261719 134.773438 298.128906 128.613281 295.828125 122.75 C 293.816406 119.253906 291.613281 115.894531 289.277344 112.605469 C 285.785156 109.921875 282.460938 107.050781 279.414062 103.921875 C 288.261719 98.191406 296.070312 91.015625 301.691406 81.878906 C 302.617188 80.371094 302.027344 78.929688 300.929688 78.117188 C 296.445312 83.730469 290.636719 88.484375 284.527344 92.695312 C 281.398438 95.375 278.027344 97.785156 274.496094 99.960938 C 271.96875 100.460938 269.417969 100.800781 266.945312 101.082031 C 259.898438 101.886719 252.816406 101.585938 245.808594 100.648438 C 230.65625 98.628906 166.570312 80.980469 139.558594 87.839844 C 133.929688 89.269531 131.277344 94.316406 128.296875 99.054688 C 125.710938 103.175781 122.425781 106.589844 118.480469 109.398438 L 118.039062 109.707031 C 110.328125 115.046875 94.824219 131.933594 88.308594 147.007812 C 79.890625 166.464844 71.808594 224.78125 75.53125 225.28125 C 85.261719 226.601562 90.652344 231.722656 98.582031 237.214844 C 99.105469 237.574219 98.800781 238.550781 98.125 238.300781 C 92.890625 236.414062 87.230469 235.300781 81.746094 234.386719 C 76.78125 233.554688 71.554688 233.40625 66.761719 235.179688 C 59.410156 237.90625 55.824219 244.066406 54.351562 251.015625 C 53.773438 253.730469 53.519531 256.570312 53.488281 259.378906 L 53.484375 260.191406 C 53.488281 269.042969 55.140625 278.855469 61.566406 285.386719 C 64.300781 288.164062 68.007812 290.035156 71.882812 290.550781 C 76.128906 291.121094 78.75 289.203125 82.648438 288.207031 C 87.140625 287.0625 90.644531 290.019531 90.226562 293.875 C 91.179688 294.707031 92.097656 295.582031 93.011719 296.472656 L 93.011719 296.476562 L 93.019531 296.480469 C 93.617188 296.75 94.1875 297.109375 94.703125 297.542969 C 95.550781 298.261719 96.261719 299.050781 96.832031 299.894531 C 98.09375 300.144531 99.308594 300.847656 100.304688 302.132812 C 102.355469 304.777344 104.25 307.449219 106.007812 310.175781 C 109.160156 313.523438 112.296875 316.875 115.390625 320.28125 C 119.113281 324.375 122.734375 328.5625 126.382812 332.726562 L 128.207031 334.804688 C 130.175781 337.046875 132.136719 339.285156 134.101562 341.53125 L 134.683594 342.1875 C 136.65625 344.398438 138.171875 346.03125 138.382812 349.210938 C 138.53125 351.570312 135.992188 353.171875 133.890625 352.632812 C 130.644531 351.796875 129.140625 349.25 127.195312 346.722656 L 124.261719 342.957031 L 121.5 339.410156 C 120.128906 337.644531 118.746094 335.882812 117.367188 334.125 C 116.953125 337.367188 113.527344 339.980469 110.394531 340.121094 L 109.667969 340.152344 C 102.316406 340.394531 93.386719 339.359375 87.792969 334.175781 C 85.277344 336.714844 82.148438 338.714844 78.292969 339.914062 C 69.535156 342.636719 60.578125 337.808594 57.039062 330.464844 C 50.171875 333.40625 42.417969 333.996094 34.996094 331.835938 C 30.71875 330.578125 29.238281 325.246094 32.21875 321.980469 L 32.355469 321.839844 L 32.386719 321.800781 C 31.773438 321 31.433594 320.019531 31.378906 318.953125 C 31.3125 317.660156 32.257812 316.285156 32.0625 315.078125 C 31.320312 310.464844 23.800781 313.882812 21.410156 314.878906 C 20.953125 315.070312 20.527344 315.160156 20.125 315.175781 C 16.429688 316.25 12.414062 311.398438 14.347656 307.390625 C 18.683594 298.4375 22.914062 289.414062 27.300781 280.476562 C 26.746094 280.660156 26.175781 280.835938 25.617188 280.976562 C 17.730469 282.996094 8.171875 279.121094 9.992188 269.617188 C 10.410156 267.386719 12.433594 265.859375 14.4375 265.171875 C 18.347656 263.824219 21.28125 264.796875 24.289062 263.539062 C 27.683594 262.132812 31.222656 259.550781 34.203125 257.117188 C 37.386719 254.527344 40.132812 251.613281 42.566406 248.453125 C 43.539062 243.863281 45.222656 239.476562 47.917969 235.703125 C 48.082031 235.480469 48.25 235.253906 48.421875 235.039062 C 31.136719 230.917969 33.398438 213.917969 25.773438 198.851562 L 25.132812 197.605469 C 19.953125 187.527344 15.433594 176.167969 18.046875 164.691406 C 18.511719 162.664062 19.183594 160.722656 20.054688 158.910156 C 18.667969 159.085938 17.277344 159.242188 15.890625 159.398438 C 12.707031 159.757812 9.472656 155.65625 10.738281 152.636719 C 11.40625 151.058594 12.140625 149.53125 12.933594 148.046875 C 15.132812 143.960938 17.835938 140.246094 21.019531 136.894531 C 15.671875 136.75 10.320312 136.75 5.035156 136.136719 C 0.0429688 135.558594 -5.207031 132.828125 -5.058594 127.070312 C -4.898438 121.582031 -0.0820312 117.425781 4.382812 114.746094 C 8.777344 108.902344 14.355469 104.042969 20.660156 100.433594 C 19.414062 100.152344 18.148438 99.945312 16.863281 99.816406 L 16.21875 99.757812 C 12.617188 99.472656 9.382812 98.484375 6.121094 96.980469 C 3.199219 95.632812 3.246094 91.546875 5.15625 89.488281 C 11.328125 82.816406 20.574219 84.988281 27.769531 88.8125 C 27.269531 88.175781 26.71875 87.5625 26.121094 86.976562 L 25.757812 86.628906 C 22.222656 83.335938 27.527344 78.054688 31.050781 81.335938 C 32.164062 82.371094 33.160156 83.5 34.050781 84.691406 L 34.136719 84.515625 C 38.789062 75.074219 45.597656 66.621094 53.65625 59.851562 L 55.546875 58.277344 C 70.074219 46.140625 74.554688 40.390625 93.875 42.175781 C 93.050781 38.667969 93.128906 34.722656 93.316406 31.476562 L 93.339844 31.039062 C 94.082031 18.832031 98.582031 4.226562 110.484375 -1.253906 C 113.578125 -2.667969 117.082031 -0.355469 116.257812 3.1875 C 115.683594 5.695312 114.976562 8.136719 114.101562 10.507812 C 116.699219 7.777344 119.484375 5.222656 122.433594 2.871094 C 134.460938 -6.710938 150.527344 -14.953125 166.332031 -12.257812 C 175.015625 -10.769531 181.828125 -5.320312 189.097656 -0.765625 C 196.40625 3.816406 204.566406 6.53125 213.121094 7.515625 C 225.078125 8.890625 237.082031 7.507812 248.902344 5.320312 C 257.023438 1.777344 264.910156 -2.367188 272.605469 -6.839844 C 277.335938 -9.585938 281.941406 -12.589844 286.292969 -15.90625 Z M 74.011719 249.148438 C 76.542969 248.5 79.378906 248.507812 81.917969 249.140625 C 88.46875 250.789062 94.5625 256.269531 94.945312 263.179688 C 95.117188 266.300781 92.601562 269.289062 89.679688 270.089844 C 86.371094 271.003906 83.527344 269.386719 81.59375 266.796875 C 79.519531 264.027344 79.003906 261.023438 76.464844 258.507812 L 75.882812 257.9375 C 73.722656 255.875 70.460938 253.207031 67.46875 253.6875 C 67.027344 253.753906 66.695312 253.15625 67.144531 252.914062 C 69.585938 251.582031 71.1875 249.867188 74.011719 249.148438 Z M 108.039062 216.605469 C 109.195312 215.660156 110.71875 216.769531 110.175781 218.125 L 110.132812 218.222656 C 108.765625 221.113281 110.375 224.503906 112.035156 226.921875 C 113.464844 229.011719 110.761719 230.996094 108.863281 230.097656 C 103.515625 227.558594 103.792969 220.050781 108.039062 216.605469 Z M 127.578125 129.78125 C 127.480469 129.078125 128.417969 128.785156 128.65625 129.480469 C 132.648438 141.0625 133.792969 151.320312 133.140625 163.566406 L 133.078125 164.65625 C 132.375 176.453125 130.308594 188.941406 123.167969 198.628906 C 121.515625 200.867188 118.128906 199.550781 118.675781 196.734375 C 120.871094 185.46875 125.085938 174.769531 126.726562 163.367188 C 128.441406 151.445312 129.210938 141.707031 127.578125 129.78125 Z M 90.308594 171.878906 C 90.894531 168.785156 95.648438 165.605469 98.050781 168.710938 C 98.859375 169.769531 97.910156 171.0625 96.933594 171.453125 C 96.023438 171.8125 95.207031 171.316406 94.308594 171.496094 C 93.582031 171.644531 93.050781 172.097656 92.695312 172.71875 L 92.621094 172.851562 C 91.917969 174.199219 90.0625 173.195312 90.308594 171.878906 Z M 88.363281 147.246094 C 90.070312 144.085938 94 142.074219 97.363281 144.042969 C 98.46875 144.695312 98.035156 146.589844 96.6875 146.527344 L 95.890625 146.496094 C 93.492188 146.410156 91.097656 146.457031 89.082031 147.972656 C 88.632812 148.308594 88.136719 147.675781 88.363281 147.246094 Z M 94.363281 60.964844 C 84.789062 56.660156 75.269531 60.546875 67.449219 66.605469 C 66.800781 67.109375 66.488281 67.695312 66.417969 68.28125 C 71.640625 66.25 77.195312 64.917969 82.507812 63.816406 C 86.851562 62.917969 91.238281 62.308594 95.628906 62.070312 C 95.382812 61.628906 94.980469 61.238281 94.363281 60.964844 Z M 94.363281 60.964844 " fill-opacity="1" fill-rule="evenodd"/></g></svg>