<svg xmlns="http://www.w3.org/2000/svg" xmlns:xlink="http://www.w3.org/1999/xlink" width="473" zoomAndPan="magnify" viewBox="0 0 354.75 425.249996" height="567" preserveAspectRatio="xMidYMid meet" version="1.0"><defs><clipPath id="67b1cab218"><path d="M 0.1875 37 L 354.3125 37 L 354.3125 377 L 0.1875 377 Z M 0.1875 37 " clip-rule="nonzero"/></clipPath></defs><path fill="#f4d7b9" d="M 291.820312 121.050781 C 246.800781 91.25 156.609375 94.488281 107.050781 112.746094 C 58.695312 128.078125 41.765625 170.8125 33.738281 216.976562 C 23.976562 268.863281 25.289062 343.65625 95.464844 342.753906 C 105.332031 347.523438 116.261719 349.59375 126.472656 353.542969 C 140.441406 358.375 154.140625 363.984375 168.320312 368.214844 C 196.242188 377.207031 227.316406 376.425781 253.804688 363.265625 C 268.441406 356.195312 274.5 345.1875 284.070312 333.457031 C 311.914062 299.328125 325.921875 250.484375 324.667969 207.089844 C 322.464844 176.53125 317.410156 141.15625 291.820312 121.050781 Z M 291.820312 121.050781 " fill-opacity="1" fill-rule="evenodd"/><g clip-path="url(#67b1cab218)"><path fill="#000000" d="M 348.789062 246.835938 C 344.171875 218.160156 342.890625 189 336.839844 160.550781 C 331.152344 133.777344 320.511719 108.480469 301.921875 88.070312 C 285.289062 69.8125 263.777344 56.402344 240.6875 47.90625 C 195.707031 31.351562 143.972656 35.09375 100.460938 54.417969 C 59.734375 72.5 27.246094 105.949219 8.3125 146.09375 C -3.988281 172.179688 -10.171875 199.910156 -12.917969 228.53125 C -15.964844 260.328125 -16.296875 292.453125 -17.539062 324.363281 C -17.6875 328.300781 -17.90625 332.238281 -17.957031 336.175781 C -18.015625 340.488281 -16.273438 344.269531 -14.851562 348.28125 C -14.753906 348.566406 -14.609375 348.835938 -14.4375 349.089844 C -15.507812 349.226562 -16.578125 349.382812 -17.652344 349.554688 C -18.847656 349.742188 -18.796875 351.6875 -17.652344 351.921875 C -7.957031 353.898438 2.007812 354.175781 11.871094 354.660156 C 22.089844 355.171875 32.324219 355.449219 42.558594 355.792969 C 52.539062 356.128906 62.519531 356.464844 72.496094 356.800781 C 77.738281 356.980469 82.980469 357.160156 88.21875 357.332031 C 90.714844 357.417969 93.207031 357.507812 95.707031 357.589844 C 96.949219 357.632812 98.199219 357.667969 99.441406 357.714844 C 100.453125 357.746094 102.101562 358.390625 102.207031 357.648438 C 102.394531 357.761719 102.59375 357.855469 102.8125 357.925781 C 103.050781 358.050781 103.285156 358.203125 103.507812 358.367188 C 104.726562 359.207031 106.578125 359.101562 107.8125 358.367188 C 107.925781 358.300781 108.046875 358.222656 108.164062 358.148438 C 109.085938 357.601562 109.730469 356.808594 110.089844 355.910156 C 115.210938 362.09375 124.277344 355.148438 119.035156 348.605469 C 116.21875 345.085938 88.21875 258.816406 99.808594 193.097656 L 146.289062 186.941406 C 151.953125 186.367188 160.054688 185.507812 170.597656 184.367188 C 173.179688 175.945312 174.835938 170.382812 175.574219 167.671875 C 175.660156 167.371094 175.742188 167.0625 175.832031 166.765625 C 176.9375 168.71875 178.054688 170.664062 179.175781 172.613281 L 184.910156 184.269531 C 241.34375 183.324219 276.476562 182.898438 290.3125 182.988281 C 290.664062 182.988281 292.332031 208.21875 291.578125 219.328125 C 290.050781 241.640625 288.425781 263.9375 286.164062 286.1875 C 284.71875 300.433594 281.242188 314.40625 276.058594 327.539062 C 267.875 348.28125 244.109375 368 220.9375 368 C 206.515625 368 173.921875 356.316406 169.175781 353.957031 C 164.429688 351.597656 161.601562 358.039062 165.925781 360.613281 C 174.6875 365.828125 198.839844 376.898438 220.9375 376.898438 C 253.027344 376.898438 277.253906 346.449219 280.226562 342.082031 C 309.449219 340.480469 339.335938 341.222656 368.519531 344.121094 C 370.964844 344.359375 373.078125 341.410156 372.292969 339.15625 C 361.808594 309.15625 353.835938 278.214844 348.789062 246.835938 Z M 348.789062 246.835938 " fill-opacity="1" fill-rule="evenodd"/></g></svg>