<svg xmlns="http://www.w3.org/2000/svg" xmlns:xlink="http://www.w3.org/1999/xlink" width="473" zoomAndPan="magnify" viewBox="0 0 354.75 425.249996" height="567" preserveAspectRatio="xMidYMid meet" version="1.0"><defs><clipPath id="1ac84b0497"><path d="M 0.1875 28 L 354.3125 28 L 354.3125 373 L 0.1875 373 Z M 0.1875 28 " clip-rule="nonzero"/></clipPath><clipPath id="404db47161"><path d="M 259.0625 308.492188 L 277.59375 308.492188 L 277.59375 339.09375 L 259.0625 339.09375 Z M 259.0625 308.492188 " clip-rule="nonzero"/></clipPath><clipPath id="c2d69b14d5"><path d="M 260.277344 333.613281 C 269.5625 323.652344 269.785156 321.78125 270.234375 319.460938 C 270.835938 316.691406 270.085938 311.601562 270.984375 309.953125 C 271.507812 309.203125 272.183594 308.90625 272.855469 308.679688 C 273.53125 308.53125 274.429688 308.53125 275.101562 308.832031 C 275.703125 309.054688 276.449219 309.578125 276.75 310.253906 C 277.125 311.078125 277.347656 312.648438 276.898438 313.472656 C 276.523438 314.371094 275.253906 315.269531 274.355469 315.492188 C 273.605469 315.644531 272.78125 315.492188 272.183594 315.121094 C 271.433594 314.59375 270.460938 313.398438 270.3125 312.425781 C 270.234375 311.449219 270.835938 310.027344 271.507812 309.429688 C 272.257812 308.753906 273.753906 308.457031 274.726562 308.679688 C 275.625 308.980469 276.601562 309.804688 277.050781 310.925781 C 277.871094 312.949219 277.421875 317.664062 276.972656 320.507812 C 276.523438 322.832031 276 324.703125 274.804688 326.796875 C 273.304688 329.570312 270.234375 332.9375 268.140625 335.109375 C 266.492188 336.679688 264.769531 338.253906 263.421875 338.777344 C 262.601562 339.078125 261.925781 339.152344 261.253906 338.925781 C 260.652344 338.703125 259.90625 338.179688 259.53125 337.578125 C 259.230469 337.054688 259.007812 336.15625 259.15625 335.484375 C 259.304688 334.808594 260.277344 333.613281 260.277344 333.613281 " clip-rule="nonzero"/></clipPath><clipPath id="a2c70c882b"><path d="M 114.128906 216.285156 L 286 216.285156 L 286 364.390625 L 114.128906 364.390625 Z M 114.128906 216.285156 " clip-rule="nonzero"/></clipPath><clipPath id="8221fd28f0"><path d="M 134.125 316.316406 C 156.585938 329.644531 172.160156 333.835938 183.015625 335.859375 C 192.074219 337.503906 201.507812 338.027344 208.246094 337.878906 C 212.664062 337.804688 217.003906 336.082031 219.324219 336.457031 C 220.523438 336.679688 220.972656 337.804688 221.796875 337.65625 C 222.996094 337.28125 224.34375 333.761719 225.613281 332.5625 C 226.511719 331.738281 227.1875 331.367188 228.308594 330.917969 C 229.882812 330.242188 232.800781 329.71875 234.523438 329.71875 C 235.722656 329.644531 236.472656 329.792969 237.667969 330.242188 C 239.242188 330.765625 241.785156 332.265625 243.058594 333.386719 C 244.03125 334.210938 244.480469 334.808594 245.082031 335.859375 C 245.902344 337.429688 246.878906 339.824219 247.027344 341.921875 C 247.175781 343.945312 247.476562 346.339844 245.980469 348.136719 C 243.507812 351.207031 233.550781 352.628906 228.609375 354.949219 C 224.714844 356.746094 219.101562 361.164062 218.578125 360.5625 C 218.054688 359.964844 225.988281 354.351562 226.214844 350.757812 C 226.363281 346.789062 216.929688 340.425781 217.976562 337.730469 C 218.953125 335.257812 226.214844 336.007812 230.105469 334.433594 C 234 332.789062 238.492188 330.992188 241.261719 328.070312 C 243.957031 325.226562 245.082031 321.78125 246.578125 317.289062 C 248.75 310.703125 249.722656 299.320312 251.371094 291.460938 C 252.792969 284.949219 254.066406 277.683594 255.785156 273.492188 C 256.761719 270.945312 257.507812 269.300781 258.929688 267.800781 C 260.429688 266.230469 262.824219 264.957031 264.472656 264.285156 C 265.59375 263.761719 266.417969 263.609375 267.617188 263.535156 C 269.414062 263.535156 272.183594 263.761719 274.128906 264.507812 C 276.074219 265.332031 278.023438 266.753906 279.371094 268.402344 C 280.71875 270.046875 281.765625 272.21875 282.214844 274.242188 C 282.664062 276.335938 282.363281 277.984375 281.992188 280.753906 C 281.316406 286.296875 278.695312 297.152344 276.601562 304.710938 C 274.652344 311.675781 271.660156 320.808594 270.011719 324.402344 C 269.414062 325.824219 269.1875 326.273438 268.363281 327.246094 C 267.242188 328.59375 265.21875 330.390625 263.273438 331.289062 C 261.402344 332.1875 258.632812 332.488281 256.910156 332.488281 C 255.636719 332.5625 254.664062 332.265625 253.691406 331.964844 C 252.640625 331.664062 251.667969 331.367188 250.621094 330.617188 C 249.199219 329.644531 247.027344 327.546875 245.980469 326.050781 C 245.304688 325.078125 244.929688 324.328125 244.632812 323.054688 C 244.183594 321.40625 243.734375 319.160156 244.183594 316.617188 C 244.855469 312.5 248.75 307.707031 250.769531 301.492188 C 253.691406 292.210938 257.058594 274.464844 258.109375 265.707031 C 258.78125 260.691406 258.78125 258.371094 258.632812 253.800781 C 258.40625 247.363281 256.234375 235.386719 256.386719 230.742188 C 256.386719 228.722656 256.609375 227.75 257.058594 226.324219 C 257.507812 224.976562 258.183594 223.554688 259.082031 222.433594 C 259.90625 221.234375 261.027344 220.1875 262.226562 219.363281 C 263.421875 218.539062 264.847656 217.867188 266.269531 217.417969 C 267.617188 217.042969 269.1875 216.816406 270.609375 216.890625 C 272.109375 216.96875 273.605469 217.265625 274.953125 217.789062 C 276.300781 218.316406 277.648438 219.136719 278.769531 220.035156 C 279.894531 221.011719 280.941406 222.132812 281.691406 223.40625 C 282.441406 224.679688 283.039062 226.101562 283.339844 227.523438 C 283.710938 228.945312 283.789062 230.445312 283.636719 231.941406 C 283.488281 233.363281 283.113281 234.859375 282.515625 236.207031 C 281.914062 237.554688 281.015625 238.828125 280.042969 239.875 C 279.070312 240.925781 277.871094 241.898438 276.601562 242.570312 C 275.253906 243.320312 273.828125 243.769531 272.40625 244.070312 C 270.984375 244.292969 269.414062 244.292969 267.988281 244.070312 C 266.492188 243.84375 265.070312 243.394531 263.722656 242.722656 C 262.449219 242.046875 261.175781 241.148438 260.203125 240.101562 C 259.15625 239.054688 258.332031 237.78125 257.660156 236.433594 C 257.058594 235.160156 256.609375 233.664062 256.460938 232.164062 C 256.3125 230.742188 256.386719 229.171875 256.609375 227.75 C 256.910156 226.324219 257.507812 224.902344 258.257812 223.628906 C 259.007812 222.359375 259.980469 221.234375 261.101562 220.261719 C 262.152344 219.289062 263.5 218.464844 264.847656 217.941406 C 266.191406 217.339844 267.691406 217.042969 269.1875 216.96875 C 270.609375 216.816406 272.183594 216.96875 273.53125 217.339844 C 274.953125 217.714844 276.375 218.390625 277.574219 219.214844 C 278.847656 219.960938 279.96875 221.011719 280.867188 222.207031 C 281.765625 223.332031 282.441406 224.679688 282.964844 226.101562 C 283.414062 227.449219 283.414062 228.347656 283.710938 230.445312 C 284.386719 235.386719 285.808594 249.085938 285.957031 255.898438 C 286.035156 260.390625 285.808594 263.386719 285.433594 267.277344 C 285.058594 271.246094 284.609375 274.242188 283.636719 279.332031 C 281.992188 287.792969 278.769531 304.863281 275.550781 313.546875 C 273.378906 319.3125 270.910156 324.179688 268.363281 327.246094 C 266.71875 329.195312 265.21875 330.390625 263.273438 331.289062 C 261.402344 332.1875 259.007812 332.636719 256.910156 332.488281 C 254.8125 332.414062 252.492188 331.738281 250.621094 330.617188 C 248.824219 329.570312 247.101562 327.847656 245.980469 326.050781 C 244.929688 324.253906 244.257812 321.632812 244.03125 319.835938 C 243.882812 318.636719 243.882812 318.113281 244.183594 316.617188 C 244.855469 312.796875 248.597656 304.039062 250.472656 297.226562 C 252.492188 289.738281 253.765625 278.582031 255.785156 273.492188 C 256.761719 270.796875 257.808594 269.148438 258.929688 267.800781 C 259.753906 266.828125 260.355469 266.304688 261.476562 265.707031 C 263.050781 264.808594 265.894531 263.835938 267.617188 263.535156 C 268.886719 263.386719 269.863281 263.460938 270.910156 263.683594 C 272.03125 263.835938 272.929688 263.984375 274.128906 264.507812 C 275.703125 265.332031 278.097656 267.128906 279.371094 268.402344 C 280.195312 269.300781 280.644531 269.972656 281.167969 271.171875 C 281.839844 272.820312 282.515625 274.988281 282.515625 277.535156 C 282.441406 281.503906 280.042969 287.117188 278.847656 292.808594 C 277.347656 299.921875 276.152344 310.550781 274.652344 316.917969 C 273.679688 321.332031 272.929688 324.253906 271.582031 327.847656 C 270.160156 331.589844 268.363281 335.632812 266.269531 339.003906 C 264.171875 342.222656 261.925781 345.289062 259.15625 347.835938 C 256.386719 350.308594 253.089844 352.105469 249.722656 354.050781 C 246.054688 356.222656 241.710938 358.691406 237.742188 360.265625 C 234.074219 361.6875 230.929688 362.734375 226.886719 363.335938 C 222.019531 364.007812 214.910156 365.132812 210.417969 363.484375 C 206.597656 362.136719 202.628906 359.066406 201.058594 355.699219 C 199.484375 352.179688 199.410156 346.113281 201.207031 342.597656 C 203.078125 339.078125 208.320312 336.457031 212.289062 334.734375 C 216.105469 333.011719 220.222656 332.789062 224.417969 332.113281 C 228.984375 331.367188 238.640625 329.941406 238.792969 330.617188 C 239.015625 331.441406 222.46875 338.554688 221.796875 337.65625 C 221.347656 337.054688 223.96875 333.910156 225.613281 332.5625 C 227.1875 331.289062 229.285156 330.316406 231.304688 329.941406 C 233.328125 329.492188 235.945312 329.792969 237.667969 330.242188 C 238.792969 330.46875 239.539062 330.765625 240.589844 331.441406 C 242.011719 332.414062 244.03125 334.136719 245.082031 335.859375 C 246.128906 337.65625 246.953125 339.824219 247.027344 341.921875 C 247.175781 344.019531 247.027344 346.339844 245.753906 348.433594 C 244.03125 351.429688 239.316406 354.800781 235.648438 357.046875 C 231.980469 359.214844 227.859375 360.640625 223.894531 361.761719 C 220.074219 362.886719 216.257812 363.558594 212.289062 363.785156 C 208.246094 364.007812 204.800781 363.558594 200.085938 363.109375 C 193.347656 362.511719 183.765625 361.539062 175.828125 359.816406 C 167.890625 358.09375 159.058594 355.171875 152.542969 352.925781 C 147.828125 351.28125 144.382812 350.082031 140.488281 348.210938 C 136.671875 346.414062 132.855469 344.316406 129.484375 341.996094 C 126.191406 339.824219 122.671875 337.054688 120.351562 334.808594 C 118.628906 333.164062 117.28125 331.964844 116.382812 330.242188 C 115.484375 328.671875 114.886719 326.5 114.734375 325.078125 C 114.585938 324.027344 114.660156 323.355469 114.886719 322.304688 C 115.257812 320.882812 116.082031 318.710938 117.132812 317.367188 C 118.253906 315.941406 119.828125 314.746094 121.398438 313.996094 C 123.046875 313.246094 125.066406 312.875 126.789062 313.023438 C 128.585938 313.097656 130.683594 313.921875 132.03125 314.59375 C 132.929688 315.121094 134.125 316.316406 134.125 316.316406 " clip-rule="nonzero"/></clipPath><clipPath id="3bb1f087cc"><path d="M 271.128906 169.53125 L 296.128906 169.53125 L 296.128906 341.417969 L 271.128906 341.417969 Z M 271.128906 169.53125 " clip-rule="nonzero"/></clipPath><clipPath id="48fb507ad5"><path d="M 294.492188 172.652344 C 296.214844 198.695312 296.441406 216.113281 295.765625 230.84375 C 295.09375 246.714844 293.21875 266.898438 291.574219 280.164062 C 290.527344 289.117188 289.628906 294.894531 288.128906 302.628906 C 286.40625 310.929688 284.160156 321.429688 281.691406 328.429688 C 279.894531 333.390625 277.421875 339.332031 275.703125 340.796875 C 275.101562 341.367188 274.503906 341.367188 273.90625 341.285156 C 273.304688 341.207031 272.558594 340.878906 272.109375 340.472656 C 271.660156 339.984375 271.285156 339.253906 271.210938 338.601562 C 271.132812 337.949219 271.132812 337.136719 271.507812 336.566406 C 271.882812 335.835938 273.007812 334.9375 273.828125 334.859375 C 274.652344 334.695312 275.851562 335.347656 276.449219 335.914062 C 276.898438 336.402344 277.125 337.136719 277.125 337.867188 C 277.125 338.683594 276.675781 340.066406 276 340.636719 C 275.328125 341.207031 273.980469 341.367188 273.230469 341.125 C 272.632812 340.960938 272.03125 340.472656 271.734375 339.902344 C 271.359375 339.332031 271.132812 338.925781 271.132812 337.949219 C 271.359375 334.9375 276.074219 326.472656 277.949219 320.613281 C 279.746094 314.835938 280.941406 308.976562 282.066406 303.035156 C 283.261719 297.09375 284.011719 291.394531 284.910156 284.964844 C 285.957031 277.558594 286.933594 269.585938 287.753906 261.121094 C 288.578125 251.679688 289.402344 241.832031 289.777344 230.84375 C 290.226562 217.820312 290.226562 198.859375 289.777344 188.113281 C 289.550781 181.523438 287.90625 174.929688 288.503906 172.164062 C 288.730469 171.1875 289.101562 170.699219 289.628906 170.207031 C 290.152344 169.800781 291.050781 169.476562 291.648438 169.558594 C 292.320312 169.640625 293.144531 170.046875 293.59375 170.535156 C 294.042969 171.023438 294.492188 172.652344 294.492188 172.652344 " clip-rule="nonzero"/></clipPath><clipPath id="f8b1fb0dfe"><path d="M 95.566406 165.730469 L 252.558594 165.730469 L 252.558594 213.554688 L 95.566406 213.554688 Z M 95.566406 165.730469 " clip-rule="nonzero"/></clipPath><clipPath id="77a35a4579"><path d="M 118.039062 200.894531 C 118.9375 195.128906 119.835938 198.722656 119.683594 200.519531 C 119.609375 202.242188 118.785156 204.414062 118.113281 205.761719 C 117.664062 206.734375 117.214844 207.257812 116.464844 207.933594 C 115.34375 208.980469 113.46875 210.328125 111.75 210.851562 C 110.101562 211.375 108.003906 211.527344 106.28125 211.226562 C 104.5625 210.925781 102.464844 209.878906 101.265625 209.054688 C 100.367188 208.457031 99.84375 207.78125 99.246094 207.109375 C 98.722656 206.359375 98.195312 205.910156 97.824219 204.714844 C 97 202.390625 95.5 193.707031 96.398438 193.332031 C 97.296875 192.957031 103.511719 202.242188 103.136719 202.617188 C 102.914062 202.917969 99.621094 200.519531 98.570312 199.398438 C 97.824219 198.648438 97.449219 198.125 97 197.078125 C 96.324219 195.730469 95.652344 193.484375 95.652344 191.609375 C 95.652344 189.8125 96.175781 187.792969 97 186.222656 C 97.898438 184.574219 99.246094 183.078125 100.742188 182.027344 C 102.238281 180.980469 104.1875 180.304688 106.058594 180.082031 C 107.855469 179.855469 109.425781 180.90625 111.597656 180.753906 C 114.667969 180.53125 117.960938 178.585938 122.679688 177.535156 C 130.839844 175.664062 151.128906 170.050781 156.59375 172.445312 C 158.988281 173.492188 159.589844 178.136719 160.335938 177.984375 C 160.785156 177.910156 160.5625 176.039062 161.085938 174.992188 C 161.761719 173.417969 163.109375 171.246094 164.605469 169.898438 C 166.101562 168.550781 168.5 167.578125 170.144531 167.054688 C 171.269531 166.679688 172.015625 166.605469 173.214844 166.679688 C 174.863281 166.828125 177.40625 167.277344 179.203125 168.175781 C 181 169.152344 182.648438 170.648438 183.769531 172.371094 C 184.96875 174.015625 185.644531 176.488281 185.941406 178.136719 C 186.167969 179.332031 186.464844 180.980469 185.941406 181.28125 C 184.894531 181.730469 176.582031 175.8125 177.03125 174.242188 C 177.707031 171.996094 192.382812 172.667969 201.140625 172.59375 C 211.546875 172.445312 226.519531 172.21875 235.503906 174.242188 C 241.792969 175.664062 248.15625 177.011719 250.703125 180.679688 C 253.097656 184.199219 253.023438 191.386719 251.226562 195.203125 C 249.429688 198.949219 244.863281 201.644531 240.222656 203.515625 C 234.007812 205.910156 222.925781 205.761719 216.1875 205.984375 C 211.398438 206.136719 207.652344 206.136719 203.609375 205.535156 C 199.792969 205.011719 196.347656 204.039062 192.457031 202.839844 C 188.1875 201.570312 183.097656 200.070312 179.203125 198.050781 C 175.609375 196.253906 169.398438 193.707031 169.621094 191.609375 C 169.769531 189.140625 180.328125 184.425781 185.042969 184.5 C 189.085938 184.574219 193.578125 188.015625 196.125 190.039062 C 197.847656 191.460938 198.96875 192.882812 199.71875 194.457031 C 200.390625 195.804688 200.691406 197.300781 200.839844 198.722656 C 200.914062 200.144531 200.839844 201.644531 200.464844 203.066406 C 200.167969 204.488281 199.566406 205.910156 198.820312 207.109375 C 197.996094 208.308594 197.023438 209.503906 195.898438 210.402344 C 194.777344 211.300781 193.429688 212.050781 192.082031 212.574219 C 190.734375 213.097656 189.238281 213.398438 187.8125 213.398438 C 186.316406 213.472656 184.820312 213.246094 183.472656 212.875 C 182.050781 212.425781 180.703125 211.75 179.503906 210.925781 C 178.304688 210.105469 177.257812 209.054688 176.433594 207.859375 C 175.535156 206.660156 174.863281 205.3125 174.414062 203.964844 C 173.964844 202.542969 173.8125 201.042969 173.8125 199.621094 C 173.8125 198.199219 174.113281 196.628906 174.636719 195.28125 C 175.085938 193.933594 175.835938 192.585938 176.734375 191.460938 C 177.632812 190.339844 178.753906 189.289062 179.953125 188.542969 C 181.152344 187.71875 182.574219 187.117188 183.996094 186.746094 C 185.417969 186.445312 186.914062 186.296875 188.339844 186.371094 C 189.761719 186.519531 191.257812 186.894531 192.605469 187.417969 C 193.953125 188.015625 195.226562 188.839844 196.347656 189.738281 C 197.398438 190.710938 198.371094 191.910156 199.042969 193.183594 C 199.792969 194.382812 200.316406 195.878906 200.617188 197.226562 C 200.914062 198.648438 200.914062 200.222656 200.765625 201.644531 C 200.542969 203.066406 200.167969 204.5625 199.492188 205.835938 C 198.894531 207.109375 197.996094 208.382812 196.949219 209.429688 C 195.976562 210.402344 194.703125 211.300781 193.429688 211.976562 C 192.15625 212.648438 190.660156 213.097656 189.238281 213.324219 C 187.8125 213.472656 186.316406 213.472656 184.894531 213.171875 C 183.472656 212.949219 181.972656 212.425781 180.777344 211.675781 C 179.503906 211.003906 178.304688 210.027344 177.332031 208.980469 C 176.359375 207.933594 174.863281 205.386719 174.9375 205.3125 C 175.011719 205.238281 177.332031 207.933594 177.332031 207.933594 C 177.257812 208.007812 171.644531 202.691406 169.246094 199.546875 C 166.703125 196.179688 164.082031 192.210938 162.660156 188.242188 C 161.234375 184.5 159.589844 180.082031 160.636719 176.5625 C 161.761719 172.667969 166.027344 167.503906 169.921875 166.230469 C 174.113281 164.808594 180.703125 167.503906 185.195312 169.226562 C 189.160156 170.796875 191.933594 173.867188 195.527344 175.515625 C 199.121094 177.160156 202.339844 178.359375 206.90625 179.035156 C 213.570312 180.007812 229.890625 175.8125 231.6875 178.808594 C 233.035156 180.832031 226.070312 185.847656 226.296875 189.363281 C 226.59375 193.257812 235.65625 198.949219 234.53125 201.042969 C 233.035156 203.816406 216.414062 200.445312 209.675781 199.921875 C 204.957031 199.546875 201.890625 198.574219 197.695312 198.5 C 193.128906 198.425781 187.8125 199.996094 183.171875 199.847656 C 178.828125 199.621094 174.113281 199.621094 170.667969 197.75 C 167.449219 195.953125 164.605469 192.507812 162.882812 189.214844 C 161.160156 185.921875 160.113281 181.054688 160.335938 177.984375 C 160.488281 175.738281 161.683594 173.644531 162.507812 172.21875 C 163.183594 171.171875 163.855469 170.574219 164.605469 169.898438 C 165.429688 169.226562 166.101562 168.625 167.226562 168.175781 C 168.722656 167.429688 171.492188 166.753906 173.214844 166.679688 C 174.414062 166.605469 175.160156 166.753906 176.285156 167.054688 C 177.929688 167.578125 180.402344 168.925781 181.75 169.972656 C 182.722656 170.722656 183.171875 171.320312 183.769531 172.371094 C 184.667969 173.792969 185.644531 176.488281 185.941406 178.136719 C 186.167969 179.332031 186.316406 179.933594 185.941406 181.28125 C 185.195312 183.976562 182.273438 190.261719 178.828125 192.957031 C 175.386719 195.652344 171.417969 196.027344 165.355469 197.300781 C 154.046875 199.695312 126.121094 201.71875 115.117188 202.390625 C 109.800781 202.765625 106.132812 203.515625 103.214844 202.617188 C 101.191406 202.019531 99.769531 200.820312 98.570312 199.398438 C 97.375 198.050781 96.476562 195.878906 96.027344 194.457031 C 95.652344 193.40625 95.578125 192.734375 95.652344 191.6875 C 95.726562 190.113281 96.398438 187.566406 97 186.222656 C 97.449219 185.246094 97.898438 184.648438 98.644531 183.898438 C 99.769531 182.851562 101.867188 181.355469 103.289062 180.753906 C 104.261719 180.304688 104.933594 180.15625 106.058594 180.082031 C 107.554688 180.007812 110.101562 180.230469 111.597656 180.753906 C 112.722656 181.203125 113.546875 181.355469 114.445312 182.550781 C 116.390625 185.023438 119.011719 193.855469 119.535156 197.75 C 119.835938 199.996094 119.757812 201.492188 119.234375 203.214844 C 118.710938 204.9375 117.4375 206.808594 116.464844 207.933594 C 115.714844 208.757812 115.191406 209.207031 114.292969 209.65625 C 112.945312 210.402344 110.851562 211.226562 109.054688 211.375 C 107.257812 211.527344 105.011719 210.925781 103.664062 210.402344 C 102.613281 210.105469 102.089844 209.730469 101.265625 209.054688 C 100.144531 208.082031 98.496094 206.808594 97.824219 204.714844 C 96.699219 201.269531 97.523438 192.285156 98.644531 189.214844 C 99.246094 187.71875 99.992188 187.117188 101.042969 186.296875 C 102.238281 185.246094 104.335938 184.125 105.757812 183.675781 C 106.730469 183.375 107.40625 183.226562 108.453125 183.300781 C 109.953125 183.375 112.199219 183.75 113.769531 184.5 C 115.34375 185.324219 116.839844 186.59375 117.886719 188.015625 C 118.859375 189.441406 119.609375 191.3125 119.835938 193.109375 C 120.132812 194.832031 119.683594 197.078125 119.308594 198.425781 C 119.011719 199.472656 118.039062 200.894531 118.039062 200.894531 " clip-rule="nonzero"/></clipPath><clipPath id="59aff2ad7b"><path d="M 95.167969 215.9375 L 139.648438 215.9375 L 139.648438 342.910156 L 95.167969 342.910156 Z M 95.167969 215.9375 " clip-rule="nonzero"/></clipPath><clipPath id="e6c6091361"><path d="M 118.253906 337.28125 C 108.148438 314.296875 105.675781 306.734375 103.65625 297.898438 C 101.035156 286.746094 98.640625 268.851562 97.292969 259.269531 C 96.394531 253.503906 95.867188 250.058594 95.570312 245.566406 C 95.269531 241.222656 95.195312 236.359375 95.417969 232.539062 C 95.570312 229.46875 95.792969 226.402344 96.542969 224.230469 C 97.066406 222.730469 97.816406 221.683594 98.714844 220.636719 C 99.613281 219.585938 100.734375 218.613281 101.859375 217.867188 C 103.054688 217.191406 104.480469 216.59375 105.828125 216.292969 C 107.171875 215.992188 108.597656 215.917969 110.019531 216.070312 C 111.367188 216.21875 112.789062 216.59375 114.0625 217.191406 C 115.335938 217.714844 116.53125 218.539062 117.582031 219.511719 C 118.554688 220.484375 119.453125 221.609375 120.125 222.882812 C 120.800781 224.078125 121.25 225.503906 121.472656 226.851562 C 121.699219 228.199219 121.699219 229.695312 121.472656 231.042969 C 121.324219 232.464844 120.800781 233.8125 120.199219 235.085938 C 119.527344 236.285156 118.628906 237.480469 117.65625 238.453125 C 116.605469 239.425781 115.410156 240.25 114.136719 240.851562 C 112.9375 241.375 111.441406 241.824219 110.09375 241.972656 C 108.746094 242.121094 107.25 242.046875 105.902344 241.75 C 104.554688 241.449219 103.132812 240.925781 101.933594 240.175781 C 100.808594 239.503906 99.613281 238.53125 98.714844 237.480469 C 97.816406 236.433594 97.066406 235.160156 96.542969 233.886719 C 96.019531 232.613281 95.71875 231.117188 95.644531 229.769531 C 95.570312 228.347656 95.71875 226.925781 96.09375 225.578125 C 96.46875 224.230469 97.066406 222.882812 97.816406 221.757812 C 98.640625 220.5625 99.613281 219.511719 100.734375 218.6875 C 101.859375 217.789062 103.132812 217.117188 104.402344 216.667969 C 105.75 216.21875 107.171875 215.992188 108.597656 215.992188 C 110.019531 215.992188 111.441406 216.21875 112.789062 216.667969 C 114.0625 217.117188 115.410156 217.789062 116.457031 218.613281 C 117.582031 219.4375 118.628906 220.484375 119.378906 221.683594 C 120.199219 222.808594 120.800781 223.707031 121.175781 225.503906 C 121.996094 229.097656 120.949219 235.535156 121.398438 242.648438 C 122.148438 254.328125 124.46875 276.5625 126.789062 289.214844 C 128.4375 298.125 130.160156 304.488281 132.328125 311.601562 C 134.425781 318.414062 139.140625 326.574219 139.515625 330.992188 C 139.667969 333.3125 139.21875 334.808594 138.46875 336.382812 C 137.71875 337.953125 136.148438 339.675781 135.023438 340.648438 C 134.199219 341.324219 133.601562 341.621094 132.628906 341.996094 C 131.207031 342.519531 128.734375 342.894531 127.238281 342.894531 C 126.191406 342.894531 125.441406 342.671875 124.542969 342.371094 C 123.71875 342.070312 122.894531 341.773438 122.074219 341.171875 C 120.875 340.351562 118.253906 337.28125 118.253906 337.28125 " clip-rule="nonzero"/></clipPath><clipPath id="14d63f7e1f"><path d="M 113.628906 313.210938 L 235.875 313.210938 L 235.875 360 L 113.628906 360 Z M 113.628906 313.210938 " clip-rule="nonzero"/></clipPath><clipPath id="813f29598a"><path d="M 134.425781 318.339844 C 147.453125 333.6875 158.457031 332.265625 166.542969 332.9375 C 174.332031 333.6875 183.164062 334.660156 189.527344 334.511719 C 194.019531 334.433594 197.464844 334.511719 201.058594 333.238281 C 204.726562 331.890625 208.621094 328.746094 211.164062 326.648438 C 212.886719 325.152344 213.785156 323.28125 215.207031 322.230469 C 216.40625 321.332031 217.679688 320.808594 219.027344 320.433594 C 220.375 320.058594 221.871094 319.910156 223.292969 319.984375 C 224.714844 320.058594 226.140625 320.359375 227.410156 320.882812 C 228.757812 321.40625 230.03125 322.15625 231.082031 323.054688 C 232.128906 323.953125 233.101562 325.152344 233.851562 326.347656 C 234.523438 327.546875 235.125 328.894531 235.421875 330.242188 C 235.722656 331.664062 235.796875 333.164062 235.648438 334.511719 C 235.496094 335.933594 235.125 337.355469 234.523438 338.628906 C 233.925781 339.902344 233.101562 341.097656 232.128906 342.148438 C 231.15625 343.121094 229.957031 344.019531 228.757812 344.691406 C 227.488281 345.367188 226.0625 345.816406 224.714844 346.039062 C 223.292969 346.265625 221.871094 346.265625 220.449219 346.039062 C 219.101562 345.816406 217.679688 345.367188 216.40625 344.691406 C 215.207031 344.09375 214.011719 343.121094 213.035156 342.148438 C 212.0625 341.097656 211.242188 339.902344 210.640625 338.628906 C 210.042969 337.355469 209.667969 335.933594 209.519531 334.511719 C 209.367188 333.164062 209.445312 331.664062 209.742188 330.242188 C 210.042969 328.894531 210.566406 327.546875 211.316406 326.347656 C 212.0625 325.152344 213.035156 324.027344 214.085938 323.054688 C 215.132812 322.15625 216.40625 321.40625 217.679688 320.882812 C 219.027344 320.359375 220.449219 320.058594 221.871094 319.984375 C 223.292969 319.910156 224.714844 320.058594 226.0625 320.433594 C 227.410156 320.808594 228.835938 321.40625 229.957031 322.230469 C 231.082031 322.980469 232.203125 324.027344 233.027344 325.152344 C 233.925781 326.273438 234.597656 327.546875 235.046875 328.894531 C 235.496094 330.242188 235.722656 331.738281 235.722656 333.085938 C 235.722656 334.511719 235.496094 336.007812 235.046875 337.28125 C 234.597656 338.628906 234 339.675781 233.027344 341.023438 C 231.605469 343.046875 229.285156 345.515625 226.886719 347.6875 C 224.117188 350.230469 220.671875 353.375 217.230469 355.171875 C 213.859375 356.894531 210.117188 357.792969 206.375 358.617188 C 202.480469 359.441406 198.8125 359.742188 194.019531 359.816406 C 187.433594 359.964844 178.148438 359.214844 170.363281 358.316406 C 162.574219 357.496094 153.59375 356.296875 147.226562 354.648438 C 142.4375 353.375 138.769531 352.253906 135.097656 350.230469 C 131.429688 348.136719 128.210938 345.066406 125.140625 342.222656 C 122.222656 339.375 118.929688 335.859375 117.054688 333.238281 C 115.785156 331.441406 114.886719 330.167969 114.359375 328.445312 C 113.761719 326.722656 113.539062 324.777344 113.761719 323.054688 C 113.988281 321.332031 114.960938 319.238281 115.785156 318.039062 C 116.308594 317.140625 116.757812 316.617188 117.582031 316.019531 C 118.777344 315.121094 120.726562 313.921875 122.445312 313.546875 C 124.167969 313.171875 126.191406 313.171875 127.835938 313.621094 C 129.558594 314.070312 131.507812 315.34375 132.628906 316.242188 C 133.453125 316.917969 134.425781 318.339844 134.425781 318.339844 " clip-rule="nonzero"/></clipPath><clipPath id="1550c3edb6"><path d="M 164.210938 332.554688 L 278.585938 332.554688 L 278.585938 370.96875 L 164.210938 370.96875 Z M 164.210938 332.554688 " clip-rule="nonzero"/></clipPath><clipPath id="e8e925ea82"><path d="M 168.804688 353.058594 C 181.769531 358.675781 192.230469 360.847656 199.960938 362.195312 C 207.164062 363.390625 215.347656 364.214844 221.109375 364.515625 C 224.976562 364.738281 227.703125 364.890625 230.964844 364.441406 C 234.300781 363.992188 237.636719 363.167969 240.96875 361.820312 C 244.761719 360.324219 248.324219 358.226562 252.191406 355.457031 C 256.964844 352.011719 263.257812 346.171875 267.121094 341.980469 C 270.003906 338.835938 272.125 334.195312 273.871094 333.070312 C 274.550781 332.621094 275.15625 332.546875 275.765625 332.621094 C 276.371094 332.695312 277.054688 332.921875 277.507812 333.445312 C 278.039062 333.96875 278.492188 335.316406 278.417969 336.066406 C 278.417969 336.738281 277.960938 337.339844 277.582031 337.789062 C 277.128906 338.160156 276.445312 338.535156 275.839844 338.609375 C 275.234375 338.6875 274.476562 338.609375 273.945312 338.238281 C 273.261719 337.789062 272.503906 336.589844 272.429688 335.839844 C 272.351562 335.167969 272.582031 334.492188 272.882812 333.96875 C 273.261719 333.445312 273.792969 332.921875 274.476562 332.769531 C 275.234375 332.621094 276.597656 332.695312 277.28125 333.21875 C 277.960938 333.746094 278.492188 334.792969 278.492188 335.765625 C 278.492188 337.039062 277.203125 338.6875 276.21875 340.183594 C 275.082031 341.980469 273.792969 343.550781 271.898438 345.648438 C 268.867188 348.867188 263.484375 354.035156 259.390625 357.402344 C 255.753906 360.398438 252.71875 363.019531 248.550781 365.113281 C 243.773438 367.433594 236.953125 369.605469 232.027344 370.429688 C 228.3125 371.105469 225.582031 370.878906 221.792969 370.730469 C 217.015625 370.578125 211.9375 370.128906 205.796875 369.15625 C 197.230469 367.808594 181.464844 364.367188 175.324219 362.570312 C 172.519531 361.820312 171.308594 361.371094 169.488281 360.472656 C 167.667969 359.5 165.089844 358.375 164.484375 357.027344 C 163.953125 355.980469 164.332031 354.332031 164.789062 353.585938 C 165.167969 353.058594 166 352.6875 166.683594 352.609375 C 167.367188 352.535156 168.804688 353.058594 168.804688 353.058594 " clip-rule="nonzero"/></clipPath><clipPath id="4add892036"><path d="M 93.867188 185.691406 L 121.269531 185.691406 L 121.269531 243.988281 L 93.867188 243.988281 Z M 93.867188 185.691406 " clip-rule="nonzero"/></clipPath><clipPath id="55fe1ed4cb"><path d="M 94.96875 232.914062 C 94.148438 211.800781 93.324219 207.683594 94.820312 203.265625 C 96.765625 197.652344 103.28125 187.992188 106.574219 186.195312 C 107.996094 185.449219 109.269531 185.898438 110.542969 186.046875 C 111.816406 186.195312 113.164062 186.570312 114.285156 187.167969 C 115.484375 187.695312 116.605469 188.441406 117.582031 189.339844 C 118.480469 190.3125 119.300781 191.363281 119.902344 192.558594 C 120.5 193.683594 120.949219 195.03125 121.097656 196.304688 C 121.324219 197.578125 121.324219 198.925781 121.097656 200.195312 C 120.875 201.46875 120.425781 202.816406 119.75 203.941406 C 119.152344 205.0625 118.328125 206.1875 117.355469 207.011719 C 116.382812 207.90625 115.257812 208.65625 114.0625 209.253906 C 112.9375 209.78125 111.589844 210.078125 110.242188 210.230469 C 108.96875 210.378906 107.621094 210.304688 106.351562 210.003906 C 105.078125 209.703125 103.804688 209.179688 102.683594 208.507812 C 101.632812 207.832031 100.585938 206.933594 99.761719 205.886719 C 98.9375 204.914062 98.191406 203.714844 97.742188 202.519531 C 97.292969 201.320312 96.992188 199.972656 96.917969 198.625 C 96.84375 197.351562 97.066406 196.003906 97.367188 194.730469 C 97.742188 193.535156 98.339844 192.261719 99.089844 191.210938 C 99.835938 190.089844 100.808594 189.117188 101.859375 188.367188 C 102.90625 187.617188 104.105469 186.945312 105.300781 186.570312 C 106.574219 186.121094 107.921875 185.972656 109.195312 185.972656 C 110.542969 185.972656 111.890625 186.195312 113.089844 186.644531 C 114.285156 187.09375 115.558594 187.695312 116.53125 188.515625 C 117.582031 189.339844 118.554688 190.3125 119.226562 191.4375 C 119.976562 192.484375 120.5 193.757812 120.875 194.957031 C 121.175781 196.230469 121.324219 197.652344 121.25 198.925781 C 121.175781 200.195312 120.875 201.542969 120.351562 202.742188 C 119.828125 203.941406 119.152344 205.136719 118.253906 206.113281 C 117.429688 207.085938 116.382812 207.984375 115.257812 208.582031 C 114.136719 209.253906 111.664062 210.152344 111.589844 210.003906 C 111.441406 209.855469 117.953125 204.539062 119.078125 205.214844 C 120.351562 206.035156 118.03125 212.25 117.730469 216.441406 C 117.429688 221.832031 118.554688 230.894531 117.582031 235.011719 C 117.054688 237.257812 116.082031 238.679688 115.183594 239.875 C 114.511719 240.773438 114.0625 241.222656 113.164062 241.824219 C 111.890625 242.570312 109.867188 243.621094 108.148438 243.84375 C 106.351562 244.144531 104.105469 243.769531 102.683594 243.394531 C 101.632812 243.097656 101.035156 242.796875 100.210938 242.199219 C 99.011719 241.300781 97.292969 239.726562 96.46875 238.230469 C 95.570312 236.65625 94.96875 232.914062 94.96875 232.914062 " clip-rule="nonzero"/></clipPath><clipPath id="cfcadabce5"><path d="M 165 157 L 179 157 L 179 176 L 165 176 Z M 165 157 " clip-rule="nonzero"/></clipPath><clipPath id="3835f53fb9"><path d="M 176.335938 155.976562 L 183.085938 167.855469 L 167.820312 176.527344 L 161.070312 164.644531 Z M 176.335938 155.976562 " clip-rule="nonzero"/></clipPath><clipPath id="2c169c4f31"><path d="M 177.773438 161.726562 C 169.878906 175.421875 169.3125 175.484375 168.738281 175.382812 C 168.136719 175.378906 167.421875 175.183594 166.957031 174.671875 C 166.390625 174.132812 165.921875 172.847656 165.914062 172.078125 C 165.917969 171.472656 166.214844 170.789062 166.726562 170.324219 C 167.304688 169.824219 168.625 169.417969 169.429688 169.476562 C 170.070312 169.542969 170.628906 169.917969 171.054688 170.363281 C 171.480469 170.808594 171.851562 171.460938 171.886719 172.128906 C 171.894531 172.902344 171.386719 174.132812 170.847656 174.699219 C 170.335938 175.164062 169.675781 175.363281 169.007812 175.402344 C 168.441406 175.464844 167.726562 175.265625 167.171875 174.894531 C 166.640625 174.417969 165.957031 173.515625 165.933594 172.410156 C 165.761719 170.441406 167.960938 166.4375 169.242188 163.988281 C 170.269531 161.855469 171.6875 159.5 172.765625 158.371094 C 173.371094 157.769531 173.882812 157.304688 174.476562 157.140625 C 175.175781 157 176.046875 157.023438 176.601562 157.394531 C 177.261719 157.796875 178.058594 158.894531 178.230469 159.65625 C 178.371094 160.351562 177.773438 161.726562 177.773438 161.726562 " clip-rule="nonzero"/></clipPath><clipPath id="8fd7987a3f"><path d="M 182.304688 168.914062 L 295.121094 168.914062 L 295.121094 176.398438 L 182.304688 176.398438 Z M 182.304688 168.914062 " clip-rule="nonzero"/></clipPath><clipPath id="9a7fa44052"><path d="M 185.335938 168.960938 C 293.605469 169.335938 294.132812 169.632812 294.582031 170.234375 C 294.960938 170.757812 295.109375 171.503906 295.109375 172.105469 C 295.035156 172.703125 294.808594 173.378906 294.359375 173.828125 C 293.832031 174.425781 292.550781 174.949219 291.796875 174.875 C 291.117188 174.875 290.441406 174.5 289.988281 174.125 C 289.609375 173.675781 289.160156 173.078125 289.082031 172.402344 C 289.082031 171.65625 289.386719 170.308594 289.988281 169.707031 C 290.589844 169.183594 291.945312 168.886719 292.777344 168.960938 C 293.378906 169.109375 293.980469 169.484375 294.359375 170.007812 C 294.808594 170.457031 295.035156 171.132812 295.109375 171.730469 C 295.109375 172.328125 294.960938 173.078125 294.582031 173.601562 C 294.132812 174.199219 293.605469 174.574219 292.097656 174.949219 C 282.679688 177.195312 193.851562 176.445312 185.335938 174.949219 C 184.128906 174.726562 183.828125 174.574219 183.300781 174.125 C 182.851562 173.75 182.398438 173.003906 182.324219 172.253906 C 182.246094 171.503906 182.773438 170.234375 183.300781 169.707031 C 183.828125 169.183594 185.335938 168.960938 185.335938 168.960938 " clip-rule="nonzero"/></clipPath><clipPath id="6af5a31aca"><path d="M 91 176 L 119 176 L 119 349 L 91 349 Z M 91 176 " clip-rule="nonzero"/></clipPath><clipPath id="e9dc16c038"><path d="M 136.414062 344.121094 L 111.992188 349.472656 L 75.207031 181.570312 L 99.625 176.21875 Z M 136.414062 344.121094 " clip-rule="nonzero"/></clipPath><clipPath id="cf04b9ba8f"><path d="M 112.925781 346.074219 C 105.667969 321.003906 101.722656 304.039062 99.226562 289.503906 C 96.488281 273.855469 93.996094 253.738281 92.765625 240.429688 C 91.875 231.457031 91.515625 225.621094 91.320312 217.75 C 91.226562 209.269531 91.175781 198.535156 92.089844 191.167969 C 92.78125 185.933594 93.925781 179.601562 95.292969 177.800781 C 95.753906 177.117188 96.339844 176.988281 96.941406 176.941406 C 97.546875 176.890625 98.347656 177.050781 98.871094 177.351562 C 99.414062 177.730469 99.9375 178.367188 100.152344 178.988281 C 100.363281 179.605469 100.539062 180.402344 100.292969 181.039062 C 100.085938 181.835938 99.179688 182.949219 98.390625 183.203125 C 97.621094 183.539062 96.3125 183.160156 95.605469 182.730469 C 95.0625 182.351562 94.6875 181.683594 94.53125 180.96875 C 94.355469 180.171875 94.5 178.726562 95.035156 178.023438 C 95.570312 177.324219 96.851562 176.875 97.636719 176.957031 C 98.257812 176.984375 98.945312 177.335938 99.359375 177.828125 C 99.847656 178.304688 100.15625 178.652344 100.363281 179.605469 C 100.789062 182.597656 97.992188 191.875 97.417969 198 C 96.898438 204.027344 96.984375 210.007812 97.160156 216.054688 C 97.261719 222.113281 97.75 227.839844 98.246094 234.3125 C 98.808594 241.769531 99.5625 249.769531 100.570312 258.214844 C 101.789062 267.613281 103.089844 277.410156 105.078125 288.222656 C 107.425781 301.039062 111.484375 319.5625 114.222656 329.960938 C 115.851562 336.351562 118.871094 342.441406 118.878906 345.269531 C 118.867188 346.273438 118.609375 346.828125 118.199219 347.417969 C 117.777344 347.929688 116.96875 348.4375 116.363281 348.488281 C 115.691406 348.550781 114.796875 348.332031 114.253906 347.949219 C 113.710938 347.570312 112.925781 346.074219 112.925781 346.074219 " clip-rule="nonzero"/></clipPath><clipPath id="73c3637a95"><path d="M 95.34375 169.445312 L 169.914062 169.445312 L 169.914062 182.996094 L 95.34375 182.996094 Z M 95.34375 169.445312 " clip-rule="nonzero"/></clipPath><clipPath id="35cbc7efad"><path d="M 98.265625 176.785156 C 141.914062 173.414062 161.675781 168.847656 166.769531 169.597656 C 168.117188 169.820312 168.789062 170.269531 169.238281 170.871094 C 169.6875 171.320312 169.839844 172.066406 169.839844 172.664062 C 169.839844 173.265625 169.6875 174.011719 169.238281 174.460938 C 168.714844 175.0625 167.515625 175.660156 166.695312 175.585938 C 165.871094 175.585938 164.746094 174.761719 164.296875 174.164062 C 163.921875 173.640625 163.847656 172.890625 163.921875 172.292969 C 164 171.691406 164.296875 170.945312 164.746094 170.570312 C 165.121094 170.121094 165.796875 169.746094 166.394531 169.671875 C 166.992188 169.597656 167.742188 169.671875 168.265625 169.972656 C 168.941406 170.421875 169.6875 171.542969 169.839844 172.292969 C 169.988281 172.964844 169.761719 173.714844 169.390625 174.164062 C 169.089844 174.6875 168.714844 175.0625 167.964844 175.4375 C 166.46875 176.109375 163.847656 176.183594 160.554688 176.707031 C 153.890625 177.683594 140.640625 179.554688 130.382812 180.527344 C 119.976562 181.574219 103.132812 183.671875 98.488281 182.773438 C 97.140625 182.546875 96.542969 182.175781 96.019531 181.574219 C 95.570312 181.050781 95.34375 180.226562 95.417969 179.554688 C 95.417969 178.878906 95.792969 178.132812 96.316406 177.605469 C 96.765625 177.15625 98.265625 176.785156 98.265625 176.785156 " clip-rule="nonzero"/></clipPath><clipPath id="299cce7504"><path d="M 172.964844 157.484375 L 186.625 157.484375 L 186.625 175.039062 L 172.964844 175.039062 Z M 172.964844 157.484375 " clip-rule="nonzero"/></clipPath><clipPath id="ab67b6e1fb"><path d="M 178.671875 159.078125 C 186.683594 172.703125 186.457031 173.226562 186.085938 173.675781 C 185.785156 174.199219 185.261719 174.726562 184.585938 174.875 C 183.839844 175.097656 182.492188 174.875 181.816406 174.5 C 181.292969 174.199219 180.84375 173.601562 180.695312 172.929688 C 180.542969 172.179688 180.84375 170.832031 181.292969 170.15625 C 181.667969 169.632812 182.265625 169.335938 182.867188 169.183594 C 183.464844 169.035156 184.214844 169.035156 184.8125 169.335938 C 185.484375 169.707031 186.308594 170.757812 186.535156 171.503906 C 186.683594 172.179688 186.535156 172.851562 186.234375 173.453125 C 186.007812 173.976562 185.484375 174.5 184.886719 174.800781 C 184.214844 175.023438 183.089844 175.175781 182.117188 174.648438 C 180.320312 173.828125 177.925781 169.933594 176.425781 167.613281 C 175.078125 165.664062 173.730469 163.269531 173.28125 161.773438 C 173.058594 160.949219 172.90625 160.273438 173.058594 159.675781 C 173.28125 159.003906 173.730469 158.253906 174.332031 157.953125 C 175.003906 157.582031 176.351562 157.429688 177.101562 157.65625 C 177.773438 157.878906 178.671875 159.078125 178.671875 159.078125 " clip-rule="nonzero"/></clipPath><clipPath id="e13467c687"><path d="M 100 111 L 130 111 L 130 171 L 100 171 Z M 100 111 " clip-rule="nonzero"/></clipPath><clipPath id="211679d2b8"><path d="M 124.582031 171.855469 L 99.65625 169.9375 L 104.304688 109.472656 L 129.230469 111.386719 Z M 124.582031 171.855469 " clip-rule="nonzero"/></clipPath><clipPath id="8899be71d5"><path d="M 101.378906 168.910156 C 100.363281 159.636719 100.609375 153.503906 101.679688 148.386719 C 102.777344 142.867188 105.1875 135.925781 107.191406 131.398438 C 108.476562 128.335938 109.527344 126.375 111.230469 123.777344 C 113.171875 120.996094 115.691406 117.484375 118.34375 115.214844 C 120.269531 113.609375 122.894531 111.714844 124.652344 111.332031 C 125.261719 111.179688 125.859375 111.222656 126.457031 111.300781 C 127.050781 111.375 127.789062 111.546875 128.226562 111.722656 C 128.660156 111.929688 129.011719 112.214844 129.070312 112.449219 C 129.128906 112.683594 129.105469 112.96875 128.71875 113.140625 C 128.324219 113.367188 127.179688 113.597656 126.355469 113.5625 C 125.53125 113.554688 124.355469 113.234375 123.773438 112.988281 C 123.339844 112.785156 123.132812 112.507812 123.152344 112.25 C 123.175781 111.964844 123.660156 111.515625 124.347656 111.367188 C 125.035156 111.21875 126.382812 111.265625 127.125 111.40625 C 127.714844 111.511719 128.300781 111.726562 128.582031 111.949219 C 128.941406 112.179688 129.152344 112.339844 129.128906 112.683594 C 128.824219 113.722656 123.890625 116.332031 121.867188 118.246094 C 119.917969 120.136719 118.566406 122.101562 117.285156 124.097656 C 115.933594 126.09375 115.03125 128.035156 113.960938 130.222656 C 112.71875 132.742188 111.53125 135.464844 110.484375 138.375 C 109.40625 141.625 108.320312 145.019531 107.648438 148.84375 C 106.851562 153.382812 106.339844 160.039062 106.496094 163.84375 C 106.542969 166.171875 108.007812 168.613281 107.335938 169.539062 C 107.085938 169.863281 106.699219 170.007812 106.164062 170.136719 C 105.628906 170.242188 104.726562 170.285156 104.128906 170.210938 C 103.460938 170.132812 102.652344 169.925781 102.214844 169.71875 C 101.78125 169.515625 101.378906 168.910156 101.378906 168.910156 " clip-rule="nonzero"/></clipPath><clipPath id="3dd23dfb25"><path d="M 61.441406 296 L 70.785156 296 L 70.785156 353.378906 L 61.441406 353.378906 Z M 61.441406 296 " clip-rule="nonzero"/></clipPath><clipPath id="0a2efb2fcf"><path d="M 68.019531 298.195312 C 68.46875 338.769531 71.386719 348.011719 70.636719 351.015625 C 70.414062 352 70.039062 352.492188 69.515625 352.875 C 68.992188 353.203125 68.316406 353.367188 67.71875 353.367188 C 66.894531 353.3125 65.695312 352.820312 65.171875 352.382812 C 64.796875 352 64.648438 351.507812 64.722656 351.070312 C 64.722656 350.578125 64.949219 350.089844 65.398438 349.761719 C 65.921875 349.324219 67.195312 348.996094 68.019531 348.996094 C 68.617188 348.996094 69.289062 349.269531 69.738281 349.597656 C 70.1875 349.871094 70.5625 350.359375 70.636719 350.796875 C 70.714844 351.34375 70.265625 352.328125 69.738281 352.765625 C 69.289062 353.09375 68.617188 353.257812 68.019531 353.3125 C 67.417969 353.367188 66.671875 353.257812 66.144531 353.039062 C 65.621094 352.820312 65.246094 352.601562 64.875 351.945312 C 63.75 350.089844 63.078125 344.621094 62.550781 339.152344 C 61.578125 329.363281 60.980469 302.515625 62.027344 298.195312 C 62.179688 297.378906 62.328125 297.105469 62.777344 296.722656 C 63.226562 296.394531 63.976562 296.066406 64.648438 296.011719 C 65.324219 295.957031 66.144531 296.066406 66.671875 296.394531 C 67.34375 296.722656 68.019531 298.195312 68.019531 298.195312 " clip-rule="nonzero"/></clipPath><clipPath id="5a7801b3a8"><path d="M 28.050781 293.585938 L 37.394531 293.585938 L 37.394531 351.019531 L 28.050781 351.019531 Z M 28.050781 293.585938 " clip-rule="nonzero"/></clipPath><clipPath id="c9ebe8eafa"><path d="M 34.625 295.839844 C 35.074219 336.410156 37.996094 345.652344 37.246094 348.660156 C 37.023438 349.644531 36.648438 350.136719 36.125 350.519531 C 35.601562 350.847656 34.925781 351.011719 34.328125 351.011719 C 33.503906 350.957031 32.304688 350.464844 31.78125 350.027344 C 31.40625 349.644531 31.257812 349.152344 31.332031 348.714844 C 31.332031 348.222656 31.558594 347.730469 32.007812 347.402344 C 32.53125 346.964844 33.804688 346.636719 34.625 346.636719 C 35.226562 346.636719 35.898438 346.910156 36.347656 347.238281 C 36.796875 347.511719 37.171875 348.003906 37.246094 348.441406 C 37.320312 348.988281 36.871094 349.972656 36.347656 350.410156 C 35.898438 350.738281 35.226562 350.902344 34.625 350.957031 C 34.027344 351.011719 33.277344 350.902344 32.753906 350.683594 C 32.230469 350.464844 31.855469 350.246094 31.480469 349.589844 C 30.359375 347.730469 29.683594 342.261719 29.160156 336.792969 C 28.1875 327.003906 27.589844 300.15625 28.636719 295.839844 C 28.785156 295.019531 28.9375 294.746094 29.386719 294.363281 C 29.835938 294.035156 30.582031 293.707031 31.257812 293.652344 C 31.929688 293.597656 32.753906 293.707031 33.277344 294.035156 C 33.953125 294.363281 34.625 295.839844 34.625 295.839844 " clip-rule="nonzero"/></clipPath><clipPath id="16e26f4c5d"><path d="M 336.671875 279.519531 L 346 279.519531 L 346 336.957031 L 336.671875 336.957031 Z M 336.671875 279.519531 " clip-rule="nonzero"/></clipPath><clipPath id="5c1d74b57c"><path d="M 339.4375 334.703125 C 338.988281 294.128906 336.066406 284.890625 336.816406 281.882812 C 337.042969 280.898438 337.414062 280.40625 337.941406 280.023438 C 338.464844 279.695312 339.136719 279.53125 339.738281 279.53125 C 340.558594 279.585938 341.757812 280.078125 342.28125 280.515625 C 342.65625 280.898438 342.804688 281.390625 342.730469 281.828125 C 342.730469 282.320312 342.507812 282.8125 342.058594 283.140625 C 341.535156 283.578125 340.261719 283.90625 339.4375 283.90625 C 338.839844 283.90625 338.164062 283.632812 337.714844 283.304688 C 337.265625 283.03125 336.890625 282.539062 336.816406 282.101562 C 336.742188 281.554688 337.191406 280.570312 337.714844 280.132812 C 338.164062 279.804688 338.839844 279.640625 339.4375 279.585938 C 340.035156 279.53125 340.785156 279.640625 341.308594 279.859375 C 341.832031 280.078125 342.207031 280.296875 342.582031 280.953125 C 343.703125 282.8125 344.378906 288.277344 344.902344 293.746094 C 345.875 303.535156 346.472656 330.382812 345.425781 334.703125 C 345.277344 335.523438 345.125 335.796875 344.675781 336.179688 C 344.226562 336.507812 343.480469 336.835938 342.804688 336.890625 C 342.132812 336.945312 341.308594 336.835938 340.785156 336.507812 C 340.109375 336.179688 339.4375 334.703125 339.4375 334.703125 " clip-rule="nonzero"/></clipPath><clipPath id="00ff973703"><path d="M 307.023438 279.519531 L 316.367188 279.519531 L 316.367188 336.957031 L 307.023438 336.957031 Z M 307.023438 279.519531 " clip-rule="nonzero"/></clipPath><clipPath id="36571a433c"><path d="M 309.789062 334.703125 C 309.339844 294.128906 306.421875 284.890625 307.167969 281.882812 C 307.394531 280.898438 307.769531 280.40625 308.292969 280.023438 C 308.816406 279.695312 309.488281 279.53125 310.089844 279.53125 C 310.914062 279.585938 312.109375 280.078125 312.632812 280.515625 C 313.007812 280.898438 313.160156 281.390625 313.082031 281.828125 C 313.082031 282.320312 312.859375 282.8125 312.410156 283.140625 C 311.886719 283.578125 310.613281 283.90625 309.789062 283.90625 C 309.191406 283.90625 308.515625 283.632812 308.066406 283.304688 C 307.617188 283.03125 307.242188 282.539062 307.167969 282.101562 C 307.09375 281.554688 307.542969 280.570312 308.066406 280.132812 C 308.515625 279.804688 309.191406 279.640625 309.789062 279.585938 C 310.386719 279.53125 311.136719 279.640625 311.660156 279.859375 C 312.183594 280.078125 312.558594 280.296875 312.933594 280.953125 C 314.058594 282.8125 314.730469 288.277344 315.253906 293.746094 C 316.226562 303.535156 316.828125 330.382812 315.777344 334.703125 C 315.628906 335.523438 315.480469 335.796875 315.03125 336.179688 C 314.582031 336.507812 313.832031 336.835938 313.160156 336.890625 C 312.484375 336.945312 311.660156 336.835938 311.136719 336.507812 C 310.464844 336.179688 309.789062 334.703125 309.789062 334.703125 " clip-rule="nonzero"/></clipPath><clipPath id="040790e615"><path d="M 254 107 L 290 107 L 290 166 L 254 166 Z M 254 107 " clip-rule="nonzero"/></clipPath><clipPath id="ac23ea453c"><path d="M 241.566406 123.941406 L 258.914062 105.941406 L 302.582031 148.023438 L 285.234375 166.023438 Z M 241.566406 123.941406 " clip-rule="nonzero"/></clipPath><clipPath id="901ee660d0"><path d="M 258.613281 107.921875 C 266.410156 113.046875 270.980469 117.136719 274.246094 121.222656 C 277.800781 125.582031 281.621094 131.863281 283.839844 136.289062 C 285.382812 139.230469 286.222656 141.289062 287.144531 144.253906 C 288.050781 147.523438 289.15625 151.703125 289.214844 155.191406 C 289.226562 157.699219 289.019531 160.929688 288.195312 162.527344 C 287.921875 163.097656 287.507812 163.53125 287.070312 163.941406 C 286.636719 164.351562 286.03125 164.8125 285.617188 165.035156 C 285.183594 165.238281 284.738281 165.332031 284.519531 165.226562 C 284.304688 165.121094 284.097656 164.921875 284.210938 164.511719 C 284.285156 164.0625 284.839844 163.035156 285.390625 162.425781 C 285.917969 161.792969 286.917969 161.089844 287.476562 160.796875 C 287.910156 160.589844 288.253906 160.609375 288.4375 160.789062 C 288.644531 160.988281 288.683594 161.648438 288.359375 162.273438 C 288.039062 162.898438 287.144531 163.90625 286.5625 164.386719 C 286.105469 164.777344 285.566406 165.089844 285.214844 165.167969 C 284.808594 165.296875 284.550781 165.359375 284.304688 165.121094 C 283.695312 164.222656 284.824219 158.757812 284.636719 155.980469 C 284.417969 153.273438 283.765625 150.980469 283.039062 148.722656 C 282.363281 146.40625 281.4375 144.476562 280.433594 142.257812 C 279.28125 139.695312 277.9375 137.046875 276.363281 134.386719 C 274.542969 131.484375 272.617188 128.488281 270.089844 125.535156 C 267.101562 122.03125 262.296875 117.398438 259.261719 115.097656 C 257.433594 113.648438 254.621094 113.222656 254.335938 112.117188 C 254.242188 111.714844 254.378906 111.328125 254.617188 110.832031 C 254.878906 110.355469 255.417969 109.628906 255.855469 109.214844 C 256.34375 108.75 257.019531 108.257812 257.453125 108.054688 C 257.890625 107.847656 258.613281 107.921875 258.613281 107.921875 " clip-rule="nonzero"/></clipPath><clipPath id="31f8c706b8"><path d="M 141 124 L 169 124 L 169 166 L 141 166 Z M 141 124 " clip-rule="nonzero"/></clipPath><clipPath id="786f98584b"><path d="M 165.730469 167.253906 L 140.804688 165.339844 L 144.097656 122.523438 L 169.023438 124.441406 Z M 165.730469 167.253906 " clip-rule="nonzero"/></clipPath><clipPath id="30ebabe9a1"><path d="M 142.503906 164.601562 C 141.28125 158.003906 141.390625 153.664062 142.34375 150.058594 C 143.320312 146.171875 145.570312 141.300781 147.464844 138.136719 C 148.683594 135.992188 149.6875 134.628906 151.328125 132.824219 C 153.203125 130.894531 155.644531 128.460938 158.242188 126.910156 C 160.125 125.816406 162.703125 124.53125 164.449219 124.300781 C 165.054688 124.203125 165.652344 124.25 166.25 124.316406 C 166.84375 124.382812 167.585938 124.519531 168.027344 124.65625 C 168.464844 124.8125 168.824219 125.023438 168.886719 125.1875 C 168.949219 125.355469 168.933594 125.558594 168.546875 125.671875 C 168.160156 125.824219 167.023438 125.960938 166.203125 125.917969 C 165.378906 125.894531 164.195312 125.640625 163.609375 125.453125 C 163.171875 125.296875 162.960938 125.097656 162.972656 124.917969 C 162.988281 124.714844 163.464844 124.40625 164.148438 124.316406 C 164.828125 124.226562 166.175781 124.289062 166.917969 124.40625 C 167.511719 124.492188 168.101562 124.660156 168.386719 124.824219 C 168.75 124.996094 168.964844 125.113281 168.949219 125.355469 C 168.667969 126.085938 163.800781 127.828125 161.824219 129.136719 C 159.921875 130.433594 158.617188 131.796875 157.382812 133.1875 C 156.074219 134.570312 155.21875 135.925781 154.203125 137.453125 C 153.015625 139.210938 151.890625 141.117188 150.910156 143.15625 C 149.90625 145.4375 148.898438 147.820312 148.316406 150.519531 C 147.621094 153.714844 147.257812 158.425781 147.5 161.125 C 147.597656 162.78125 149.113281 164.542969 148.464844 165.183594 C 148.222656 165.410156 147.839844 165.5 147.308594 165.582031 C 146.777344 165.644531 145.875 165.65625 145.28125 165.589844 C 144.609375 165.515625 143.796875 165.351562 143.359375 165.195312 C 142.917969 165.042969 142.503906 164.601562 142.503906 164.601562 " clip-rule="nonzero"/></clipPath><clipPath id="b8cf9718c6"><path d="M 219 118 L 245 118 L 245 166 L 219 166 Z M 219 118 " clip-rule="nonzero"/></clipPath><clipPath id="020e97fb4d"><path d="M 206.984375 134.597656 L 224.332031 116.597656 L 257.144531 148.222656 L 239.796875 166.222656 Z M 206.984375 134.597656 " clip-rule="nonzero"/></clipPath><clipPath id="ada2d47576"><path d="M 223.800781 118.359375 C 229.957031 121.902344 233.429688 124.9375 235.769531 128.125 C 238.324219 131.523438 240.867188 136.578125 242.253906 140.199219 C 243.230469 142.59375 243.707031 144.304688 244.140625 146.800781 C 244.527344 149.5625 244.96875 153.109375 244.585938 156.171875 C 244.285156 158.378906 243.703125 161.246094 242.785156 162.753906 C 242.480469 163.292969 242.0625 163.722656 241.632812 164.140625 C 241.203125 164.554688 240.621094 165.035156 240.230469 165.285156 C 239.828125 165.515625 239.425781 165.652344 239.25 165.585938 C 239.074219 165.519531 238.921875 165.371094 239.070312 164.996094 C 239.191406 164.59375 239.800781 163.621094 240.355469 163.011719 C 240.898438 162.390625 241.851562 161.648438 242.375 161.320312 C 242.78125 161.085938 243.078125 161.058594 243.214844 161.195312 C 243.371094 161.34375 243.324219 161.921875 242.964844 162.511719 C 242.605469 163.101562 241.699219 164.101562 241.132812 164.59375 C 240.6875 164.996094 240.179688 165.335938 239.863281 165.449219 C 239.496094 165.613281 239.261719 165.699219 239.074219 165.519531 C 238.65625 164.808594 240.320312 159.855469 240.5 157.433594 C 240.648438 155.078125 240.363281 153.140625 240.011719 151.242188 C 239.710938 149.289062 239.144531 147.703125 238.542969 145.875 C 237.859375 143.761719 237.015625 141.597656 235.976562 139.449219 C 234.75 137.125 233.445312 134.726562 231.613281 132.4375 C 229.441406 129.726562 225.832031 126.242188 223.472656 124.59375 C 222.0625 123.546875 219.664062 123.523438 219.550781 122.582031 C 219.523438 122.242188 219.6875 121.882812 219.960938 121.417969 C 220.246094 120.964844 220.808594 120.257812 221.238281 119.839844 C 221.722656 119.371094 222.371094 118.851562 222.773438 118.621094 C 223.179688 118.386719 223.800781 118.359375 223.800781 118.359375 " clip-rule="nonzero"/></clipPath></defs><path fill="#f4d7b9" d="M 295.328125 113.363281 C 249.765625 83.207031 158.492188 86.484375 108.335938 104.960938 C 59.402344 120.480469 42.265625 163.722656 34.140625 210.445312 C 24.265625 262.953125 25.59375 338.648438 96.613281 337.730469 C 106.597656 342.558594 117.660156 344.652344 127.988281 348.652344 C 142.128906 353.542969 155.992188 359.214844 170.339844 363.496094 C 198.601562 372.597656 230.046875 371.808594 256.855469 358.488281 C 271.664062 351.335938 277.796875 340.195312 287.480469 328.320312 C 315.660156 293.78125 329.839844 244.355469 328.570312 200.4375 C 326.339844 169.511719 321.226562 133.714844 295.328125 113.363281 Z M 295.328125 113.363281 " fill-opacity="1" fill-rule="evenodd"/><g clip-path="url(#1ac84b0497)"><path fill="#ffed00" d="M 352.980469 240.660156 C 348.304688 211.644531 347.011719 182.132812 340.886719 153.339844 C 335.128906 126.246094 324.363281 100.644531 305.550781 79.988281 C 288.714844 61.507812 266.945312 47.941406 243.578125 39.339844 C 198.058594 22.585938 145.703125 26.375 101.667969 45.933594 C 60.449219 64.230469 27.574219 98.082031 8.414062 138.707031 C -4.035156 165.105469 -10.292969 193.171875 -13.074219 222.136719 C -16.160156 254.316406 -16.492188 286.828125 -17.75 319.117188 C -17.902344 323.105469 -18.121094 327.089844 -18.175781 331.074219 C -18.234375 335.4375 -16.46875 339.265625 -15.03125 343.328125 C -14.929688 343.613281 -14.789062 343.886719 -14.613281 344.144531 C -15.695312 344.28125 -16.78125 344.441406 -17.863281 344.613281 C -19.074219 344.804688 -19.023438 346.773438 -17.863281 347.007812 C -8.050781 349.007812 2.03125 349.289062 12.011719 349.78125 C 22.355469 350.296875 32.710938 350.578125 43.070312 350.925781 C 53.167969 351.265625 63.269531 351.609375 73.367188 351.949219 C 78.671875 352.128906 83.976562 352.3125 89.28125 352.488281 C 91.800781 352.570312 94.324219 352.660156 96.855469 352.746094 C 98.113281 352.789062 99.378906 352.828125 100.636719 352.875 C 101.660156 352.902344 103.328125 353.554688 103.433594 352.804688 C 103.621094 352.917969 103.828125 353.015625 104.046875 353.085938 C 104.289062 353.214844 104.523438 353.367188 104.75 353.53125 C 105.984375 354.382812 107.859375 354.273438 109.109375 353.53125 C 109.222656 353.464844 109.34375 353.386719 109.464844 353.3125 C 110.394531 352.757812 111.046875 351.957031 111.410156 351.046875 C 116.59375 357.304688 125.769531 350.273438 120.464844 343.652344 C 117.617188 340.089844 89.28125 252.785156 101.007812 186.277344 L 148.042969 180.046875 C 153.777344 179.46875 161.976562 178.597656 172.644531 177.441406 C 175.257812 168.921875 176.9375 163.289062 177.683594 160.546875 C 177.769531 160.242188 177.851562 159.929688 177.941406 159.628906 C 179.0625 161.605469 180.191406 163.574219 181.328125 165.546875 L 187.132812 177.34375 C 244.242188 176.386719 279.796875 175.957031 293.796875 176.046875 C 294.15625 176.046875 295.84375 201.582031 295.078125 212.824219 C 293.535156 235.402344 291.890625 257.96875 289.601562 280.484375 C 288.140625 294.902344 284.621094 309.042969 279.375 322.332031 C 271.09375 343.328125 247.042969 363.28125 223.59375 363.28125 C 208.996094 363.28125 176.011719 351.457031 171.207031 349.070312 C 166.402344 346.683594 163.539062 353.199219 167.917969 355.804688 C 176.785156 361.085938 201.230469 372.285156 223.59375 372.285156 C 256.070312 372.285156 280.585938 341.46875 283.59375 337.054688 C 313.164062 335.433594 343.410156 336.183594 372.945312 339.113281 C 375.421875 339.355469 377.558594 336.371094 376.765625 334.089844 C 366.15625 303.730469 358.085938 272.417969 352.980469 240.660156 Z M 352.980469 240.660156 " fill-opacity="1" fill-rule="evenodd"/></g><g clip-path="url(#404db47161)"><g clip-path="url(#c2d69b14d5)"><path fill="#f4d7b9" d="M 256.160156 305.6875 L 280.117188 305.6875 L 280.117188 341.902344 L 256.160156 341.902344 Z M 256.160156 305.6875 " fill-opacity="1" fill-rule="nonzero"/></g></g><g clip-path="url(#a2c70c882b)"><g clip-path="url(#8221fd28f0)"><path fill="#f4d7b9" d="M 111.742188 213.898438 L 289.105469 213.898438 L 289.105469 366.777344 L 111.742188 366.777344 Z M 111.742188 213.898438 " fill-opacity="1" fill-rule="nonzero"/></g></g><g clip-path="url(#3bb1f087cc)"><g clip-path="url(#48fb507ad5)"><path fill="#000000" d="M 268.140625 166.300781 L 298.761719 166.300781 L 298.761719 344.527344 L 268.140625 344.527344 Z M 268.140625 166.300781 " fill-opacity="1" fill-rule="nonzero"/></g></g><g clip-path="url(#f8b1fb0dfe)"><g clip-path="url(#77a35a4579)"><path fill="#f4d7b9" d="M 92.65625 163.234375 L 254.222656 163.234375 L 254.222656 216.46875 L 92.65625 216.46875 Z M 92.65625 163.234375 " fill-opacity="1" fill-rule="nonzero"/></g></g><g clip-path="url(#59aff2ad7b)"><g clip-path="url(#e6c6091361)"><path fill="#f4d7b9" d="M 92.425781 213 L 142.585938 213 L 142.585938 346.046875 L 92.425781 346.046875 Z M 92.425781 213 " fill-opacity="1" fill-rule="nonzero"/></g></g><g clip-path="url(#14d63f7e1f)"><g clip-path="url(#813f29598a)"><path fill="#f4d7b9" d="M 110.765625 310.550781 L 238.738281 310.550781 L 238.738281 362.886719 L 110.765625 362.886719 Z M 110.765625 310.550781 " fill-opacity="1" fill-rule="nonzero"/></g></g><g clip-path="url(#1550c3edb6)"><g clip-path="url(#e8e925ea82)"><path fill="#000000" d="M 161.453125 329.625 L 281.6875 329.625 L 281.6875 373.722656 L 161.453125 373.722656 Z M 161.453125 329.625 " fill-opacity="1" fill-rule="nonzero"/></g></g><g clip-path="url(#4add892036)"><g clip-path="url(#55fe1ed4cb)"><path fill="#f4d7b9" d="M 91.152344 182.976562 L 124.242188 182.976562 L 124.242188 246.964844 L 91.152344 246.964844 Z M 91.152344 182.976562 " fill-opacity="1" fill-rule="nonzero"/></g></g><g clip-path="url(#cfcadabce5)"><g clip-path="url(#3835f53fb9)"><g clip-path="url(#2c169c4f31)"><path fill="#000000" d="M 177.359375 152.058594 L 187.011719 169.046875 L 166.769531 180.546875 L 157.117188 163.554688 Z M 177.359375 152.058594 " fill-opacity="1" fill-rule="nonzero"/></g></g></g><g clip-path="url(#8fd7987a3f)"><g clip-path="url(#9a7fa44052)"><path fill="#000000" d="M 179.308594 165.964844 L 298.113281 165.964844 L 298.113281 177.945312 L 179.308594 177.945312 Z M 179.308594 165.964844 " fill-opacity="1" fill-rule="nonzero"/></g></g><g clip-path="url(#6af5a31aca)"><g clip-path="url(#e9dc16c038)"><g clip-path="url(#cf04b9ba8f)"><path fill="#000000" d="M 140.027344 346.636719 L 110.113281 353.191406 L 71.96875 179.097656 L 101.882812 172.542969 Z M 140.027344 346.636719 " fill-opacity="1" fill-rule="nonzero"/></g></g></g><g clip-path="url(#73c3637a95)"><g clip-path="url(#35cbc7efad)"><path fill="#000000" d="M 92.425781 166.601562 L 172.90625 166.601562 L 172.90625 185.769531 L 92.425781 185.769531 Z M 92.425781 166.601562 " fill-opacity="1" fill-rule="nonzero"/></g></g><g clip-path="url(#299cce7504)"><g clip-path="url(#ab67b6e1fb)"><path fill="#000000" d="M 170.0625 154.660156 L 189.601562 154.660156 L 189.601562 177.941406 L 170.0625 177.941406 Z M 170.0625 154.660156 " fill-opacity="1" fill-rule="nonzero"/></g></g><g clip-path="url(#e13467c687)"><g clip-path="url(#211679d2b8)"><g clip-path="url(#8899be71d5)"><path fill="#000000" d="M 127.480469 173.15625 L 96.949219 170.808594 L 101.765625 108.195312 L 132.296875 110.542969 Z M 127.480469 173.15625 " fill-opacity="1" fill-rule="nonzero"/></g></g></g><g clip-path="url(#3dd23dfb25)"><g clip-path="url(#0a2efb2fcf)"><path fill="#000000" d="M 59.035156 293.824219 L 73.707031 293.824219 L 73.707031 355.558594 L 59.035156 355.558594 Z M 59.035156 293.824219 " fill-opacity="1" fill-rule="nonzero"/></g></g><g clip-path="url(#5a7801b3a8)"><g clip-path="url(#c9ebe8eafa)"><path fill="#000000" d="M 25.644531 291.464844 L 40.316406 291.464844 L 40.316406 353.199219 L 25.644531 353.199219 Z M 25.644531 291.464844 " fill-opacity="1" fill-rule="nonzero"/></g></g><g clip-path="url(#16e26f4c5d)"><g clip-path="url(#5c1d74b57c)"><path fill="#000000" d="M 348.421875 339.078125 L 333.746094 339.078125 L 333.746094 277.339844 L 348.421875 277.339844 Z M 348.421875 339.078125 " fill-opacity="1" fill-rule="nonzero"/></g></g><g clip-path="url(#00ff973703)"><g clip-path="url(#36571a433c)"><path fill="#000000" d="M 318.773438 339.078125 L 304.097656 339.078125 L 304.097656 277.339844 L 318.773438 277.339844 Z M 318.773438 339.078125 " fill-opacity="1" fill-rule="nonzero"/></g></g><g clip-path="url(#040790e615)"><g clip-path="url(#ac23ea453c)"><g clip-path="url(#901ee660d0)"><path fill="#000000" d="M 238.71875 125.347656 L 259.964844 103.300781 L 305.183594 146.875 L 283.933594 168.925781 Z M 238.71875 125.347656 " fill-opacity="1" fill-rule="nonzero"/></g></g></g><g clip-path="url(#31f8c706b8)"><g clip-path="url(#786f98584b)"><g clip-path="url(#30ebabe9a1)"><path fill="#000000" d="M 168.65625 168.199219 L 138.125 165.851562 L 141.527344 121.605469 L 172.058594 123.953125 Z M 168.65625 168.199219 " fill-opacity="1" fill-rule="nonzero"/></g></g></g><g clip-path="url(#b8cf9718c6)"><g clip-path="url(#020e97fb4d)"><g clip-path="url(#ada2d47576)"><path fill="#000000" d="M 204.304688 136.171875 L 225.554688 114.121094 L 259.488281 146.824219 L 238.238281 168.875 Z M 204.304688 136.171875 " fill-opacity="1" fill-rule="nonzero"/></g></g></g></svg>