<svg xmlns="http://www.w3.org/2000/svg" xmlns:xlink="http://www.w3.org/1999/xlink" width="473" zoomAndPan="magnify" viewBox="0 0 354.75 425.249996" height="567" preserveAspectRatio="xMidYMid meet" version="1.0"><path fill="#f4d7b9" d="M 313.453125 252.757812 C 308.757812 218.882812 298.019531 185.996094 296.476562 151.617188 C 295.5625 136.902344 294.644531 122.191406 293.726562 107.476562 C 293.378906 98.285156 281.441406 95.1875 276.882812 103.328125 C 266.519531 91.835938 247.960938 93.527344 233.800781 93.875 C 150.453125 96.828125 71.246094 153.183594 42.636719 231.753906 C 41.949219 233.628906 42.15625 235.621094 42.933594 237.40625 C 29.597656 281.878906 76.761719 310.515625 108.925781 330.34375 C 121.976562 344.132812 137.3125 355.589844 154.632812 363.433594 C 174.554688 372.808594 196.734375 378.03125 218.746094 378.53125 C 223.578125 378.644531 226.480469 374.738281 226.828125 370.691406 C 233.851562 369.058594 245.867188 370.945312 249.582031 363.75 C 291.933594 345.355469 319.527344 298.734375 313.453125 252.757812 Z M 313.453125 252.757812 " fill-opacity="1" fill-rule="evenodd"/><path fill="#000000" d="M 293.636719 132.632812 C 293.515625 131.535156 295.101562 131.5 295.429688 132.390625 C 298.113281 139.703125 300.898438 146.964844 303.023438 154.460938 C 305.074219 161.6875 306.550781 169.078125 308.042969 176.433594 C 310.523438 188.644531 312.65625 200.945312 314.421875 213.285156 C 318.191406 210.34375 323.121094 210.074219 327.761719 212.367188 C 329.941406 213.441406 330.773438 216.28125 330.253906 218.484375 C 329.832031 220.253906 329.320312 222.011719 328.703125 223.738281 C 330.019531 224.902344 331.136719 226.335938 331.949219 227.984375 C 334.085938 232.328125 333.398438 236.886719 331.480469 241.027344 C 331.625 241.273438 331.769531 241.523438 331.90625 241.789062 C 334.683594 247.175781 333.199219 252.003906 331.171875 257.261719 C 329.652344 261.199219 330.5 265.628906 327.222656 268.597656 C 326.085938 272.257812 324.375 275.660156 321.890625 278.730469 C 321.324219 279.765625 320.480469 280.597656 319.476562 281.207031 C 319.222656 286.980469 318.613281 292.734375 317.46875 298.4375 C 313.015625 320.585938 298.890625 340.316406 281.402344 354.230469 C 264.292969 367.851562 244.195312 375.988281 222.511719 378.617188 C 211.980469 379.894531 201.433594 379.492188 190.992188 377.667969 L 189.691406 377.4375 C 180.054688 375.691406 168.394531 372.796875 161.730469 365.527344 C 158.226562 361.703125 160.273438 353.289062 166.46875 354.085938 C 169.75 354.503906 172.609375 355.03125 175.699219 356.242188 C 178.109375 357.1875 180.523438 358.097656 183 358.867188 C 187.738281 360.34375 192.640625 361.496094 197.558594 362.132812 C 207.8125 363.457031 218.464844 363.105469 228.597656 361.105469 C 247.027344 357.472656 264.929688 349.085938 278.914062 336.460938 C 295.171875 321.78125 304.699219 302.789062 306.101562 280.878906 C 307.664062 256.480469 304.847656 231.496094 302.507812 207.222656 C 301.292969 194.597656 299.746094 181.996094 297.886719 169.449219 C 296.070312 157.1875 294.980469 144.945312 293.636719 132.632812 Z M 149.773438 53.84375 L 150.5625 53.722656 C 181.855469 48.960938 214.78125 49.300781 244.199219 62.214844 C 249.835938 64.691406 255.351562 67.679688 260.550781 71.144531 C 264.269531 70.757812 268.015625 70.441406 271.691406 70.390625 C 276.316406 70.328125 280.832031 72.730469 281.398438 77.410156 C 285.734375 77.949219 289.726562 79.546875 292.277344 82.734375 C 293.273438 83.976562 293.941406 85.414062 294.277344 86.914062 C 296.941406 87.542969 299.554688 88.507812 302.035156 89.78125 C 305.042969 91.328125 306.78125 95.640625 305.71875 98.832031 C 305.472656 99.554688 305.191406 100.261719 304.878906 100.953125 L 304.640625 101.464844 L 304.78125 101.660156 C 307.183594 105.523438 305.515625 110.59375 301.832031 112.898438 C 299.070312 114.628906 295.984375 116.003906 292.808594 116.671875 C 293.070312 117.945312 293.3125 119.226562 293.507812 120.519531 C 293.582031 121.046875 292.90625 121.417969 292.609375 120.902344 C 293.367188 123.261719 294.316406 125.742188 295.460938 128.34375 C 296.132812 129.878906 293.976562 131.242188 293.15625 129.691406 C 290.96875 125.558594 289.613281 121.320312 287.628906 117.0625 C 285.796875 116.941406 283.96875 116.523438 282.207031 115.722656 C 281.054688 115.195312 280.179688 114.3125 279.550781 113.257812 C 279.511719 113.304688 279.492188 113.355469 279.453125 113.40625 C 273.546875 121.007812 262 123.671875 253.078125 126.074219 C 243.496094 128.660156 233.6875 130.253906 223.84375 131.429688 C 206.652344 133.472656 189.328125 133.855469 172.054688 134.648438 C 170.910156 134.699219 169.769531 134.757812 168.628906 134.8125 C 161.613281 140.96875 152.578125 144.792969 143.308594 145.953125 C 138.613281 146.542969 133.054688 146.394531 127.789062 145.195312 C 125.882812 147.140625 123.476562 148.582031 120.847656 149.324219 C 120.375 159.128906 114.90625 168.414062 106.636719 173.828125 L 106.785156 174.410156 C 108.839844 182.785156 108.8125 191.9375 101.449219 197.757812 C 100.449219 198.546875 99.359375 199.222656 98.214844 199.78125 L 98.46875 200.359375 C 102.269531 209.25 103.484375 219.070312 96.335938 226.445312 C 93.4375 229.4375 88.347656 228.726562 86.171875 225.296875 L 86.066406 225.121094 C 85.945312 224.917969 85.816406 224.722656 85.691406 224.523438 C 85.496094 224.917969 85.199219 225.253906 84.757812 225.441406 C 82.042969 226.609375 80.957031 225.746094 78.476562 224.542969 C 76.1875 223.417969 73.769531 222.582031 71.296875 221.929688 C 69.285156 221.40625 67.277344 221.03125 65.257812 220.8125 C 52.484375 225.695312 44.234375 240.667969 46.195312 254.722656 C 47.257812 262.371094 51.457031 269.949219 58.78125 273.125 C 61.984375 274.515625 65.75 275.101562 69.214844 274.628906 C 73.910156 273.992188 77.519531 271.035156 82.378906 272.726562 C 84.296875 273.394531 85.492188 274.898438 85.597656 276.957031 C 85.769531 280.191406 84.625 282.617188 82.691406 284.414062 C 86.097656 287.257812 88.847656 291.210938 91.804688 294.363281 C 95.503906 298.308594 99.253906 302.253906 103.25 305.894531 C 107.023438 309.34375 111.039062 312.550781 115.289062 315.394531 L 115.738281 315.6875 C 121.066406 319.15625 127.777344 322.238281 128.03125 329.492188 C 128.117188 331.679688 126.789062 333.683594 124.992188 334.800781 C 118.277344 338.960938 110.96875 333.496094 105.707031 329.492188 C 103.589844 327.882812 101.53125 326.210938 99.546875 324.484375 C 98.21875 324.589844 96.777344 324.371094 95.269531 323.703125 C 94.304688 323.285156 93.363281 322.792969 92.433594 322.265625 C 89.417969 323.023438 86.570312 322.355469 84.226562 320.777344 C 80.851562 321.609375 77.273438 321.707031 74.234375 321.039062 C 71.457031 320.425781 68.976562 319.113281 66.933594 317.355469 C 62.664062 318.71875 57.925781 318.464844 53.71875 315.878906 C 51.195312 314.332031 49.226562 312.121094 48.15625 309.539062 C 47.609375 308.6875 47.261719 307.691406 47.234375 306.59375 L 47.234375 306.179688 C 43.566406 306.261719 39.890625 305.003906 37.054688 302.097656 C 34.449219 299.433594 33.175781 296.109375 33.03125 292.730469 C 29.34375 291.683594 25.964844 289.535156 23.398438 286.21875 C 19.144531 280.722656 18.578125 273.933594 20.761719 267.867188 C 20.621094 267.546875 20.492188 267.214844 20.378906 266.886719 C 16.988281 262.101562 14.75 256.332031 14.929688 250.542969 C 14.953125 249.644531 15.070312 248.761719 15.25 247.886719 C 11.914062 246.113281 9.457031 242.996094 9.195312 239.035156 C 8.992188 235.929688 10.109375 232.890625 12.121094 230.589844 C 11.140625 228.246094 10.707031 225.703125 11.007812 223.15625 C 11.3125 220.542969 12.234375 218.277344 13.582031 216.382812 C 13.550781 215.691406 13.589844 214.996094 13.703125 214.285156 C 13.566406 213.589844 13.453125 212.871094 13.394531 212.136719 C 12.757812 204.109375 18.300781 197.085938 25.042969 193.382812 C 26.820312 192.410156 28.734375 191.613281 30.652344 190.941406 C 32.042969 190.445312 34.140625 190.28125 35.367188 189.375 C 35.316406 189.339844 35.824219 188.679688 35.914062 188.328125 C 36.011719 187.894531 36.117188 187.46875 36.171875 187.027344 C 36.371094 185.167969 36.222656 183.257812 36.183594 181.394531 C 36.019531 172.933594 36.28125 164.4375 37.171875 156.023438 C 38.828125 140.421875 42.910156 125.15625 50.859375 111.519531 C 57.53125 100.097656 66.664062 90.445312 77.136719 82.441406 C 98 66.507812 124.035156 57.84375 149.773438 53.84375 Z M 53.089844 247.878906 C 50.375 241.351562 63.160156 241.285156 66.539062 241.597656 L 66.640625 241.605469 C 74.246094 242.363281 86.144531 246.023438 89.257812 253.699219 C 90.542969 256.878906 86.730469 260.324219 83.679688 259.277344 C 80.691406 258.257812 79.015625 256.058594 76.617188 254.136719 C 75.988281 253.632812 75.332031 253.160156 74.664062 252.707031 C 75.015625 253.828125 75.578125 254.863281 76.359375 255.636719 L 76.542969 255.808594 C 80.226562 259.117188 73.640625 264.3125 71.199219 259.933594 C 69.894531 257.601562 69.375 255.046875 69.78125 252.398438 C 69.902344 251.617188 70.109375 250.902344 70.414062 250.222656 C 70.171875 250.101562 69.933594 249.96875 69.6875 249.851562 L 69.25 249.648438 C 66.320312 248.320312 53.816406 243.097656 53.917969 247.765625 C 53.925781 248.285156 53.257812 248.285156 53.089844 247.878906 Z M 53.089844 247.878906 " fill-opacity="1" fill-rule="evenodd"/></svg>