<svg xmlns="http://www.w3.org/2000/svg" xmlns:xlink="http://www.w3.org/1999/xlink" width="473" zoomAndPan="magnify" viewBox="0 0 354.75 425.249996" height="567" preserveAspectRatio="xMidYMid meet" version="1.0"><path fill="#a95e10" d="M 181.398438 56.34375 C 223.910156 56.34375 267.878906 89.296875 283.460938 110.324219 C 296.5625 128 303.617188 207.941406 303.617188 261.964844 C 303.617188 273.265625 309.851562 294.566406 308.03125 305.371094 C 301.363281 344.976562 272.3125 378.191406 214.816406 378.191406 C 157.320312 378.191406 116.09375 355.402344 73.359375 294.210938 C 52.621094 294.210938 42.574219 278.308594 42.425781 253.214844 C 42.328125 236.484375 49 225.074219 62.441406 218.988281 C 57.648438 152.964844 61.289062 111.359375 73.359375 94.171875 C 91.460938 68.386719 138.886719 56.34375 181.398438 56.34375 Z M 181.398438 56.34375 " fill-opacity="1" fill-rule="evenodd"/><path fill="#000000" d="M 163.507812 42.34375 C 190.347656 39.625 216.652344 41.90625 243.101562 46.632812 C 245.121094 47 246.269531 48.324219 246.695312 49.917969 C 259.152344 50.488281 271.625 51.402344 284.070312 52.082031 C 288.582031 52.332031 291.144531 56.792969 289.085938 60.820312 C 288.671875 61.621094 288.246094 62.398438 287.8125 63.179688 L 288.355469 63 C 292.101562 61.796875 296.144531 61.207031 299.789062 63.113281 C 304.433594 65.535156 306.253906 70.890625 305.226562 75.816406 C 304.964844 77.074219 304.523438 78.277344 304.023438 79.453125 C 305.039062 79.386719 306.066406 79.410156 307.082031 79.542969 C 312.503906 80.261719 316.53125 84.417969 316.816406 89.953125 C 317.234375 98.304688 311.851562 106.78125 305.511719 112.761719 C 306.429688 114.65625 306.785156 116.890625 306.402344 119.148438 C 305.636719 123.621094 302.34375 126.296875 298.527344 128.042969 C 300.121094 133.097656 300.871094 138.378906 300.429688 143.78125 C 300.28125 145.582031 298.703125 147.074219 297.039062 147.4375 C 303.242188 164.519531 306.382812 182.855469 308.640625 200.726562 C 310.25 213.4375 311.042969 226.226562 311.140625 239.035156 C 311.1875 244.820312 311.09375 250.609375 310.851562 256.390625 L 310.753906 258.5625 C 310.453125 264.8125 310.4375 271.378906 309.316406 277.5625 C 313.148438 284.082031 314.691406 292.175781 315.339844 299.484375 C 316.148438 308.527344 314.871094 317.855469 312.015625 326.460938 C 301.25 358.964844 268.757812 379.480469 236.121094 384.8125 C 205.914062 389.746094 170.957031 383.105469 153.304688 355.664062 C 153.027344 355.230469 153.621094 354.871094 153.964844 355.15625 C 166.59375 365.425781 181.246094 370.007812 197.164062 372.242188 C 224.683594 376.089844 255.617188 369.558594 277.703125 352.25 C 288.304688 343.941406 295.949219 331.84375 299.3125 318.820312 C 301.027344 312.167969 301.617188 305.226562 300.945312 298.375 C 300.253906 291.429688 297.179688 285.5 295.238281 278.933594 C 294.589844 276.714844 295.277344 274.65625 296.632812 273.191406 C 297.011719 267.859375 297.914062 262.484375 298.257812 257.167969 C 298.636719 251.125 298.871094 245.085938 298.953125 239.035156 C 299.109375 226.488281 298.585938 213.917969 297.53125 201.421875 C 295.597656 178.542969 290.46875 156.21875 287.460938 133.53125 C 286.347656 134.53125 284.75 134.941406 283.074219 134.066406 L 282.902344 133.972656 L 281.988281 133.449219 C 281.933594 133.449219 281.875 133.457031 281.824219 133.464844 C 275.570312 134.070312 269.089844 133.203125 263.097656 131.335938 C 256.832031 129.390625 251.015625 126.398438 245.820312 122.40625 C 244.832031 127.414062 244.417969 132.476562 244.410156 137.582031 C 244.402344 140.769531 241.027344 142.425781 238.347656 141.0625 C 226.464844 135.027344 215.117188 128.074219 204.34375 120.257812 C 203.082031 126.703125 201.828125 133.148438 200.5625 139.601562 C 200.074219 142.089844 196.90625 143.09375 194.878906 141.910156 C 186.808594 137.214844 179.839844 131.070312 174.164062 123.761719 C 173.03125 125.929688 171.894531 128.09375 170.75 130.253906 L 169.027344 133.492188 C 167.328125 136.675781 165.050781 140.195312 161.332031 141.210938 C 157.394531 142.289062 154.105469 139.738281 152.78125 136.175781 C 152.375 135.066406 152.003906 133.929688 151.65625 132.78125 C 148.304688 140.441406 144.515625 147.929688 140.234375 155.070312 C 133.808594 165.785156 126.097656 175.332031 118.410156 185.121094 C 116.074219 188.097656 112.074219 185.257812 111.753906 182.367188 C 111.566406 180.667969 111.410156 178.960938 111.273438 177.261719 C 106.792969 186.304688 102.117188 195.257812 97.023438 203.957031 L 97.753906 206.8125 C 99.855469 215.257812 101.601562 223.761719 103.5 232.25 C 104.109375 234.988281 102.65625 238.902344 99.457031 239.371094 C 95.632812 239.925781 92.015625 241.878906 88.101562 240.535156 C 83.832031 239.070312 82.988281 235.378906 80.972656 231.882812 C 80.570312 231.183594 80.101562 230.546875 79.597656 229.9375 L 79.46875 230.105469 C 79.15625 230.515625 78.40625 230.066406 78.59375 229.59375 L 78.8125 229.050781 C 77.082031 227.210938 75.007812 225.679688 73.105469 224.03125 C 68.574219 223.265625 63.484375 224.101562 60.363281 225.941406 C 53.257812 230.132812 49.996094 238.773438 49.925781 246.71875 C 49.84375 256.015625 52.726562 266.46875 57.59375 274.417969 C 59.734375 277.914062 62.667969 281.074219 66.546875 282.625 C 70.394531 284.164062 74.566406 283.6875 78.480469 285.140625 C 81.070312 286.105469 82.667969 288.980469 81.101562 291.585938 C 80.996094 291.765625 80.878906 291.929688 80.765625 292.101562 L 81.929688 293.648438 C 82.730469 294.71875 83.566406 295.863281 84.34375 297.058594 C 86.335938 299.351562 88.433594 301.558594 90.460938 303.8125 C 94.210938 307.964844 97.851562 312.234375 101.539062 316.449219 C 105.023438 320.425781 108.707031 324.160156 112.5 327.835938 C 116.089844 331.316406 120.566406 334.246094 123.859375 337.960938 C 127.0625 341.582031 127.933594 347.910156 122.660156 350.003906 C 116.828125 352.332031 111.667969 346.878906 107.742188 343.246094 L 107.574219 343.09375 C 100.378906 336.472656 93.878906 328.90625 88.71875 320.574219 C 83.609375 324.050781 76.214844 324.386719 71.125 320.90625 C 68.445312 319.074219 66.390625 316 65.390625 312.652344 C 64.449219 312.863281 63.507812 312.988281 62.589844 312.972656 C 62.117188 313.246094 61.644531 313.511719 61.164062 313.761719 C 57.367188 315.738281 52.703125 314.855469 50.96875 310.652344 C 49.386719 306.839844 51.015625 302.507812 52.441406 298.835938 L 52.734375 298.078125 C 53.542969 295.980469 54.433594 293.695312 55.542969 291.546875 C 52.457031 289.226562 49.820312 286.34375 47.589844 283.066406 C 40.097656 272.023438 36.355469 255.875 38.007812 242.695312 C 39.003906 234.746094 42.738281 226.511719 48.855469 221.148438 L 48.632812 220.566406 C 46.917969 216.214844 45.359375 211.851562 44.347656 207.253906 C 43.167969 201.878906 42.589844 196.308594 42.066406 190.835938 C 40.957031 179.277344 41.257812 167.453125 42.730469 155.941406 C 45.503906 134.265625 52.523438 112.988281 64.992188 94.953125 C 61.457031 90.722656 58.65625 85.742188 60.117188 80.015625 C 60.78125 77.386719 62.300781 74.894531 64.59375 73.390625 C 65.859375 72.558594 67.363281 72.433594 68.628906 71.742188 L 69.007812 71.535156 C 69.566406 71.210938 69.140625 71.246094 68.808594 69.738281 C 67.5 63.71875 68.585938 57.902344 75.210938 55.902344 C 81.445312 54.023438 87.347656 58.011719 91.039062 62.765625 C 100.695312 55.914062 113.421875 52.332031 124.617188 49.285156 C 137.34375 45.832031 150.398438 43.675781 163.507812 42.34375 Z M 59.1875 244.261719 C 59.144531 239.359375 63.792969 236.332031 68.367188 237.132812 C 71.441406 237.667969 74.003906 239.503906 76.410156 241.398438 L 77.582031 242.324219 C 80.511719 244.625 83.875 247.105469 85.625 250.363281 C 88.183594 255.171875 82.773438 261.636719 77.71875 258.269531 C 74.25 255.945312 72.03125 252.222656 69.757812 248.765625 L 69.519531 248.410156 C 68.488281 246.859375 67.582031 245.210938 66.164062 243.96875 L 65.859375 243.703125 C 65.394531 243.304688 64.894531 242.941406 64.292969 242.769531 C 63.132812 242.4375 60.988281 242.90625 60.476562 244.285156 L 60.429688 244.425781 C 60.242188 245.125 59.195312 244.972656 59.1875 244.261719 Z M 59.1875 244.261719 " fill-opacity="1" fill-rule="evenodd"/></svg>