<svg xmlns="http://www.w3.org/2000/svg" xmlns:xlink="http://www.w3.org/1999/xlink" width="473" zoomAndPan="magnify" viewBox="0 0 354.75 425.249996" height="567" preserveAspectRatio="xMidYMid meet" version="1.0"><path fill="#a95e10" d="M 303.601562 168.691406 C 312.117188 162.574219 299.417969 142.445312 295.101562 136.453125 C 291.347656 128.640625 287.59375 120.828125 283.839844 113.011719 C 284.296875 106.605469 278.039062 100.902344 271.855469 102.851562 C 266.476562 98.996094 257.464844 100.84375 254.730469 106.882812 C 195.25 80.976562 92.332031 91.753906 87.011719 171.691406 C 75.503906 194.453125 64.101562 217.40625 53.894531 240.78125 C 39.730469 241.542969 32.863281 258.75 41.296875 269.867188 C 42.417969 287.925781 53.867188 289.355469 69.148438 288.550781 C 75.289062 290.167969 81.648438 291.042969 86.253906 295.785156 C 89.75 299.359375 92.128906 303.890625 94.425781 308.289062 C 105.015625 328.585938 118.46875 346.140625 136.707031 360.179688 C 165.070312 381.402344 203.460938 396.644531 238.828125 386.3125 C 314.863281 356.453125 329.792969 237.121094 303.601562 168.691406 Z M 303.601562 168.691406 " fill-opacity="1" fill-rule="evenodd"/><path fill="#000000" d="M 144.921875 52.402344 C 194.597656 40.863281 250.402344 56.347656 284.878906 94.492188 C 287.304688 97.171875 287.042969 100.664062 284.910156 102.921875 C 285.90625 103.730469 286.878906 104.5625 287.867188 105.394531 C 288.902344 106.269531 288.75 108.027344 287.867188 108.921875 C 286.992188 109.796875 285.171875 109.976562 284.339844 108.921875 L 283.109375 107.371094 C 282.5 106.597656 281.894531 105.820312 281.308594 105.027344 C 280.597656 105.289062 279.902344 105.566406 279.207031 105.835938 C 289.738281 112.835938 298.519531 122.132812 304.539062 133.328125 C 311.054688 145.433594 315.210938 158.355469 317.910156 171.800781 C 322.730469 195.789062 323.429688 220.386719 322.785156 244.777344 L 322.75 246.085938 C 321.917969 275.488281 319.050781 305.375 306.652344 332.410156 C 296.710938 354.074219 279.039062 373.996094 256.886719 383.484375 C 244.128906 388.941406 230.414062 391.269531 216.554688 390.296875 C 209.25 389.789062 201.964844 388.632812 194.851562 386.875 L 193.144531 386.449219 C 186.664062 384.828125 179.945312 382.945312 174.414062 379.238281 C 168.738281 375.425781 172.5625 367.859375 178.820312 368.78125 C 186.363281 369.894531 193.542969 373.039062 201.019531 374.671875 C 208.335938 376.273438 215.738281 377.113281 223.234375 376.894531 C 236.492188 376.519531 248.570312 372.449219 259.53125 365.050781 C 301.433594 336.757812 306.523438 279.875 307.617188 233.90625 C 308.148438 211.445312 307.324219 188.691406 302.160156 166.75 C 297.195312 145.648438 288.652344 124.875 276.5625 106.855469 C 273.898438 107.847656 271.230469 108.679688 268.394531 108.941406 C 263.335938 111.984375 257.320312 112.0625 251.472656 112.066406 L 250.65625 112.066406 C 244.570312 112.058594 238.484375 111.699219 232.425781 111.152344 C 210.992188 109.25 188.9375 104.429688 167.390625 107.496094 L 166.511719 107.625 C 157.636719 108.960938 146.644531 111.761719 140.128906 118.144531 C 133.09375 125.03125 137.808594 138.066406 143.378906 142.207031 C 146.980469 144.886719 148.105469 150.921875 143.378906 153.355469 C 134.050781 158.167969 111.472656 155.496094 108.933594 158.160156 C 105.886719 161.347656 106.097656 166.203125 106.011719 170.335938 L 106.003906 170.613281 C 105.691406 182.378906 105.984375 194.113281 106.980469 205.851562 C 107.9375 217.203125 110.117188 228.574219 110.601562 239.953125 C 110.765625 243.703125 106.238281 244.84375 103.757812 242.785156 C 103.273438 242.378906 102.769531 241.996094 102.269531 241.652344 C 97.769531 238.464844 92.65625 237.117188 87.167969 236.261719 C 86.878906 236.21875 86.65625 236.074219 86.492188 235.882812 L 86.425781 235.800781 L 85.84375 236.277344 C 86.980469 237.691406 87.953125 239.296875 88.726562 241.09375 C 88.882812 241.453125 88.546875 241.90625 88.148438 241.667969 C 80.558594 237.152344 72.292969 235.238281 63.554688 237.0625 C 55.695312 238.703125 48.582031 243.691406 46.277344 251.671875 C 44.15625 259.015625 45.714844 267.484375 50.46875 273.523438 C 57.5 282.480469 68.917969 281.671875 79.15625 282.082031 C 81.164062 282.164062 83.402344 283.136719 84.339844 285.054688 C 85.4375 287.316406 85.363281 288.859375 84.339844 291.113281 C 84.195312 291.433594 84.007812 291.726562 83.792969 291.988281 C 84.660156 292.703125 85.480469 293.488281 86.28125 294.289062 L 88.953125 296.984375 C 90.78125 298.832031 92.601562 300.695312 94.355469 302.605469 C 99.507812 308.21875 104.351562 314.191406 108.910156 320.292969 L 109.332031 320.863281 C 114.671875 328.171875 120.210938 338.71875 129.46875 341.027344 C 132.644531 341.820312 135.59375 343.382812 136.535156 346.820312 C 137.480469 350.257812 135.257812 353.589844 132.269531 355.027344 C 127.089844 357.519531 120.515625 354.554688 116.238281 351.410156 C 107.019531 344.617188 100.996094 333.539062 95.335938 323.785156 L 93.785156 321.121094 C 90.867188 316.089844 88.019531 310.996094 85.589844 305.710938 C 84.203125 302.695312 82.714844 299.699219 81.425781 296.636719 C 81.050781 295.746094 80.679688 294.839844 80.386719 293.910156 C 79.972656 294 79.554688 294.0625 79.15625 294.082031 C 66.796875 294.890625 52.566406 292.929688 43.632812 283.550781 C 31.316406 270.621094 29.871094 247.5 43.867188 235.164062 C 45.339844 233.859375 47.003906 232.714844 48.800781 231.734375 C 46.296875 227.503906 44.644531 222.601562 43.421875 217.996094 C 41.640625 211.273438 40.644531 204.421875 40.152344 197.488281 C 39.15625 183.347656 40.8125 168.949219 44.210938 155.210938 C 56.53125 105.417969 94.371094 64.140625 144.921875 52.402344 Z M 55.402344 259.03125 C 52.957031 244.84375 81.34375 255.335938 87.535156 256.324219 L 87.714844 256.351562 C 94.816406 257.335938 90.859375 269.789062 83.871094 266.082031 L 83.65625 265.964844 C 79.878906 263.796875 75.71875 262.242188 71.753906 260.410156 L 70.90625 260.011719 C 67.753906 258.5 57.339844 251.707031 56.210938 259.03125 C 56.152344 259.433594 55.46875 259.425781 55.402344 259.03125 Z M 55.402344 259.03125 " fill-opacity="1" fill-rule="evenodd"/></svg>