<svg xmlns="http://www.w3.org/2000/svg" xmlns:xlink="http://www.w3.org/1999/xlink" width="473" zoomAndPan="magnify" viewBox="0 0 354.75 425.249996" height="567" preserveAspectRatio="xMidYMid meet" version="1.0"><defs><clipPath id="7e2a905506"><path d="M 0.1875 0 L 352 0 L 352 383 L 0.1875 383 Z M 0.1875 0 " clip-rule="nonzero"/></clipPath></defs><path fill="#a95e10" d="M 297.566406 130.03125 C 272.878906 95.0625 210.84375 91.125 171.636719 91.347656 C 94.207031 90.703125 77.992188 179.703125 73.949219 242.066406 C 65.691406 243.472656 57.660156 246.351562 52.210938 252.839844 C 45.574219 260.742188 43.28125 274.308594 49.503906 283.148438 C 53.636719 289.015625 60.160156 290.976562 66.984375 291.304688 C 89.589844 289.148438 94.222656 309.296875 105.355469 324.402344 C 133.921875 362.992188 183.410156 375.511719 228.800781 375.703125 C 244.214844 376.113281 262.789062 377.273438 272.660156 362.765625 C 303.84375 308.714844 304.523438 237.027344 306.445312 175.773438 C 306.710938 160.09375 306.644531 143.492188 297.566406 130.03125 Z M 297.566406 130.03125 " fill-opacity="1" fill-rule="evenodd"/><g clip-path="url(#7e2a905506)"><path fill="#000000" d="M 160.867188 -16.609375 C 163.660156 -20.828125 169.785156 -22.460938 174.03125 -19.335938 C 177.566406 -21.523438 182.011719 -21.0625 185.191406 -18.402344 C 189.03125 -20.671875 193.804688 -19.753906 196.816406 -16.589844 C 201.644531 -19.226562 208.019531 -17.277344 210.601562 -12.28125 C 215.476562 -12.820312 220.066406 -9.628906 221.367188 -5.015625 C 221.597656 -4.828125 221.824219 -4.636719 222.050781 -4.445312 C 224.96875 -4.304688 227.742188 -3.160156 229.378906 -0.445312 C 230.195312 0.910156 230.574219 2.503906 230.519531 4.066406 C 232.261719 5.007812 233.671875 6.554688 234.277344 8.5625 C 234.84375 10.441406 234.628906 12.304688 233.886719 13.921875 C 236.316406 16.507812 236.957031 20.539062 235.234375 23.785156 C 235.949219 25.007812 236.320312 26.453125 236.261719 27.953125 C 236.175781 30.175781 235.144531 31.96875 233.742188 33.496094 C 235.503906 36.679688 234.816406 40.761719 231.953125 42.992188 C 230.304688 48.828125 226.136719 52.710938 219.753906 55.09375 C 216.546875 56.289062 213.191406 57.210938 209.773438 57.886719 C 223.453125 59.730469 236.914062 62.964844 249.84375 67.789062 C 250.546875 68.050781 251.144531 67.949219 251.601562 67.644531 C 251.882812 67.792969 252.171875 67.929688 252.453125 68.085938 C 256.015625 70.039062 259.507812 72.15625 262.90625 74.425781 C 262.90625 74.050781 262.914062 73.675781 262.925781 73.296875 C 262.863281 70.214844 263.1875 67.179688 264.003906 64.253906 C 262.933594 62.796875 262.132812 61.132812 261.695312 59.417969 C 260.609375 55.140625 262.679688 49.050781 266.394531 47.589844 C 267.699219 43.976562 270.660156 41.363281 274.292969 40.335938 C 274.578125 40.074219 274.886719 39.824219 275.226562 39.589844 C 275.992188 39.0625 276.828125 38.703125 277.6875 38.496094 C 278.136719 36.539062 279.226562 34.734375 281.039062 33.472656 C 283.597656 31.6875 286.621094 31.492188 289.277344 32.464844 C 289.78125 32.296875 290.292969 32.148438 290.8125 32.019531 C 295.089844 28.378906 301.753906 28.648438 305.515625 32.90625 C 308.101562 31.726562 311.144531 31.675781 313.789062 33.261719 C 315.902344 34.535156 317.222656 36.585938 317.734375 38.835938 C 321.742188 38.957031 325.40625 41.613281 326.5625 45.582031 C 330.25 46 333.269531 48.886719 333.910156 52.523438 C 336.265625 52.851562 338.441406 53.957031 339.765625 56.160156 C 340.375 57.175781 340.707031 58.289062 340.792969 59.402344 C 341.984375 59.976562 343.050781 60.839844 343.859375 61.96875 C 345.269531 63.949219 345.542969 66.261719 345.023438 68.433594 C 345.144531 68.675781 345.273438 68.910156 345.386719 69.15625 C 345.769531 69.972656 346.078125 70.847656 346.355469 71.738281 C 347.59375 73.53125 348.167969 75.71875 348.054688 77.917969 C 348.320312 78.847656 348.574219 79.777344 348.785156 80.714844 C 349.625 84.390625 349.9375 88.304688 349.363281 92.050781 C 349.078125 93.863281 348.667969 95.644531 348.082031 97.371094 C 348.023438 97.703125 347.925781 98.007812 347.8125 98.300781 C 347.492188 99.664062 347.078125 101.003906 346.554688 102.3125 C 345.296875 103.984375 343.980469 105.609375 342.59375 107.179688 C 341.425781 108.933594 340.09375 110.550781 338.589844 112.03125 C 337.503906 113.101562 336.3125 114.097656 335.046875 114.996094 C 332.535156 117.011719 329.726562 118.582031 326.726562 119.601562 C 326.191406 119.488281 325.652344 119.402344 325.113281 119.316406 C 321.710938 121.191406 316.351562 121.402344 313.074219 121.390625 C 309.464844 121.375 306.160156 120.464844 303.410156 118.742188 C 303.730469 119.375 304.046875 120.011719 304.367188 120.648438 C 304.285156 120.691406 304.199219 120.734375 304.132812 120.785156 C 303.539062 119.800781 302.875 118.925781 302.09375 118.296875 C 301.027344 117.4375 299.304688 117.359375 298.566406 118.753906 L 298.527344 118.828125 C 298.132812 119.570312 298.1875 120.28125 298.488281 120.863281 C 298.597656 121.019531 298.707031 121.179688 298.816406 121.335938 C 298.855469 121.382812 298.894531 121.429688 298.9375 121.472656 L 298.917969 121.472656 C 299.9375 122.296875 300.945312 124.3125 301.898438 126.273438 C 302.542969 127.417969 303.15625 128.578125 303.734375 129.757812 C 304.070312 130.253906 304.667969 130.691406 305.300781 130.816406 C 305.175781 131.761719 305.609375 132.734375 306.324219 133.21875 C 306.511719 132.839844 306.738281 132.457031 307.03125 132.058594 C 310.25 127.6875 316.570312 125.800781 321.332031 127.796875 C 322.28125 127.636719 323.234375 127.503906 324.199219 127.429688 C 327.339844 127.222656 330.527344 127.46875 333.628906 128.121094 C 334.59375 128.699219 335.515625 129.347656 336.371094 130.089844 C 337.097656 130.71875 337.773438 131.378906 338.402344 132.058594 C 338.886719 132.425781 339.367188 132.808594 339.835938 133.214844 C 341.738281 134.238281 343.136719 136.199219 344.3125 138.152344 C 345.242188 139.46875 346.054688 140.871094 346.761719 142.351562 C 350.023438 147.9375 353.792969 154.871094 350.847656 160.363281 C 351.160156 160.957031 351.394531 161.609375 351.519531 162.324219 C 351.925781 164.589844 351.09375 166.320312 349.996094 168.003906 C 350.140625 169.175781 350.222656 170.3125 350.285156 171.3125 C 350.632812 176.921875 349.347656 184.617188 344.398438 186.90625 C 344.320312 187 344.242188 187.09375 344.160156 187.183594 C 343.777344 187.804688 343.195312 188.34375 342.429688 188.734375 C 342.238281 188.867188 342.046875 188.992188 341.851562 189.101562 C 341.765625 189.175781 341.667969 189.238281 341.574219 189.308594 C 341.679688 189.203125 341.777344 189.089844 341.882812 188.976562 C 339.144531 190.070312 336.5 190.296875 333.679688 189.964844 C 331.933594 190.59375 330.1875 191.066406 328.710938 191.429688 C 324.105469 192.566406 318.167969 193.476562 313.679688 191.539062 C 312.371094 190.972656 311.285156 190.226562 310.472656 189.335938 C 310.539062 192.808594 310.640625 196.28125 310.789062 199.753906 C 311.097656 208.535156 311.082031 217.3125 311.015625 226.101562 C 310.941406 235.992188 310.664062 245.886719 310.132812 255.769531 C 309.882812 260.734375 309.488281 265.691406 308.957031 270.632812 C 308.507812 275.445312 307.984375 280.253906 307.375 285.042969 C 305.945312 294.898438 303.589844 304.824219 300.714844 314.347656 C 299.464844 318.480469 298.09375 322.664062 296.535156 326.753906 C 295.875 328.632812 295.179688 330.488281 294.425781 332.332031 C 290.433594 341.980469 285.460938 351.296875 278.746094 359.335938 C 275.078125 363.722656 271.027344 367.667969 266.507812 370.984375 C 262.875 373.816406 258.945312 376.210938 254.625 378.097656 C 245.339844 382.15625 234.980469 383.070312 224.9375 382.917969 C 221.03125 382.867188 216.882812 382.164062 213.019531 381.519531 C 210.054688 381.03125 207.054688 380.382812 204.082031 379.617188 C 201.445312 379.003906 198.839844 378.292969 196.273438 377.460938 C 193.179688 376.644531 190.214844 375.46875 187.394531 373.949219 L 182.390625 372.070312 C 180.304688 371.285156 178.273438 370.347656 176.304688 369.277344 L 170.871094 366.742188 C 168.617188 365.65625 166.421875 364.464844 164.28125 363.152344 C 164.058594 363.035156 163.800781 362.832031 163.703125 362.609375 C 163.152344 362.300781 162.589844 362.007812 162.035156 361.695312 C 161.945312 361.648438 162.011719 361.386719 162.132812 361.132812 C 162.035156 360.929688 162.050781 360.707031 162.320312 360.503906 C 162.523438 360.347656 162.84375 360.390625 163.179688 360.496094 C 163.152344 360.472656 163.128906 360.453125 163.105469 360.429688 C 162.730469 360.226562 162.363281 360.03125 161.996094 359.832031 C 161.625 359.628906 161.5625 359.105469 161.914062 358.828125 C 162.011719 358.753906 162.125 358.714844 162.238281 358.707031 L 162.214844 358.699219 C 162.148438 358.65625 162.199219 358.445312 162.296875 358.214844 C 162.109375 357.972656 162.050781 357.679688 162.378906 357.425781 C 162.867188 357.046875 164.003906 357.75 164.417969 357.980469 C 164.886719 358.242188 165.367188 358.488281 165.839844 358.746094 C 165.867188 358.675781 165.929688 358.617188 166.027344 358.558594 C 165.328125 358.191406 164.640625 357.816406 163.953125 357.441406 C 163.523438 357.21875 162.972656 356.746094 163.53125 356.304688 C 163.980469 355.945312 165.140625 356.558594 165.695312 356.871094 C 165.765625 356.820312 165.839844 356.796875 165.929688 356.78125 C 165.6875 356.648438 165.433594 356.519531 165.195312 356.378906 C 164.519531 356.003906 164.976562 354.835938 165.675781 355.226562 L 165.921875 355.375 C 166.421875 355.332031 167.125 355.742188 167.449219 355.921875 C 169.792969 357.398438 172.230469 358.683594 174.761719 359.792969 C 176.46875 360.601562 178.183594 361.402344 179.90625 362.179688 C 181.597656 363.019531 183.34375 363.746094 185.132812 364.359375 C 189.632812 366.113281 194.175781 367.742188 198.765625 369.257812 C 205.195312 371.015625 211.851562 372.429688 218.53125 372.984375 C 219.398438 373.050781 220.269531 373.113281 221.136719 373.140625 C 223.039062 373.125 224.9375 373.121094 226.832031 373.105469 C 230.523438 372.722656 234.214844 372.347656 237.898438 371.972656 C 239.1875 371.792969 240.445312 371.570312 241.6875 371.308594 C 242.339844 371.148438 242.988281 370.984375 243.632812 370.796875 C 243.859375 370.769531 244.082031 370.722656 244.308594 370.6875 C 245.886719 370.265625 247.4375 369.765625 248.988281 369.179688 C 249.960938 368.785156 250.925781 368.363281 251.882812 367.921875 C 255.050781 366.449219 258.164062 364.5 261.101562 362.269531 L 272.128906 351.296875 L 275.488281 346.714844 C 279.832031 340.507812 283.269531 333.589844 286.121094 326.527344 L 290.660156 313.457031 C 291.128906 311.882812 291.578125 310.3125 292.007812 308.734375 C 292.867188 305.199219 293.726562 301.664062 294.589844 298.140625 C 294.875 296.84375 295.152344 295.554688 295.421875 294.269531 C 297.074219 286.25 297.988281 278.113281 298.773438 269.972656 C 300.210938 255.164062 300.601562 240.3125 300.707031 225.441406 C 300.773438 216.554688 300.699219 207.667969 300.519531 198.789062 C 300.414062 193.636719 300.339844 188.488281 300.265625 183.335938 C 300.167969 177.871094 300.0625 172.398438 299.917969 166.933594 C 299.914062 166.8125 299.957031 166.707031 300.015625 166.617188 C 300.003906 165.972656 299.996094 165.332031 299.988281 164.679688 C 299.980469 164.253906 300.144531 164.066406 300.382812 164.027344 C 300.339844 160.128906 300.308594 156.234375 300.300781 152.339844 C 300.300781 152.085938 300.421875 151.921875 300.578125 151.824219 L 300.578125 150.835938 C 299.925781 148.125 299.042969 145.46875 297.898438 142.9375 C 297.507812 142.023438 297.074219 141.132812 296.59375 140.265625 C 296.003906 138.960938 295.234375 137.777344 294.289062 136.695312 C 293.503906 135.367188 292.539062 134.191406 291.414062 133.144531 L 290.035156 132.15625 C 289.65625 131.953125 289.09375 131.601562 288.597656 131.199219 L 285.933594 129.550781 C 285.417969 129.28125 285.753906 128.609375 286.121094 128.429688 L 286.121094 128.40625 C 286.039062 128.367188 285.949219 128.324219 285.851562 128.242188 C 284.773438 127.222656 283.652344 126.265625 282.484375 125.367188 C 282.273438 125.449219 282.027344 125.417969 281.839844 125.261719 C 281.148438 124.617188 280.445312 123.996094 279.726562 123.398438 C 278.117188 122.339844 276.433594 121.375 274.675781 120.523438 C 271.851562 119.191406 268.960938 118.042969 265.996094 117.070312 C 265.359375 116.859375 264.714844 116.671875 264.074219 116.484375 C 263.160156 116.441406 262.25 116.390625 261.339844 116.351562 C 227.414062 114.863281 193.402344 115.488281 159.554688 118.21875 C 151.214844 118.890625 142.886719 119.691406 134.570312 120.621094 C 127.257812 121.441406 118.488281 121.410156 111.761719 124.761719 C 111.476562 124.90625 111.207031 125.054688 110.941406 125.210938 C 111.464844 128.574219 112.839844 131.859375 114.035156 135.03125 C 115.878906 139.925781 117.53125 144.914062 117.367188 150.210938 C 117.25 153.90625 116.457031 157.460938 115.3125 160.933594 C 114.726562 165.882812 113.183594 170.667969 111.546875 175.363281 C 103.484375 198.480469 99.097656 222.144531 99.546875 246.679688 C 99.558594 247.339844 99.410156 247.914062 99.148438 248.402344 C 99.296875 249.472656 99.441406 250.546875 99.617188 251.617188 C 100.289062 255.75 94.835938 257.808594 92.953125 255.066406 C 92.828125 255.191406 92.652344 255.277344 92.492188 255.292969 C 92.011719 255.335938 91.226562 254.550781 91 254.191406 C 90.707031 253.652344 90.402344 253.128906 90.070312 252.625 C 90.027344 252.605469 89.988281 252.589844 89.953125 252.574219 C 90.15625 252.992188 90.363281 253.421875 90.558594 253.824219 C 90.886719 254.484375 89.621094 254.804688 89.25 254.199219 C 88.910156 253.667969 88.574219 253.160156 88.238281 252.671875 C 88.042969 252.8125 87.828125 252.851562 87.683594 252.621094 C 86.480469 250.628906 85.085938 248.921875 83.558594 247.46875 C 81.15625 245.507812 78.527344 244.316406 75.539062 243.621094 C 73.191406 243.285156 70.777344 243.269531 68.449219 243.539062 C 65.777344 243.851562 62.960938 244.519531 60.542969 245.738281 C 58.574219 247.09375 56.597656 248.449219 54.621094 249.804688 C 54.136719 250.3125 53.671875 250.84375 53.238281 251.398438 C 51.867188 253.171875 50.765625 255.066406 49.859375 257.082031 C 49.824219 257.207031 49.785156 257.335938 49.75 257.457031 C 49.195312 259.148438 48.835938 260.882812 48.679688 262.667969 L 48.617188 269.417969 C 48.917969 272.347656 49.664062 275.191406 50.8125 277.894531 C 51.351562 279.488281 52.195312 280.910156 53.34375 282.167969 C 53.957031 283.234375 54.652344 284.199219 55.429688 285.097656 C 57.011719 286.144531 58.734375 287.035156 60.566406 287.738281 C 61.015625 287.859375 61.464844 287.980469 61.921875 288.070312 C 64.28125 288.976562 66.722656 289.460938 69.242188 289.527344 C 72.433594 289.746094 75.554688 289.46875 78.609375 288.699219 C 80.496094 288.359375 82.324219 287.816406 84.089844 287.058594 C 85.78125 286.203125 87.378906 285.179688 88.867188 283.980469 C 89.03125 283.875 89.277344 283.9375 89.546875 284.070312 C 89.878906 283.832031 90.207031 283.597656 90.527344 283.335938 C 90.679688 283.234375 90.8125 283.359375 90.878906 283.496094 L 90.96875 283.425781 C 91.5625 283.023438 93.1875 284.289062 92.453125 285.035156 C 92.765625 285.230469 93.082031 285.464844 93.367188 285.703125 C 94.667969 285.753906 97.296875 288.152344 96.804688 288.527344 C 96.070312 289.164062 95.296875 289.746094 94.511719 290.300781 C 95.207031 290.816406 96.121094 291.617188 95.695312 291.941406 C 94.929688 292.667969 94.101562 293.296875 93.214844 293.835938 C 92.617188 294.289062 92.003906 294.726562 91.359375 295.121094 C 90.664062 295.535156 89.953125 295.886719 89.21875 296.214844 C 90.5 298.691406 91.71875 301.195312 92.855469 303.738281 C 93.613281 305.542969 94.488281 307.289062 95.5 308.964844 C 96.789062 311.519531 98.332031 313.914062 100.132812 316.144531 C 101.601562 318.617188 103.324219 320.882812 105.292969 322.957031 C 107.726562 325.726562 110.339844 328.332031 113.117188 330.742188 C 114.226562 331.53125 115.355469 332.292969 116.53125 332.996094 C 119.53125 335.257812 122.730469 337.199219 126.121094 338.816406 C 126.519531 339.03125 126.832031 339.511719 126.367188 339.886719 C 126.351562 339.894531 126.339844 339.894531 126.324219 339.90625 C 127.429688 340.535156 128.546875 341.15625 129.667969 341.773438 C 130.113281 342.011719 131.015625 342.476562 130.34375 343.023438 C 129.910156 343.382812 128.570312 342.738281 127.769531 342.320312 C 127.878906 342.378906 128 342.445312 128.121094 342.511719 C 128.367188 342.648438 129.789062 343.367188 128.914062 343.824219 C 128.472656 343.898438 128.054688 343.824219 127.648438 343.605469 C 127.230469 343.449219 126.808594 343.277344 126.398438 343.097656 C 126.414062 343.230469 126.339844 343.359375 126.121094 343.464844 C 125.949219 343.492188 125.785156 343.492188 125.621094 343.480469 C 126.53125 343.996094 127.445312 344.503906 128.367188 345.007812 C 128.636719 345.148438 129.910156 345.851562 129.070312 346.285156 C 128.660156 346.367188 128.261719 346.300781 127.878906 346.09375 C 127.183594 345.828125 126.496094 345.523438 125.828125 345.1875 L 125.359375 344.925781 C 125.238281 344.925781 125.117188 344.910156 125 344.886719 C 125.730469 345.285156 126.472656 345.664062 127.222656 346.039062 C 127.664062 346.277344 128.40625 346.765625 127.769531 347.261719 C 127.328125 347.597656 126.136719 346.992188 125.433594 346.59375 C 125.386719 346.644531 125.335938 346.707031 125.261719 346.765625 C 124.734375 347.164062 123.386719 346.285156 122.960938 346.054688 C 119.25 344.0625 115.664062 342.003906 112.210938 339.644531 C 110.097656 338.289062 108.039062 336.867188 106.027344 335.320312 C 102.171875 332.339844 98.667969 328.871094 95.457031 325.21875 C 93.261719 322.71875 92.070312 321.3125 89.945312 318.277344 C 86.53125 313.398438 83.957031 308.304688 81.476562 302.90625 C 81.441406 302.824219 81.515625 302.617188 81.628906 302.40625 C 81.117188 301.15625 80.625 299.890625 80.128906 298.582031 C 78.84375 298.753906 77.546875 298.871094 76.265625 298.949219 C 73.25 299.121094 70.320312 298.851562 67.484375 298.230469 C 64.046875 297.785156 60.648438 296.8125 57.640625 295.285156 C 55.835938 294.378906 54.097656 293.414062 52.449219 292.335938 C 50.976562 291.550781 49.554688 290.652344 48.191406 289.605469 C 42.390625 285.171875 39.238281 278.292969 38.464844 271.148438 C 37.875 268.003906 37.746094 264.769531 38.097656 261.648438 C 38.351562 259.378906 38.863281 257.132812 39.605469 254.96875 C 40.972656 250.171875 43.527344 245.730469 47.226562 242.371094 C 47.847656 241.734375 48.5 241.128906 49.195312 240.558594 C 51.253906 238.875 53.589844 237.519531 56.074219 236.53125 C 56.554688 236.296875 57.039062 236.082031 57.527344 235.878906 L 56.9375 234.515625 C 56.726562 234.574219 56 234.457031 55.910156 234.203125 C 55.671875 233.550781 55.445312 232.882812 55.214844 232.234375 C 55.078125 232.316406 54.90625 232.359375 54.71875 232.367188 L 54.71875 233.125 C 54.726562 233.339844 54.316406 234.6875 54.089844 233.984375 C 53.859375 233.339844 53.648438 232.683594 53.425781 232.03125 C 53.238281 231.910156 53.09375 231.769531 53.042969 231.605469 C 53.019531 231.535156 52.996094 231.46875 52.96875 231.402344 L 52.914062 231.386719 L 52.914062 231.617188 C 52.921875 231.761719 52.546875 232.839844 52.480469 232.628906 C 51.1875 229.066406 50.128906 225.425781 49.308594 221.730469 C 48.746094 219.691406 48.304688 217.632812 47.964844 215.542969 C 47.601562 213.664062 47.277344 211.777344 47 209.878906 L 46.933594 209.40625 L 46.910156 209.300781 C 46.886719 209.097656 46.867188 208.890625 46.835938 208.6875 C 46.535156 206.539062 46.289062 204.382812 46.101562 202.210938 C 45.707031 197.75 45.546875 193.265625 45.59375 188.785156 C 45.496094 188.824219 45.40625 188.875 45.308594 188.921875 C 43.363281 189.75 41.308594 190.425781 39.21875 190.964844 C 35.621094 196.164062 29.875 199.683594 22.996094 200.050781 C 20.664062 200.179688 18.21875 199.894531 15.957031 199.234375 C 15.722656 199.289062 15.480469 199.332031 15.226562 199.367188 C 13.382812 199.609375 12.101562 198.855469 10.378906 198.628906 C 7.617188 198.261719 5.277344 198.082031 3.492188 196.480469 C 2.9375 196.492188 2.410156 196.414062 1.910156 196.261719 C -2.824219 197.398438 -7.859375 194.894531 -9.523438 189.648438 C -12.367188 187.984375 -14.628906 185.511719 -16.152344 182.648438 C -19.085938 178.886719 -21.429688 174.28125 -22.882812 169.4375 C -22.90625 169.394531 -22.929688 169.347656 -22.953125 169.300781 C -23.6875 167.703125 -24.039062 165.988281 -24.070312 164.265625 C -24.855469 159.367188 -24.648438 154.460938 -23.15625 150.144531 C -23.21875 147.808594 -22.667969 145.371094 -21.664062 143.160156 C -20.441406 140.480469 -18.582031 137.398438 -16.171875 135.609375 C -16.164062 132.859375 -14.984375 129.835938 -13.4375 127.785156 C -10.347656 123.691406 -5.871094 121.527344 -1.023438 121.214844 C 1.441406 114.898438 8.910156 113.421875 15.351562 115.523438 C 18.027344 112.789062 21.945312 111.484375 25.859375 111.949219 C 29.167969 112.34375 31.992188 113.925781 34.332031 116.105469 C 34.949219 116.28125 35.566406 116.464844 36.179688 116.65625 C 38.226562 115.753906 40.617188 115.550781 42.804688 116.117188 C 46.597656 117.09375 49.070312 119.964844 50.78125 123.257812 C 51.324219 123.632812 51.859375 124.023438 52.378906 124.425781 C 52.949219 124.683594 53.46875 125.027344 53.941406 125.429688 C 54.625 125.792969 55.207031 126.394531 55.558594 127.261719 C 56.527344 128.257812 57.421875 129.3125 58.21875 130.441406 C 58.8125 129.066406 59.429688 127.699219 60.0625 126.339844 C 61.09375 126.652344 62.34375 126.25 62.863281 124.871094 C 66.15625 116.128906 72.152344 100.113281 77.804688 92.734375 C 71.207031 97.222656 63.15625 99.589844 55.160156 99.351562 C 54.816406 99.34375 54.472656 99.328125 54.125 99.308594 C 49.824219 100.050781 45.457031 100.121094 41.449219 99.316406 C 38.75 98.335938 36.117188 97.167969 33.570312 95.847656 C 32.949219 95.523438 32.335938 95.183594 31.722656 94.84375 C 31.457031 94.617188 31.207031 94.367188 30.953125 94.125 C 30.425781 94.164062 29.875 94.121094 29.285156 93.96875 C 27.078125 93.382812 25.039062 91.914062 23.757812 90.027344 C 23.519531 89.679688 23.328125 89.316406 23.15625 88.953125 C 21.769531 87.59375 20.566406 86.054688 19.679688 84.257812 C 18.640625 82.152344 18.003906 79.785156 17.9375 77.421875 C 17.503906 75.101562 17.53125 72.710938 18.339844 70.496094 C 18.429688 70.257812 18.535156 70.023438 18.632812 69.785156 C 18.679688 69.632812 18.707031 69.476562 18.761719 69.328125 C 18.996094 68.539062 19.296875 67.832031 19.664062 67.167969 C 19.800781 66.484375 20.019531 65.804688 20.332031 65.140625 C 20.367188 64.824219 20.410156 64.503906 20.464844 64.183594 C 18.085938 59.695312 18.925781 53.828125 22.488281 50.179688 C 21.996094 47.820312 22.496094 45.320312 23.933594 43.226562 C 24.988281 41.6875 26.453125 40.476562 28.113281 39.632812 C 28.285156 39.546875 28.742188 39.394531 29.292969 39.222656 C 29.90625 38.679688 30.554688 38.164062 31.261719 37.714844 C 31.4375 33.113281 36.242188 30.554688 40.148438 28.289062 C 42.679688 26.820312 43.785156 24.035156 46.394531 22.625 C 49.246094 21.085938 52.894531 20.992188 56.046875 20.613281 C 63.480469 19.71875 71.394531 19.027344 78.863281 19.835938 C 83.011719 20.285156 86.445312 22.289062 87.863281 25.566406 C 91.433594 25.988281 94.613281 28.5625 97.128906 31.210938 C 100.269531 34.515625 102.941406 38.03125 103.863281 42.375 C 104.476562 42.707031 105.035156 43.109375 105.539062 43.570312 C 105.519531 46.621094 105.121094 49.679688 104.277344 52.5625 C 104.527344 54.285156 104.007812 55.929688 103.128906 57.421875 C 103.265625 58.832031 103.167969 60.222656 102.871094 61.609375 C 104.578125 64.636719 102.980469 69.214844 100.589844 72.21875 L 100.574219 73.910156 C 100.714844 73.835938 100.851562 73.75 100.984375 73.640625 C 111.832031 64.40625 122.984375 65.722656 136.167969 60.441406 C 148.054688 58.144531 160.1875 56.683594 172.363281 56.199219 C 172.203125 56.175781 172.042969 56.160156 171.882812 56.132812 C 165.746094 55.128906 159.851562 52.601562 154.78125 48.976562 C 153.441406 48.636719 152.167969 48.03125 151.03125 47.019531 C 149.925781 46.035156 149.15625 44.898438 148.71875 43.683594 C 148.515625 43.46875 148.320312 43.25 148.125 43.03125 C 144.320312 42.097656 141.421875 38.804688 141.90625 34.476562 C 139.496094 31.625 138.609375 28.105469 139.425781 24.4375 C 138.078125 22.164062 137.960938 19.296875 138.96875 16.898438 C 136.851562 14.328125 136.6875 10.679688 138.34375 7.773438 C 136.832031 5.621094 136.496094 2.769531 138.363281 0.21875 C 139.246094 -0.984375 140.46875 -1.742188 141.800781 -2.109375 C 142.175781 -3.496094 142.941406 -4.785156 144.140625 -5.78125 C 144.757812 -6.292969 145.40625 -6.671875 146.066406 -6.957031 C 146.316406 -8.386719 147.125 -9.746094 148.683594 -10.8125 C 149.386719 -11.296875 150.113281 -11.613281 150.832031 -11.785156 C 151.511719 -13.46875 152.699219 -14.945312 154.367188 -15.90625 C 156.386719 -17.0625 158.730469 -17.214844 160.867188 -16.609375 Z M 64.773438 255.679688 C 66.339844 255.660156 67.84375 255.675781 69.339844 255.832031 C 69.402344 255.785156 69.460938 255.765625 69.511719 255.769531 C 69.761719 255.832031 69.984375 255.882812 70.222656 255.945312 C 71.054688 256.0625 71.886719 256.234375 72.734375 256.484375 C 74.730469 257.074219 76.730469 258.011719 78.460938 259.171875 C 80.09375 260.261719 81.714844 261.402344 83.140625 262.765625 C 83.640625 263.191406 84.113281 263.65625 84.5625 264.132812 C 85.289062 264.734375 85.992188 265.347656 86.664062 265.953125 C 87.488281 266.710938 88.289062 267.488281 89.054688 268.296875 C 90.25 269.683594 91.1875 271.222656 91.863281 272.921875 C 92.132812 273.46875 91.800781 273.800781 91.246094 273.703125 C 91 273.664062 90.664062 273.484375 90.320312 273.246094 L 90.484375 273.613281 C 90.777344 274.1875 90.527344 274.601562 89.863281 274.382812 C 89.824219 274.359375 89.789062 274.339844 89.757812 274.316406 C 90.101562 274.929688 90.417969 275.558594 90.6875 276.21875 C 90.976562 276.800781 90.714844 277.207031 90.058594 276.980469 C 89.710938 276.785156 89.382812 276.5625 89.070312 276.316406 C 89.210938 276.628906 89.359375 276.9375 89.488281 277.257812 C 89.789062 277.851562 89.441406 278.15625 88.859375 278.023438 C 88.359375 277.746094 87.894531 277.414062 87.460938 277.035156 C 87.390625 276.980469 87.332031 276.921875 87.273438 276.867188 C 87.464844 277.355469 87.101562 277.65625 86.613281 277.558594 C 85.925781 277.421875 84.628906 276.261719 84.316406 275.648438 L 84.253906 275.535156 C 83.886719 275.289062 83.492188 274.945312 83.191406 274.617188 C 82.953125 274.960938 82.488281 275.214844 82.277344 274.796875 C 81.648438 273.082031 80.667969 271.613281 79.328125 270.378906 C 78.566406 269.261719 77.636719 268.3125 76.550781 267.527344 C 75.96875 267.03125 75.359375 266.558594 74.738281 266.109375 C 73.636719 265.609375 72.492188 265.226562 71.296875 264.972656 C 71.054688 264.898438 70.808594 264.851562 70.570312 264.785156 C 70.039062 264.6875 69.511719 264.589844 68.980469 264.515625 C 66.816406 264.214844 64.648438 264.164062 62.476562 264.359375 C 62.085938 264.375 61.710938 264.074219 61.546875 263.730469 C 61.0625 263.753906 60.582031 263.773438 60.09375 263.820312 C 59.292969 263.847656 59.464844 262.71875 60.074219 262.605469 C 60.835938 262.464844 61.601562 262.359375 62.347656 262.269531 C 62.332031 262.203125 62.324219 262.128906 62.339844 262.066406 C 60.972656 262 59.609375 262.03125 58.230469 262.171875 C 57.632812 262.203125 58.34375 261.09375 58.671875 261.035156 C 58.820312 261.003906 58.972656 260.988281 59.128906 260.960938 C 59.113281 260.9375 59.105469 260.921875 59.097656 260.898438 L 59.0625 260.898438 C 58.238281 260.9375 57.675781 259.625 58.664062 259.445312 C 58.910156 259.402344 59.152344 259.371094 59.390625 259.328125 C 59.347656 259.199219 59.339844 259.089844 59.382812 258.984375 C 58.957031 258.976562 58.539062 258.976562 58.109375 258.976562 C 58.34375 258.960938 58.515625 257.957031 58.792969 257.921875 L 59.449219 257.832031 C 59.464844 257.554688 59.886719 256.910156 60.066406 256.871094 C 61.488281 256.632812 62.878906 256.46875 64.257812 256.414062 C 64.390625 256.101562 64.585938 255.679688 64.773438 255.679688 Z M 64.773438 255.679688 " fill-opacity="1" fill-rule="evenodd"/></g></svg>