<svg xmlns="http://www.w3.org/2000/svg" xmlns:xlink="http://www.w3.org/1999/xlink" width="473" zoomAndPan="magnify" viewBox="0 0 354.75 425.249996" height="567" preserveAspectRatio="xMidYMid meet" version="1.0"><defs><clipPath id="40be00867e"><path d="M 28 0 L 354.3125 0 L 354.3125 376 L 28 376 Z M 28 0 " clip-rule="nonzero"/></clipPath></defs><path fill="#a95e10" d="M 288.738281 129.6875 C 285.847656 112.199219 295.335938 108.570312 288.738281 91.945312 C 274.078125 61.144531 234.125 62.46875 204.808594 60.101562 C 172.105469 58.847656 139.007812 63.164062 108.863281 76.273438 C 101.660156 79.402344 94.734375 83.082031 88.097656 87.265625 C 82.355469 90.882812 83.144531 97.761719 86.765625 101.511719 C 60.660156 138.476562 75.589844 188.09375 54.765625 227 C 50.917969 233.957031 45.828125 240.191406 42.484375 247.429688 C 37.398438 258.429688 37.074219 274.191406 48.601562 281.496094 C 64.839844 290.210938 73.898438 272.957031 81.878906 297.96875 C 121.71875 385.183594 201.828125 390.09375 277.875 344.625 C 284.457031 340.964844 291.171875 336.828125 296.140625 331.078125 C 307.417969 318.386719 306.089844 300.539062 306.335938 284.691406 C 306.476562 275.40625 306.5 266.117188 306.410156 256.828125 C 306.054688 219.199219 293.582031 167.003906 288.738281 129.6875 Z M 288.738281 129.6875 " fill-opacity="1" fill-rule="evenodd"/><g clip-path="url(#40be00867e)"><path fill="#000000" d="M 126.765625 25.085938 C 172.679688 4.257812 224.757812 -3.640625 274.847656 1.539062 C 299.566406 4.09375 323.964844 9.570312 347.183594 18.46875 L 349.21875 19.253906 C 354.949219 21.460938 361.125 23.652344 365.480469 28.140625 C 370.550781 33.359375 371.972656 41.25 368.347656 47.695312 C 365.535156 52.707031 360.472656 56.296875 355.074219 58.214844 C 356.976562 59.773438 358.78125 61.511719 360.472656 63.449219 C 363.324219 66.699219 363.542969 71.332031 360.472656 74.535156 C 354.558594 80.714844 346.882812 85.183594 338.617188 87.324219 C 339.546875 91.808594 339.046875 96.773438 337.054688 101.242188 C 331.339844 114.070312 315.242188 115.601562 302.855469 114.839844 L 302.480469 114.816406 L 301.792969 122.699219 C 301.425781 126.898438 298.910156 130.15625 294.640625 130.800781 C 294.492188 130.824219 294.339844 130.835938 294.191406 130.851562 C 300.945312 155.273438 305.027344 180.453125 308.792969 205.480469 C 310.757812 218.546875 312.519531 231.640625 314.207031 244.746094 L 314.765625 249.113281 C 316.5625 263.242188 318.808594 277.511719 319.585938 291.742188 C 320.285156 304.660156 317.820312 316.988281 309.863281 327.410156 C 302.71875 336.753906 292.980469 343.753906 282.503906 348.949219 C 258.839844 360.695312 233.929688 369.441406 207.757812 373.5 L 206.011719 373.769531 C 195.910156 375.308594 185.5 376.609375 175.503906 373.8125 C 166.722656 371.359375 157.511719 365.023438 159.496094 354.851562 C 160.164062 351.414062 164.96875 351.265625 166.617188 353.921875 L 166.996094 354.53125 C 168.972656 357.664062 171.136719 360.578125 174.582031 362.195312 C 178.617188 364.097656 183.296875 364.625 187.707031 364.679688 C 200.023438 364.824219 212.847656 361.753906 224.707031 358.675781 C 246.851562 352.925781 269.597656 343.550781 287.738281 329.351562 C 295.457031 323.316406 301.65625 315.769531 303.84375 306.058594 C 306.546875 294.085938 304.058594 281 302.832031 268.96875 C 300.304688 244.144531 297.296875 219.363281 294.125 194.613281 L 293.488281 189.660156 C 290.816406 168.96875 288.007812 148.265625 286.675781 127.453125 C 286.121094 126.699219 285.746094 125.835938 285.597656 124.894531 L 285.386719 123.539062 C 285.207031 122.378906 285.179688 121.3125 285.304688 120.332031 C 285.3125 116.574219 285.417969 112.839844 285.632812 109.082031 C 285.671875 108.40625 285.703125 107.734375 285.722656 107.066406 C 281.816406 107.929688 277.878906 108.625 273.925781 109.214844 C 246.132812 113.402344 217.910156 114.449219 189.894531 112.367188 C 175.914062 111.328125 162.042969 109.539062 148.214844 107.300781 C 141.175781 106.160156 134.160156 104.902344 127.167969 103.496094 C 122.117188 102.484375 117.167969 101.113281 112.195312 99.828125 C 107.066406 107.292969 104.296875 116.476562 104.835938 125.5 C 105.441406 135.792969 112.300781 145.128906 110.375 155.648438 C 108.570312 165.492188 100.136719 168.546875 91.808594 170.984375 L 88.269531 172.007812 C 85.542969 172.800781 83.566406 173.570312 83.070312 176.84375 C 82.226562 182.464844 83.265625 188.792969 83.484375 194.445312 C 83.746094 201.132812 84.089844 207.816406 84.246094 214.503906 C 84.328125 217.960938 84.464844 221.433594 84.457031 224.894531 C 84.449219 227.351562 84.082031 229.027344 83.132812 230.613281 C 83.867188 231.535156 84.523438 232.53125 85.109375 233.585938 C 85.296875 233.929688 84.832031 234.296875 84.554688 234.011719 C 83.8125 233.242188 83.027344 232.546875 82.195312 231.921875 C 81.777344 232.441406 81.289062 232.964844 80.71875 233.527344 L 80.675781 233.464844 C 78.894531 235.242188 76.0625 235.414062 73.855469 233.527344 L 73.273438 233.023438 C 71.660156 231.605469 70.546875 230.425781 70.097656 228.082031 C 70.074219 227.964844 70.050781 227.84375 70.039062 227.722656 C 65.925781 227.582031 61.75 228.554688 58.050781 230.597656 C 52.1875 233.839844 48.0625 238.460938 45.625 244.164062 C 46.597656 245.304688 47.734375 246.320312 49.058594 247.175781 C 49.246094 247.300781 49.082031 247.578125 48.878906 247.480469 C 47.523438 246.84375 46.3125 246.058594 45.226562 245.136719 C 44.351562 247.382812 43.738281 249.796875 43.363281 252.347656 C 42.042969 261.363281 44.394531 272.375 52.539062 277.511719 C 56.066406 279.734375 60.09375 280.941406 64.273438 280.957031 C 66.308594 280.960938 68.070312 280.617188 70.046875 280.132812 C 71.386719 279.800781 72.71875 279.324219 74.117188 279.324219 C 75.316406 279.324219 76.421875 279.621094 77.449219 280.222656 L 77.164062 280.246094 C 76.472656 280.3125 76.605469 280.339844 77.570312 280.339844 C 80.5625 280.46875 82.277344 283.507812 80.902344 286.152344 L 80.71875 286.558594 C 80.683594 286.640625 80.648438 286.710938 80.625 286.765625 L 80.515625 287.464844 C 80.503906 287.53125 80.492188 287.601562 80.480469 287.671875 L 80.441406 287.8125 C 80.433594 287.835938 80.425781 287.859375 80.414062 287.878906 L 84.90625 294.730469 C 90.414062 303.109375 96.042969 311.453125 102.449219 319.109375 C 106.941406 324.476562 111.703125 329.738281 116.734375 334.613281 C 121.253906 338.992188 126.675781 341.105469 131.796875 344.546875 C 134.53125 346.375 135.328125 350.199219 132.84375 352.664062 C 125.550781 359.902344 115.226562 354.152344 109.246094 348.269531 C 103.585938 342.691406 98.695312 335.984375 94.480469 329.265625 C 87.003906 317.324219 81.050781 304.628906 78.445312 290.84375 C 77.359375 291.839844 75.972656 292.460938 74.574219 292.949219 C 71.765625 293.921875 68.675781 294.328125 65.710938 294.429688 C 60.027344 294.617188 54.335938 293.242188 49.222656 290.800781 C 28.417969 280.878906 25.363281 251.171875 38.082031 233.652344 C 36.367188 228.679688 35.410156 223.28125 34.371094 218.679688 L 33.898438 216.625 C 28.636719 193.644531 25.105469 169.449219 34.429688 146.933594 C 35.628906 144.027344 36.976562 141.199219 38.570312 138.488281 C 39.851562 136.308594 42.050781 133.988281 42.660156 131.511719 C 44.007812 126.070312 35.6875 120.347656 33.261719 116.027344 C 30.410156 110.960938 30.003906 104.976562 33.890625 100.34375 C 34.386719 99.761719 34.921875 99.21875 35.507812 98.75 C 31.824219 92.070312 31.652344 83.671875 36.503906 77.082031 C 39.695312 72.738281 44.558594 69.699219 49.875 68.78125 C 53.125 68.21875 57.03125 68.425781 60.605469 69.429688 C 80.160156 51.273438 102.46875 36.105469 126.765625 25.085938 Z M 51.671875 252.257812 C 56.890625 247.652344 62.65625 245.242188 69.769531 245.851562 C 76.917969 246.464844 85.527344 249.421875 89.726562 255.550781 C 93.042969 260.398438 86.285156 267.5 81.417969 263.863281 C 76.984375 260.546875 74.027344 256.804688 68.527344 255.019531 C 63.582031 253.425781 57.46875 252.402344 52.292969 253.3125 C 51.722656 253.410156 51.15625 252.707031 51.671875 252.257812 Z M 51.671875 252.257812 " fill-opacity="1" fill-rule="evenodd"/></g></svg>