<svg xmlns="http://www.w3.org/2000/svg" xmlns:xlink="http://www.w3.org/1999/xlink" width="473" zoomAndPan="magnify" viewBox="0 0 354.75 425.249996" height="567" preserveAspectRatio="xMidYMid meet" version="1.0"><path fill="#a95e10" d="M 290.988281 113.65625 C 285.6875 94.566406 286.445312 92.503906 278.546875 74.269531 C 252.359375 21.300781 77.347656 39.035156 59.488281 91.910156 C 49.796875 120.597656 52.074219 160.996094 49.550781 185.867188 C 48.78125 199.054688 48.023438 212.246094 47.234375 225.429688 C 46.964844 229.984375 46.691406 234.539062 46.410156 239.09375 C 45.867188 247.957031 45.335938 256.820312 44.84375 265.6875 C 41.554688 293.003906 55.28125 295.785156 78.828125 294.976562 C 85.050781 309.992188 95.136719 322.53125 107.589844 332.730469 C 104.582031 340.910156 115.484375 345.140625 121.363281 348.410156 C 153.359375 366.273438 192.65625 377.171875 228.09375 367.128906 C 238.507812 364.175781 281.503906 353.953125 294.726562 322.308594 C 301.21875 306.769531 314.417969 226.296875 297.011719 153.910156 Z M 290.988281 113.65625 " fill-opacity="1" fill-rule="evenodd"/><path fill="#000000" d="M 179.121094 -10.851562 C 184.070312 -11.726562 189.605469 -11.390625 192.441406 -6.53125 C 193.054688 -5.484375 193.445312 -4.425781 193.632812 -3.386719 C 207.152344 -6.425781 221.191406 -6.753906 235.003906 -4.765625 C 239.121094 -4.171875 240.566406 1.316406 238.753906 4.453125 C 238.566406 4.773438 238.378906 5.089844 238.179688 5.394531 C 242.503906 5.746094 246.824219 6.496094 251.109375 7.648438 C 254.15625 8.472656 257 12.417969 255.644531 15.652344 C 255.523438 15.9375 255.398438 16.222656 255.269531 16.503906 C 262 17.636719 268.433594 20.28125 274.054688 24.546875 C 274.726562 25.046875 275.351562 25.699219 275.867188 26.441406 C 288.4375 25.023438 301.382812 27.625 312.605469 33.6875 C 315.75 35.386719 317.269531 40.285156 315.132812 43.339844 C 314.46875 44.289062 313.773438 45.195312 313.023438 46.070312 C 317.90625 47.875 322.226562 50.796875 325.136719 55.550781 C 328.304688 60.707031 329.277344 67.347656 327.578125 73.023438 C 331.125 76.640625 332.984375 82.179688 331.71875 87.734375 C 330.566406 92.804688 327.457031 96.023438 323.476562 97.953125 C 324.285156 100.425781 323.632812 103.234375 321.796875 105.140625 C 318.984375 108.070312 315.613281 110.316406 311.945312 111.789062 C 311.9375 112.742188 311.699219 113.722656 311.21875 114.636719 C 307.910156 120.984375 300.773438 125.199219 293.519531 125.835938 C 295.960938 136.085938 297.96875 146.460938 299.914062 156.777344 C 303.375 175.128906 306.054688 193.660156 307.683594 212.261719 L 307.882812 214.5625 C 310.542969 246.042969 311.160156 279.023438 304.757812 310.078125 C 300.679688 329.851562 288.308594 346.515625 271.808594 357.808594 C 255.03125 369.289062 234.53125 375.003906 214.363281 375.910156 C 204.074219 376.367188 193.691406 375.496094 183.613281 373.386719 C 178.832031 372.382812 174.210938 370.960938 169.667969 369.148438 C 164.777344 367.195312 160.75 364.3125 156.617188 361.070312 C 154.46875 359.386719 155.695312 355.410156 158.242188 354.910156 C 160.0625 354.542969 161.859375 354.144531 163.667969 353.816406 C 165.332031 353.507812 167.144531 355.171875 166.800781 356.707031 L 170.304688 357.609375 C 171.472656 357.910156 172.640625 358.214844 173.804688 358.527344 L 175.550781 359.003906 C 180.515625 360.390625 185.589844 361.558594 190.683594 362.386719 C 201.042969 364.074219 211.824219 364.109375 222.238281 362.800781 C 239.75 360.605469 257.636719 354.363281 271.253906 342.855469 C 277.933594 337.210938 283.496094 330.523438 287.53125 322.761719 C 292.660156 312.898438 294.210938 301.917969 295.496094 291.007812 C 299.21875 259.46875 298.074219 227.878906 295.183594 196.332031 C 293.746094 180.640625 291.785156 164.976562 289.703125 149.351562 C 288.632812 141.339844 287.480469 133.316406 286.527344 125.273438 C 284.410156 124.707031 282.386719 123.761719 280.574219 122.390625 C 279.347656 121.464844 278.628906 120.382812 278.316406 119.285156 C 276.484375 118.941406 274.730469 117.9375 273.46875 116.238281 L 273.304688 116.011719 C 269.988281 111.214844 264.253906 108.464844 258.945312 106.46875 C 255.726562 105.253906 252.449219 104.199219 249.183594 103.121094 C 245.785156 101.992188 242.191406 100.320312 238.621094 99.886719 C 234.570312 99.40625 230.488281 100.628906 226.402344 100.195312 C 222.6875 99.789062 219.417969 98.457031 216.742188 95.792969 C 215.808594 94.863281 215 93.792969 214.355469 92.640625 C 201.890625 95.304688 188.796875 91.941406 175.84375 92.75 C 167.324219 93.289062 159.804688 98.5625 151.195312 98.417969 C 148.84375 98.382812 146.570312 97.558594 144.914062 96.113281 C 136.792969 97.664062 128.535156 100.640625 120.898438 103.203125 C 113.351562 105.734375 106.089844 109.140625 98.632812 111.902344 C 98.625 111.910156 98.625 111.910156 98.625 111.917969 C 97.652344 115.070312 94.746094 116.433594 91.652344 115.878906 C 81.539062 114.074219 73.019531 107.695312 63.175781 105.359375 C 60.464844 115.234375 57.550781 124.980469 55.5625 135.050781 C 53.546875 145.210938 52.132812 155.507812 51.195312 165.824219 C 50.25 176.175781 49.800781 186.636719 49.78125 197.027344 C 49.773438 202.328125 49.90625 207.644531 50.085938 212.945312 C 50.234375 217.382812 51.078125 223 49.476562 227.269531 L 49.332031 227.632812 L 49.324219 227.632812 C 49.128906 228.253906 48.253906 228.628906 47.757812 228.054688 C 44.742188 224.546875 44.023438 218.972656 43.183594 214.570312 C 42.167969 209.222656 41.515625 203.824219 40.992188 198.410156 C 39.941406 187.546875 39.710938 176.730469 40.265625 165.824219 C 41.351562 144.351562 44.792969 121.671875 52.144531 101.375 C 49.886719 101.585938 48.875 98.253906 48.726562 96.375 C 48.4375 92.597656 49.03125 88.589844 49.671875 84.804688 L 50.339844 80.882812 C 50.976562 77.179688 51.648438 73.578125 52.910156 69.976562 C 55.933594 61.335938 60.285156 53.222656 65.703125 45.847656 C 76.761719 30.804688 92.089844 19.417969 109.539062 12.851562 C 110.632812 12.441406 111.667969 12.449219 112.578125 12.761719 C 128.460938 4.207031 145.527344 -2.382812 162.867188 -7.070312 C 168.230469 -8.515625 173.65625 -9.878906 179.121094 -10.851562 Z M 47.25 230.546875 C 54.460938 226.023438 69.335938 224.839844 73.355469 234.476562 C 73.519531 234.867188 73.058594 235.210938 72.710938 235.121094 L 71.730469 234.871094 C 67.949219 233.933594 64.683594 233.398438 60.808594 234.949219 C 57.402344 236.3125 54.09375 238.445312 51.839844 241.378906 C 46.511719 248.320312 45.933594 257.746094 46.429688 266.167969 L 46.457031 266.574219 C 46.921875 273.960938 48.816406 282.960938 56.039062 286.613281 C 59.699219 288.464844 63.660156 288.328125 67.636719 288.300781 C 72.164062 288.269531 76.792969 288.761719 81.121094 290.15625 C 83.539062 290.933594 84.675781 294.136719 82.671875 296.019531 C 82.003906 296.640625 81.308594 297.222656 80.574219 297.746094 C 82.765625 300.082031 84.921875 302.449219 87.011719 304.941406 C 90.554688 309.171875 94.320312 313.261719 98.25 317.128906 C 102.054688 320.867188 106.082031 324.484375 110.421875 327.582031 C 114.992188 330.832031 120.457031 333.113281 124.410156 337.097656 C 126.984375 339.6875 126.542969 343.304688 124.410156 345.925781 C 119.113281 352.4375 110.097656 345.589844 105.03125 341.738281 L 104.417969 341.277344 C 99.15625 337.292969 94.15625 332.996094 89.894531 327.933594 C 85.550781 322.769531 81.792969 317.273438 79.015625 311.109375 C 77.382812 307.488281 76.34375 304.066406 75.78125 300.488281 C 66.679688 304.441406 55.199219 303.183594 47.039062 297.621094 C 36.207031 290.238281 33.167969 276.6875 33.128906 264.320312 L 33.128906 263.585938 C 33.210938 251.5625 36.367188 237.371094 47.25 230.546875 Z M 67.789062 247.972656 L 68.121094 247.976562 C 72.132812 248.0625 75.707031 249.507812 79.113281 251.496094 L 79.464844 251.703125 C 82.773438 253.671875 87.519531 255.25 89.273438 258.9375 C 90.320312 261.160156 90.246094 263.707031 88.417969 265.546875 C 85.109375 268.886719 80.117188 268.332031 76.539062 265.726562 C 73.867188 263.773438 72.105469 260.84375 69.484375 258.867188 C 64.558594 255.140625 56.789062 255.351562 51.660156 258.578125 C 51.34375 258.777344 51.039062 258.398438 51.179688 258.097656 C 54.328125 251.652344 60.570312 247.945312 67.789062 247.972656 Z M 67.789062 247.972656 " fill-opacity="1" fill-rule="evenodd"/></svg>