<svg xmlns="http://www.w3.org/2000/svg" xmlns:xlink="http://www.w3.org/1999/xlink" width="473" zoomAndPan="magnify" viewBox="0 0 354.75 425.249996" height="567" preserveAspectRatio="xMidYMid meet" version="1.0"><path fill="#a95e10" d="M 181.398438 56.34375 C 223.910156 56.34375 278.78125 83.011719 283.460938 110.324219 C 288.976562 142.507812 318.503906 266.007812 311.835938 305.613281 C 305.167969 345.21875 269.238281 373.730469 211.738281 373.730469 C 154.242188 373.730469 111.328125 342.375 101.472656 331.605469 C 94.902344 324.429688 85.53125 308.027344 73.359375 282.402344 C 52.835938 279.671875 42.523438 269.945312 42.425781 253.214844 C 42.328125 236.484375 49 225.074219 62.441406 218.988281 C 57.648438 152.964844 61.289062 111.359375 73.359375 94.171875 C 91.460938 68.386719 138.886719 56.34375 181.398438 56.34375 Z M 181.398438 56.34375 " fill-opacity="1" fill-rule="evenodd"/><path fill="#000000" d="M 280.859375 105.917969 C 280.828125 105.339844 281.667969 105.273438 281.824219 105.78125 C 290.996094 136.082031 296.648438 159.695312 302.601562 190.757812 L 304.359375 199.894531 C 309.054688 224.265625 313.800781 248.675781 317.808594 273.164062 L 318.042969 274.625 C 320.050781 287.304688 321.207031 300.105469 318.691406 312.808594 C 316.339844 324.679688 309.917969 335.566406 301.578125 344.238281 C 285.457031 360.992188 263.054688 371.457031 240.519531 376.136719 C 229.125 378.503906 217.371094 379.417969 205.761719 378.59375 C 199.972656 378.1875 194.191406 377.371094 188.527344 376.167969 L 187.898438 376.035156 C 182.1875 374.800781 177.117188 373.328125 174.082031 367.953125 C 173.320312 366.601562 173.625 364.277344 175.230469 363.582031 C 178.253906 362.277344 180.476562 361.734375 183.777344 362.109375 C 186.929688 362.464844 190.007812 363.417969 193.121094 364.007812 C 199.074219 365.140625 205.125 365.707031 211.179688 365.84375 C 223.078125 366.105469 235.003906 364.617188 246.375 361.066406 C 265.914062 354.964844 285.773438 343.292969 297.1875 325.835938 C 310.621094 305.296875 305.273438 280.371094 301.710938 257.6875 L 301.605469 257 C 298.003906 233.816406 294.441406 210.632812 290.980469 187.433594 L 289.507812 177.492188 C 285.628906 151.21875 281.96875 132.464844 280.859375 105.917969 Z M 82.46875 41.613281 C 92.21875 35.183594 104.339844 33.605469 115.792969 33.695312 L 117.226562 33.710938 C 131.894531 33.9375 205.726562 35.691406 230.449219 36.234375 L 236.328125 36.355469 C 244.113281 36.503906 259.808594 36.65625 267.898438 36.804688 L 268.363281 36.8125 C 272.332031 36.886719 276.300781 36.917969 280.269531 37.046875 L 280.851562 37.066406 C 283.824219 37.195312 286.296875 37.636719 288.625 39.734375 C 289.808594 40.796875 290.269531 42.414062 290.160156 43.957031 L 290.144531 44.160156 L 296.035156 44.675781 C 300.035156 45.027344 302.152344 48.617188 300.5625 52.246094 L 300.484375 52.421875 C 297.660156 58.441406 295.503906 75.960938 293.992188 82.4375 C 293.199219 85.84375 292.5625 89.304688 292.1875 92.785156 C 291.886719 95.527344 291.859375 98.273438 290.332031 100.683594 C 287.074219 105.828125 277.910156 105.78125 277.746094 98.496094 C 277.738281 98.265625 277.746094 98.039062 277.769531 97.824219 C 254.707031 96.8125 223.226562 96.910156 200.199219 98.289062 C 178.6875 99.574219 157.277344 102.496094 136.199219 106.964844 C 130.863281 108.09375 125.539062 109.332031 120.253906 110.671875 C 115.917969 111.765625 110.59375 112.414062 106.71875 114.757812 C 102.375 117.394531 102.457031 122.117188 102.929688 126.617188 C 103.433594 131.386719 104.28125 128.929688 105.476562 133.277344 L 105.550781 133.550781 C 106.785156 138.265625 108.3125 142.929688 110.332031 147.363281 C 111.488281 149.894531 113.34375 152.328125 112.640625 155.238281 C 112.242188 156.878906 110.945312 158.632812 109.757812 159.777344 C 104.335938 164.980469 95.171875 161.664062 91.488281 168.789062 C 87.632812 176.242188 87.539062 186.339844 87.210938 194.585938 L 87.191406 195.070312 C 86.953125 200.753906 87.019531 206.449219 87.394531 212.117188 C 87.730469 217.28125 89.109375 222.394531 87.339844 227.359375 C 86.054688 230.96875 81.847656 231.304688 79.644531 228.371094 C 79.390625 228.035156 79.160156 227.6875 78.945312 227.339844 L 78.730469 226.992188 L 78.71875 227 C 78.925781 227.332031 79.121094 227.667969 79.308594 228.011719 C 79.511719 228.394531 79.007812 228.8125 78.703125 228.484375 C 73.519531 222.84375 65.953125 223.96875 60.089844 227.914062 C 54.152344 231.925781 51.808594 239.546875 51.503906 246.386719 C 51.15625 253.96875 51.832031 262.855469 54.992188 269.863281 C 56.324219 272.828125 58.222656 275.550781 61.378906 276.683594 C 62.808594 277.191406 64.167969 277.125 65.660156 277.246094 C 67.207031 277.363281 69.074219 278.144531 70.578125 278.039062 C 72.535156 277.898438 74.289062 280.132812 73.734375 282.003906 L 73.691406 282.125 C 73.664062 282.214844 73.632812 282.304688 73.605469 282.386719 C 73.679688 282.457031 73.753906 282.539062 73.804688 282.65625 C 79.496094 294.285156 87.296875 304.632812 95.921875 314.230469 C 100.242188 319.027344 105.03125 323.4375 110.042969 327.519531 C 112.511719 329.53125 115.117188 331.546875 117.863281 333.171875 C 118.777344 333.703125 119.617188 334.0625 120.644531 334.355469 C 121.121094 334.488281 121.667969 334.554688 122.132812 334.714844 L 122.613281 334.878906 C 122.648438 334.890625 122.679688 334.898438 122.710938 334.90625 C 124.085938 335.066406 125.246094 335.980469 125.703125 337.410156 C 126.894531 341.136719 124.730469 344.429688 121.03125 345.457031 C 117.023438 346.578125 113.25 344.609375 110.074219 342.351562 L 109.863281 342.199219 C 103.386719 337.535156 97.417969 332.300781 92.253906 326.195312 C 82.035156 314.132812 75.632812 300.167969 72.667969 284.722656 C 71.933594 286.304688 70.945312 287.679688 69.230469 288.640625 C 66.566406 290.136719 63.382812 290.136719 60.464844 289.636719 C 54.585938 288.640625 49.578125 285.054688 46.230469 280.203125 C 42.757812 275.171875 41.460938 269.0625 40.675781 263.109375 C 39.898438 257.148438 39.515625 251.167969 40.292969 245.195312 C 41.410156 236.613281 45.011719 228.132812 52.011719 223.429688 C 46.769531 212.011719 45.851562 199.210938 46.222656 186.707031 C 46.679688 171.3125 49.339844 155.75 51.382812 140.5 L 57.191406 97.140625 L 57.429688 95.394531 C 58.832031 85.195312 60.539062 74.941406 64.355469 65.332031 C 68.121094 55.859375 73.84375 47.296875 82.46875 41.613281 Z M 58.015625 246.722656 C 67.613281 242.0625 77.984375 246.355469 83.148438 255.390625 C 87.640625 263.246094 74.285156 268.441406 72.058594 260.34375 L 71.992188 260.09375 C 70.527344 253.960938 64.550781 248.660156 58.316406 247.835938 C 57.796875 247.761719 57.417969 247.011719 58.015625 246.722656 Z M 58.015625 246.722656 " fill-opacity="1" fill-rule="evenodd"/></svg>