<svg xmlns="http://www.w3.org/2000/svg" xmlns:xlink="http://www.w3.org/1999/xlink" width="473" zoomAndPan="magnify" viewBox="0 0 354.75 425.249996" height="567" preserveAspectRatio="xMidYMid meet" version="1.0"><defs><clipPath id="f1233b4a31"><path d="M 73 192 L 85 192 L 85 203 L 73 203 Z M 73 192 " clip-rule="nonzero"/></clipPath><clipPath id="22cc64c966"><path d="M 80.695312 204.382812 L 72.273438 195.578125 L 77.453125 190.625 L 85.875 199.433594 Z M 80.695312 204.382812 " clip-rule="nonzero"/></clipPath><clipPath id="0aea0ecdc1"><path d="M 83.523438 201.667969 C 82.742188 202.316406 82.472656 202.261719 82.308594 202.3125 C 82.308594 202.3125 82.253906 202.367188 82.203125 202.3125 C 82.203125 202.3125 82.203125 202.3125 82.09375 202.3125 C 82.09375 202.3125 81.929688 202.367188 81.820312 202.367188 C 81.820312 202.367188 81.769531 202.3125 81.71875 202.257812 C 81.609375 202.257812 81.503906 202.257812 81.394531 202.257812 C 81.234375 202.203125 81.082031 202.042969 80.972656 202.042969 C 80.8125 201.988281 80.703125 201.988281 80.652344 201.933594 C 80.597656 201.988281 80.546875 201.933594 80.546875 201.933594 C 80.492188 201.878906 80.4375 201.933594 80.386719 201.878906 C 80.277344 201.878906 79.964844 201.664062 79.757812 201.449219 C 79.546875 201.339844 79.289062 201.070312 79.1875 200.851562 C 79.136719 200.800781 79.140625 200.691406 79.039062 200.582031 C 78.988281 200.53125 78.878906 200.53125 78.777344 200.421875 C 78.671875 200.3125 78.464844 200.097656 78.363281 199.988281 C 78.261719 199.882812 78.101562 199.828125 77.996094 199.71875 C 77.785156 199.609375 77.527344 199.339844 77.425781 199.234375 C 77.320312 199.125 77.21875 199.015625 77.167969 198.964844 C 77.167969 198.964844 77.058594 198.960938 77.058594 198.960938 C 77.007812 198.910156 76.957031 198.855469 76.902344 198.800781 C 76.742188 198.746094 76.644531 198.53125 76.59375 198.476562 C 76.539062 198.53125 76.484375 198.476562 76.484375 198.476562 C 76.484375 198.476562 76.378906 198.476562 76.378906 198.476562 C 76.378906 198.476562 76.328125 198.421875 76.328125 198.421875 C 76.273438 198.367188 76.167969 198.367188 76.167969 198.367188 C 76.167969 198.367188 76.113281 198.3125 76.113281 198.3125 C 76.0625 198.261719 76.0625 198.261719 76.011719 198.207031 C 75.960938 198.152344 75.589844 197.988281 75.429688 197.9375 C 75.320312 197.933594 75.21875 197.828125 75.164062 197.882812 C 75.109375 197.828125 75.109375 197.828125 75.109375 197.828125 C 75.109375 197.828125 75.054688 197.882812 74.945312 197.882812 C 74.945312 197.882812 74.839844 197.878906 74.839844 197.878906 C 74.839844 197.878906 74.839844 197.878906 74.789062 197.828125 C 74.730469 197.878906 74.679688 197.828125 74.679688 197.828125 C 74.679688 197.828125 74.570312 197.828125 74.570312 197.828125 C 74.519531 197.773438 74.46875 197.71875 74.46875 197.71875 C 74.46875 197.71875 74.417969 197.664062 74.417969 197.664062 C 74.363281 197.609375 74.257812 197.609375 74.257812 197.609375 C 74.257812 197.609375 74 197.339844 73.949219 197.285156 C 73.949219 197.285156 74.003906 197.230469 74.003906 197.230469 C 73.953125 197.179688 73.792969 197.125 73.796875 197.015625 C 73.746094 196.960938 73.648438 196.746094 73.652344 196.640625 C 73.601562 196.585938 73.601562 196.585938 73.546875 196.53125 C 73.546875 196.53125 73.605469 196.476562 73.554688 196.421875 C 73.554688 196.421875 73.5 196.367188 73.507812 196.261719 C 73.453125 196.207031 73.511719 196.152344 73.515625 196.046875 C 73.46875 195.882812 73.371094 195.667969 73.378906 195.453125 C 73.445312 195.183594 73.738281 194.589844 73.742188 194.484375 C 73.742188 194.484375 73.742188 194.484375 73.75 194.375 C 73.808594 194.214844 74.265625 193.675781 74.429688 193.621094 C 74.484375 193.566406 74.535156 193.621094 74.59375 193.566406 C 74.59375 193.566406 74.597656 193.460938 74.597656 193.460938 C 74.652344 193.40625 74.707031 193.460938 74.761719 193.40625 C 74.816406 193.351562 74.875 193.300781 74.929688 193.246094 C 74.988281 193.191406 75.09375 193.191406 75.144531 193.246094 C 75.144531 193.246094 75.144531 193.246094 75.203125 193.191406 C 75.203125 193.191406 75.308594 193.191406 75.367188 193.136719 C 75.472656 193.140625 75.53125 193.085938 75.585938 193.03125 C 75.585938 193.03125 75.695312 193.03125 75.695312 193.03125 C 75.859375 192.976562 76.402344 192.871094 76.671875 192.925781 C 76.777344 192.925781 76.933594 193.085938 77.039062 193.085938 C 77.097656 193.035156 77.097656 193.035156 77.207031 193.035156 C 77.3125 193.035156 77.847656 193.144531 78.171875 193.144531 C 78.4375 193.199219 78.648438 193.304688 78.914062 193.46875 C 79.230469 193.578125 79.496094 193.738281 79.757812 193.902344 C 80.019531 194.0625 80.230469 194.171875 80.492188 194.332031 C 80.707031 194.441406 80.96875 194.605469 81.175781 194.820312 C 81.4375 194.984375 81.699219 195.144531 81.90625 195.359375 C 82.117188 195.46875 82.214844 195.683594 82.421875 195.902344 C 82.578125 196.0625 82.734375 196.222656 82.9375 196.441406 C 83.09375 196.601562 83.355469 196.765625 83.457031 196.980469 C 83.609375 197.140625 83.761719 197.414062 83.8125 197.464844 C 83.8125 197.464844 83.8125 197.464844 83.863281 197.519531 C 83.914062 197.574219 84.167969 197.953125 84.210938 198.222656 C 84.363281 198.492188 84.457031 198.816406 84.441406 199.136719 C 84.484375 199.40625 84.464844 199.839844 84.398438 200.109375 C 84.335938 200.378906 84.109375 200.59375 84.050781 200.753906 C 84.050781 200.753906 84.042969 200.863281 84.042969 200.863281 C 84.042969 200.863281 84.042969 200.863281 83.988281 200.917969 C 83.933594 200.96875 83.921875 201.183594 83.863281 201.347656 C 83.804688 201.402344 83.699219 201.402344 83.636719 201.5625 C 83.582031 201.617188 83.523438 201.667969 83.523438 201.667969 " clip-rule="nonzero"/></clipPath><clipPath id="d14b41c2ba"><path d="M 157 77 L 173 77 L 173 91 L 157 91 Z M 157 77 " clip-rule="nonzero"/></clipPath><clipPath id="aca32d034c"><path d="M 162.03125 74.824219 L 173.46875 87.441406 L 167.425781 92.921875 L 155.988281 80.304688 Z M 162.03125 74.824219 " clip-rule="nonzero"/></clipPath><clipPath id="af2903f076"><path d="M 158.765625 77.867188 C 159.6875 77.171875 160.027344 77.28125 160.230469 77.242188 C 160.230469 77.242188 160.296875 77.179688 160.367188 77.257812 C 160.367188 77.257812 160.367188 77.257812 160.5 77.277344 C 160.5 77.277344 160.703125 77.234375 160.839844 77.25 C 160.839844 77.25 160.90625 77.328125 160.976562 77.40625 C 161.113281 77.421875 161.25 77.441406 161.382812 77.460938 C 161.589844 77.554688 161.800781 77.785156 161.9375 77.804688 C 162.140625 77.898438 162.277344 77.914062 162.347656 77.992188 C 162.414062 77.933594 162.484375 78.011719 162.484375 78.011719 C 162.554688 78.085938 162.617188 78.027344 162.6875 78.105469 C 162.824219 78.121094 163.238281 78.449219 163.519531 78.757812 C 163.796875 78.929688 164.144531 79.316406 164.289062 79.605469 C 164.359375 79.683594 164.363281 79.820312 164.503906 79.976562 C 164.574219 80.050781 164.710938 80.070312 164.847656 80.222656 C 164.988281 80.378906 165.269531 80.6875 165.410156 80.839844 C 165.546875 80.996094 165.753906 81.089844 165.894531 81.246094 C 166.167969 81.417969 166.519531 81.804688 166.660156 81.957031 C 166.800781 82.113281 166.941406 82.265625 167.007812 82.34375 C 167.007812 82.34375 167.144531 82.359375 167.144531 82.359375 C 167.214844 82.4375 167.285156 82.515625 167.355469 82.59375 C 167.5625 82.6875 167.703125 82.976562 167.773438 83.054688 C 167.839844 82.996094 167.910156 83.074219 167.910156 83.074219 C 167.910156 83.074219 168.046875 83.089844 168.046875 83.089844 C 168.046875 83.089844 168.117188 83.167969 168.117188 83.167969 C 168.1875 83.246094 168.320312 83.261719 168.320312 83.261719 C 168.320312 83.261719 168.390625 83.339844 168.390625 83.339844 C 168.460938 83.417969 168.460938 83.417969 168.53125 83.492188 C 168.601562 83.570312 169.082031 83.839844 169.289062 83.933594 C 169.425781 83.949219 169.5625 84.105469 169.628906 84.046875 C 169.699219 84.121094 169.699219 84.121094 169.699219 84.121094 C 169.699219 84.121094 169.765625 84.0625 169.902344 84.082031 C 169.902344 84.082031 170.035156 84.097656 170.035156 84.097656 C 170.035156 84.097656 170.035156 84.097656 170.105469 84.175781 C 170.171875 84.117188 170.242188 84.191406 170.242188 84.191406 C 170.242188 84.191406 170.378906 84.210938 170.378906 84.210938 C 170.449219 84.289062 170.519531 84.363281 170.519531 84.363281 C 170.519531 84.363281 170.585938 84.441406 170.585938 84.441406 C 170.65625 84.519531 170.792969 84.535156 170.792969 84.535156 C 170.792969 84.535156 171.144531 84.921875 171.214844 85 C 171.214844 85 171.148438 85.058594 171.148438 85.058594 C 171.21875 85.136719 171.421875 85.230469 171.425781 85.367188 C 171.496094 85.445312 171.640625 85.738281 171.644531 85.875 C 171.714844 85.949219 171.714844 85.949219 171.785156 86.027344 C 171.785156 86.027344 171.71875 86.085938 171.789062 86.164062 C 171.789062 86.164062 171.859375 86.242188 171.863281 86.378906 C 171.933594 86.457031 171.867188 86.515625 171.875 86.652344 C 171.949219 86.867188 172.09375 87.15625 172.101562 87.429688 C 172.042969 87.761719 171.726562 88.46875 171.734375 88.605469 C 171.734375 88.605469 171.734375 88.605469 171.738281 88.742188 C 171.675781 88.941406 171.15625 89.554688 170.953125 89.59375 C 170.886719 89.65625 170.816406 89.578125 170.753906 89.636719 C 170.753906 89.636719 170.757812 89.773438 170.757812 89.773438 C 170.691406 89.832031 170.621094 89.753906 170.554688 89.816406 C 170.488281 89.875 170.425781 89.933594 170.359375 89.992188 C 170.292969 90.054688 170.15625 90.035156 170.085938 89.957031 C 170.085938 89.957031 170.085938 89.957031 170.019531 90.019531 C 170.019531 90.019531 169.886719 90 169.820312 90.058594 C 169.683594 90.042969 169.617188 90.101562 169.554688 90.160156 C 169.554688 90.160156 169.417969 90.144531 169.417969 90.144531 C 169.214844 90.1875 168.542969 90.234375 168.203125 90.121094 C 168.066406 90.105469 167.855469 89.871094 167.71875 89.855469 C 167.65625 89.914062 167.65625 89.914062 167.519531 89.898438 C 167.382812 89.878906 166.699219 89.65625 166.292969 89.601562 C 165.953125 89.488281 165.675781 89.316406 165.332031 89.066406 C 164.921875 88.878906 164.574219 88.628906 164.230469 88.378906 C 163.882812 88.128906 163.609375 87.957031 163.261719 87.710938 C 162.988281 87.539062 162.640625 87.289062 162.359375 86.980469 C 162.015625 86.730469 161.671875 86.480469 161.390625 86.171875 C 161.113281 86 160.96875 85.710938 160.691406 85.402344 C 160.480469 85.167969 160.269531 84.9375 159.992188 84.628906 C 159.78125 84.398438 159.433594 84.148438 159.289062 83.859375 C 159.082031 83.625 158.867188 83.257812 158.796875 83.179688 C 158.796875 83.179688 158.796875 83.179688 158.726562 83.101562 C 158.65625 83.027344 158.300781 82.503906 158.222656 82.152344 C 158.007812 81.785156 157.859375 81.355469 157.847656 80.945312 C 157.769531 80.597656 157.753906 80.050781 157.808594 79.714844 C 157.867188 79.382812 158.128906 79.144531 158.191406 78.949219 C 158.191406 78.949219 158.1875 78.8125 158.1875 78.8125 C 158.1875 78.8125 158.1875 78.8125 158.25 78.753906 C 158.316406 78.695312 158.308594 78.421875 158.371094 78.222656 C 158.433594 78.164062 158.570312 78.183594 158.632812 77.984375 C 158.699219 77.925781 158.765625 77.867188 158.765625 77.867188 " clip-rule="nonzero"/></clipPath><clipPath id="e90acaa9f8"><path d="M 123 110 L 133 110 L 133 127 L 123 127 Z M 123 110 " clip-rule="nonzero"/></clipPath><clipPath id="e845d9926f"><path d="M 120.597656 124.542969 L 127.5 108.972656 L 134.957031 112.277344 L 128.058594 127.847656 Z M 120.597656 124.542969 " clip-rule="nonzero"/></clipPath><clipPath id="428c43bd63"><path d="M 124.703125 126.296875 C 123.691406 125.734375 123.65625 125.378906 123.535156 125.210938 C 123.535156 125.210938 123.457031 125.175781 123.5 125.082031 C 123.5 125.082031 123.5 125.082031 123.460938 124.949219 C 123.460938 124.949219 123.339844 124.78125 123.300781 124.652344 C 123.300781 124.652344 123.34375 124.554688 123.386719 124.460938 C 123.347656 124.328125 123.308594 124.199219 123.269531 124.066406 C 123.273438 123.839844 123.398438 123.554688 123.359375 123.421875 C 123.363281 123.199219 123.324219 123.066406 123.367188 122.972656 C 123.285156 122.933594 123.328125 122.839844 123.328125 122.839844 C 123.371094 122.746094 123.289062 122.707031 123.332031 122.613281 C 123.292969 122.480469 123.421875 121.96875 123.589844 121.589844 C 123.636719 121.265625 123.847656 120.792969 124.054688 120.542969 C 124.097656 120.445312 124.21875 120.386719 124.304688 120.195312 C 124.347656 120.101562 124.308594 119.96875 124.394531 119.78125 C 124.476562 119.589844 124.644531 119.207031 124.730469 119.015625 C 124.816406 118.828125 124.816406 118.601562 124.902344 118.410156 C 124.949219 118.089844 125.160156 117.613281 125.242188 117.421875 C 125.328125 117.230469 125.414062 117.039062 125.453125 116.945312 C 125.453125 116.945312 125.414062 116.816406 125.414062 116.816406 C 125.457031 116.71875 125.5 116.625 125.542969 116.527344 C 125.546875 116.300781 125.753906 116.050781 125.796875 115.957031 C 125.714844 115.921875 125.757812 115.824219 125.757812 115.824219 C 125.757812 115.824219 125.71875 115.695312 125.71875 115.695312 C 125.71875 115.695312 125.761719 115.601562 125.761719 115.601562 C 125.800781 115.503906 125.761719 115.375 125.761719 115.375 C 125.761719 115.375 125.804688 115.277344 125.804688 115.277344 C 125.847656 115.183594 125.847656 115.183594 125.890625 115.085938 C 125.933594 114.992188 125.980469 114.445312 125.984375 114.21875 C 125.945312 114.085938 126.03125 113.894531 125.949219 113.859375 C 125.992188 113.765625 125.992188 113.765625 125.992188 113.765625 C 125.992188 113.765625 125.910156 113.730469 125.871094 113.597656 C 125.871094 113.597656 125.832031 113.46875 125.832031 113.46875 C 125.832031 113.46875 125.832031 113.46875 125.875 113.371094 C 125.792969 113.335938 125.835938 113.242188 125.835938 113.242188 C 125.835938 113.242188 125.796875 113.109375 125.796875 113.109375 C 125.839844 113.015625 125.882812 112.917969 125.882812 112.917969 C 125.882812 112.917969 125.925781 112.824219 125.925781 112.824219 C 125.964844 112.726562 125.925781 112.597656 125.925781 112.597656 C 125.925781 112.597656 126.136719 112.121094 126.179688 112.027344 C 126.179688 112.027344 126.261719 112.0625 126.261719 112.0625 C 126.304688 111.964844 126.308594 111.738281 126.429688 111.679688 C 126.472656 111.585938 126.679688 111.335938 126.804688 111.277344 C 126.84375 111.179688 126.84375 111.179688 126.886719 111.085938 C 126.886719 111.085938 126.96875 111.121094 127.011719 111.027344 C 127.011719 111.027344 127.054688 110.929688 127.175781 110.871094 C 127.21875 110.777344 127.300781 110.8125 127.421875 110.753906 C 127.589844 110.597656 127.796875 110.347656 128.042969 110.230469 C 128.371094 110.148438 129.144531 110.148438 129.269531 110.089844 C 129.269531 110.089844 129.269531 110.089844 129.390625 110.03125 C 129.59375 110.007812 130.367188 110.234375 130.488281 110.402344 C 130.566406 110.4375 130.527344 110.53125 130.605469 110.570312 C 130.605469 110.570312 130.730469 110.507812 130.730469 110.507812 C 130.8125 110.546875 130.769531 110.640625 130.851562 110.675781 C 130.929688 110.710938 131.011719 110.75 131.09375 110.785156 C 131.171875 110.820312 131.210938 110.953125 131.171875 111.046875 C 131.171875 111.046875 131.171875 111.046875 131.25 111.082031 C 131.25 111.082031 131.289062 111.214844 131.371094 111.25 C 131.410156 111.378906 131.492188 111.417969 131.570312 111.453125 C 131.570312 111.453125 131.609375 111.582031 131.609375 111.582031 C 131.730469 111.75 132.046875 112.347656 132.082031 112.703125 C 132.121094 112.835938 131.996094 113.121094 132.035156 113.253906 C 132.117188 113.289062 132.117188 113.289062 132.15625 113.417969 C 132.191406 113.550781 132.265625 114.265625 132.378906 114.660156 C 132.417969 115.015625 132.371094 115.339844 132.28125 115.753906 C 132.277344 116.207031 132.1875 116.625 132.101562 117.042969 C 132.011719 117.457031 131.96875 117.78125 131.878906 118.195312 C 131.832031 118.519531 131.746094 118.9375 131.578125 119.316406 C 131.488281 119.734375 131.402344 120.152344 131.234375 120.53125 C 131.1875 120.851562 130.980469 121.101562 130.8125 121.484375 C 130.683594 121.769531 130.558594 122.054688 130.390625 122.4375 C 130.261719 122.722656 130.175781 123.140625 129.964844 123.390625 C 129.839844 123.675781 129.589844 124.019531 129.546875 124.113281 C 129.546875 124.113281 129.546875 124.113281 129.503906 124.210938 C 129.464844 124.304688 129.128906 124.839844 128.839844 125.054688 C 128.589844 125.398438 128.261719 125.707031 127.890625 125.886719 C 127.601562 126.101562 127.109375 126.339844 126.78125 126.421875 C 126.453125 126.503906 126.128906 126.359375 125.925781 126.382812 C 125.925781 126.382812 125.800781 126.441406 125.800781 126.441406 C 125.800781 126.441406 125.800781 126.441406 125.722656 126.40625 C 125.640625 126.371094 125.394531 126.488281 125.191406 126.511719 C 125.109375 126.476562 125.070312 126.347656 124.867188 126.371094 C 124.785156 126.332031 124.703125 126.296875 124.703125 126.296875 " clip-rule="nonzero"/></clipPath></defs><path fill="#a95e10" d="M 308.988281 187.34375 C 308.128906 170.960938 307.378906 154.03125 304.238281 137.898438 C 302.699219 129.992188 299.617188 122.691406 294.636719 116.339844 C 290.078125 110.53125 284.339844 106.027344 278.523438 101.550781 C 266.828125 92.558594 255.582031 82.601562 242.492188 75.644531 C 229.933594 68.96875 216.355469 64.9375 202.28125 63.128906 C 175.183594 59.644531 146.71875 65.445312 123.183594 79.363281 C 100.355469 92.863281 82.003906 113.8125 70.648438 137.699219 C 65.007812 149.566406 60.769531 162.09375 58.484375 175.050781 C 55.761719 190.492188 56.007812 205.976562 56.105469 221.59375 C 56.140625 226.839844 56.09375 232.085938 55.832031 237.320312 C 55.40625 239.863281 55.171875 242.433594 55.175781 245.195312 C 50.007812 251.992188 47.90625 261.078125 51.144531 269.449219 C 56.308594 282.804688 70.964844 288.875 84.269531 286.546875 C 84.863281 290.019531 86.300781 293.4375 88.085938 296.769531 C 91.140625 302.457031 94.558594 308.03125 98.183594 313.375 C 105.683594 324.429688 114.242188 334.453125 124.453125 343.101562 C 144.695312 360.242188 170.335938 371.472656 196.929688 373.097656 C 221.136719 374.574219 246.671875 367.691406 266.414062 353.488281 C 276.664062 346.117188 285.53125 337.085938 292.121094 326.269531 C 299.816406 313.632812 303.992188 299.085938 306.160156 284.542969 C 310.917969 252.621094 310.664062 219.503906 308.988281 187.34375 Z M 308.988281 187.34375 " fill-opacity="1" fill-rule="evenodd"/><path fill="#000000" d="M 118.078125 18.035156 C 117.164062 7.726562 126.667969 -0.03125 135.484375 2.855469 C 137.105469 3.058594 138.675781 3.566406 140.082031 4.425781 C 144.140625 6.90625 145.027344 10.902344 143.96875 14.359375 C 145.875 15.796875 147.375 17.746094 148.128906 20.097656 C 148.90625 22.519531 148.828125 24.871094 148.09375 26.917969 C 150.863281 28.746094 152.953125 31.503906 153.4375 34.917969 C 153.667969 36.542969 153.574219 38.152344 153.191406 39.628906 C 157.378906 41.050781 160.796875 44.234375 160.746094 49.054688 C 163.179688 49.210938 165.613281 49.246094 168.09375 49.109375 C 168.445312 48.109375 168.878906 47.136719 169.523438 46.242188 C 170.820312 44.433594 172.664062 43.195312 174.707031 42.421875 L 174.988281 42.320312 L 174.984375 41.769531 C 173.417969 40.039062 172.6875 37.851562 174.351562 35.472656 C 174.636719 35.0625 174.988281 34.726562 175.375 34.4375 C 175.511719 33.402344 175.734375 32.382812 176.011719 31.375 C 174.628906 29.453125 174.78125 26.257812 177.09375 25.304688 C 176.773438 23.425781 176.753906 21.480469 177.101562 19.519531 C 178.53125 11.488281 186.285156 6.015625 194.273438 6.324219 C 195.273438 6.359375 196.246094 6.511719 197.1875 6.75 C 199.132812 6.953125 201.066406 7.390625 202.972656 8.035156 C 205.167969 8.785156 205.734375 10.617188 205.25 12.167969 C 208.230469 16.15625 209.078125 21.574219 206.074219 26.445312 C 205.960938 26.628906 205.835938 26.804688 205.710938 26.984375 C 206.3125 27.4375 206.835938 28.035156 207.226562 28.800781 C 208.203125 30.730469 207.964844 33.183594 206.472656 34.796875 C 206.074219 35.226562 205.5625 35.546875 205 35.753906 L 204.988281 35.914062 C 204.792969 38.5 204.382812 41.09375 203.605469 43.535156 C 206.769531 46.472656 208.871094 50.472656 209.242188 54.777344 C 210.421875 54.886719 211.597656 55.015625 212.773438 55.148438 C 212.949219 53.96875 213.664062 52.90625 214.75 52.082031 C 215.660156 51.394531 216.632812 50.84375 217.628906 50.429688 C 218.109375 47.953125 219.285156 45.582031 221.273438 43.699219 C 222.007812 43 222.8125 42.386719 223.671875 41.855469 C 223.621094 39.171875 224.222656 36.492188 225.707031 33.953125 C 226.945312 31.839844 228.746094 30.308594 230.796875 29.332031 C 232.296875 26.324219 235.066406 23.867188 239.101562 22.472656 C 242.117188 21.429688 245.308594 22.667969 247.601562 24.617188 L 248.113281 25.066406 C 250.214844 26.921875 250.976562 30.332031 250.199219 32.960938 C 249.835938 34.199219 249.226562 35.644531 248.34375 36.816406 C 249.277344 40.929688 247.417969 44.363281 244.574219 46.292969 C 245.546875 47.679688 246.363281 49.210938 247.054688 50.851562 C 248.246094 53.683594 246.90625 57.214844 244.753906 59.445312 C 245.695312 60.949219 246.308594 62.699219 246.53125 64.460938 C 247.492188 64.515625 248.445312 64.6875 249.386719 64.953125 C 249.894531 63.222656 250.855469 61.613281 252.324219 60.300781 C 252.964844 59.042969 253.730469 57.875 254.582031 56.855469 C 255.929688 55.242188 257.675781 54.078125 259.578125 53.605469 C 259.832031 53.007812 260.191406 52.433594 260.640625 51.910156 C 260.1875 46.664062 263.664062 41.246094 269.019531 41.242188 C 269.398438 40.019531 269.859375 38.808594 270.414062 37.625 C 271.496094 35.296875 273.796875 33.902344 276.289062 33.441406 C 277.753906 29.875 280.632812 27.28125 285.570312 26.847656 C 296.601562 25.882812 303.539062 39.257812 300.84375 48.859375 C 300.042969 51.710938 298.167969 54.335938 295.679688 55.949219 C 295.027344 56.371094 294.371094 56.675781 293.707031 56.929688 C 293.042969 57.855469 292.148438 58.679688 291 59.351562 C 290.746094 59.5 290.484375 59.636719 290.214844 59.753906 C 290.238281 64.039062 287.28125 67.527344 283.609375 68.632812 C 283.847656 71.335938 283.15625 74.046875 281.101562 76.136719 L 280.957031 76.277344 L 280.660156 76.546875 L 280.632812 76.664062 C 281.363281 78.546875 281.289062 80.617188 280.238281 82.320312 C 280.332031 83.886719 280.609375 85.417969 281.136719 86.875 C 283.164062 88.515625 284.953125 90.398438 286.550781 92.445312 C 287.621094 91.476562 289.234375 91.039062 290.628906 91.570312 C 291.015625 91.4375 291.414062 91.351562 291.796875 91.3125 C 292.433594 91.25 293.054688 91.25 293.667969 91.296875 C 293.953125 90.886719 294.277344 90.496094 294.644531 90.128906 C 297.25 87.554688 301.03125 87.605469 304.03125 89.207031 C 304.566406 88.816406 305.175781 88.46875 305.859375 88.179688 C 313.507812 84.953125 318.523438 94.660156 319.269531 100.710938 C 319.675781 104.011719 316.835938 106.046875 313.917969 106.21875 C 313.328125 108.21875 311.425781 109.660156 309.300781 110.148438 C 309.679688 112.621094 308.039062 115.144531 305.804688 116.085938 C 304.808594 116.503906 303.847656 116.621094 302.9375 116.5 L 302.980469 117.082031 C 303.15625 119.40625 301.984375 120.882812 300.375 121.539062 C 300.09375 122.6875 299.308594 123.523438 298.324219 123.949219 C 302.082031 132.652344 305.046875 141.769531 307.441406 150.761719 C 311.386719 165.605469 314.042969 180.722656 315.824219 195.972656 C 318.953125 222.785156 319.078125 250.148438 315.941406 276.972656 C 314.347656 290.625 311.695312 303.964844 306.273438 316.640625 C 301.746094 327.21875 295.457031 336.394531 288.214844 345.273438 C 273.824219 362.910156 253.230469 375.902344 230.53125 379.128906 C 218.617188 380.824219 206.398438 380.269531 194.769531 377.023438 C 183.195312 373.792969 170.851562 368.25 163.558594 358.40625 C 161.582031 355.742188 162.542969 351.421875 164.742188 349.222656 C 167.253906 346.710938 170.867188 346.550781 173.929688 348.035156 C 179.363281 350.671875 184.25 354.277344 189.777344 356.792969 C 194.765625 359.0625 200.15625 360.515625 205.527344 361.542969 C 216.164062 363.578125 227.730469 363.058594 238.335938 360.21875 C 257.566406 355.074219 274.507812 342.65625 285.265625 325.910156 C 297.972656 306.125 302.507812 282.9375 304.582031 259.835938 C 306.855469 234.546875 306.617188 208.910156 303.605469 183.691406 C 302.109375 171.1875 299.808594 158.792969 297.085938 146.503906 C 295.148438 137.75 292.960938 129.058594 290.902344 120.335938 C 289.039062 118.554688 287.234375 116.714844 285.496094 114.808594 L 285.441406 114.808594 C 285.222656 114.863281 284.992188 114.902344 284.746094 114.921875 C 274.417969 115.707031 263.226562 114.671875 254.414062 108.71875 C 250.832031 106.300781 247.804688 103.238281 245.550781 99.714844 C 242.382812 97.519531 239.5 94.75 237.332031 91.550781 C 235.796875 89.867188 234.339844 88.105469 232.957031 86.277344 C 229.507812 81.726562 227.679688 76.953125 225.621094 71.699219 C 225.574219 71.582031 225.542969 71.460938 225.519531 71.347656 C 225.125 70.703125 224.847656 70 224.710938 69.285156 C 220.128906 68.742188 215.523438 68.382812 210.964844 68.164062 C 209.351562 68.089844 207.734375 68.027344 206.113281 67.976562 C 206.539062 69.558594 206.792969 71.199219 206.851562 72.882812 C 208.15625 72.941406 209.488281 73.09375 210.855469 73.3125 C 217.253906 74.332031 221.355469 77.605469 225.242188 82.742188 C 229.023438 87.738281 232.039062 93.746094 234.277344 99.59375 C 235.652344 103.171875 233.820312 107.125 230.808594 109.429688 C 222.992188 110.09375 215.308594 111.773438 208.113281 115.101562 C 207.863281 115.222656 207.679688 115.425781 207.554688 115.667969 C 201.8125 117.378906 196.023438 118.945312 190.238281 120.273438 C 184.65625 121.558594 179.015625 122.09375 173.398438 120.675781 C 170.988281 120.066406 168.625 119.167969 166.304688 118.15625 C 165.058594 118.308594 163.707031 118.070312 162.332031 117.28125 C 160.253906 116.089844 158.160156 114.789062 156.101562 113.386719 C 152.460938 111.640625 148.878906 109.765625 145.457031 107.621094 L 145.4375 107.59375 C 142.710938 104.285156 138.820312 100.914062 134.464844 98.363281 C 133.984375 97.628906 133.558594 96.851562 133.21875 96.027344 C 131.34375 91.46875 132.128906 85.953125 136.082031 82.816406 C 136.136719 81.734375 136.609375 80.675781 137.652344 79.828125 C 138.480469 79.152344 139.332031 78.515625 140.203125 77.90625 C 140.019531 77.769531 139.835938 77.636719 139.65625 77.5 C 139.296875 77.226562 138.949219 76.9375 138.613281 76.632812 C 135.976562 78.082031 133.3125 79.496094 130.589844 80.757812 C 130.519531 80.808594 130.457031 80.859375 130.382812 80.90625 C 125.261719 84.269531 120.417969 88.128906 115.234375 91.367188 C 113.992188 92.140625 112.753906 92.894531 111.527344 93.648438 C 111.066406 94.277344 110.617188 94.914062 110.183594 95.5625 C 109.996094 96.5625 109.714844 97.558594 109.363281 98.527344 C 110.042969 99.070312 110.59375 99.78125 110.96875 100.625 C 112.582031 101.234375 114.097656 102.015625 115.511719 102.941406 L 116.765625 103.496094 C 118.378906 102.207031 120.082031 101.039062 121.910156 100.066406 C 127.652344 100.441406 133.859375 104.507812 138.222656 108.65625 C 138.527344 109 138.828125 109.347656 139.113281 109.703125 C 139.390625 109.925781 139.667969 110.160156 139.945312 110.394531 C 140.398438 110.878906 140.820312 111.363281 141.203125 111.828125 C 141.636719 112.355469 142.128906 112.644531 142.625 112.765625 C 145.296875 115.277344 147.800781 118.101562 149.515625 121.035156 C 152.265625 125.746094 150.339844 131.617188 148.324219 136.238281 C 147.996094 136.992188 147.648438 137.738281 147.285156 138.472656 C 143.433594 143.65625 139.785156 148.988281 136.136719 154.320312 C 133.679688 156.695312 131.238281 159.085938 128.902344 161.574219 C 128.523438 161.828125 128.121094 162.074219 127.679688 162.300781 C 120.882812 165.800781 114.308594 161.863281 107.835938 159.410156 L 107.113281 159.144531 C 100.441406 156.730469 92.136719 155.144531 91.714844 146.457031 C 91.65625 145.273438 91.703125 144.0625 91.820312 142.835938 C 93.464844 138.480469 95.34375 134.210938 97.445312 130.046875 C 97.019531 129.589844 96.640625 129.082031 96.320312 128.519531 C 95.644531 127.660156 95.082031 126.738281 94.648438 125.761719 C 91.550781 131.695312 88.601562 138.0625 84.617188 143.269531 C 82.421875 146.136719 79.6875 147.171875 76.785156 147.164062 C 75.5625 147.78125 74.191406 147.988281 72.871094 147.835938 L 73.011719 149.421875 C 73.132812 150.746094 73.273438 152.070312 73.476562 153.367188 C 76.28125 153.324219 79.214844 154.089844 81.828125 155.125 C 89.5 158.160156 96.890625 162.359375 104.292969 166 C 107.863281 167.757812 112.773438 169.230469 115.695312 171.976562 C 117.929688 174.082031 117.675781 176.691406 116.824219 179.402344 C 116.679688 179.867188 116.519531 180.324219 116.367188 180.785156 L 116.359375 180.9375 C 113.972656 183.941406 112.339844 187.527344 111.152344 191.230469 C 109.214844 194.527344 107.863281 198.222656 106.941406 201.847656 C 106.195312 204.789062 105.667969 207.792969 105.320312 210.824219 L 105.230469 211.652344 L 105.183594 211.75 L 105.15625 212.464844 C 104.664062 217.804688 104.722656 223.210938 105.167969 228.503906 C 105.292969 229.980469 105.445312 231.457031 105.640625 232.925781 C 104.804688 235.535156 100.847656 235.898438 98.792969 234.300781 C 96.535156 232.539062 94.160156 230.9375 91.699219 229.492188 C 88.339844 231.019531 84.453125 231.28125 80.703125 230.027344 C 80.433594 229.941406 80.179688 229.832031 79.921875 229.730469 C 77.109375 230.078125 74.324219 230.734375 71.660156 231.511719 L 70.859375 231.746094 C 66.605469 233.027344 62.554688 234.628906 59.351562 237.878906 C 53.664062 243.648438 51.832031 252.980469 52.992188 260.792969 C 54.121094 268.390625 58.53125 277.078125 66.476562 279.289062 C 69.730469 280.191406 73.234375 280.164062 76.394531 278.902344 C 77.597656 278.421875 78.625 277.726562 79.640625 276.964844 C 80.882812 276.027344 81.867188 274.972656 83.34375 274.378906 C 84.691406 273.835938 87.019531 273.878906 87.679688 273.847656 C 89.734375 273.746094 91.472656 275.355469 92.078125 277.195312 C 93.921875 282.8125 91.152344 286.9375 86.703125 289.699219 C 88.574219 292.53125 90.328125 295.492188 92.183594 298.171875 C 95.644531 303.175781 99.304688 308.011719 103.09375 312.769531 C 106.984375 317.65625 111.132812 322.308594 115.652344 326.621094 C 117.695312 328.570312 119.800781 330.449219 121.964844 332.257812 L 123.160156 333.246094 C 125.179688 334.933594 126.949219 336.652344 126.878906 339.597656 C 126.839844 341.246094 125.742188 342.777344 124.121094 343.21875 C 118.382812 344.773438 112.367188 337.25 108.628906 333.386719 L 108.335938 333.085938 C 103.8125 328.511719 99.601562 323.59375 95.796875 318.402344 C 91.875 313.050781 88.660156 307.140625 86.070312 301.042969 C 84.871094 298.210938 83.5625 294.972656 82.640625 291.695312 C 77.652344 293.628906 71.859375 294.320312 67.894531 293.867188 C 64.238281 293.449219 60.898438 292.398438 57.882812 290.863281 C 57.265625 292.246094 56.433594 293.53125 55.425781 294.601562 C 51.691406 298.566406 46.25 299.699219 40.980469 299.648438 C 34.234375 299.589844 28.179688 295.332031 27.9375 288.15625 C 27.777344 283.503906 30.1875 279.507812 33.707031 276.785156 C 35.011719 273.566406 37.488281 270.910156 41.078125 270.050781 C 38.703125 262.707031 38.285156 254.613281 40.070312 247.199219 C 41.835938 239.859375 45.871094 232.90625 51.832031 228.328125 L 52.171875 228.070312 L 52.03125 228.144531 C 50.621094 228.921875 49.246094 229.761719 47.851562 230.5625 L 47.226562 230.921875 C 41.035156 234.417969 33.863281 237.417969 26.652344 235.550781 C 15.210938 232.582031 14.222656 218.3125 24.066406 212.679688 C 27.46875 210.730469 31.398438 209.996094 35.28125 209.511719 C 35.894531 208.710938 36.625 207.996094 37.429688 207.417969 C 37.546875 204.796875 38.867188 202.175781 41.199219 200.527344 C 43.578125 198.847656 46.253906 198.679688 48.742188 199.453125 C 49.667969 198.757812 50.675781 198.148438 51.78125 197.671875 C 52.738281 197.257812 53.714844 196.953125 54.6875 196.746094 C 54.671875 195.964844 54.664062 195.179688 54.652344 194.398438 C 54.496094 193.667969 54.398438 192.902344 54.300781 192.105469 C 54.125 192.074219 53.949219 192.046875 53.773438 192.011719 C 51.238281 191.457031 48.949219 190.320312 46.957031 188.785156 C 43.765625 190.800781 39.898438 191.5625 35.292969 190.199219 C 31.023438 188.933594 26.996094 184.957031 25.003906 180.390625 C 22.273438 179.84375 19.625 179.046875 17.304688 177.53125 C 13.007812 178.554688 8.378906 176.902344 6.636719 172.457031 C 5.347656 169.15625 6.898438 165.171875 9.667969 163.128906 C 10.472656 162.53125 11.347656 162.644531 12.039062 163.105469 C 12.203125 162.570312 12.394531 162.039062 12.632812 161.519531 C 12.726562 161.3125 12.832031 161.109375 12.9375 160.90625 C 12.832031 156.539062 14.417969 152.316406 18.382812 149.972656 C 21.324219 148.234375 24.835938 148.042969 28 149.046875 C 29.734375 147.429688 31.9375 146.191406 34.671875 145.511719 C 39.476562 144.316406 44.539062 145.679688 47.960938 149.285156 C 48.699219 149.066406 49.464844 148.914062 50.25 148.816406 C 50.535156 146.804688 51.21875 144.871094 52.648438 143.359375 C 53.671875 142.277344 54.898438 141.414062 56.226562 140.808594 C 56.832031 138.53125 57.828125 136.492188 59.492188 134.785156 C 58.675781 134.097656 57.9375 133.324219 57.308594 132.464844 C 56.609375 132.351562 55.914062 132.199219 55.238281 131.980469 C 51.621094 130.820312 49.128906 128.542969 47.4375 125.703125 C 44.304688 126.503906 40.988281 126.210938 37.730469 124.164062 C 35.375 122.6875 33.597656 120.324219 32.660156 117.679688 L 29.984375 116.742188 C 27.460938 115.851562 25.652344 114.183594 24.617188 112.199219 C 23.304688 112.671875 21.855469 112.65625 20.675781 111.746094 C 13.765625 106.410156 18.484375 97.574219 25.882812 95.820312 C 28.890625 95.105469 31.519531 95.511719 33.855469 96.601562 C 35.515625 95 37.601562 93.796875 39.988281 93.253906 C 42.769531 92.621094 45.703125 93.085938 48.269531 94.3125 L 48.933594 94.304688 C 51.519531 92.382812 54.839844 91.523438 58.894531 92.453125 C 63.484375 93.503906 66.617188 96.074219 68.738281 99.421875 C 69.421875 98.804688 70.1875 98.261719 71.023438 97.804688 C 73.398438 96.511719 75.9375 96.195312 78.367188 96.597656 C 79.183594 95.433594 80.023438 94.285156 80.886719 93.15625 C 78.832031 91.550781 77.429688 89.066406 77.355469 86.308594 C 76.738281 85.921875 76.136719 85.480469 75.5625 85.078125 C 72.753906 83.097656 70.371094 80.617188 69.285156 77.28125 C 68.746094 75.617188 68.550781 73.882812 68.613281 72.144531 C 68.308594 72.078125 68.007812 72.007812 67.710938 71.925781 C 55.769531 68.488281 50.816406 52.03125 60.257812 43.199219 C 65.210938 38.558594 72.746094 41.1875 77.648438 44.613281 C 80.992188 46.945312 83.648438 49.851562 86.054688 53.058594 C 86.167969 53.082031 86.277344 53.089844 86.390625 53.117188 C 89.847656 53.933594 92.59375 56.152344 94.625 58.988281 C 98.210938 58.363281 102.027344 59.054688 105.429688 61.546875 C 107.910156 63.359375 109.46875 65.605469 110.277344 68.046875 C 113.5 66.367188 116.816406 64.890625 120.207031 63.589844 C 120.425781 63.054688 120.660156 62.519531 120.929688 61.992188 C 121.449219 60.960938 122.132812 60.0625 122.925781 59.304688 C 122.0625 58.339844 121.296875 57.265625 120.683594 56.066406 C 117.765625 50.378906 118.820312 44.625 122.042969 40.273438 C 120.636719 37.097656 120.199219 33.496094 121.035156 30.074219 C 121.191406 29.4375 121.386719 28.828125 121.613281 28.238281 C 119.65625 25.191406 118.402344 21.679688 118.078125 18.035156 Z M 65.71875 248.023438 C 67.789062 247.519531 68.277344 246.859375 70.605469 247.050781 C 72.40625 247.195312 74.25 247.503906 75.996094 247.957031 C 80.167969 249.035156 84.058594 251.21875 87.484375 253.789062 C 92.34375 257.429688 86.523438 264.203125 82.65625 260.316406 L 82.539062 260.195312 C 79.9375 257.40625 77.019531 255.230469 73.75 253.289062 C 72.09375 252.304688 70.382812 251.59375 68.652344 250.765625 C 67.453125 250.195312 66.761719 249.261719 65.636719 248.664062 C 65.371094 248.523438 65.433594 248.09375 65.71875 248.023438 Z M 76.863281 193.148438 C 75.71875 192.742188 74.40625 193.605469 74.097656 194.714844 C 73.769531 195.910156 74.46875 196.992188 75.546875 197.433594 L 75.667969 197.476562 C 77.132812 197.996094 78.472656 198.855469 79.609375 199.90625 L 79.851562 200.136719 C 81.925781 202.152344 85.105469 198.976562 83.027344 196.957031 C 81.265625 195.246094 79.175781 193.964844 76.863281 193.148438 Z M 130.601562 111.382812 C 129.417969 108.796875 125.644531 110.964844 126.667969 113.527344 L 126.722656 113.648438 C 127.785156 115.976562 127.347656 118.679688 126.1875 120.875 L 126.074219 121.085938 C 124.660156 123.609375 128.539062 125.878906 129.953125 123.351562 C 132.046875 119.601562 132.394531 115.308594 130.601562 111.382812 Z M 163.222656 79.1875 L 163.167969 78.929688 C 162.636719 76.089844 158.308594 77.292969 158.835938 80.121094 C 159.71875 84.828125 163.136719 87.917969 167.519531 89.453125 C 170.253906 90.410156 171.429688 86.074219 168.714844 85.121094 C 165.808594 84.105469 163.867188 82.179688 163.222656 79.1875 Z M 234.007812 74.640625 L 233.246094 74.609375 L 233.828125 75.375 C 233.882812 75.128906 233.941406 74.886719 234.007812 74.640625 Z M 234.007812 74.640625 " fill-opacity="1" fill-rule="evenodd"/><g clip-path="url(#f1233b4a31)"><g clip-path="url(#22cc64c966)"><g clip-path="url(#0aea0ecdc1)"><path fill="#e7191f" d="M 80.527344 208.671875 L 67.984375 195.554688 L 77.660156 186.300781 L 90.203125 199.417969 Z M 80.527344 208.671875 " fill-opacity="1" fill-rule="nonzero"/></g></g></g><g clip-path="url(#d14b41c2ba)"><g clip-path="url(#aca32d034c)"><g clip-path="url(#af2903f076)"><path fill="#e7191f" d="M 161.875 69.421875 L 178.871094 88.167969 L 167.578125 98.410156 L 150.582031 79.660156 Z M 161.875 69.421875 " fill-opacity="1" fill-rule="nonzero"/></g></g></g><g clip-path="url(#e90acaa9f8)"><g clip-path="url(#e845d9926f)"><g clip-path="url(#428c43bd63)"><path fill="#e7191f" d="M 115.722656 126.875 L 125.976562 103.738281 L 139.910156 109.914062 L 129.660156 133.050781 Z M 115.722656 126.875 " fill-opacity="1" fill-rule="nonzero"/></g></g></g></svg>