<svg xmlns="http://www.w3.org/2000/svg" xmlns:xlink="http://www.w3.org/1999/xlink" width="473" zoomAndPan="magnify" viewBox="0 0 354.75 425.249996" height="567" preserveAspectRatio="xMidYMid meet" version="1.0"><defs><clipPath id="6a59c1a529"><path d="M 0.1875 13 L 354.3125 13 L 354.3125 386 L 0.1875 386 Z M 0.1875 13 " clip-rule="nonzero"/></clipPath></defs><path fill="#a95e10" d="M 313.570312 212.019531 C 313.273438 195.25 312.941406 178.140625 310.449219 161.53125 C 308.011719 145.292969 301.304688 130.617188 289.78125 118.828125 C 265.304688 93.78125 229.824219 87.664062 196.800781 82.058594 L 140.335938 72.472656 C 123.109375 69.546875 104.730469 64.875 87.328125 69.023438 C 78.75 71.066406 71.46875 75.8125 64.8125 81.425781 C 58.394531 86.839844 51.496094 92.652344 47.148438 99.933594 C 42.792969 107.226562 41.296875 115.753906 39.878906 124 C 38.28125 133.300781 37.042969 142.671875 36.160156 152.066406 C 34.394531 170.890625 34.152344 189.851562 35.433594 208.714844 C 36.054688 217.863281 37.042969 226.984375 38.304688 236.066406 C 38.929688 240.566406 39.636719 245.058594 40.433594 249.535156 C 40.667969 250.855469 40.847656 252.316406 41.089844 253.792969 C 39.308594 258.859375 38.296875 264.105469 38.378906 269.328125 C 38.617188 284.714844 51.605469 294.402344 64.699219 299.605469 C 72.289062 302.621094 80.226562 304.667969 87.683594 308.039062 C 95.53125 311.582031 100.875 317.328125 106.238281 323.878906 C 116.46875 336.378906 128.015625 347.609375 141.203125 356.984375 C 169.15625 376.855469 204.5625 386.253906 238.480469 379.117188 C 246.621094 377.40625 254.828125 374.75 262.144531 370.746094 C 269.867188 366.515625 275.675781 360.390625 280.554688 353.148438 C 289.609375 339.699219 296.101562 324.558594 301.015625 309.148438 C 306.027344 293.429688 309.582031 277.683594 311.523438 261.296875 C 313.457031 244.960938 313.863281 228.457031 313.570312 212.019531 Z M 313.570312 212.019531 " fill-opacity="1" fill-rule="evenodd"/><g clip-path="url(#6a59c1a529)"><path fill="#000000" d="M 133.386719 14.046875 C 156.753906 10.835938 189.003906 21.28125 200.640625 42.34375 C 256.195312 29.246094 326.265625 28.816406 372.058594 72.417969 C 419.835938 124.136719 359.824219 192.332031 320.027344 207.707031 C 322.925781 221.789062 318.410156 311.992188 286.445312 352.226562 C 261.074219 386.320312 202 402.054688 174.664062 361.332031 L 174.449219 360.996094 C 171.519531 356.296875 174.042969 356.445312 177.050781 359.945312 C 203.816406 383.484375 240.214844 383.886719 268.257812 359.042969 C 320.824219 313.636719 315.402344 202.300781 290.390625 137.890625 C 219.167969 130.066406 142.914062 151.65625 93.722656 205.265625 L 97.046875 225.292969 C 97.613281 228.703125 98.257812 232.113281 98.75 235.535156 C 99.0625 237.730469 99.097656 239.910156 97.578125 241.6875 C 92.5625 247.550781 84.101562 238.742188 77.144531 235.238281 C 75.089844 234.949219 73.03125 234.835938 71.011719 234.980469 C 37.578125 239.285156 44.167969 304.144531 80.914062 292.773438 C 84 290.851562 86.652344 291.4375 87.851562 294.230469 C 96.609375 302.253906 102.386719 316.5625 116.9375 330.34375 C 122.070312 335.511719 126.746094 339.835938 132.519531 343.984375 C 135.910156 347.414062 146.148438 350.914062 142.902344 356.78125 C 136.765625 370.140625 100.582031 328.179688 94.183594 316.578125 C 74.140625 324.492188 51.925781 321.804688 31.15625 319.871094 C -78.429688 314.171875 -63.800781 198.660156 26.023438 125.730469 C 42.933594 113.28125 61.585938 103.125 80.976562 95.3125 C 83.625 94.246094 82.46875 89.898438 79.785156 90.980469 C 66.953125 96.152344 54.445312 102.308594 42.523438 109.429688 L 42.503906 105.171875 C 42.484375 98 42.597656 90.53125 43.84375 83.976562 C 44.46875 79.433594 45.515625 74.585938 47.128906 70.933594 C 49.121094 59.746094 80.351562 21.347656 133.386719 14.046875 Z M 69.550781 249.867188 C 71.242188 248.261719 74.402344 250.179688 75.90625 250.128906 C 79.761719 250.65625 83.417969 252.285156 86.273438 254.292969 C 88.15625 255.347656 89.476562 256.339844 90.582031 257.25 L 90.613281 257.242188 C 90.605469 257.242188 90.59375 257.25 90.585938 257.253906 L 90.6875 257.324219 C 92.296875 258.464844 98.175781 264.894531 94.460938 263.167969 C 94.183594 262.804688 93.898438 262.460938 93.613281 262.121094 C 93.582031 262.167969 93.539062 262.214844 93.488281 262.257812 L 93.699219 262.566406 C 96.855469 267.320312 91.402344 262.3125 90.566406 260.984375 C 90.523438 261.015625 90.480469 261.039062 90.4375 261.058594 L 91.527344 262.390625 C 91.679688 262.578125 91.800781 262.730469 91.902344 262.855469 L 92.132812 263.078125 C 95.785156 266.667969 95.898438 269.898438 91.65625 264.59375 C 91.820312 264.84375 91.957031 265.109375 91.972656 265.34375 L 92.226562 265.664062 C 95.558594 269.957031 92.847656 268.429688 91.191406 266.597656 L 91.054688 266.441406 L 91.082031 266.484375 C 92.621094 268.855469 89.566406 267.191406 89.027344 265.921875 L 89.003906 265.863281 C 88.414062 265.382812 88.054688 264.847656 87.929688 264.710938 L 87.90625 264.6875 C 85.042969 261.753906 80.890625 259.269531 77.363281 258.140625 C 76.851562 258.042969 76.332031 257.964844 75.8125 257.910156 C 73.691406 257.4375 71.546875 257.113281 69.378906 256.9375 C 69.113281 256.90625 68.84375 256.710938 68.644531 256.460938 C 65.367188 256.347656 66.378906 255.007812 67.738281 254.757812 L 67.761719 254.753906 L 67.492188 254.730469 C 65.390625 254.523438 63.953125 253.769531 66.082031 253.308594 L 66.351562 253.253906 C 66.316406 253.203125 66.289062 253.152344 66.257812 253.097656 C 64.4375 252.898438 65.628906 251.128906 66.636719 251.558594 C 66.210938 250.167969 68.15625 250.859375 68.398438 250.65625 C 68.582031 250.449219 68.8125 250.269531 68.945312 250.257812 C 69.53125 249.84375 69.246094 249.882812 69.550781 249.867188 Z M 80.691406 227.359375 L 80.265625 227.609375 C 79.917969 227.808594 79.566406 227.945312 79.207031 228.023438 C 79.710938 228.238281 80.207031 228.46875 80.699219 228.714844 C 80.691406 228.414062 80.6875 228.113281 80.6875 227.8125 Z M 80.691406 227.359375 " fill-opacity="1" fill-rule="evenodd"/></g></svg>