<svg xmlns="http://www.w3.org/2000/svg" xmlns:xlink="http://www.w3.org/1999/xlink" width="473" zoomAndPan="magnify" viewBox="0 0 354.75 425.249996" height="567" preserveAspectRatio="xMidYMid meet" version="1.0"><defs><clipPath id="e3faee4ca5"><path d="M 0.1875 10 L 341 10 L 341 415 L 0.1875 415 Z M 0.1875 10 " clip-rule="nonzero"/></clipPath></defs><path fill="#a95e10" d="M 192.28125 29.183594 C 234.792969 29.183594 288.035156 77.675781 303.617188 98.308594 C 316.71875 115.660156 314.863281 205.039062 314.863281 258.054688 C 314.863281 269.144531 309.851562 290.132812 308.03125 300.738281 C 301.363281 339.605469 272.3125 372.203125 214.816406 372.203125 C 168 372.203125 131.972656 357.375 97.132812 319.445312 C 89.183594 310.792969 50.367188 341.769531 42.425781 330.613281 C 21.691406 330.613281 4.351562 136.875 45.0625 78.761719 C 85.777344 20.652344 149.769531 29.183594 192.28125 29.183594 Z M 192.28125 29.183594 " fill-opacity="1" fill-rule="evenodd"/><g clip-path="url(#e3faee4ca5)"><path fill="#000000" d="M 64.511719 42.828125 C 89.074219 20.480469 121.800781 9.730469 154.816406 10.523438 C 171.917969 10.933594 188.957031 14.191406 205.105469 19.769531 C 213.183594 22.570312 221.007812 26.222656 228.488281 30.355469 C 231.183594 31.839844 233.667969 33.582031 236.058594 35.429688 L 236.65625 35.894531 L 236.664062 35.894531 C 243.078125 38.203125 248.804688 42.339844 254.003906 47.183594 C 264.417969 46.355469 274.914062 47.289062 284.984375 50.503906 C 298.996094 54.980469 311.972656 63.175781 321.085938 74.820312 C 331.695312 88.371094 335.226562 104.8125 333.964844 121.785156 L 333.734375 124.667969 C 332.488281 139.660156 330.257812 158.941406 317.953125 168.792969 C 317.019531 169.542969 315.984375 170.109375 314.914062 170.457031 C 322.84375 184.035156 329.347656 199.113281 333.242188 214.34375 C 348.105469 272.507812 336.679688 333.167969 318.808594 389.226562 C 317.339844 393.847656 310.355469 396.917969 306.800781 392.402344 C 300.449219 384.332031 291.226562 378.175781 280.851562 377.023438 C 274.449219 376.3125 268.078125 377.601562 262.027344 374.695312 C 259.65625 373.550781 257.363281 371.679688 255.71875 369.402344 C 245.503906 373.273438 234.507812 375.097656 223.597656 374.652344 C 205.699219 373.917969 186.5625 367.71875 174.246094 354.121094 C 172.269531 351.9375 171.769531 349.488281 172.222656 347.28125 C 173.769531 346.730469 175.355469 346.320312 176.988281 346.0625 C 192.605469 355.265625 209.820312 361.417969 228.320312 361.804688 C 239.011719 362.027344 249.4375 360.53125 258.105469 353.855469 C 259.984375 352.410156 261.707031 350.8125 263.300781 349.09375 C 281.425781 337.433594 294.203125 317.632812 300.277344 296.421875 C 305.9375 276.640625 305.242188 256.042969 303.296875 235.753906 L 302.269531 225.050781 C 300.773438 209.335938 299.382812 193.574219 298.992188 177.792969 L 299.109375 177.785156 C 302.9375 177.539062 302.964844 171.546875 299.109375 171.796875 C 289.140625 172.441406 279.242188 170.808594 269.300781 171.519531 C 269.21875 166.820312 268.882812 162.140625 267.5 157.609375 C 266.710938 155.019531 262.203125 154.507812 261.722656 157.609375 C 261.085938 161.757812 260.851562 165.882812 260.78125 170.046875 C 245.90625 169.851562 231.042969 168.597656 216.164062 169.113281 C 213.417969 166.183594 212.542969 160.996094 211.261719 157.382812 C 211.074219 156.851562 210.886719 156.328125 210.691406 155.796875 C 209.5625 160.957031 207.964844 166.003906 205.859375 170.945312 L 202.210938 170.957031 C 181.507812 171.054688 160.378906 171.671875 140.164062 175.972656 C 138.757812 174.894531 137.921875 173.011719 137.695312 171.300781 C 136.226562 160.179688 134.136719 149.351562 130.425781 138.753906 L 129.894531 137.257812 C 129.851562 137.132812 129.804688 137.003906 129.757812 136.863281 C 127.023438 141.277344 123.761719 145.386719 120.207031 149.21875 C 118.109375 151.476562 115.914062 153.632812 113.65625 155.730469 C 111.464844 158.164062 109.199219 160.558594 107.003906 163 C 107.089844 163.445312 107.167969 163.894531 107.226562 164.355469 C 107.898438 169.417969 107.96875 174.554688 107.476562 179.640625 C 106.585938 188.832031 103.992188 197.6875 99.824219 205.882812 L 99.691406 206.703125 C 99.058594 210.542969 98.15625 214.511719 96.054688 217.402344 C 98.679688 220.34375 100.703125 223.855469 101.875 227.757812 C 102.917969 231.234375 98.109375 234.246094 95.617188 231.402344 C 93.636719 229.140625 91.4375 227.273438 89.019531 225.78125 C 88.867188 225.988281 88.589844 226.089844 88.28125 225.917969 C 81.550781 222.183594 70.121094 223.3125 63.394531 226.832031 C 55.035156 231.203125 51.769531 240.179688 52.699219 249.277344 C 53.589844 257.96875 57.390625 268.128906 64.765625 272.582031 C 68.148438 274.625 70.785156 274.800781 74.378906 273.816406 C 75.527344 273.507812 76.953125 272.550781 77.5625 272.074219 L 78.164062 271.589844 C 80.523438 269.730469 82.714844 268.453125 85.496094 268.40625 C 88.339844 267.519531 91.199219 268.75 92.289062 271.730469 L 92.355469 271.925781 C 92.863281 273.445312 93.792969 275.351562 93.589844 277.675781 C 93.378906 280.160156 92.242188 282.421875 90.542969 284.238281 C 90.25 284.554688 89.9375 284.867188 89.613281 285.160156 C 118.886719 316.851562 122.648438 366.234375 107.636719 405.824219 C 106.984375 407.5625 106.289062 409.277344 105.5625 410.976562 C 103.054688 416.800781 93.394531 414.996094 92.167969 409.222656 C 91.800781 407.496094 91.398438 405.773438 90.953125 404.066406 C 90.144531 400.910156 89.210938 397.785156 88.164062 394.707031 L 87.765625 393.554688 C 86.875 391.007812 86.042969 388.441406 85.144531 385.894531 L 85.054688 385.605469 C 85.023438 385.488281 84.984375 385.355469 84.941406 385.207031 L 83.421875 388.523438 L 78.804688 398.535156 C 76.640625 403.203125 69.773438 400.664062 69.519531 396.164062 L 69.511719 396.011719 C 69.492188 395.179688 69.460938 394.355469 69.40625 393.539062 C 69.078125 387.421875 68.023438 381.476562 66.347656 375.660156 L 65.742188 376.414062 C 56.730469 387.550781 46.15625 397.992188 31.652344 400.5625 C 28.011719 401.207031 23.894531 397.402344 26.394531 393.726562 C 27.429688 392.207031 28.425781 390.648438 29.367188 389.070312 C 28.550781 388.6875 27.78125 388.292969 27.070312 387.886719 C 21.566406 384.796875 16.984375 380.394531 13.195312 375.398438 C 5.164062 364.8125 2.289062 351.484375 1.585938 338.445312 C 0.835938 324.660156 2.050781 310.128906 5.816406 296.832031 C 7.445312 291.082031 9.65625 285.566406 12.207031 280.210938 C 12.027344 279.734375 11.855469 279.253906 11.683594 278.773438 C 8.929688 271.09375 6.667969 263.238281 4.789062 255.296875 C 1 239.257812 -1.035156 222.714844 -1.28125 206.234375 C -1.730469 176.714844 3.359375 146.722656 14.089844 119.195312 C 25.167969 90.804688 41.835938 63.453125 64.511719 42.828125 Z M 50.714844 300.929688 C 48.679688 297.722656 43.585938 300.609375 45.476562 303.835938 L 45.546875 303.953125 C 48.773438 309.035156 50.285156 314.816406 52.144531 320.484375 C 53.332031 324.128906 59.121094 322.570312 57.914062 318.890625 L 57.515625 317.660156 C 55.667969 311.910156 53.984375 306.070312 50.714844 300.929688 Z M 68.433594 239.777344 L 69.785156 239.121094 C 74.050781 237.085938 77.785156 235.699219 82.824219 237.476562 C 89.570312 239.851562 96.792969 247.40625 92.234375 254.734375 C 90.558594 257.4375 87.578125 258.515625 84.507812 257.878906 C 79.332031 256.804688 78 252.144531 75.371094 248.320312 L 74.921875 247.671875 C 73.320312 245.359375 71.292969 242.15625 68.628906 241.25 C 68.023438 241.039062 67.769531 240.097656 68.433594 239.777344 Z M 72.238281 84.15625 L 72.671875 83.765625 C 75.570312 81.207031 71.316406 76.984375 68.433594 79.527344 C 55.242188 91.183594 50.660156 109.429688 43.816406 124.980469 C 42.285156 128.476562 47.441406 131.53125 48.992188 128.003906 C 55.519531 113.167969 59.851562 95.417969 72.238281 84.15625 Z M 230.761719 79.058594 C 227.316406 77.503906 224.300781 82.519531 227.613281 84.171875 L 227.738281 84.230469 C 239.386719 89.492188 244.34375 101.414062 249.089844 112.476562 C 250.601562 116.011719 255.761719 112.964844 254.265625 109.460938 L 253.40625 107.476562 C 248.453125 96.070312 242.679688 84.449219 230.761719 79.058594 Z M 249.023438 71.855469 C 245.371094 70.589844 243.804688 76.367188 247.429688 77.632812 C 257.304688 81.070312 264.078125 88.484375 269.792969 96.957031 C 271.933594 100.132812 277.121094 97.136719 274.957031 93.933594 C 268.324219 84.09375 260.449219 75.835938 249.023438 71.855469 Z M 249.023438 71.855469 " fill-opacity="1" fill-rule="evenodd"/></g></svg>