<svg xmlns="http://www.w3.org/2000/svg" xmlns:xlink="http://www.w3.org/1999/xlink" width="473" zoomAndPan="magnify" viewBox="0 0 354.75 425.249996" height="567" preserveAspectRatio="xMidYMid meet" version="1.0"><path fill="#e9a45d" d="M 302.152344 153.316406 C 315.726562 144.613281 334.242188 122.402344 323.71875 105.5625 C 319.445312 98.976562 313.617188 96.5 307.21875 96.300781 C 305.691406 94.386719 303.160156 93.828125 300.792969 93.8125 L 300.808594 93.710938 C 292.160156 93.871094 283.664062 96.898438 276.710938 101.957031 C 272.226562 98.015625 266.660156 95.777344 261.265625 93.355469 C 263.527344 81.976562 266.980469 70.882812 270.898438 59.976562 C 273.015625 53.695312 266.3125 47.082031 259.996094 48.980469 C 261.550781 42.171875 257.980469 34.265625 250.199219 34.355469 C 246.042969 34.355469 241.335938 36.582031 237.3125 37.589844 C 234.335938 38.332031 231.402344 39.097656 228.527344 40.066406 C 228.511719 39.988281 228.503906 39.910156 228.496094 39.832031 C 236.03125 34.554688 235.769531 22.410156 224.695312 23.589844 C 219.972656 24.003906 215.171875 27.21875 210.804688 29.183594 C 203.601562 29.617188 196.6875 31.90625 189.691406 33.546875 C 170.539062 38.296875 150.050781 43.070312 134.273438 55.125 C 106.949219 65.65625 72.960938 81.9375 69.574219 114.117188 C 21.445312 95.496094 -14.910156 154.957031 28.734375 178.355469 C 37.300781 182.347656 47.199219 184.414062 56.570312 182.496094 C 54.355469 190.683594 52.242188 198.898438 50.261719 207.144531 C 33.59375 245.441406 20.117188 285.914062 24.964844 327.945312 C 25.035156 335.570312 34.828125 339.96875 40.242188 334.273438 C 44.71875 328.871094 50.152344 335.183594 48.691406 340.402344 C 47.308594 346.195312 51.386719 351.515625 57.320312 351.730469 C 64.421875 352.101562 70.0625 347.339844 75.089844 342.941406 C 74.992188 343.035156 75.222656 342.890625 75.554688 342.667969 C 87.953125 371.910156 99.574219 349.171875 114.855469 362.332031 C 118.425781 365.628906 120.933594 369.539062 125.507812 371.683594 C 136.238281 377.121094 144.710938 367.429688 154.960938 366.3125 C 164.433594 365.613281 173.800781 368.894531 182.886719 371.101562 C 193.496094 373.675781 204.195312 375.027344 215.09375 373.816406 C 229.027344 372.269531 256.832031 365.972656 265.058594 360.789062 C 275.140625 367.554688 285.515625 359.53125 291.054688 350.289062 C 294.933594 354.019531 302.265625 354.59375 305.378906 348.839844 C 308.476562 342.421875 314.269531 332.613281 320.925781 334.066406 C 321.523438 334.25 321.871094 334.363281 322.234375 334.625 C 328.457031 339.917969 336.492188 335.902344 337.402344 328.210938 C 343.300781 278.386719 331.265625 228.40625 315.265625 181.519531 C 311.773438 171.714844 308.875 161.523438 302.152344 153.316406 Z M 302.152344 153.316406 " fill-opacity="1" fill-rule="evenodd"/><path fill="#000000" d="M 296.652344 151.9375 C 296.402344 151.25 297.457031 150.851562 297.808594 151.453125 C 309.242188 171.109375 318.382812 191.992188 326.203125 213.324219 C 333.125 232.207031 339.261719 251.453125 343.632812 271.09375 L 343.929688 272.445312 C 348.042969 291.398438 350.070312 311.449219 344.675781 330.359375 L 344.417969 331.257812 C 343.175781 335.464844 341.53125 339.734375 337.695312 342.234375 C 334.472656 344.332031 330.828125 344.59375 327.117188 344.011719 C 323.992188 343.519531 321.011719 342.15625 317.878906 341.777344 C 315.515625 341.496094 314.902344 342.628906 314.210938 344.539062 L 313.640625 346.152344 C 311.183594 353 308.1875 359.375 300.175781 360.816406 C 295.863281 361.59375 291.179688 360.789062 287.441406 358.519531 C 287.398438 358.667969 287.355469 358.8125 287.320312 358.949219 L 287.140625 359.625 C 286.359375 362.554688 285.355469 365.53125 283.285156 367.804688 C 280.390625 370.980469 276.242188 372.109375 272.058594 371.265625 C 270.160156 370.882812 268.375 370.019531 266.570312 369.300781 C 266.128906 371.957031 263.078125 374.121094 260.289062 373.464844 C 258.777344 373.113281 257.613281 372.425781 256.746094 371.539062 C 252.4375 374.867188 246.621094 376.570312 241.582031 377.859375 C 234.289062 379.722656 226.527344 380.492188 219.003906 380.265625 C 211.371094 380.039062 203.601562 378.566406 196.421875 375.980469 L 195.296875 375.574219 C 189.101562 373.289062 182.582031 370.394531 177.5625 366.121094 C 176.566406 365.632812 177.148438 363.820312 178.335938 364.203125 C 185.152344 366.40625 191.511719 368.996094 198.667969 370.058594 C 205.421875 371.058594 212.199219 371.222656 219.003906 370.8125 C 225.902344 370.394531 232.597656 368.988281 239.179688 366.90625 C 244.90625 365.09375 250.550781 361.824219 256.632812 361.398438 C 256.953125 360.957031 257.296875 360.53125 257.695312 360.144531 C 262.957031 355.035156 268.289062 357.589844 274.210938 359.453125 C 274.40625 359.515625 274.460938 359.617188 274.460938 359.71875 L 274.53125 359.617188 L 274.578125 359.554688 L 274.542969 359.597656 C 274.296875 359.875 274.789062 358.84375 274.878906 358.632812 L 274.886719 358.609375 C 275.566406 356.75 275.832031 354.753906 276.40625 352.867188 C 277.78125 348.355469 280.347656 344.226562 285.265625 343.148438 C 287.691406 342.613281 291 343.425781 292.125 345.9375 C 293.046875 348.003906 294.5625 349.050781 296.894531 348.996094 C 299.332031 348.941406 300.226562 347.519531 301.074219 345.378906 C 302.457031 341.898438 303.199219 338.277344 305.46875 335.207031 C 308.015625 331.75 311.828125 329.734375 316.132812 329.570312 C 319.449219 329.441406 322.699219 330.410156 325.855469 331.304688 L 326.144531 331.390625 C 327.585938 331.84375 330.160156 332.863281 331.285156 332.113281 C 332.96875 330.984375 333.84375 324.421875 334.332031 321.96875 L 334.363281 321.816406 C 335.230469 317.632812 335.734375 313.417969 335.941406 309.148438 C 336.796875 291.304688 333.117188 273.550781 329.046875 256.277344 C 320.65625 220.65625 309.167969 186.292969 296.652344 151.9375 Z M 57.519531 195.492188 C 57.746094 195.152344 58.242188 195.445312 58.0625 195.808594 C 57.238281 197.503906 56.941406 199.28125 56.382812 201.042969 C 55.769531 202.996094 54.726562 204.890625 53.949219 206.78125 C 52.695312 209.851562 51.480469 212.933594 50.253906 216.015625 C 47.792969 222.207031 45.5 228.492188 43.328125 234.792969 C 38.96875 247.449219 35.40625 260.464844 32.800781 273.59375 C 30.238281 286.496094 28.09375 299.988281 28.175781 313.175781 C 28.214844 319.171875 28.867188 325.347656 31.25 330.917969 C 31.621094 331.792969 32.058594 332.648438 32.523438 333.480469 L 32.804688 333.976562 C 32.84375 334.046875 32.886719 334.117188 32.929688 334.183594 L 33.1875 334.597656 C 33.9375 333.496094 36.105469 332.035156 37 331.261719 L 37.121094 331.152344 L 41.316406 327.273438 C 43.140625 325.582031 45.777344 325.175781 47.984375 326.414062 C 54.695312 330.167969 54.480469 337.140625 55.914062 343.726562 L 55.980469 344.011719 C 56.605469 346.777344 57.683594 349.078125 61 348.535156 C 64.457031 347.96875 66.453125 344.453125 67.582031 341.429688 L 67.726562 341.03125 C 69.722656 335.40625 76.898438 335.628906 78.964844 341.03125 L 79.738281 343.074219 C 81.339844 347.269531 83.523438 352.328125 87.65625 353.988281 C 91.132812 355.382812 95.113281 353.296875 98.277344 352 C 100.015625 351.289062 102.042969 352.773438 102.507812 354.402344 C 102.632812 354.847656 102.71875 355.269531 102.785156 355.6875 C 106.089844 355.367188 109.253906 356.15625 112.503906 357.65625 C 116.757812 359.621094 122.109375 363.859375 122.910156 368.769531 C 123.855469 374.578125 117.128906 377.320312 113.660156 372.671875 C 111.472656 369.742188 110.683594 366.1875 108.070312 363.40625 C 106.535156 361.769531 104.625 360.351562 102.625 359.144531 C 100.832031 365.472656 90.785156 367.296875 84.796875 365.421875 C 79.046875 363.625 75.234375 359.390625 72.390625 354.433594 C 67.066406 359.636719 59.683594 362.152344 52.285156 357.613281 C 48 354.988281 46 350.390625 45.226562 345.617188 C 44.996094 344.179688 44.980469 341.820312 44.570312 339.75 L 44.171875 340.15625 C 40.554688 343.8125 36.355469 347.25 31.617188 346.457031 C 25.410156 345.425781 22.460938 338.515625 20.523438 333.25 C 16.5 322.3125 17.242188 310.148438 18.605469 298.789062 C 20.097656 286.355469 22.597656 274.039062 25.910156 261.960938 C 29.136719 250.179688 33.316406 238.746094 38.230469 227.570312 C 40.734375 221.871094 43.625 216.316406 46.734375 210.921875 C 48.292969 208.214844 49.992188 205.582031 51.699219 202.964844 C 53.460938 200.265625 55.75 198.136719 57.519531 195.492188 Z M 20.320312 118.515625 C 29.4375 110.054688 41.628906 106.195312 53.921875 107.9375 C 59.726562 108.757812 65.25 110.855469 70.148438 114.089844 C 75.117188 117.375 78.335938 121.4375 81.3125 126.519531 C 81.519531 126.875 81.046875 127.210938 80.761719 126.945312 C 72.832031 119.640625 60.828125 115.742188 50.160156 116.152344 C 31.148438 116.886719 15.390625 133.707031 16.570312 152.875 C 17.152344 162.316406 22.457031 171.851562 30.664062 176.710938 C 39.359375 181.859375 49.257812 180.152344 58.578125 177.882812 C 61.941406 177.066406 63.636719 180.847656 61.71875 183.28125 C 52.265625 195.269531 32.832031 192.136719 21.921875 183.886719 C 0.835938 167.953125 1.558594 135.925781 20.320312 118.515625 Z M 50.9375 137.394531 L 51.746094 137.257812 C 58.546875 136.132812 73.027344 134.835938 75.160156 143.136719 C 76.242188 147.363281 72.046875 149.640625 68.371094 149.453125 C 65.339844 149.300781 62.40625 148.351562 59.414062 147.707031 C 58.554688 150.675781 58.261719 153.777344 57.84375 156.832031 C 57.480469 159.507812 53.175781 158.78125 53.226562 156.207031 C 53.296875 152.628906 54.960938 149.585938 57.578125 147.363281 C 56.96875 147.269531 56.351562 147.1875 55.734375 147.148438 C 48.296875 146.648438 40.949219 148.027344 34.003906 150.578125 L 34.738281 150.992188 C 35.089844 151.113281 34.941406 151.582031 34.589844 151.53125 L 31.132812 151.707031 C 29.6875 152.042969 28.835938 150.394531 29.746094 149.320312 C 35.097656 143.015625 42.820312 138.84375 50.9375 137.394531 Z M 298.945312 92.960938 C 309.332031 91.71875 319.648438 95.546875 325.222656 104.683594 C 330.394531 113.15625 330.84375 123.886719 327.175781 132.996094 C 325.089844 138.171875 321.941406 142.8125 318.042969 146.804688 C 316.117188 148.777344 313.90625 150.8125 311.464844 152.117188 C 308.621094 153.636719 306.503906 153.503906 303.503906 152.945312 C 301.570312 152.585938 300.238281 150.105469 300.855469 148.285156 L 301.316406 146.902344 C 301.816406 145.417969 302.285156 144.316406 303.660156 142.917969 C 304.859375 141.695312 306.296875 140.707031 307.613281 139.617188 C 310.449219 137.277344 313.082031 134.660156 315.054688 131.535156 C 318.65625 125.824219 319.90625 119.257812 317.871094 112.742188 C 315.6875 105.746094 309.910156 101.210938 302.671875 100.367188 C 298.558594 99.890625 294.386719 100.324219 290.332031 101.039062 L 287.859375 101.488281 C 284.410156 102.125 281.597656 102.867188 279.21875 106.03125 C 279.019531 106.296875 278.628906 106.269531 278.515625 105.9375 C 277.320312 102.5 280.964844 99.4375 283.542969 97.8125 C 288.023438 94.992188 293.738281 93.585938 298.945312 92.960938 Z M 253.683594 88.777344 C 253.175781 88.132812 253.609375 86.816406 254.605469 87.195312 C 266.171875 91.589844 275.914062 102.28125 282.585938 112.386719 C 284.601562 115.445312 286.414062 118.617188 288.046875 121.882812 C 290.378906 119.046875 293.863281 116.996094 297.125 115.601562 L 297.484375 115.449219 C 301.246094 113.890625 309.375 111.214844 311.679688 116.21875 C 312.417969 117.832031 312.125 119.484375 310.824219 120.730469 C 308.816406 122.660156 305.613281 121.929688 303.109375 121.90625 C 298.046875 121.863281 294.027344 123.460938 289.550781 125.015625 C 290.363281 126.792969 291.136719 128.589844 291.855469 130.414062 C 292.832031 132.894531 293.554688 135.507812 294.742188 137.902344 C 295.867188 140.175781 297.636719 142.207031 299.148438 144.222656 C 301.1875 146.941406 298.460938 151.542969 295.136719 151.214844 C 288.253906 150.539062 285.511719 144.851562 283.617188 138.824219 L 282.582031 135.527344 C 281.035156 130.601562 279.441406 125.777344 277.117188 121.09375 C 274.125 115.070312 270.558594 109.1875 266.457031 103.855469 C 262.429688 98.628906 257.738281 93.960938 253.683594 88.777344 Z M 235.769531 17.800781 C 240.046875 16.210938 243.640625 21.695312 241.511719 25.269531 C 239.640625 28.40625 238.527344 31.648438 238.09375 35.050781 L 256.9375 30.558594 C 260.6875 29.667969 264.230469 32.976562 263.195312 36.816406 L 260.289062 47.601562 C 264.046875 46.34375 267.976562 45.597656 272.019531 45.335938 C 275.480469 45.113281 277.390625 48.6875 276.824219 51.644531 C 275.636719 57.808594 273.984375 63.859375 271.78125 69.738281 L 270.175781 73.96875 C 268.285156 78.894531 266.078125 83.867188 261.519531 86.644531 C 259.316406 87.984375 256.460938 86.25 256.449219 83.734375 C 256.421875 77.644531 260.179688 72.441406 262.269531 66.828125 C 263.539062 63.421875 264.613281 59.953125 265.527344 56.441406 C 261.988281 57.441406 258.660156 59.027344 255.515625 61.121094 L 255.046875 61.4375 C 251.328125 63.988281 246.660156 59.847656 247.585938 55.871094 L 247.621094 55.730469 L 251.171875 42.414062 L 234.277344 46.488281 C 230.796875 47.332031 228.121094 44.898438 227.792969 41.550781 C 227.441406 37.988281 227.667969 34.449219 228.40625 31.015625 C 217.242188 34.53125 205.847656 37.269531 194.417969 39.824219 L 192.703125 40.207031 C 167.617188 45.777344 141.988281 50.695312 118.972656 62.617188 C 108.808594 67.878906 99.492188 74.113281 91.015625 81.820312 C 86.828125 85.628906 82.996094 89.820312 79.640625 94.382812 C 78.070312 96.523438 76.597656 98.738281 75.25 101.023438 L 74.167969 102.886719 C 73.652344 103.785156 73.148438 104.714844 72.839844 105.679688 L 72.6875 106.167969 C 72.4375 106.984375 72.164062 108.0625 72.394531 108.78125 C 72.71875 109.816406 74.59375 111.515625 75.917969 111.050781 C 76.097656 110.988281 76.1875 111.222656 76.085938 111.34375 C 74.921875 112.75 73.277344 113 71.605469 112.296875 C 68.964844 111.175781 68.304688 108.625 68.597656 105.964844 C 69.320312 99.375 73.90625 92.109375 77.53125 86.730469 C 92.460938 64.578125 117.023438 51.324219 141.800781 43.019531 C 172.609375 32.695312 205.265625 29.167969 235.769531 17.800781 Z M 235.769531 17.800781 " fill-opacity="1" fill-rule="evenodd"/></svg>