<svg xmlns="http://www.w3.org/2000/svg" xmlns:xlink="http://www.w3.org/1999/xlink" width="473" zoomAndPan="magnify" viewBox="0 0 354.75 425.249996" height="567" preserveAspectRatio="xMidYMid meet" version="1.0"><defs><clipPath id="c9023f9d71"><path d="M 0.1875 5 L 354.3125 5 L 354.3125 383 L 0.1875 383 Z M 0.1875 5 " clip-rule="nonzero"/></clipPath></defs><path fill="#e9a45d" d="M 146.476562 61.894531 C 259.953125 56.3125 311.160156 136.210938 314.472656 171.898438 C 316.773438 196.671875 302.136719 225.222656 302.136719 247.359375 C 302.136719 258.65625 315.96875 282.914062 309.53125 299.382812 C 295.195312 336.039062 264.84375 376.71875 226.167969 376.71875 C 187.488281 376.71875 137.152344 387.414062 94.417969 326.222656 C 90.40625 320.480469 39.691406 287.851562 34.761719 256.84375 C 22.488281 179.605469 65.503906 65.875 146.476562 61.894531 Z M 146.476562 61.894531 " fill-opacity="1" fill-rule="evenodd"/><g clip-path="url(#c9023f9d71)"><path fill="#000000" d="M 141.125 12.171875 C 145.183594 7.53125 152.035156 5.671875 158.121094 6.03125 C 166.964844 6.554688 174.652344 12.015625 183.449219 12.417969 C 192.671875 12.84375 201.574219 9.648438 210.820312 11.128906 C 216.488281 12.042969 222.105469 14.671875 225.734375 19.105469 C 238.3125 15.503906 251.96875 20.273438 259.980469 30.6875 C 269.863281 29.152344 280.613281 35.695312 283.636719 45.21875 C 296.191406 45.621094 308.042969 55.707031 309.445312 68.34375 C 314.460938 69.671875 318.816406 73.128906 321.492188 77.703125 C 324.597656 83.003906 325.113281 89.082031 324.554688 95.058594 C 330.460938 98.074219 333.460938 104.558594 334.25 111.417969 C 339.644531 115.445312 341.988281 122.683594 340.890625 129.519531 C 345.023438 131.847656 347.15625 137.269531 347.132812 142.105469 C 347.109375 146.621094 345.914062 150.617188 347.597656 154.972656 C 349.097656 158.855469 349.636719 162.089844 348.8125 166.152344 L 348.726562 166.550781 C 348.582031 167.210938 348.457031 167.847656 348.347656 168.472656 C 349.464844 169.453125 350.414062 170.683594 351.121094 172.113281 C 353.710938 177.339844 353.324219 183.300781 351.351562 188.601562 C 352.214844 191.976562 352.105469 195.539062 350.828125 198.785156 C 353.222656 202.230469 354.480469 206.460938 354.109375 210.847656 C 353.695312 215.761719 351.453125 220.160156 348.050781 223.410156 C 348.957031 230.121094 346.230469 237.371094 341.296875 242.09375 C 341.996094 246.109375 341.390625 250.320312 339.195312 254.128906 C 337.628906 256.84375 335.519531 258.863281 333.085938 260.273438 C 333.167969 262.511719 332.863281 264.804688 332.117188 267.101562 C 331.082031 270.289062 329.328125 273.222656 327.023438 275.585938 C 328.398438 284.390625 323.128906 294.160156 313.851562 296.628906 C 313.070312 296.835938 312.328125 296.929688 311.617188 296.945312 C 310.695312 305.414062 308.683594 313.761719 305.566406 321.691406 C 297.644531 341.882812 283.242188 359.535156 264.457031 370.550781 C 255.164062 375.992188 244.730469 379.71875 234.074219 381.277344 C 226.410156 382.402344 219.035156 382.125 211.339844 381.359375 C 201.679688 380.394531 191.976562 378.949219 182.589844 376.464844 L 181.078125 376.0625 C 177.1875 375.019531 173.082031 373.816406 169.710938 371.71875 C 165.9375 369.367188 163.976562 365.742188 163.109375 361.476562 C 162.625 359.101562 164.128906 356.546875 166.726562 356.496094 L 166.894531 356.496094 C 167.464844 356.507812 168.027344 356.488281 168.601562 356.449219 L 169.03125 356.421875 L 169.050781 356.421875 C 169.082031 356.414062 169.097656 356.414062 169.128906 356.414062 C 169.382812 356.375 169.628906 356.300781 169.875 356.265625 C 172.734375 355.78125 175.238281 356.261719 177.925781 357.152344 L 178.261719 357.269531 C 182.78125 358.824219 187.265625 360.269531 191.9375 361.339844 C 196.769531 362.441406 201.65625 363.316406 206.5625 364.007812 L 207.046875 364.066406 L 207.199219 364.089844 L 207.273438 364.097656 C 207.289062 364.097656 207.300781 364.097656 207.316406 364.101562 L 208.761719 364.28125 C 209.902344 364.417969 211.039062 364.539062 212.175781 364.65625 C 214.273438 364.867188 216.367188 365.03125 218.464844 365.152344 C 254.648438 367.1875 285.039062 338.699219 294.207031 304.546875 C 297.53125 292.183594 297.75 279.855469 296.769531 267.515625 C 296.453125 266.617188 296.269531 265.621094 296.273438 264.527344 C 296.273438 263.960938 296.304688 263.398438 296.34375 262.828125 C 295.121094 250.894531 293.003906 238.953125 291.679688 226.976562 C 290.128906 212.980469 289.265625 198.90625 289.582031 184.824219 C 289.738281 177.871094 290.480469 170.980469 291.453125 164.09375 L 291.804688 161.621094 C 287.40625 160.761719 283.316406 158.675781 280.0625 155.65625 C 272.996094 159.734375 263.851562 160.097656 256.875 155.789062 C 249.058594 160.691406 238.140625 161.136719 230.269531 156.34375 C 225.511719 159.738281 219.519531 161.203125 213.632812 159.914062 C 210.988281 159.335938 208.355469 158.082031 206.101562 156.34375 C 204.492188 156.628906 202.863281 156.738281 201.242188 156.65625 L 200.90625 156.839844 C 197.171875 158.8125 193.03125 160.105469 188.773438 159.960938 C 185.621094 159.855469 182.371094 159.234375 179.363281 158.058594 C 176.152344 159.996094 172.636719 161.320312 168.875 161.792969 C 163.382812 162.488281 157.453125 161.273438 152.886719 158.15625 C 144.535156 162.910156 134.269531 163.644531 125.257812 160.449219 C 123.410156 163.574219 120.855469 166.269531 117.867188 168.347656 C 118.402344 170.265625 118.574219 172.308594 118.390625 174.277344 C 118.085938 177.515625 117.273438 180.417969 115.949219 183.023438 C 117.347656 185.933594 117.765625 189.507812 116.984375 193.097656 C 115.867188 198.214844 112.890625 202.664062 109.039062 206.128906 C 108.699219 214.296875 104.21875 221.953125 96.933594 226.203125 C 96.5625 226.417969 96.195312 226.59375 95.828125 226.753906 C 95.507812 227.191406 95.121094 227.578125 94.683594 227.90625 C 90.050781 232.1875 82.714844 231.847656 76.90625 229.429688 C 76.792969 229.433594 76.683594 229.445312 76.570312 229.445312 C 74.492188 229.5 73.078125 228.691406 72.242188 227.5 C 71.394531 227.542969 70.554688 227.632812 69.710938 227.792969 C 66.625 228.367188 63.242188 229.476562 60.449219 230.914062 C 53.203125 234.640625 49.847656 241.230469 48.84375 249.152344 C 47.75 257.789062 50.238281 266.59375 56.921875 272.441406 C 60.171875 275.289062 64.328125 277.070312 68.550781 277.816406 C 73.214844 278.648438 78.199219 276.605469 81.644531 280.609375 C 82.332031 281.402344 82.804688 282.511719 82.429688 283.582031 C 81.261719 286.921875 79.335938 288.203125 76.328125 288.667969 C 80.679688 293.824219 85.140625 298.8125 90.082031 303.445312 C 95.425781 308.46875 100.953125 313.335938 105.773438 318.875 C 110.871094 324.738281 115.476562 330.953125 118.671875 338.0625 C 120.5 342.152344 121.96875 346.367188 123.546875 350.550781 L 123.832031 351.28125 C 125.59375 355.726562 127.9375 360.015625 125.222656 364.65625 C 124.144531 366.484375 121.707031 368.25 119.460938 367.957031 C 113.132812 367.148438 111.015625 362.875 109.066406 357.304688 C 107.601562 353.097656 106.476562 348.769531 104.898438 344.601562 C 104.601562 343.828125 104.28125 343.0625 103.941406 342.304688 C 100.296875 343.320312 96.285156 342.511719 93.03125 340.433594 C 89.550781 341.976562 85.699219 342.746094 81.976562 342.679688 C 76.992188 342.589844 72.441406 341.207031 68.527344 338.710938 C 68.214844 338.628906 67.902344 338.546875 67.589844 338.460938 C 61.636719 340.738281 54.664062 340.332031 49.273438 336.636719 C 45.78125 334.242188 43.394531 331.046875 42.039062 327.492188 C 37.527344 327.40625 33.066406 325.804688 29.832031 322.605469 C 26.863281 319.667969 25.128906 315.878906 24.617188 311.9375 C 20.734375 311.171875 17.09375 309.292969 14.238281 306.132812 C 11.855469 303.492188 10.40625 300.128906 9.914062 296.636719 C 5.1875 295.285156 0.921875 292.199219 -1.40625 287.894531 C -3.574219 283.886719 -3.886719 279.539062 -2.828125 275.585938 L -3.101562 275.1875 C -7.972656 272.640625 -11.691406 268.46875 -12.070312 262.507812 C -12.179688 260.808594 -11.996094 259.109375 -11.535156 257.503906 C -11.703125 255.707031 -11.597656 253.914062 -11.125 252.175781 C -17.675781 245.804688 -20.050781 235.570312 -16.492188 227.109375 C -22.894531 220.222656 -24.585938 209.328125 -19.890625 201.152344 C -23.113281 197.261719 -24.765625 192.296875 -24.488281 186.996094 C -24.144531 180.378906 -21.113281 174.597656 -17.480469 169.246094 C -20.175781 166.265625 -21.613281 162.109375 -21.507812 158.097656 C -21.359375 152.28125 -18.265625 147.269531 -14.394531 143.121094 C -17.773438 132.882812 -14 121.769531 -5.710938 115.285156 C -7.390625 112.523438 -8.011719 109.101562 -7.464844 105.636719 C -6.503906 99.578125 -1.960938 95.453125 2.941406 92.191406 C 1.917969 88.851562 2.1875 85.25 3.820312 81.796875 C 5.996094 77.195312 10.109375 74.273438 14.398438 71.804688 C 15.503906 61.589844 26.914062 52.871094 36.484375 58.140625 C 34.109375 50.542969 40.945312 42.335938 48.808594 41.46875 C 52.65625 29.804688 65.929688 22.449219 77.863281 25.347656 C 83.964844 17.007812 95.320312 13.796875 104.964844 17.375 C 115.566406 9.25 128.722656 8.046875 141.125 12.171875 Z M 65.605469 241.199219 C 73.054688 240.796875 78.640625 246.875 82.566406 252.4375 C 86.25 257.65625 76.800781 263.167969 74.042969 257.417969 C 73.054688 255.367188 71.933594 253.195312 70.429688 251.398438 C 70.175781 251.75 69.953125 252.117188 69.730469 252.492188 L 69.507812 252.871094 C 69.34375 253.148438 69.171875 253.433594 69.027344 253.726562 C 69.042969 253.777344 68.820312 254.46875 68.8125 254.496094 C 68.199219 256.359375 66.855469 257.558594 65.03125 258.203125 C 62.671875 259.027344 60.441406 257.253906 59.683594 255.171875 C 58.480469 251.847656 61.28125 248.949219 64.191406 247.632812 C 61.332031 247.167969 58.515625 248.140625 56.449219 250.339844 C 56.167969 250.648438 55.6875 250.402344 55.671875 250.019531 C 55.433594 244.800781 60.890625 241.453125 65.605469 241.199219 Z M 65.605469 241.199219 " fill-opacity="1" fill-rule="evenodd"/></g></svg>