<svg xmlns="http://www.w3.org/2000/svg" xmlns:xlink="http://www.w3.org/1999/xlink" width="473" zoomAndPan="magnify" viewBox="0 0 354.75 425.249996" height="567" preserveAspectRatio="xMidYMid meet" version="1.0"><defs><clipPath id="8129eb7ca3"><path d="M 41 3 L 354.3125 3 L 354.3125 386 L 41 386 Z M 41 3 " clip-rule="nonzero"/></clipPath></defs><path fill="#e9a45d" d="M 259.578125 68.636719 C 204.246094 40.28125 121.804688 43.328125 82.875 96.960938 C 76.679688 107.140625 70.390625 118.289062 67.339844 129.628906 C 63.511719 144.273438 56.738281 166 55.171875 187.0625 C 54.257812 199.296875 58.40625 211.160156 57.28125 221.667969 C 56.390625 229.976562 47.882812 227.453125 48.230469 235.421875 C 48.902344 250.992188 49.398438 273.648438 57.28125 285.902344 C 64.6875 296.492188 78.527344 295.84375 86.660156 305.832031 C 94.324219 315.234375 100.949219 325.671875 110.640625 333.199219 C 130.921875 371.042969 188.800781 379.636719 227.816406 376.105469 C 320.78125 361.335938 319.6875 222.390625 318.351562 149.304688 C 318.769531 111.894531 291.324219 84.199219 259.578125 68.636719 Z M 259.578125 68.636719 " fill-opacity="1" fill-rule="evenodd"/><g clip-path="url(#8129eb7ca3)"><path fill="#000000" d="M 119.585938 27.34375 C 153.359375 8.542969 193.683594 0.652344 232.066406 4.835938 C 251.285156 6.941406 270.453125 11.710938 287.3125 21.445312 C 302.691406 30.308594 315.273438 43.351562 323.554688 59.046875 C 331.4375 74.007812 335.421875 91.160156 335.863281 108.019531 C 336.089844 116.539062 335.25 125.066406 333.609375 133.429688 C 332.792969 137.609375 331.558594 142.234375 332.546875 146.488281 C 333.503906 150.605469 337.375 152.902344 340.273438 155.644531 C 353.253906 167.929688 359.640625 186.570312 357.164062 204.21875 C 355.03125 219.4375 345.804688 235.332031 332.300781 243.433594 C 334.34375 245.769531 335.921875 248.585938 337 251.339844 C 339.644531 258.125 339.457031 265.386719 336.574219 272.042969 C 333.632812 278.824219 327.761719 287.058594 321.09375 290.601562 C 317.789062 292.34375 313.914062 292.953125 310.363281 291.820312 C 308.175781 315.71875 301.582031 338.53125 284.472656 356.898438 C 270.714844 371.675781 251.960938 381.941406 231.902344 384.753906 C 221 386.273438 209.824219 385.832031 199.019531 383.757812 C 193.9375 382.785156 188.933594 381.355469 184.105469 379.492188 C 178.738281 377.417969 173.324219 375.359375 169.425781 371 C 165.351562 366.457031 169.328125 359.613281 175.300781 360.917969 C 180.9375 362.144531 185.878906 365.335938 191.347656 367.207031 C 196.421875 368.933594 201.714844 370.277344 207.039062 370.972656 C 217.691406 372.378906 228.628906 371.242188 238.917969 368.222656 C 255.558594 363.335938 271.003906 352.585938 281.105469 338.441406 C 292.726562 322.179688 297.480469 302.65625 299.207031 282.996094 C 301.191406 260.363281 300.414062 237.535156 300.609375 214.84375 C 300.714844 202.886719 300.609375 190.929688 300.691406 178.980469 C 300.773438 167.59375 300.464844 156.226562 301.183594 144.871094 C 300.675781 144.773438 300.152344 144.554688 299.636719 144.175781 C 294.253906 140.265625 290.03125 134.710938 284.886719 130.429688 C 279.691406 126.101562 274.050781 122.304688 268.183594 118.964844 C 246.222656 106.464844 220.828125 101.09375 195.6875 101.507812 C 181.859375 101.730469 168.292969 103.542969 154.78125 106.425781 L 112.882812 117.617188 C 104.28125 111.636719 94.550781 107.429688 85.0625 103.019531 C 84.074219 106.921875 81.253906 110.664062 79.507812 114.121094 C 77.195312 118.703125 75.0625 123.382812 73.175781 128.160156 C 69.371094 137.773438 66.324219 147.738281 64.027344 157.824219 C 61.886719 167.214844 60.636719 176.738281 59.4375 186.277344 L 59.078125 189.140625 C 58.433594 194.285156 57.722656 199.496094 57.4375 204.667969 C 57.28125 207.460938 57.339844 210.269531 57.292969 213.058594 C 57.257812 214.96875 56.628906 218.996094 58.28125 220.792969 C 58.417969 220.9375 58.558594 221.0625 58.722656 221.175781 C 67.777344 218.4375 78.183594 221.4375 82.324219 230.714844 C 82.585938 231.296875 81.941406 231.816406 81.441406 231.394531 C 73.003906 224.328125 58.371094 228.347656 53.753906 237.945312 C 51.597656 242.414062 51.277344 247.828125 52.382812 252.621094 C 53.695312 258.257812 57.195312 262.953125 59.382812 268.246094 C 60.613281 271.21875 61.203125 274.167969 61.675781 277.328125 C 61.964844 279.28125 62.101562 282.042969 63.523438 283.554688 C 65.035156 285.164062 67.980469 285.375 70.007812 285.832031 C 72.828125 286.46875 75.554688 287.238281 78.128906 288.585938 C 88.183594 293.84375 93.328125 306.121094 100.472656 314.429688 C 104.582031 319.214844 109.050781 323.707031 113.820312 327.839844 C 118.386719 331.800781 125.699219 335.050781 126.324219 341.59375 C 126.53125 343.757812 124.601562 345.890625 122.640625 346.429688 C 117.757812 347.777344 114.261719 344.429688 110.699219 341.617188 C 107.398438 339.011719 104.214844 336.253906 101.183594 333.34375 C 95.179688 327.585938 89.773438 321.230469 84.914062 314.492188 C 81.402344 309.617188 78.46875 303.320312 73.429688 299.796875 C 68.285156 296.203125 61.34375 297.128906 56.308594 292.960938 C 50.21875 287.921875 51.449219 281.070312 49.671875 274.234375 C 47.957031 267.660156 43.453125 262.21875 42.082031 255.464844 C 39.640625 243.382812 43.300781 228.582031 55.09375 222.628906 C 55.804688 222.269531 56.539062 221.945312 57.28125 221.667969 C 57.054688 221.503906 56.84375 221.320312 56.660156 221.109375 C 55.324219 219.664062 54.785156 217.230469 54.359375 215.390625 C 53.011719 209.640625 52.265625 203.664062 51.46875 197.816406 C 49.839844 185.929688 50.699219 173.84375 52.609375 162.039062 C 54.398438 150.925781 57.203125 140.050781 61.039062 129.476562 C 59.707031 128.558594 58.648438 127.195312 58.066406 125.464844 C 56.800781 121.789062 57.9375 118.039062 58.664062 114.339844 C 58.882812 113.210938 59.121094 112.078125 59.367188 110.949219 C 58.800781 74.398438 89.472656 44.097656 119.585938 27.34375 Z M 61.128906 247.796875 C 66.242188 247.714844 70.585938 248.691406 75.03125 251.429688 C 79.289062 254.066406 83.25 257.871094 85.175781 262.539062 C 86.769531 266.402344 80.375 268.941406 78.503906 265.347656 C 76.582031 261.65625 75.152344 258.21875 72.066406 255.269531 C 69.140625 252.464844 64.910156 249.902344 61.007812 248.699219 C 60.515625 248.539062 60.613281 247.804688 61.128906 247.796875 Z M 61.128906 247.796875 " fill-opacity="1" fill-rule="evenodd"/></g></svg>