<svg xmlns="http://www.w3.org/2000/svg" xmlns:xlink="http://www.w3.org/1999/xlink" width="473" zoomAndPan="magnify" viewBox="0 0 354.75 425.249996" height="567" preserveAspectRatio="xMidYMid meet" version="1.0"><path fill="#e9a45d" d="M 177.214844 65.003906 C 201.5625 65.003906 237.226562 79.113281 284.210938 107.328125 C 306.269531 199.777344 315.078125 259.203125 310.632812 285.605469 C 303.964844 325.207031 269.238281 373.730469 211.738281 373.730469 C 154.242188 373.730469 138.621094 353.441406 124.789062 344.222656 C 115.570312 338.074219 101.667969 321.015625 83.085938 293.042969 C 70.476562 296.96875 62.320312 297.796875 58.617188 295.523438 C 50.734375 290.683594 51.691406 277.957031 49.199219 265.644531 C 47.363281 256.574219 41.109375 247.675781 41.109375 242.625 C 41.109375 224.300781 54.132812 225.609375 60.691406 221.21875 C 46.320312 207.0625 50.101562 157.96875 68.207031 132.1875 C 86.3125 106.402344 140.695312 65.003906 177.214844 65.003906 Z M 177.214844 65.003906 " fill-opacity="1" fill-rule="evenodd"/><path fill="#000000" d="M 242.90625 33.730469 C 246.101562 33.21875 248.667969 37.710938 245.285156 39.375 C 230.886719 46.46875 215.773438 51.804688 201.117188 58.269531 C 208.605469 59.167969 216.238281 60.585938 223.617188 62.785156 C 232.109375 59.292969 240.824219 56.464844 249.804688 54.46875 L 252.648438 53.835938 C 261.789062 51.832031 272.078125 49.9375 280.957031 53.007812 C 284.007812 54.0625 283.820312 57.917969 280.957031 59.03125 C 275.804688 61.042969 270.109375 61.570312 264.652344 62.199219 C 259.160156 62.832031 253.726562 63.609375 248.3125 64.75 C 244.367188 65.582031 240.445312 66.546875 236.554688 67.648438 C 238.996094 68.785156 241.375 70.035156 243.667969 71.417969 C 256.027344 78.867188 267.277344 87.378906 276.691406 98.421875 C 285.832031 109.136719 293.023438 121.277344 297.914062 134.488281 C 299.195312 137.945312 300.019531 141.621094 300.550781 145.269531 C 300.976562 148.195312 300.710938 151.058594 300.78125 153.941406 C 300.933594 154 301.066406 154.117188 301.109375 154.292969 C 302.859375 161.242188 303.082031 168.792969 303.636719 175.941406 C 304.210938 183.351562 304.796875 190.761719 305.289062 198.179688 C 305.777344 205.5625 305.699219 213.261719 307.082031 220.535156 C 308.335938 227.144531 312.066406 233.011719 314.164062 239.40625 C 326.753906 277.777344 314.464844 323.757812 283.84375 350.257812 C 268.386719 363.636719 249.109375 372.117188 228.886719 374.914062 C 218.375 376.367188 207.933594 376.332031 197.433594 374.78125 C 192.445312 374.046875 187.523438 372.941406 182.710938 371.441406 L 180.929688 370.890625 C 178.929688 370.265625 176.902344 369.589844 175.0625 368.671875 C 172.433594 367.359375 171.292969 365.15625 170.371094 362.472656 C 169.8125 360.84375 170.714844 358.347656 172.335938 357.636719 L 172.867188 357.410156 C 175.648438 356.242188 177.890625 355.742188 180.925781 356.886719 C 183.371094 357.808594 185.855469 358.625 188.371094 359.335938 C 193.359375 360.75 198.476562 361.804688 203.636719 362.308594 C 214.039062 363.332031 224.566406 362.808594 234.769531 360.523438 C 253.105469 356.417969 269.898438 347.195312 282.617188 333.292969 C 295.042969 319.703125 302.824219 302.375 305.808594 284.277344 C 307.289062 275.296875 307.410156 265.875 306.222656 256.851562 C 305.601562 252.171875 304.554688 247.527344 303.195312 243.007812 C 302.429688 240.453125 301.441406 237.984375 300.636719 235.445312 C 299.910156 233.148438 299.6875 230.691406 299.355469 228.296875 L 299.277344 227.742188 C 298.375 221.648438 298.6875 215.441406 298.691406 209.300781 C 298.699219 203.121094 298.664062 196.945312 298.722656 190.765625 L 298.785156 183.78125 C 298.804688 181.453125 298.832031 179.125 298.871094 176.796875 C 298.019531 176.929688 296.960938 176.304688 296.878906 175.289062 C 296.578125 171.535156 295.730469 167.890625 295.261719 164.160156 L 295.136719 163.175781 C 294.691406 159.746094 294.152344 156.382812 292.71875 153.207031 C 289.808594 146.765625 287.757812 139.964844 285 133.457031 C 279.515625 120.527344 271.34375 108.597656 261.226562 98.863281 C 249.082031 87.171875 234.035156 78.871094 217.910156 74.136719 C 217.394531 74.351562 216.878906 74.554688 216.367188 74.773438 C 206.15625 79.179688 196.460938 84.851562 187.253906 91.078125 C 182.507812 94.289062 177.941406 97.753906 173.585938 101.476562 C 171.464844 103.285156 169.335938 105.097656 167.261719 106.964844 C 166.375 107.761719 165.496094 108.570312 164.628906 109.390625 C 164.050781 109.933594 163.476562 110.484375 162.90625 111.039062 C 161.59375 111.960938 161.5625 113.261719 162.820312 114.933594 C 163.265625 114.746094 163.554688 115.484375 163.144531 115.703125 C 160.65625 117.023438 158.703125 114.199219 159.230469 111.859375 C 159.648438 110.007812 161.367188 108.308594 162.578125 106.851562 L 162.738281 106.65625 C 164.617188 104.335938 166.542969 102.027344 168.585938 99.847656 C 179.34375 88.355469 192.042969 78.851562 205.808594 71.285156 C 200.019531 70.246094 194.15625 69.652344 188.289062 69.503906 C 184.914062 69.421875 181.550781 69.476562 178.207031 69.664062 C 172.988281 72.5 167.835938 75.453125 162.78125 78.585938 C 158.566406 81.199219 154.410156 83.917969 150.324219 86.734375 C 148.195312 88.203125 146.09375 89.707031 144 91.21875 C 142.945312 91.984375 141.332031 92.890625 140.484375 93.847656 L 140.417969 93.929688 C 139.824219 94.703125 138.113281 98.085938 140.339844 97.992188 C 140.578125 97.980469 140.625 98.351562 140.394531 98.40625 C 138.363281 98.898438 138.097656 96.804688 138.445312 95.222656 C 139.316406 91.28125 144.578125 88.097656 147.535156 85.640625 L 147.726562 85.480469 C 153.710938 80.394531 159.894531 75.539062 166.25 70.917969 C 146.445312 73.957031 127.601562 81.734375 111.222656 93.675781 C 90.175781 109.015625 74.355469 130.644531 63.8125 154.296875 C 58.804688 165.539062 54.652344 177.515625 53.164062 189.769531 C 51.832031 200.75 53.25 212.792969 61.816406 220.554688 C 62.285156 220.507812 62.75 220.460938 63.21875 220.429688 L 63.945312 220.386719 C 70.042969 220.058594 82.769531 220.472656 82.359375 228.871094 C 82.339844 229.222656 81.808594 229.4375 81.640625 229.066406 C 79.636719 224.71875 73.792969 225.5 69.628906 226.1875 L 67.289062 226.574219 C 62.421875 227.382812 57.449219 228.421875 53.171875 230.953125 C 49.070312 233.378906 45.476562 237.261719 44.683594 242.121094 C 43.902344 246.910156 47.082031 250.523438 49.820312 254.042969 C 52.925781 258.039062 55.421875 262.171875 55.71875 267.355469 C 56.015625 272.578125 53.457031 277.832031 54.199219 282.996094 C 55.855469 294.527344 72.636719 290.8125 79.847656 289.039062 C 82.011719 288.507812 84.992188 289.335938 85.988281 291.539062 C 90.761719 302.085938 97.253906 311.714844 105.425781 319.925781 C 109.46875 323.988281 113.839844 327.699219 118.566406 330.9375 C 123.347656 334.207031 127.984375 336.894531 131.261719 341.839844 C 132.53125 343.757812 130.808594 345.898438 128.839844 346.066406 C 122.382812 346.609375 117.117188 343.433594 112.019531 339.84375 C 106.890625 336.226562 102.03125 332.195312 97.613281 327.742188 C 89.714844 319.78125 83.136719 310.566406 78.21875 300.5 L 77.542969 300.628906 C 66.46875 302.667969 54.1875 302.65625 46.996094 292.527344 C 43.796875 288.023438 43.441406 282.746094 44.269531 277.4375 C 45.078125 272.265625 46.964844 267.421875 44.046875 262.59375 C 41.394531 258.210938 37.621094 254.601562 36.109375 249.574219 C 34.648438 244.714844 35.476562 239.5625 37.65625 235.066406 C 41.832031 226.464844 50.449219 222.222656 59.46875 220.84375 C 48.609375 214.304688 44.964844 200.925781 44.949219 188.699219 C 44.921875 173.382812 50.335938 157.910156 56.472656 144.09375 C 68.050781 118.03125 87.582031 95.070312 111.414062 79.429688 C 133.535156 64.917969 160.195312 57.097656 186.683594 57.332031 C 193.488281 53.253906 200.476562 49.476562 207.585938 45.964844 L 209.105469 45.21875 C 219.992188 39.925781 230.855469 35.660156 242.90625 33.730469 Z M 56.972656 245.753906 C 58.289062 242.535156 64.085938 242.546875 66.820312 242.65625 L 67.324219 242.679688 C 75.648438 243.113281 89.445312 246.511719 91.148438 255.820312 C 91.433594 257.375 90.4375 259.425781 88.542969 259.242188 C 85.804688 258.972656 83.726562 258.472656 81.476562 256.859375 L 80.335938 256.046875 C 78.441406 254.699219 76.558594 253.410156 74.480469 252.304688 C 71.933594 250.945312 69.308594 249.964844 66.535156 249.183594 C 65.398438 248.863281 64.253906 248.527344 63.109375 248.226562 C 62.355469 248.027344 61.59375 247.851562 60.832031 247.699219 C 59.933594 247.144531 59.347656 247.488281 59.078125 248.726562 C 59.433594 248.847656 59.398438 249.460938 58.984375 249.414062 C 57.34375 249.242188 56.332031 247.3125 56.972656 245.753906 Z M 83.421875 232.25 C 83.421875 232.210938 83.46875 232.203125 83.488281 232.226562 L 83.496094 232.25 L 83.496094 235.699219 C 83.496094 235.738281 83.449219 235.746094 83.429688 235.722656 L 83.421875 235.699219 Z M 83.421875 232.25 " fill-opacity="1" fill-rule="evenodd"/></svg>