<svg xmlns="http://www.w3.org/2000/svg" xmlns:xlink="http://www.w3.org/1999/xlink" width="473" zoomAndPan="magnify" viewBox="0 0 354.75 425.249996" height="567" preserveAspectRatio="xMidYMid meet" version="1.0"><path fill="#e9a45d" d="M 181.398438 56.34375 C 223.910156 56.34375 286.132812 84.734375 290.8125 112.042969 C 296.324219 144.230469 308.574219 265.257812 301.90625 304.859375 C 295.238281 344.464844 269.238281 373.730469 211.738281 373.730469 C 154.242188 373.730469 111.328125 342.375 101.472656 331.605469 C 94.902344 324.429688 87.640625 309.671875 79.679688 287.339844 C 58.691406 283.78125 48.148438 273.636719 48.054688 256.90625 C 47.957031 240.175781 53.226562 229.226562 63.867188 224.058594 C 58.125 154.65625 61.289062 111.359375 73.359375 94.171875 C 91.460938 68.386719 138.886719 56.34375 181.398438 56.34375 Z M 181.398438 56.34375 " fill-opacity="1" fill-rule="evenodd"/><path fill="#000000" d="M 167.398438 -2.246094 L 169.121094 -2.234375 C 176.9375 -2.105469 184.8125 -1.816406 192.660156 -1.171875 C 193.027344 -1.207031 193.398438 -1.238281 193.765625 -1.277344 C 208.53125 -2.691406 223.273438 -1.417969 238.027344 -0.796875 C 252.089844 -0.203125 266.933594 1.246094 279.558594 7.976562 C 281.179688 8.839844 282.558594 9.824219 283.730469 10.917969 C 285.375 11.148438 286.945312 11.617188 288.351562 12.398438 C 292.417969 11.578125 296.953125 13.398438 297.914062 18.117188 C 299.316406 25.027344 299.847656 31.996094 299.007812 39.003906 C 298.988281 39.167969 298.972656 39.339844 298.949219 39.519531 C 300.644531 46.023438 300.53125 53.121094 299.121094 59.535156 C 299.714844 67.636719 300.054688 75.761719 300.101562 83.875 C 300.136719 89.484375 300.386719 95.199219 299.863281 100.792969 C 299.40625 105.710938 297.378906 109.605469 294.195312 113.339844 C 293.59375 114.042969 292.578125 114.160156 291.734375 113.992188 C 291.515625 113.945312 291.328125 113.886719 291.15625 113.816406 C 293.074219 117.933594 294.59375 122.300781 296.148438 126.472656 C 298.621094 133.105469 301.015625 139.851562 302.714844 146.722656 C 306.160156 160.582031 308.425781 174.703125 309.746094 188.917969 C 312.074219 214.21875 312.949219 239.730469 313.398438 265.128906 C 313.832031 289.191406 311.714844 314.285156 298.003906 334.859375 C 286.019531 352.859375 267.765625 365.921875 247.4375 372.972656 C 235.871094 376.996094 223.0625 378.484375 210.84375 378.851562 C 204.535156 379.039062 198.207031 378.769531 191.933594 378.117188 C 185.847656 377.480469 179.550781 377.550781 175.101562 372.9375 C 173.882812 371.671875 173.898438 369.074219 175.703125 368.25 C 179.136719 366.6875 181.464844 366.519531 185.230469 367.039062 C 188.351562 367.464844 191.484375 367.800781 194.628906 368.019531 C 201.367188 368.488281 208.148438 368.503906 214.886719 367.988281 C 227.269531 367.039062 239.9375 363.539062 251.183594 358.242188 C 268.8125 349.914062 283.960938 336.273438 292.136719 318.375 C 301.636719 297.597656 301.023438 273.527344 300.582031 251.203125 C 300.09375 226.71875 299.1875 202.3125 297.0625 177.914062 C 296.03125 166.085938 294.433594 154.335938 292.996094 142.5625 C 292.242188 136.300781 291.246094 130.070312 290.023438 123.890625 C 289.382812 120.617188 288.542969 117.390625 287.855469 114.140625 C 287.351562 114.222656 286.84375 114.269531 286.320312 114.289062 C 283.1875 114.394531 279.769531 113.632812 277.445312 111.410156 C 276.554688 112.015625 275.425781 112.398438 274.0625 112.464844 C 261.191406 113.097656 248.121094 112.3125 235.230469 112.308594 C 222.292969 112.300781 209.347656 112.308594 196.402344 112.34375 C 183.472656 112.378906 170.503906 112.5 157.582031 112.15625 C 145.550781 111.835938 133.117188 112.097656 121.242188 109.894531 C 117.253906 124.074219 117.394531 139.65625 125.710938 152.324219 C 128.0625 155.894531 126.152344 160.101562 123.09375 162.332031 C 119.960938 164.609375 114.335938 168.101562 109.519531 168.460938 C 109.054688 169.507812 108.574219 170.550781 108.121094 171.589844 C 105.824219 176.824219 103.753906 182.09375 102.304688 187.636719 C 101.558594 190.492188 100.914062 193.398438 100.375 196.320312 C 100.417969 196.832031 100.464844 197.339844 100.519531 197.851562 C 100.519531 197.902344 100.527344 197.953125 100.535156 198.015625 C 100.5625 198.226562 100.601562 198.464844 100.625 198.597656 C 100.902344 200.066406 101.167969 201.535156 101.460938 202.996094 C 102.160156 206.550781 102.695312 210.136719 103.078125 213.738281 C 103.777344 220.328125 103.707031 228.890625 97.285156 232.792969 C 93.847656 234.878906 89.730469 234.664062 86.097656 233.261719 C 83.660156 232.320312 81.585938 230.988281 79.339844 229.675781 C 78.007812 228.898438 76.613281 228.261719 75.308594 227.453125 C 74.953125 227.230469 74.605469 226.960938 74.285156 226.675781 C 71.851562 227.191406 69.476562 228.15625 68.144531 228.816406 C 64.574219 230.589844 61.4375 233.160156 58.773438 236.109375 C 53.105469 242.390625 51.40625 251.238281 52.199219 259.453125 C 52.941406 267.097656 55.941406 275.878906 61.984375 280.960938 C 64.613281 283.175781 67.890625 284.472656 71.359375 284.4375 C 73.0625 284.421875 74.636719 284.0625 76.285156 283.628906 C 77.910156 283.199219 79.914062 283.328125 81.414062 282.730469 C 83.636719 281.835938 86.375 284.554688 85.472656 286.785156 C 84.789062 288.464844 84.398438 289.945312 83.546875 291.257812 C 89.746094 301.378906 96.535156 311.1875 103.761719 320.597656 C 110.273438 329.070312 117.941406 336.199219 125.1875 343.964844 C 128.386719 347.390625 129.71875 354.144531 123.929688 355.613281 C 118.15625 357.085938 113.84375 350.886719 110.527344 347.121094 C 96.789062 331.496094 86.40625 313.558594 81.546875 293.308594 C 79.355469 294.863281 76.835938 295.710938 74.1875 296.078125 C 68.910156 296.804688 63.570312 295.761719 58.945312 293.089844 C 41.425781 282.976562 37.1875 255.640625 45.394531 238.511719 C 47.371094 234.386719 50.292969 230.707031 53.859375 227.847656 C 53.578125 227.308594 53.464844 226.679688 53.648438 226.003906 C 53.964844 224.820312 54.3125 223.652344 54.675781 222.484375 C 54.277344 222.308594 53.984375 221.941406 54.042969 221.398438 C 54.371094 218.027344 54.691406 214.660156 55.015625 211.289062 C 54.902344 206.199219 54.65625 201.113281 54.714844 195.992188 C 54.804688 187.832031 55.300781 179.679688 55.328125 171.519531 C 55.425781 143.054688 56.585938 114.621094 56.667969 86.15625 C 56.714844 72.238281 56.742188 58.296875 56.375 44.386719 C 56.367188 44.199219 56.367188 44.019531 56.363281 43.832031 C 56.0625 32.699219 53.113281 17.800781 64 10.597656 C 65.789062 9.414062 68.019531 9.402344 69.964844 10.164062 C 75.566406 6.265625 82.589844 4.382812 89.304688 3.296875 C 102.097656 1.234375 115.007812 0.234375 127.890625 -1.074219 C 134.613281 -1.753906 141.6875 -2.015625 148.457031 -1.867188 C 155.300781 -1.71875 162.234375 -2.339844 169.121094 -2.234375 Z M 65.347656 246.910156 C 67.792969 244.582031 71.449219 245.121094 74.449219 245.675781 C 78.628906 246.449219 82.683594 248.273438 86.203125 250.617188 C 89.992188 253.140625 94.671875 256.636719 95.421875 261.421875 C 96.101562 265.816406 91.730469 270.660156 87.230469 267.71875 C 83.058594 264.984375 81.03125 259.976562 77.445312 256.546875 C 75.683594 254.871094 73.78125 253.394531 71.769531 252.046875 C 70.855469 251.433594 69.957031 250.753906 68.960938 250.28125 C 68.863281 250.234375 64.761719 248.902344 65.554688 250.664062 C 65.824219 251.246094 65.121094 251.898438 64.621094 251.382812 C 63.199219 249.9375 63.992188 248.199219 65.347656 246.910156 Z M 65.347656 246.910156 " fill-opacity="1" fill-rule="evenodd"/></svg>