<svg xmlns="http://www.w3.org/2000/svg" xmlns:xlink="http://www.w3.org/1999/xlink" width="473" zoomAndPan="magnify" viewBox="0 0 354.75 425.249996" height="567" preserveAspectRatio="xMidYMid meet" version="1.0"><defs><clipPath id="59dbed1321"><path d="M 0.1875 0 L 354.3125 0 L 354.3125 396 L 0.1875 396 Z M 0.1875 0 " clip-rule="nonzero"/></clipPath></defs><path fill="#e9a45d" d="M 306.035156 205.84375 C 300.894531 143.199219 285.246094 87.714844 211.722656 85.347656 C 178.542969 85.644531 144.671875 92.695312 114.160156 105.734375 C 40 142.921875 16.46875 278.792969 81.808594 333.484375 C 81.417969 333.707031 81.324219 334.34375 81.785156 334.652344 C 95.285156 343.734375 110.289062 351.207031 125.316406 357.484375 C 165.34375 374.410156 212.46875 381.757812 253.289062 363.402344 C 315.589844 336.894531 316.523438 263.128906 306.035156 205.84375 Z M 306.035156 205.84375 " fill-opacity="1" fill-rule="evenodd"/><g clip-path="url(#59dbed1321)"><path fill="#000000" d="M 428.660156 176.644531 C 431.222656 174.339844 433.128906 171.316406 434.097656 167.925781 C 434.980469 164.832031 435.039062 161.457031 434.105469 158.371094 C 433.101562 155.0625 430.9375 152.425781 431.421875 148.980469 C 431.476562 148.644531 431.542969 148.292969 431.648438 147.941406 C 433.519531 141.457031 438.125 136.777344 436.476562 129.589844 C 436.011719 127.5625 435.136719 125.734375 433.917969 124.296875 C 434.050781 122.742188 434.171875 121.167969 434.269531 119.597656 C 436.972656 113.269531 436.875 105.753906 433.992188 99.523438 C 433.640625 96.335938 433.109375 93.175781 432.359375 90.070312 C 432.703125 87.320312 432.226562 84.296875 431.339844 81.894531 C 429.789062 77.664062 427.871094 73.496094 425.789062 69.398438 C 426.035156 68.277344 425.925781 67.09375 425.304688 66.039062 C 424.183594 64.125 422.695312 62.441406 421.175781 60.796875 C 420.101562 58.878906 419.019531 56.976562 417.949219 55.097656 C 417.449219 54.234375 416.902344 53.277344 416.296875 52.261719 C 417.945312 49.203125 418.824219 46.222656 417.082031 42.625 C 416.425781 41.273438 414.625 40.277344 413.140625 40.367188 C 411.523438 40.460938 409.886719 40.535156 408.242188 40.597656 C 405.167969 36.886719 401.683594 33.550781 397.949219 31.632812 C 394.167969 28.429688 390.335938 25.285156 386.609375 22.074219 C 385.550781 21.160156 384.488281 20.246094 383.433594 19.332031 C 383.425781 19.3125 383.417969 19.28125 383.410156 19.257812 C 382.632812 16.421875 381.757812 13.621094 380.878906 10.804688 C 380.332031 9.0625 380.167969 7.234375 378.46875 6.285156 C 374.921875 4.300781 369.464844 3.984375 365.390625 3.648438 C 364.984375 3.289062 364.582031 2.9375 364.175781 2.578125 C 366.027344 -2.347656 365.695312 -7.582031 363.367188 -12.515625 C 362.574219 -14.191406 359.820312 -14.949219 358.308594 -13.839844 C 354.820312 -11.28125 350.679688 -10.375 346.582031 -10.75 C 340.5625 -15.375 316.285156 -36.296875 312.53125 -38.507812 C 312.484375 -38.585938 312.449219 -38.664062 312.398438 -38.742188 C 310.289062 -42.113281 307.730469 -44.816406 304.851562 -46.984375 C 304.4375 -47.414062 304.027344 -47.84375 303.617188 -48.273438 C 303.976562 -50.839844 304.929688 -53.316406 306.460938 -55.390625 C 306.625 -55.632812 306.8125 -55.863281 307 -56.089844 C 309.679688 -59.277344 306.410156 -63.378906 302.664062 -61.710938 C 302.394531 -61.589844 302.125 -61.472656 301.855469 -61.34375 C 298.980469 -60.0625 295.796875 -58.667969 292.480469 -57.488281 C 291.265625 -57.945312 290.027344 -58.355469 288.902344 -58.808594 L 276.820312 -63.664062 C 274.832031 -64.464844 272.730469 -65.144531 270.804688 -66.082031 C 270.136719 -70.542969 265.664062 -73.46875 261.019531 -73.316406 C 261.289062 -74.171875 261.6875 -75.003906 262.253906 -75.792969 C 262.417969 -76.027344 262.597656 -76.25 262.785156 -76.46875 C 265.171875 -79.246094 261.984375 -84.394531 258.570312 -81.925781 C 258.328125 -81.753906 258.082031 -81.582031 257.84375 -81.410156 C 256.894531 -80.742188 255.921875 -80.117188 254.941406 -79.515625 C 253.371094 -80.199219 251.601562 -80.355469 249.746094 -79.628906 C 245.644531 -78.023438 241.867188 -76.390625 238.253906 -73.875 C 238.109375 -73.773438 237.957031 -73.6875 237.808594 -73.589844 C 236.015625 -75.753906 233.167969 -77.203125 230.605469 -77.1875 C 230.554688 -77.1875 230.515625 -77.1875 230.46875 -77.1875 C 228.550781 -80.109375 225.039062 -81.804688 221.648438 -81.390625 C 221.878906 -85.582031 217.683594 -89.320312 213.867188 -89.773438 C 209.40625 -90.304688 205.386719 -87.714844 204.046875 -83.363281 C 203.675781 -82.152344 203.300781 -80.9375 202.929688 -79.726562 C 199.464844 -81.476562 195.8125 -82.8125 191.992188 -83.484375 C 183.296875 -85.003906 174.796875 -83.382812 166.417969 -80.96875 C 165.582031 -80.730469 164.746094 -80.480469 163.910156 -80.234375 C 162.714844 -81.617188 161.59375 -83.035156 160.523438 -84.359375 C 158.671875 -86.640625 154.234375 -84.816406 154.53125 -81.878906 C 154.742188 -79.855469 153.917969 -78.398438 152.59375 -77.363281 C 151.136719 -77.148438 149.730469 -77.085938 147.613281 -77.128906 C 144.808594 -77.183594 143.535156 -77.273438 140.605469 -78.414062 C 139.238281 -78.945312 137.539062 -80.34375 136.742188 -81.601562 C 133.691406 -86.410156 125.941406 -87.707031 122.25 -83.121094 C 118.367188 -84.820312 113.464844 -82.476562 111.308594 -79.167969 C 110.179688 -77.441406 107.824219 -76.472656 104.863281 -75.640625 C 102.636719 -75.019531 100.363281 -74.546875 98.078125 -74.136719 C 97.058594 -75.515625 94.914062 -76.441406 93.34375 -75.285156 C 92.277344 -74.496094 91.242188 -73.691406 90.222656 -72.863281 C 82.351562 -71.777344 74.527344 -71.738281 67.023438 -74.808594 C 60.671875 -77.40625 54.839844 -70.308594 55.886719 -64.351562 C 54.046875 -63.394531 52.050781 -62.757812 50.234375 -61.753906 C 46.269531 -59.566406 43.015625 -56.101562 41.03125 -52.035156 C 40.675781 -51.304688 40.355469 -50.566406 40.046875 -49.820312 C 38.566406 -48.617188 37.101562 -47.378906 35.671875 -46.070312 C 33.289062 -47.292969 30.917969 -48.511719 28.535156 -49.730469 C 26.753906 -50.644531 23.753906 -50.007812 23.402344 -47.644531 C 22.824219 -43.75 21.425781 -40.523438 19.425781 -37.820312 C 12.925781 -34.40625 6.675781 -30.574219 0.695312 -26.3125 C -6.1875 -24.15625 -13.5 -22.898438 -19.511719 -21.484375 C -21.574219 -20.996094 -22.695312 -18.308594 -21.535156 -16.519531 C -20.308594 -14.625 -19.078125 -12.730469 -17.859375 -10.839844 C -21.28125 -7.5 -24.492188 -4.011719 -27.523438 -0.402344 C -35.960938 9.628906 -43.023438 20.628906 -49.339844 32.277344 C -51.839844 33.289062 -54.34375 34.292969 -56.84375 35.304688 C -59.253906 36.277344 -60.339844 39.078125 -58.386719 41.136719 C -57.457031 42.117188 -56.625 43.148438 -55.914062 44.234375 C -59.457031 50.097656 -63.625 55.441406 -69.457031 58.945312 C -71.230469 60.007812 -72.566406 61.679688 -73.277344 63.574219 C -73.882812 63.976562 -74.480469 64.410156 -75.074219 64.851562 C -76.71875 66.097656 -77.714844 68.804688 -75.785156 70.414062 C -74.429688 71.554688 -73.15625 72.902344 -72.078125 74.390625 C -71.847656 75.238281 -71.605469 76.089844 -71.367188 76.9375 C -76.789062 81.921875 -81.292969 87.71875 -84.679688 94.214844 C -85.480469 94.089844 -86.304688 94.171875 -86.96875 94.664062 C -93.019531 99.136719 -93.199219 106.253906 -90.765625 112.617188 C -92.234375 122.210938 -91.289062 132.039062 -88.460938 141.332031 C -92.179688 145.042969 -94.417969 150.40625 -95.332031 155.570312 C -96.941406 164.644531 -97.054688 178.601562 -97.472656 187.859375 C -101.53125 191.777344 -104.421875 196.84375 -106.03125 202.296875 C -107.386719 202.96875 -108.742188 203.644531 -110.097656 204.316406 C -111.300781 204.917969 -112.183594 206.496094 -112.113281 207.828125 C -111.765625 214.273438 -109.109375 219.367188 -105.582031 223.976562 C -104.332031 227.535156 -102.480469 230.8125 -100.054688 233.957031 C -98.378906 236.113281 -96.738281 238.179688 -95.292969 240.507812 C -95.144531 240.742188 -95.054688 240.957031 -94.988281 241.105469 C -95.558594 241.722656 -96.027344 242.738281 -96.441406 243.464844 C -99.898438 249.558594 -99.953125 256.703125 -95.039062 262.011719 C -96.890625 263.523438 -96.949219 266.578125 -95.316406 268.449219 C -84.695312 280.585938 -75.835938 295.339844 -61.09375 301.789062 C -61.027344 301.898438 -60.96875 302.011719 -60.914062 302.125 C -63.902344 309.3125 -64.308594 313.046875 -61.867188 320.476562 C -61.851562 320.542969 -61.828125 320.601562 -61.804688 320.667969 C -60.503906 324.5625 -58.109375 330.800781 -53.789062 332.011719 C -52.425781 332.394531 -51.085938 332.566406 -49.761719 332.558594 C -46.332031 335.859375 -42.910156 339.167969 -39.488281 342.480469 C -39.1875 344.117188 -39 345.773438 -38.941406 347.441406 C -38.84375 350.234375 -36.214844 352.496094 -33.386719 351.671875 C -32.390625 351.378906 -26.878906 346.027344 -25.871094 346.058594 C -25.359375 346.566406 -24.867188 347.074219 -24.371094 347.59375 C -22.554688 349.5 -20.03125 352.511719 -19.820312 354.511719 C -19.417969 358.277344 -16.945312 362.589844 -12.953125 363.351562 C -11.457031 364.871094 -9.0625 365.328125 -7.226562 363.34375 C -7.109375 363.21875 -6.988281 363.089844 -6.859375 362.976562 C -6.667969 362.953125 -6.480469 362.933594 -6.285156 362.910156 C -5.402344 365.546875 -4.515625 368.179688 -3.625 370.808594 C -1.882812 375.988281 4.78125 379.320312 9.511719 376.296875 C 10.277344 376.753906 11.023438 377.238281 11.773438 377.726562 C 12.910156 378.453125 14.066406 379.195312 15.246094 379.890625 C 15.316406 380.085938 15.382812 380.28125 15.441406 380.464844 C 16.207031 382.796875 19.378906 384.046875 21.335938 382.707031 C 21.941406 382.898438 22.5625 383.058594 23.191406 383.183594 C 26.492188 383.835938 29.816406 383.65625 33.007812 382.554688 C 35.289062 381.777344 37.46875 380.285156 39.925781 380.085938 C 40.078125 380.070312 40.234375 380.082031 40.390625 380.078125 C 42.394531 384.183594 46.972656 387.71875 50.582031 388.921875 C 55.304688 390.496094 60.144531 389.933594 64.445312 388.003906 C 65.609375 390.324219 67.066406 392.523438 68.808594 394.558594 C 69.773438 395.679688 71.519531 395.441406 72.515625 394.558594 C 74.40625 392.878906 76.285156 391.195312 78.160156 389.507812 C 79.519531 388.984375 80.890625 388.359375 82.320312 387.773438 C 86.792969 385.945312 91.695312 385.191406 95.832031 382.550781 C 97.796875 381.296875 99.644531 379.699219 101.164062 377.84375 C 104.03125 376.191406 106.664062 374.128906 109.035156 371.765625 C 110.21875 371.773438 111.453125 371.496094 112.652344 370.890625 C 117.660156 368.34375 120.296875 363.164062 120.527344 357.863281 C 124.585938 348.316406 126.980469 338.136719 127.640625 327.714844 C 127.847656 324.292969 127.886719 320.839844 127.625 317.421875 C 127.445312 315.007812 126.839844 313.398438 125.925781 311.222656 C 125.617188 310.511719 125.339844 309.859375 125.125 309.140625 C 125.175781 306.832031 125.207031 304.527344 125.234375 302.230469 C 125.859375 300.289062 126.964844 298.484375 128.507812 296.964844 C 130.894531 294.617188 131.988281 289.734375 129.816406 286.828125 C 128.402344 284.949219 126.996094 283.070312 125.582031 281.191406 C 125.976562 273.128906 127.910156 260.296875 123.625 258.949219 C 123.800781 257.75 124.164062 256.566406 124.375 255.378906 C 125.378906 249.65625 124.78125 244.542969 121.738281 239.542969 C 121.105469 238.503906 120.566406 237.582031 120.121094 236.683594 C 119.847656 235.035156 119.570312 233.386719 119.292969 231.742188 C 118.863281 229.203125 118.445312 226.644531 118.085938 224.066406 C 117.898438 220.789062 117.726562 217.507812 117.539062 214.222656 C 117.367188 211.199219 117.171875 208.171875 116.972656 205.140625 C 117.054688 203.785156 117.171875 202.429688 117.34375 201.074219 C 118.371094 192.996094 121.671875 190.011719 127.390625 184.394531 C 128.289062 184.253906 129.183594 184.09375 130.058594 183.914062 C 134.136719 183.070312 138.40625 181.757812 142.605469 182.230469 C 147.164062 182.742188 151.246094 184.710938 155.675781 182.195312 C 156.980469 181.445312 159.847656 179.378906 160.09375 177.738281 C 160.109375 177.632812 160.132812 177.542969 160.164062 177.476562 C 160.46875 177.433594 160.867188 177.394531 161.113281 177.386719 C 164.632812 177.265625 167.992188 178.652344 171.542969 178.269531 C 175.742188 177.820312 179.5 175.957031 181.972656 173.195312 C 185.136719 173.972656 188.371094 174.324219 191.660156 173.890625 C 194.414062 173.53125 196.886719 172.632812 199.324219 171.300781 C 201.101562 170.34375 200.539062 170.066406 202.46875 170.84375 C 206.863281 172.625 210.839844 174.976562 215.789062 173.757812 C 218.355469 173.128906 220.574219 171.742188 222.4375 169.878906 C 222.878906 169.445312 223.628906 168.792969 224.128906 168.179688 C 226.480469 169.367188 232.394531 172.058594 233.367188 172.296875 C 236.125 172.96875 239.042969 172.867188 241.722656 171.96875 C 243.691406 171.308594 246.101562 169.511719 247.832031 169.144531 C 250.070312 168.664062 255.042969 171.78125 257.714844 172.851562 C 262.402344 174.730469 267.367188 175.195312 272.113281 173.253906 C 273.746094 172.589844 276.917969 169.929688 278.140625 169.953125 C 280.125 172.402344 285.664062 185.796875 287.324219 190.683594 C 294.054688 210.449219 295.800781 272.164062 292.695312 287.90625 C 292.574219 288.371094 292.445312 288.828125 292.320312 289.292969 C 288.5 302.984375 284.523438 316.910156 278.140625 329.667969 C 272.113281 341.691406 263.78125 352.519531 251.824219 359.085938 C 239.425781 365.898438 224.871094 367.6875 210.929688 366.765625 C 201.953125 366.183594 193.125 364.378906 184.441406 362.117188 C 179.90625 360.941406 175.40625 359.628906 170.929688 358.269531 C 168.972656 357.675781 166.988281 357.121094 165.074219 356.433594 C 161.691406 355.214844 159.914062 355.117188 156.671875 356.679688 C 153.722656 358.105469 152.96875 362.304688 154.503906 364.945312 C 157.003906 369.257812 161.585938 369.558594 166.007812 370.816406 C 170.515625 372.097656 175.039062 373.324219 179.589844 374.425781 C 188.3125 376.519531 197.175781 378.128906 206.117188 378.871094 C 222.121094 380.210938 238.617188 378.144531 253.1875 371.160156 C 254.832031 370.367188 256.421875 369.519531 257.953125 368.609375 C 257.386719 369.402344 256.808594 370.195312 256.226562 370.980469 C 254.609375 373.160156 255.804688 376.867188 258.074219 378.054688 C 258.792969 378.429688 259.511719 378.789062 260.238281 379.140625 C 260.335938 379.375 260.441406 379.605469 260.558594 379.835938 C 262.632812 384 266.976562 386.457031 271.402344 387.519531 C 276.65625 388.777344 282.542969 387.886719 287.886719 387.730469 C 292.84375 387.578125 297.800781 387.429688 302.75 387.28125 C 303.917969 387.25 305.085938 387.210938 306.253906 387.175781 C 312.136719 386.996094 318.015625 386.824219 323.890625 386.644531 C 329.132812 386.484375 328.882812 386.890625 333.804688 384.792969 C 335.996094 383.851562 337.792969 382.519531 339.304688 380.742188 C 340.25 380.324219 341.164062 379.84375 342.039062 379.296875 C 344.855469 377.546875 347.355469 375.195312 349.660156 372.605469 C 353.574219 373.839844 359.0625 372.695312 359.828125 367.777344 C 361.054688 359.90625 371.28125 356.546875 376.058594 350.855469 C 379.914062 346.265625 382.667969 340.253906 382.527344 334.484375 C 392.246094 329.78125 397.53125 317.390625 398.765625 306.878906 C 399.34375 302.003906 399.253906 296.785156 400.085938 291.832031 C 400.449219 291.433594 400.78125 291.015625 401.058594 290.566406 C 403.496094 286.621094 405.625 282.554688 407.496094 278.390625 C 410.042969 276.558594 413.105469 275.425781 416.308594 275.238281 C 424.183594 274.78125 425.667969 264.160156 418.15625 261.597656 C 418.121094 261.582031 418.089844 261.578125 418.050781 261.5625 C 420.089844 256.46875 419.917969 250.445312 417.445312 245.621094 C 417.550781 245.097656 417.648438 244.582031 417.746094 244.058594 C 421.960938 239.527344 424.378906 233.230469 424.109375 227.097656 C 426.035156 225.746094 428.191406 224.695312 430.546875 224.046875 C 434.195312 223.042969 434.214844 218.59375 431.519531 216.601562 C 430.433594 215.800781 429.539062 214.867188 428.789062 213.832031 C 430.652344 208.234375 429.917969 201.757812 426.109375 197.160156 C 428.527344 194.058594 430.945312 190.960938 433.363281 187.859375 C 434.964844 185.808594 435.8125 182.328125 433.363281 180.382812 C 431.796875 179.132812 430.234375 177.890625 428.660156 176.644531 Z M 428.660156 176.644531 " fill-opacity="1" fill-rule="evenodd"/></g></svg>