<svg xmlns="http://www.w3.org/2000/svg" xmlns:xlink="http://www.w3.org/1999/xlink" width="473" zoomAndPan="magnify" viewBox="0 0 354.75 425.249996" height="567" preserveAspectRatio="xMidYMid meet" version="1.0"><defs><clipPath id="3d7fd02000"><path d="M 0.1875 35 L 351 35 L 351 424.5 L 0.1875 424.5 Z M 0.1875 35 " clip-rule="nonzero"/></clipPath></defs><path fill="#e9a45d" d="M 304.050781 152.113281 C 296.339844 124.273438 266.859375 112.125 240.3125 110.199219 C 168.425781 102.726562 95.257812 142.796875 63.390625 207.777344 C 37.878906 257.117188 37.082031 308.949219 91.917969 337.121094 C 94.910156 338.773438 98.039062 340.535156 101.230469 342.136719 C 104.007812 344.71875 106.863281 347.195312 109.984375 349.277344 C 139.84375 368.914062 176.492188 377.40625 212.007812 375.5625 C 264.445312 374.507812 283.164062 338.925781 294.621094 293.292969 C 306.703125 247.863281 313.460938 198.570312 304.050781 152.113281 Z M 304.050781 152.113281 " fill-opacity="1" fill-rule="evenodd"/><g clip-path="url(#3d7fd02000)"><path fill="#ffde59" d="M 338.472656 414.53125 C 336.023438 407.128906 332.957031 399.949219 330.089844 392.691406 C 329.480469 389.078125 329.078125 385.429688 328.972656 381.753906 C 328.574219 368.621094 331.03125 355.378906 333.785156 342.589844 C 339.386719 316.605469 345.324219 290.886719 348.304688 264.421875 C 353.625 217.082031 350.460938 167.855469 328.925781 124.644531 C 310.269531 87.210938 278.652344 56.59375 237.8125 45.125 C 225.738281 41.734375 213.3125 39.863281 200.804688 39.117188 C 199.253906 38.871094 197.707031 38.628906 196.167969 38.394531 C 178.765625 35.773438 161.148438 34.464844 143.558594 35.597656 C 114.390625 37.472656 85.496094 45.855469 61.203125 62.433594 C 36.742188 79.128906 19.363281 102.535156 11.277344 131.085938 C 2.867188 160.785156 3.578125 192.949219 -10.945312 220.792969 C -15.238281 229.019531 -20.246094 236.839844 -25.023438 244.792969 C -37.699219 258.9375 -51.464844 274.660156 -54.480469 294.105469 C -58.199219 318.140625 -44.371094 338.449219 -31.285156 357.207031 C -19.457031 374.140625 -3.402344 397.53125 -15.578125 418.378906 C -21.320312 428.21875 -30.519531 435.578125 -37.429688 444.546875 C -44.597656 453.859375 -50.1875 464.550781 -53.078125 475.976562 C -58.507812 497.433594 -53.511719 519.796875 -38.996094 536.566406 C -31.433594 545.296875 -21.722656 551.070312 -11.210938 555.566406 C -0.453125 560.164062 10.058594 564.53125 18.953125 572.355469 C 23.015625 575.925781 26.738281 579.839844 30.257812 583.941406 C 33.535156 589.070312 37.355469 593.863281 41.660156 598.25 C 46.398438 603.078125 55.683594 596.46875 51.332031 590.785156 C 51.011719 590.367188 50.695312 589.953125 50.375 589.535156 C 47.191406 585.386719 43.996094 581.242188 40.648438 577.226562 C 30.667969 561.414062 26.828125 542.054688 31.792969 523.585938 C 33.078125 518.785156 34.890625 514.234375 37.144531 509.9375 C 37.625 511.1875 38.148438 512.421875 38.703125 513.640625 C 40.859375 518.375 43.882812 523.980469 47.730469 528.773438 C 47.878906 532.058594 48.375 535.316406 49.332031 538.503906 C 55.261719 558.277344 75.085938 568.035156 92.964844 575.625 C 94.71875 576.375 96.449219 577.09375 98.148438 577.804688 C 102.820312 579.757812 107.761719 573.101562 104.847656 569.089844 C 104.085938 568.035156 103.34375 566.957031 102.640625 565.863281 C 94.253906 552.878906 90.261719 537.351562 92.523438 521.886719 C 94.90625 505.527344 104.546875 491.992188 114.125 479 C 123.527344 466.226562 133.628906 453.195312 137.835938 437.613281 C 142.492188 420.402344 138.253906 403.242188 131.066406 387.398438 C 124.484375 372.902344 115.71875 359.542969 108.367188 345.445312 C 110.886719 347.953125 113.480469 350.382812 116.15625 352.722656 C 119.167969 355.359375 122.257812 358.371094 125.824219 360.230469 C 128.460938 361.601562 131.101562 358.316406 129.015625 356.09375 C 126.269531 353.175781 122.757812 350.921875 119.710938 348.316406 C 116.785156 345.816406 113.941406 343.214844 111.171875 340.546875 C 107.761719 337.257812 104.515625 333.816406 101.386719 330.269531 C 98.882812 323.890625 96.816406 317.339844 95.136719 310.691406 C 92.855469 301.691406 90.742188 292.117188 90.90625 282.785156 C 91.070312 273.21875 96.042969 266.519531 102.660156 260.09375 C 105.464844 257.375 108.292969 254.6875 111.121094 251.992188 C 117.136719 247.578125 122.8125 242.644531 128.324219 237.722656 C 138.144531 228.957031 147.648438 219.6875 156.71875 210.148438 C 159.152344 207.589844 161.566406 205 163.953125 202.382812 C 172.28125 193.835938 180.222656 184.914062 187.710938 175.679688 C 195.152344 172.96875 202.304688 169.382812 209.011719 165.160156 C 206.09375 168.117188 203.140625 171.039062 200.207031 173.980469 C 193.671875 180.539062 186.882812 187.128906 179.304688 192.472656 C 178.527344 193.027344 178.996094 194.203125 179.957031 194.015625 C 189.589844 192.089844 198.605469 188.886719 207.019531 183.78125 C 215.578125 178.585938 223.117188 171.527344 230.15625 164.441406 C 234.136719 162.644531 237.980469 160.332031 241.488281 158.058594 C 241.675781 157.9375 241.863281 157.808594 242.050781 157.6875 C 238.59375 168.652344 233.515625 181.0625 222.699219 184.972656 C 222.34375 185.097656 222.367188 185.683594 222.789062 185.660156 C 231.902344 185.125 239.226562 181.027344 245.007812 175.046875 C 249.660156 171.703125 254.097656 168.15625 258.332031 164.292969 C 262.4375 160.554688 266.324219 156.542969 270.015625 152.390625 C 264.855469 162.609375 259.078125 172.601562 253.378906 182.480469 C 253.078125 183.003906 253.707031 183.714844 254.246094 183.347656 C 266.277344 175.203125 275.40625 164.691406 282.867188 152.261719 C 283.972656 150.429688 285.023438 148.570312 286.046875 146.699219 C 285.273438 149.628906 284.429688 152.542969 283.523438 155.441406 C 281.886719 160.691406 280.273438 165.949219 278.628906 171.195312 C 277.746094 174.023438 276.667969 176.785156 275.484375 179.5 C 274.636719 181.445312 273.523438 183.386719 273.351562 185.515625 C 273.34375 185.660156 273.496094 185.75 273.621094 185.71875 C 278.417969 184.519531 282.882812 179.050781 286.304688 175.660156 C 288.207031 173.773438 289.992188 171.703125 291.628906 169.515625 C 291.933594 182.101562 292.144531 194.683594 291.867188 207.304688 C 291.351562 230.484375 289.855469 253.65625 287.9375 276.757812 C 286.246094 297.183594 284.996094 318.617188 273.601562 336.371094 C 264.78125 350.109375 250.480469 359.617188 234.945312 364.21875 C 233.574219 364.632812 232.199219 365 230.8125 365.328125 C 208.324219 370.667969 185.921875 364.617188 166.039062 353.925781 C 160.0625 350.714844 154.957031 359.429688 160.722656 363.015625 C 182.296875 376.445312 209.648438 381.019531 234.070312 375 C 233.300781 403.847656 247.515625 431.210938 261.660156 455.679688 C 269.574219 469.371094 277.492188 482.976562 283.085938 497.824219 C 287.832031 510.429688 291.058594 523.507812 292.144531 536.964844 C 293.433594 552.820312 292.167969 568.765625 289.953125 584.488281 C 289.832031 585.34375 289.710938 586.203125 289.585938 587.058594 C 289.089844 590.433594 292.121094 593.261719 295.410156 591.535156 C 309.941406 583.898438 316.207031 567.621094 320.019531 552.574219 C 323.582031 538.476562 326 524.101562 327.347656 509.628906 C 329.324219 515.085938 330.925781 520.679688 332.167969 526.382812 C 332.34375 527.199219 332.507812 528.015625 332.671875 528.832031 C 333.613281 533.601562 340.832031 533.265625 341.984375 528.832031 C 342.195312 528.03125 342.394531 527.230469 342.582031 526.421875 C 348.535156 502.351562 350.136719 477.25 346.992188 452.640625 C 345.339844 439.695312 342.574219 426.921875 338.472656 414.53125 " fill-opacity="1" fill-rule="evenodd"/></g></svg>