<svg xmlns="http://www.w3.org/2000/svg" xmlns:xlink="http://www.w3.org/1999/xlink" width="473" zoomAndPan="magnify" viewBox="0 0 354.75 425.249996" height="567" preserveAspectRatio="xMidYMid meet" version="1.0"><defs><clipPath id="a941f0bad0"><path d="M 0.1875 35 L 346 35 L 346 405 L 0.1875 405 Z M 0.1875 35 " clip-rule="nonzero"/></clipPath></defs><path fill="#e9a45d" d="M 222.996094 108.679688 C 136.832031 105.535156 54.496094 163.445312 26.773438 245.296875 C 24.761719 251.71875 31.027344 257.714844 37.355469 256.632812 C 30.886719 289.203125 45.023438 333.046875 81.851562 337.667969 C 89.394531 338.617188 96.976562 338.070312 104.527344 338.761719 C 111.261719 339.378906 147.914062 360 161.640625 364.828125 C 190.535156 374.921875 263.246094 373.074219 292.171875 364.828125 C 293.226562 367.222656 315.6875 275.101562 320.804688 246.539062 C 322.671875 234.164062 305.625 225.003906 306.882812 212.25 C 308.496094 195.871094 327.65625 175.898438 321.785156 160.300781 C 306.3125 120.609375 261.40625 109.535156 222.996094 108.679688 Z M 222.996094 108.679688 " fill-opacity="1" fill-rule="evenodd"/><g clip-path="url(#a941f0bad0)"><path fill="#000000" d="M 180.203125 36.527344 C 184.074219 36.847656 187.96875 37.394531 191.792969 38.113281 C 203.421875 36.210938 215.453125 38.324219 226.726562 41.984375 C 253.132812 50.554688 278.550781 65.441406 298.449219 84.867188 C 308.691406 94.871094 317.070312 106.394531 322.226562 119.792969 C 324.847656 126.59375 326.324219 133.847656 326.75 141.117188 L 326.796875 141.996094 C 326.917969 144.410156 326.972656 147.300781 326.683594 150.167969 C 327.605469 155.949219 328.425781 161.78125 328.488281 167.628906 C 328.519531 170.339844 328.339844 173.046875 328.011719 175.730469 L 328.125 175.988281 C 327.648438 179.195312 327.078125 182.390625 326.425781 185.566406 L 326.265625 185.777344 C 326.175781 186.425781 326.074219 187.070312 325.976562 187.714844 C 325.625 189.347656 325.253906 190.976562 324.863281 192.601562 C 324.015625 196.117188 323.078125 199.609375 322.066406 203.082031 C 321.890625 203.691406 322.058594 204.171875 322.390625 204.488281 C 321.65625 207.128906 320.851562 209.753906 319.957031 212.347656 C 320.394531 214.621094 320.835938 216.890625 321.308594 219.152344 C 323.753906 230.921875 325.828125 242.765625 328.613281 254.46875 C 334.257812 278.214844 342.839844 301.582031 345.199219 325.996094 C 347.03125 344.929688 343.984375 365.632812 332.214844 381.097656 C 322.070312 394.425781 306.8125 402.292969 290.335938 404.390625 C 282.449219 405.402344 274.363281 404.9375 266.652344 402.945312 L 265.8125 402.722656 C 261.949219 401.683594 257.035156 400.054688 253.445312 397.433594 C 249.554688 396.066406 245.878906 393.535156 243.660156 391.0625 C 240.636719 387.6875 237.335938 381.914062 238.160156 377.117188 C 233.660156 377.484375 229.128906 377.585938 224.675781 377.574219 C 213.699219 377.550781 202.625 376.679688 192.070312 373.492188 C 182.652344 370.648438 171.675781 365.894531 166.105469 357.3125 C 165.84375 356.910156 166.277344 356.324219 166.734375 356.480469 C 171.234375 358.0625 175.441406 360.195312 180.082031 361.402344 C 184.652344 362.582031 189.21875 363.699219 193.925781 364.1875 C 203.132812 365.132812 212.480469 365.007812 221.714844 364.550781 L 224.886719 364.386719 C 234.773438 363.855469 244.988281 363.101562 254.234375 359.402344 C 257.859375 357.949219 261.21875 355.925781 264.277344 353.519531 L 264.757812 353.136719 C 266.398438 351.804688 268.089844 350.679688 269.8125 349.617188 C 270.058594 349.300781 270.308594 348.988281 270.554688 348.664062 C 274.46875 343.640625 278.675781 338.796875 282.203125 333.488281 C 289.210938 322.957031 291.914062 312.011719 292.28125 299.449219 C 292.664062 286.1875 292.710938 272.910156 292.867188 259.644531 L 292.925781 255.222656 C 293.125 240.054688 293.15625 224.835938 294.324219 209.703125 C 294.863281 202.671875 295.628906 195.675781 296.804688 188.730469 L 297.066406 187.242188 L 298.964844 176.53125 C 299.425781 173.949219 299.691406 171.289062 300.277344 168.71875 C 299.617188 167.640625 298.859375 166.605469 297.976562 165.617188 C 297.164062 164.703125 296.339844 163.820312 295.515625 162.941406 L 294.921875 162.417969 C 293.566406 161.207031 292.402344 160.050781 291.308594 158.386719 L 291.042969 157.976562 C 289.871094 156.558594 288.765625 155.078125 287.789062 153.453125 L 287.605469 153.136719 C 287.363281 152.828125 287.121094 152.523438 286.867188 152.21875 C 286.085938 151.277344 285.261719 150.386719 284.414062 149.535156 C 281.433594 155.292969 277.214844 160.277344 271.246094 163.394531 C 269.089844 164.523438 266.457031 163.558594 265.75 161.160156 C 263.960938 155.105469 261.25 149.472656 257.664062 144.375 C 251.671875 154.34375 242.171875 162.144531 230.972656 165.949219 C 228.175781 166.898438 225.710938 163.964844 226.371094 161.34375 C 228.390625 153.289062 228.792969 145.09375 227.605469 136.996094 C 223.378906 140.015625 219.019531 142.859375 214.542969 145.496094 C 204.585938 153.195312 194.03125 160.125 182.425781 165.097656 C 179.742188 166.25 175.707031 164.316406 176.925781 160.871094 C 177.949219 157.972656 178.792969 155.023438 179.335938 151.992188 L 179.453125 151.292969 C 179.457031 151.273438 179.460938 151.25 179.460938 151.230469 C 152.578125 188.3125 87.390625 224.046875 82.386719 224.394531 L 82.25 224.394531 C 85.375 227.378906 87.898438 231.066406 89.546875 235.304688 C 91.28125 239.757812 84.214844 241.695312 82.386719 237.4375 L 82.328125 237.296875 C 79.515625 230.074219 72.5625 224.898438 64.996094 223.671875 C 60.421875 224.503906 56.101562 226.707031 53.152344 230.050781 C 47.351562 236.632812 47.296875 244.570312 51.257812 252.054688 L 51.839844 253.148438 C 53.984375 257.148438 56.242188 261.15625 57.449219 265.546875 C 58.925781 270.9375 57.808594 276.402344 58.773438 281.785156 L 58.828125 282.070312 C 59.285156 284.464844 60.273438 287.1875 63.125 286.53125 C 63.34375 286.480469 63.558594 286.414062 63.769531 286.339844 C 64.371094 286.820312 65.09375 287.214844 65.996094 287.480469 C 68.203125 288.121094 70.640625 287.808594 72.835938 287.289062 C 74.960938 286.789062 77.019531 286.003906 79.003906 285.082031 C 79.222656 285.625 79.359375 286.191406 79.371094 286.734375 C 79.4375 289.519531 78.285156 291.8125 76.511719 293.675781 C 79.339844 297.253906 81.757812 301.191406 84.484375 304.84375 C 88.402344 310.085938 92.40625 315.214844 96.664062 320.179688 C 101.097656 325.351562 105.925781 330.242188 110.9375 334.859375 C 114.445312 338.09375 120.25 341.554688 122.449219 346.246094 C 124.980469 347.035156 127.128906 348.972656 127.914062 352.164062 C 129.347656 357.941406 129.765625 371.484375 128.640625 377.363281 C 127.527344 383.1875 123.273438 386.820312 118.570312 389.886719 C 117.269531 390.742188 115.792969 390.652344 114.597656 390.015625 C 113.542969 391.042969 112.351562 391.984375 110.988281 392.824219 C 105.957031 395.929688 100.109375 397.058594 94.316406 397.710938 C 86.492188 400.210938 78.054688 400.871094 69.714844 399.3125 C 66.988281 399.636719 64.261719 399.929688 61.53125 400.167969 C 33.574219 402.601562 5.15625 400.527344 -22.113281 393.871094 C -34.621094 390.816406 -46.4375 385.265625 -57.441406 378.132812 C -76.414062 365.84375 -84.441406 331.34375 -73.433594 298.363281 L -72.5625 295.761719 C -67.601562 281.027344 -62.253906 266.371094 -55.085938 252.625 L -54.226562 250.988281 C -47.636719 238.453125 -40.386719 225.929688 -30.757812 215.46875 C -25.9375 210.234375 -20.335938 205.480469 -14.011719 202.15625 C -11.609375 200.894531 -8.804688 200.023438 -6.066406 199.03125 L -6.007812 198.34375 L -5.949219 197.660156 C -5.769531 195.460938 -5.539062 193.269531 -5.242188 191.082031 C -4.136719 182.898438 -2.574219 174.839844 -0.355469 166.878906 C 1.863281 158.910156 4.59375 151.074219 7.882812 143.480469 C 13.363281 130.808594 20.25 118.789062 28.195312 107.511719 C 28.761719 106.347656 29.339844 105.1875 29.929688 104.035156 C 36.628906 90.941406 45.304688 78.453125 56.5 68.785156 C 69.347656 57.691406 84.820312 50.804688 100.972656 45.96875 C 117.71875 40.957031 135.191406 37.53125 152.644531 36.375 C 161.832031 35.769531 171.03125 35.761719 180.203125 36.527344 Z M 57.71875 246.890625 C 66.128906 241.386719 77.582031 245.160156 81.84375 254.101562 C 84.917969 260.578125 74.746094 264.222656 73.136719 257.769531 C 71.53125 251.300781 64.652344 246.667969 58.042969 247.65625 C 57.585938 247.730469 57.300781 247.160156 57.71875 246.890625 Z M 57.71875 246.890625 " fill-opacity="1" fill-rule="evenodd"/></g></svg>