<svg xmlns="http://www.w3.org/2000/svg" xmlns:xlink="http://www.w3.org/1999/xlink" width="473" zoomAndPan="magnify" viewBox="0 0 354.75 425.249996" height="567" preserveAspectRatio="xMidYMid meet" version="1.0"><defs><clipPath id="aa05b1060d"><path d="M 53.128906 77.03125 L 68 77.03125 L 68 87.152344 L 53.128906 87.152344 Z M 53.128906 77.03125 " clip-rule="nonzero"/></clipPath><clipPath id="9ff1e144b0"><path d="M 55.773438 77.035156 C 64.597656 80.550781 66.578125 81.449219 67.320312 82.621094 C 67.8125 83.523438 68.144531 84.875 67.8125 85.59375 C 67.402344 86.40625 65.667969 87.304688 64.84375 87.035156 C 64.101562 86.855469 63.277344 85.414062 63.195312 84.605469 C 63.113281 83.882812 63.609375 82.800781 64.183594 82.351562 C 64.679688 81.992188 65.835938 81.8125 66.410156 82.082031 C 67.070312 82.261719 67.8125 83.164062 67.894531 83.882812 C 68.0625 84.605469 67.8125 85.773438 67.402344 86.316406 C 66.90625 86.855469 65.917969 87.214844 65.257812 87.125 C 64.597656 87.035156 63.691406 86.40625 63.445312 85.683594 C 63.113281 85.054688 63.113281 83.882812 63.445312 83.253906 C 63.773438 82.621094 64.761719 81.992188 65.421875 81.902344 C 66 81.8125 66.90625 82.082031 67.320312 82.621094 C 67.730469 83.34375 67.976562 85.503906 67.484375 86.136719 C 66.988281 86.855469 65.667969 87.035156 64.351562 86.765625 C 61.792969 86.40625 54.949219 82.621094 53.632812 80.640625 C 53.136719 79.828125 52.972656 78.75 53.300781 78.117188 C 53.632812 77.488281 55.773438 77.035156 55.773438 77.035156 " clip-rule="nonzero"/></clipPath><clipPath id="0167eb3380"><path d="M 41 107 L 60 107 L 60 116 L 41 116 Z M 41 107 " clip-rule="nonzero"/></clipPath><clipPath id="fede93944e"><path d="M 40.644531 112.355469 L 55.328125 102.675781 L 60.898438 111.125 L 46.210938 120.804688 Z M 40.644531 112.355469 " clip-rule="nonzero"/></clipPath><clipPath id="fec108e175"><path d="M 43.277344 110.625 C 53.914062 107.820312 56.363281 107.285156 57.738281 107.78125 C 58.722656 108.210938 59.792969 109.125 59.863281 109.941406 C 59.902344 110.886719 58.691406 112.761719 57.730469 113.074219 C 56.898438 113.40625 55.289062 112.738281 54.761719 112.117188 C 54.285156 111.566406 54.179688 110.34375 54.5 109.59375 C 54.789062 108.96875 55.828125 108.066406 56.546875 107.917969 C 57.296875 107.640625 58.523438 107.910156 59.003906 108.457031 C 59.5625 108.953125 59.964844 110.089844 59.855469 110.808594 C 59.664062 111.582031 58.886719 112.527344 58.183594 112.882812 C 57.484375 113.234375 56.242188 113.296875 55.601562 112.859375 C 54.929688 112.546875 54.285156 111.566406 54.261719 110.828125 C 54.242188 110.085938 54.871094 108.914062 55.472656 108.410156 C 55.992188 107.960938 57.035156 107.597656 57.738281 107.78125 C 58.542969 108.113281 59.976562 109.757812 59.835938 110.605469 C 59.746094 111.527344 58.542969 112.539062 57.09375 113.171875 C 54.371094 114.53125 45.539062 115.824219 43.144531 115.027344 C 42.210938 114.671875 41.453125 113.878906 41.433594 113.136719 C 41.410156 112.394531 43.277344 110.625 43.277344 110.625 " clip-rule="nonzero"/></clipPath><clipPath id="49e438c1f8"><path d="M 222 83 L 241 83 L 241 93 L 222 93 Z M 222 83 " clip-rule="nonzero"/></clipPath><clipPath id="fe849f5f51"><path d="M 222.257812 83.5 L 239.792969 82.09375 L 240.601562 92.179688 L 223.070312 93.585938 Z M 222.257812 83.5 " clip-rule="nonzero"/></clipPath><clipPath id="71ea1ff3d4"><path d="M 225.402344 83.253906 C 236.074219 85.917969 238.476562 86.628906 239.445312 87.726562 C 240.101562 88.578125 240.597656 89.894531 240.265625 90.644531 C 239.84375 91.492188 237.878906 92.550781 236.886719 92.359375 C 235.996094 92.25 234.910156 90.894531 234.746094 90.09375 C 234.59375 89.382812 235.089844 88.257812 235.734375 87.753906 C 236.285156 87.347656 237.632812 87.058594 238.332031 87.273438 C 239.125 87.390625 240.070312 88.21875 240.226562 88.929688 C 240.476562 89.632812 240.28125 90.824219 239.835938 91.402344 C 239.296875 91.988281 238.160156 92.4375 237.378906 92.410156 C 236.59375 92.382812 235.476562 91.84375 235.125 91.148438 C 234.6875 90.550781 234.59375 89.382812 234.929688 88.722656 C 235.269531 88.0625 236.382812 87.339844 237.152344 87.1875 C 237.824219 87.042969 238.917969 87.226562 239.445312 87.726562 C 239.988281 88.40625 240.453125 90.539062 239.921875 91.214844 C 239.394531 91.980469 237.855469 92.285156 236.28125 92.140625 C 233.242188 92.019531 224.878906 88.898438 223.164062 87.046875 C 222.515625 86.285156 222.234375 85.222656 222.574219 84.5625 C 222.914062 83.902344 225.402344 83.253906 225.402344 83.253906 " clip-rule="nonzero"/></clipPath><clipPath id="1c144ac1f2"><path d="M 77 112 L 88 112 L 88 125 L 77 125 Z M 77 112 " clip-rule="nonzero"/></clipPath><clipPath id="d9d82e5f51"><path d="M 76.988281 124.976562 L 77.378906 112.078125 L 87.492188 112.386719 L 87.101562 125.285156 Z M 76.988281 124.976562 " clip-rule="nonzero"/></clipPath><clipPath id="cef85f0426"><path d="M 77.0625 122.636719 C 80.804688 115.117188 81.757812 113.433594 82.945312 112.828125 C 83.859375 112.425781 85.21875 112.183594 85.929688 112.488281 C 86.730469 112.871094 87.585938 114.394531 87.292969 115.097656 C 87.09375 115.734375 85.632812 116.402344 84.820312 116.449219 C 84.097656 116.5 83.03125 116.039062 82.59375 115.527344 C 82.246094 115.089844 82.097656 114.085938 82.382812 113.59375 C 82.578125 113.03125 83.5 112.414062 84.222656 112.367188 C 84.945312 112.246094 86.109375 112.496094 86.640625 112.867188 C 87.167969 113.3125 87.503906 114.179688 87.394531 114.746094 C 87.289062 115.3125 86.632812 116.078125 85.90625 116.269531 C 85.269531 116.535156 84.097656 116.5 83.476562 116.195312 C 82.855469 115.890625 82.25 115.015625 82.175781 114.445312 C 82.101562 113.941406 82.394531 113.167969 82.945312 112.828125 C 83.679688 112.492188 85.84375 112.34375 86.460938 112.789062 C 87.171875 113.242188 87.316406 114.386719 87.011719 115.519531 C 86.582031 117.714844 82.621094 123.515625 80.605469 124.597656 C 79.785156 125 78.699219 125.109375 78.078125 124.804688 C 77.457031 124.503906 77.0625 122.636719 77.0625 122.636719 " clip-rule="nonzero"/></clipPath><clipPath id="fd2bbe312e"><path d="M 256 65 L 269 65 L 269 77 L 256 77 Z M 256 65 " clip-rule="nonzero"/></clipPath><clipPath id="f4677168eb"><path d="M 268.65625 76.570312 L 255.777344 75.75 L 256.421875 65.652344 L 269.296875 66.46875 Z M 268.65625 76.570312 " clip-rule="nonzero"/></clipPath><clipPath id="d818a08f0d"><path d="M 266.320312 76.417969 C 258.925781 72.425781 257.277344 71.417969 256.710938 70.210938 C 256.339844 69.285156 256.140625 67.917969 256.472656 67.214844 C 256.878906 66.429688 258.429688 65.625 259.125 65.941406 C 259.753906 66.160156 260.375 67.644531 260.394531 68.457031 C 260.417969 69.183594 259.925781 70.234375 259.398438 70.652344 C 258.949219 70.984375 257.941406 71.101562 257.460938 70.800781 C 256.902344 70.582031 256.316406 69.644531 256.292969 68.921875 C 256.195312 68.191406 256.484375 67.035156 256.875 66.519531 C 257.335938 66.007812 258.210938 65.703125 258.773438 65.828125 C 259.339844 65.953125 260.082031 66.632812 260.25 67.367188 C 260.492188 68.011719 260.417969 69.183594 260.09375 69.792969 C 259.769531 70.40625 258.875 70.980469 258.300781 71.035156 C 257.796875 71.089844 257.03125 70.773438 256.710938 70.210938 C 256.402344 69.46875 256.324219 67.296875 256.792969 66.695312 C 257.265625 66.003906 258.414062 65.894531 259.535156 66.238281 C 261.71875 66.738281 267.382812 70.886719 268.398438 72.9375 C 268.773438 73.773438 268.847656 74.863281 268.523438 75.472656 C 268.199219 76.085938 266.320312 76.417969 266.320312 76.417969 " clip-rule="nonzero"/></clipPath></defs><path fill="#e9a45d" d="M 51.078125 76.664062 C 54.960938 72.5 59.925781 69.394531 65.355469 68.402344 C 60.390625 70.882812 55.542969 73.464844 51.078125 76.664062 Z M 43.472656 112.589844 C 42.785156 109.414062 42.324219 106.207031 42.179688 103.003906 C 43.046875 104.324219 44.433594 105.203125 45.988281 105.660156 C 44.984375 107.910156 44.128906 110.230469 43.472656 112.589844 Z M 303.277344 162.371094 C 298.796875 143.71875 277.886719 107.835938 272.945312 100.929688 C 267.582031 83.828125 296.847656 70.113281 280.929688 56.742188 C 273.722656 50.707031 264.199219 48.574219 255.265625 46.433594 C 193.402344 31.578125 126.933594 39.070312 69.558594 66.390625 C 60.832031 64.554688 51.738281 68.140625 45.394531 74.445312 C 15.578125 104.414062 56.210938 158.484375 65.09375 192.269531 C 80.339844 229.941406 48.9375 236.277344 52.304688 268.152344 C 54.921875 284.617188 71.601562 288.96875 85.675781 291.460938 C 87.929688 291.988281 90.945312 292.066406 91.671875 294.449219 C 93.953125 308.371094 101.773438 321.632812 112.269531 330.636719 C 111.351562 333.355469 112.050781 336.65625 115.289062 339.042969 C 144.613281 360.835938 181.585938 371.742188 218.160156 369.78125 C 261.746094 367.445312 284.289062 342.460938 289.726562 336.03125 C 319.800781 295.417969 316.207031 241.832031 310.074219 193.429688 C 305.800781 159.710938 311.21875 195.417969 303.277344 162.371094 Z M 303.277344 162.371094 " fill-opacity="1" fill-rule="evenodd"/><path fill="#000000" d="M 168.882812 7.144531 C 170.25 2.859375 174.128906 0.285156 178.570312 0.816406 C 182.5 1.28125 186.707031 5.183594 186.226562 9.488281 C 186.136719 10.316406 186.019531 11.097656 185.875 11.832031 L 185.894531 11.835938 L 185.914062 11.835938 L 185.816406 12.121094 C 185.523438 13.492188 185.121094 14.71875 184.519531 15.878906 C 183.757812 18.105469 183.023438 20.335938 182.296875 22.574219 C 183.347656 22.527344 184.417969 22.589844 185.5 22.789062 C 186.625 19.914062 187.753906 17.046875 188.878906 14.167969 C 190.082031 11.089844 190.929688 7.136719 193.3125 4.753906 C 196.359375 1.714844 201.644531 1.085938 205.355469 3.257812 C 209.28125 5.550781 210.679688 9.621094 209.828125 13.988281 C 209.394531 16.210938 207.90625 17.761719 206.066406 18.734375 L 205.867188 18.839844 L 204.449219 22.191406 C 204.886719 22.003906 205.335938 21.832031 205.820312 21.691406 C 206.585938 21.464844 207.332031 21.324219 208.066406 21.261719 C 210.089844 17.601562 212.3125 14.046875 214.609375 10.558594 C 217.253906 6.542969 222.417969 4.835938 226.753906 7.375 C 230.632812 9.644531 232.714844 15.605469 229.9375 19.519531 C 227.824219 22.492188 225.824219 25.523438 223.855469 28.585938 C 224.195312 28.644531 224.53125 28.71875 224.851562 28.816406 C 225.003906 28.617188 225.160156 28.414062 225.324219 28.210938 C 227.472656 25.546875 229.972656 23.546875 232.542969 21.332031 C 234.945312 19.25 236.054688 15.976562 239.210938 14.398438 C 243.1875 12.414062 247.980469 13.363281 250.34375 17.316406 C 255.421875 25.785156 246.902344 31.96875 241.449219 37.097656 C 246.191406 34.140625 251.125 31.4375 256.183594 29.101562 C 259.03125 27.792969 261.917969 26.527344 264.855469 25.433594 C 269.203125 23.816406 272.722656 24.332031 276.292969 27.34375 C 277.890625 28.691406 278.683594 31.632812 277.949219 33.59375 C 276.527344 37.351562 274.28125 39.636719 270.34375 40.722656 C 267.570312 41.484375 264.734375 42.003906 261.964844 42.804688 C 257.324219 44.136719 252.816406 45.761719 248.445312 47.789062 C 248.757812 47.984375 249.058594 48.195312 249.335938 48.433594 C 252.597656 47.378906 255.921875 46.464844 259.261719 45.6875 C 264.800781 44.386719 270.4375 43.507812 276.097656 42.960938 L 277.976562 42.785156 C 284.765625 42.132812 292.925781 40.933594 297.09375 47.429688 C 298.460938 49.570312 298.613281 53.105469 297.09375 55.222656 C 294.1875 59.296875 291.296875 60.105469 286.492188 60.179688 C 291.222656 60.679688 295.945312 61.304688 300.648438 62.027344 C 303.890625 62.523438 307.128906 63.082031 310.355469 63.703125 L 311.96875 64.019531 C 315.898438 64.808594 320.285156 65.261719 323.664062 67.539062 C 331.03125 72.511719 327.570312 82.191406 319.410156 83.222656 C 315.464844 83.71875 311.085938 82.050781 307.214844 81.269531 C 303.457031 80.515625 299.683594 79.847656 295.894531 79.265625 C 293.933594 78.957031 291.972656 78.6875 290.003906 78.441406 C 294.007812 79.015625 297.984375 79.832031 301.855469 80.984375 L 302.929688 81.308594 C 310.414062 83.589844 320.511719 87.222656 322.847656 95.21875 C 324.261719 100.078125 320.390625 104.316406 315.703125 104.597656 C 311.347656 104.859375 307.714844 102.261719 304.019531 100.347656 C 301.324219 98.953125 298.582031 97.914062 295.675781 97.023438 C 292.675781 96.101562 289.613281 95.339844 286.527344 94.714844 C 289.136719 96.152344 291.675781 97.730469 294.109375 99.496094 L 295.230469 100.324219 C 301.707031 105.152344 311.585938 112.621094 309.304688 121.667969 C 308.585938 124.523438 305.402344 127.246094 302.347656 126.953125 C 294.398438 126.214844 290.011719 117.746094 284.011719 113.207031 C 282.449219 112.027344 280.734375 110.859375 278.9375 109.71875 C 288.027344 120.5625 295.257812 133.09375 300.761719 146.039062 C 312.855469 174.515625 316.566406 200.890625 316.652344 231.511719 L 316.65625 232.457031 C 316.671875 249.347656 316.289062 266.546875 314.640625 283.363281 C 313.113281 298.894531 310.3125 314.230469 303.269531 328.296875 C 291.460938 351.886719 268.457031 370.261719 243.082031 377.253906 C 214.851562 385.039062 183.292969 378.953125 160.167969 360.984375 C 154.265625 356.402344 162.089844 346.453125 168.117188 350.683594 C 192.1875 367.566406 223.316406 372.910156 250.945312 361.484375 C 272.859375 352.425781 290.503906 332.9375 297.984375 310.5 C 302.746094 296.226562 304.128906 281.007812 305.828125 266.128906 L 305.941406 265.136719 C 307.738281 249.582031 308.78125 233.917969 308.765625 218.257812 C 308.742188 189.171875 304.5625 165.226562 291.769531 138.84375 C 285.75 126.414062 277.941406 114.925781 268.613281 104.839844 C 265.78125 105.414062 262.773438 104.605469 259.914062 104.300781 C 258.453125 104.140625 256.992188 103.992188 255.535156 103.859375 C 257.023438 104.820312 258.488281 105.824219 259.925781 106.851562 L 261.8125 108.210938 C 267.710938 112.4375 275.199219 117.25 273.679688 125.421875 C 273.269531 127.628906 271.070312 129.65625 268.933594 130.160156 C 261.199219 132 255.886719 124.484375 250.660156 120.023438 C 246.113281 116.144531 241.359375 112.667969 236.515625 109.1875 C 235.417969 108.402344 234.308594 107.617188 233.191406 106.835938 C 234.242188 108.058594 235.261719 109.300781 236.253906 110.554688 L 237.726562 112.417969 C 242.175781 117.984375 248.585938 125.21875 244.625 132.433594 C 243.503906 134.472656 241.105469 135.828125 238.785156 135.78125 C 230.804688 135.617188 227.628906 126.558594 223.886719 120.839844 C 220.667969 115.933594 217.171875 111.316406 213.554688 106.695312 C 212.558594 105.429688 211.554688 104.164062 210.539062 102.898438 C 193.773438 103.769531 177.070312 105.984375 160.660156 109.527344 C 149.386719 111.957031 138.296875 115.113281 127.292969 118.5625 L 126.378906 118.851562 C 120.421875 120.769531 114.285156 123.226562 109.988281 127.433594 C 109.378906 130.332031 109.847656 133.390625 110.433594 136.289062 L 110.890625 138.503906 C 112.773438 147.773438 114.058594 156.871094 113.097656 166.386719 C 112.101562 176.203125 109.144531 185.03125 105.535156 194.148438 C 103.828125 198.445312 102.0625 197.667969 101.457031 202.28125 C 100.992188 205.792969 101.277344 209.417969 101.59375 212.960938 L 101.859375 215.964844 C 102.527344 223.832031 102.859375 232.40625 97.703125 238.898438 C 96.902344 239.894531 95.1875 239.496094 94.621094 238.5 C 94.394531 238.105469 94.15625 237.722656 93.894531 237.355469 C 91.40625 233.753906 87.597656 231.703125 83.238281 230.910156 C 82.6875 230.8125 82.902344 230.070312 83.367188 230.011719 C 87.050781 229.578125 90.539062 230.496094 93.503906 232.398438 C 92.097656 227.539062 81.214844 229.902344 77.636719 230.847656 L 77.511719 230.878906 C 73.050781 232.078125 68.828125 234.023438 65.105469 236.777344 C 57.621094 242.320312 53.292969 250.957031 53.507812 260.265625 C 53.726562 269.414062 58.449219 277.867188 66.566406 282.246094 C 70.480469 284.355469 74.9375 285.375 79.367188 285.332031 C 83.996094 285.285156 88.113281 283.257812 92.746094 283.542969 C 95.429688 283.707031 97.480469 286.582031 95.929688 289.089844 C 94.898438 290.765625 93.550781 292.082031 91.992188 293.09375 C 95.789062 301.847656 100.632812 310.195312 106.214844 317.898438 C 109.308594 322.171875 112.8125 326.117188 116.667969 329.71875 C 119.679688 332.535156 126.199219 335.792969 125.832031 340.484375 C 125.703125 342.175781 124.828125 343.210938 123.285156 343.839844 C 118.492188 345.800781 112.660156 339.050781 109.453125 335.796875 L 109.195312 335.535156 C 105.199219 331.554688 101.550781 327.152344 98.378906 322.480469 C 92.746094 314.183594 89.25 304.832031 87.808594 295.011719 C 80.117188 297.324219 69.9375 295.152344 63.660156 292.316406 C 43.941406 283.40625 37.496094 256.851562 49.480469 239.167969 C 51.804688 235.746094 54.707031 232.816406 58.015625 230.453125 C 57.289062 230.054688 56.609375 229.546875 56.003906 228.902344 C 52.648438 225.339844 50.277344 220.6875 47.921875 216.402344 L 47.640625 215.890625 C 45.550781 212.117188 43.578125 208.285156 41.730469 204.394531 L 41.042969 202.929688 C 36.917969 194.058594 33.304688 190.179688 30.359375 180.851562 C 27.53125 171.851562 25.300781 162.683594 23.855469 153.351562 L 23.46875 150.882812 C 22.636719 145.472656 21.84375 139.683594 22.453125 134.1875 C 18.253906 135.558594 14.03125 136.402344 9.875 134.34375 C 7.136719 132.988281 5.625 129.035156 6.558594 126.199219 C 7.242188 124.109375 8.378906 122.46875 9.824219 121.183594 C 8.964844 120.75 8.15625 120.195312 7.445312 119.582031 L 6.820312 119.042969 C 4.304688 116.855469 4.125 112.699219 5.652344 109.960938 C 5.804688 109.699219 5.953125 109.429688 6.097656 109.167969 C 7.546875 106.566406 10.550781 104.867188 13.515625 104.914062 C 13.996094 104.921875 14.472656 104.921875 14.960938 104.914062 C 13.574219 104.605469 12.21875 104.136719 10.933594 103.339844 C 5.121094 99.769531 5.855469 90.089844 12.886719 88.382812 C 15.835938 87.671875 19.09375 87.964844 22.34375 88.726562 C 22.222656 88.660156 22.101562 88.59375 21.984375 88.515625 C 19.527344 87.011719 17.46875 84.070312 17.699219 81.054688 C 17.953125 77.714844 19.03125 75.332031 21.984375 73.582031 C 24.542969 72.070312 28.167969 71.925781 30.710938 73.582031 C 32.921875 75.027344 35.085938 76.621094 37.167969 78.335938 C 35.078125 75.765625 33.265625 72.976562 32.53125 70.011719 C 31.625 66.320312 33.136719 62.296875 36.460938 60.351562 C 39.113281 58.800781 41.914062 58.976562 44.414062 60.171875 C 44.277344 58.234375 44.75 56.257812 46.039062 54.503906 C 48.671875 50.910156 53.464844 48.84375 57.636719 51.464844 C 58.179688 51.808594 58.914062 52.402344 59.625 53.128906 C 58.242188 48.71875 59.492188 44.089844 64.214844 42.097656 C 67.097656 40.878906 71 41.492188 73.5 43.597656 C 71.914062 35.007812 84.585938 28.699219 89.515625 37.570312 C 90.632812 39.578125 91.738281 41.695312 92.726562 43.859375 L 93.09375 44.675781 L 93.128906 44.660156 L 92.878906 44.066406 L 92.621094 43.46875 C 91.25 40.289062 89.507812 36.976562 89.027344 33.527344 C 88.324219 28.421875 90.597656 23.578125 96.15625 22.828125 C 99.023438 22.4375 102.210938 23.742188 104.136719 26.019531 C 103.09375 18.097656 111.945312 12.339844 118.316406 18.253906 C 121.332031 21.054688 122.941406 25.148438 124.859375 28.742188 C 125.945312 30.773438 127.050781 32.792969 128.136719 34.828125 C 128.414062 34.5 128.714844 34.171875 129.027344 33.847656 C 127.417969 29.027344 126.167969 24.085938 125.113281 19.113281 C 124.109375 14.429688 126.453125 9.5625 131.289062 8.238281 C 135.683594 7.023438 141.1875 9.734375 142.167969 14.414062 C 142.855469 17.707031 143.671875 20.964844 144.570312 24.207031 C 145.1875 24.054688 145.792969 23.953125 146.390625 23.875 C 146.441406 23.269531 146.496094 22.65625 146.5625 22.046875 L 146.796875 19.878906 C 147.320312 14.933594 147.847656 9.285156 150.433594 5.078125 C 154.84375 -2.109375 166.148438 0.871094 166.269531 9.367188 C 166.335938 13.761719 164.546875 18.121094 163.925781 22.46875 C 163.65625 24.363281 163.5 26.28125 163.410156 28.195312 C 164.613281 21.832031 166.269531 15.550781 168.183594 9.367188 C 168.410156 8.625 168.648438 7.882812 168.882812 7.144531 Z M 71.34375 252.546875 C 81.261719 251.011719 90.328125 256.542969 96.207031 264.292969 C 97.277344 265.707031 96.574219 267.707031 95.609375 268.898438 C 94.910156 269.773438 93.976562 269.878906 92.921875 270.011719 C 91.707031 270.167969 90.171875 269.1875 89.640625 268.132812 C 85.859375 260.585938 79.113281 255.816406 71.34375 252.882812 C 71.199219 252.832031 71.15625 252.574219 71.34375 252.546875 Z M 85.09375 117.332031 L 85.394531 117.007812 C 87.402344 114.925781 84.230469 111.746094 82.21875 113.832031 C 80.101562 116.027344 78.691406 118.699219 77.339844 121.402344 C 76.050781 123.980469 79.921875 126.257812 81.21875 123.667969 L 81.808594 122.492188 C 82.734375 120.664062 83.722656 118.855469 85.09375 117.332031 Z M 57.234375 113.058594 C 60.082031 112.578125 58.875 108.25 56.042969 108.726562 C 52.371094 109.34375 48.714844 110.046875 45.046875 110.667969 C 42.199219 111.144531 43.40625 115.476562 46.238281 115 C 49.910156 114.378906 53.566406 113.675781 57.234375 113.058594 Z M 226.714844 83.5 C 223.964844 82.582031 222.785156 86.917969 225.519531 87.832031 C 229.296875 89.089844 233.042969 90.382812 236.625 92.132812 C 239.214844 93.394531 241.492188 89.523438 238.890625 88.253906 C 234.960938 86.332031 230.859375 84.882812 226.714844 83.5 Z M 56.589844 77.675781 C 53.90625 76.605469 52.738281 80.945312 55.394531 82.007812 L 65.097656 85.890625 C 67.78125 86.964844 68.949219 82.621094 66.292969 81.558594 Z M 260.59375 67.128906 L 260.238281 66.90625 C 257.804688 65.332031 255.550781 69.21875 257.972656 70.785156 C 259.390625 71.707031 261.121094 72.332031 262.421875 73.425781 L 262.691406 73.667969 C 264.792969 75.652344 267.976562 72.484375 265.867188 70.492188 C 264.328125 69.039062 262.375 68.226562 260.59375 67.128906 Z M 260.59375 67.128906 " fill-opacity="1" fill-rule="evenodd"/><g clip-path="url(#aa05b1060d)"><g clip-path="url(#9ff1e144b0)"><path fill="#e7191f" d="M 50.003906 73.433594 L 71.261719 73.433594 L 71.261719 90.820312 L 50.003906 90.820312 Z M 50.003906 73.433594 " fill-opacity="1" fill-rule="nonzero"/></g></g><g clip-path="url(#0167eb3380)"><g clip-path="url(#fede93944e)"><g clip-path="url(#fec108e175)"><path fill="#e7191f" d="M 35.601562 111.371094 L 56.578125 97.539062 L 66.148438 112.054688 L 45.167969 125.886719 Z M 35.601562 111.371094 " fill-opacity="1" fill-rule="nonzero"/></g></g></g><g clip-path="url(#49e438c1f8)"><g clip-path="url(#fe849f5f51)"><g clip-path="url(#71ea1ff3d4)"><path fill="#e7191f" d="M 218.316406 80.207031 L 243.363281 78.195312 L 244.753906 95.523438 L 219.707031 97.535156 Z M 218.316406 80.207031 " fill-opacity="1" fill-rule="nonzero"/></g></g></g><g clip-path="url(#1c144ac1f2)"><g clip-path="url(#d9d82e5f51)"><g clip-path="url(#cef85f0426)"><path fill="#e7191f" d="M 73.308594 127.515625 L 73.867188 109.117188 L 91.246094 109.644531 L 90.6875 128.042969 Z M 73.308594 127.515625 " fill-opacity="1" fill-rule="nonzero"/></g></g></g><g clip-path="url(#fd2bbe312e)"><g clip-path="url(#f4677168eb)"><g clip-path="url(#d818a08f0d)"><path fill="#e7191f" d="M 271.070312 80.328125 L 252.703125 79.164062 L 253.804688 61.8125 L 272.171875 62.976562 Z M 271.070312 80.328125 " fill-opacity="1" fill-rule="nonzero"/></g></g></g></svg>