<svg xmlns="http://www.w3.org/2000/svg" xmlns:xlink="http://www.w3.org/1999/xlink" width="473" zoomAndPan="magnify" viewBox="0 0 354.75 425.249996" height="567" preserveAspectRatio="xMidYMid meet" version="1.0"><path fill="#e9a45d" d="M 146.476562 61.894531 C 259.953125 56.3125 267.878906 89.296875 283.460938 110.324219 C 291.195312 120.757812 311.160156 136.210938 314.472656 171.898438 C 316.773438 196.671875 302.136719 225.222656 302.136719 247.359375 C 302.136719 258.65625 315.96875 282.914062 309.53125 299.382812 C 295.195312 336.039062 264.84375 376.71875 226.167969 376.71875 C 187.488281 376.71875 116.09375 355.402344 73.359375 294.210938 C 59.359375 274.167969 33 67.476562 146.476562 61.894531 Z M 146.476562 61.894531 " fill-opacity="1" fill-rule="evenodd"/><path fill="#ffde59" d="M 311.644531 249.570312 C 309.167969 246.835938 307.242188 244.589844 306.597656 240.832031 C 306.328125 239.265625 306.210938 237.65625 306.15625 236.039062 C 316.105469 222.128906 325.78125 189.273438 325.78125 171.300781 C 325.78125 145.945312 316.429688 121.550781 301.082031 101.375 C 271.164062 62.078125 221.363281 41.929688 172.621094 43.511719 C 125.949219 45.015625 76.308594 62.21875 47.191406 98.996094 C -49.40625 221.011719 31.667969 354.289062 91.046875 382.015625 C 96.214844 384.429688 112.910156 383.59375 110.582031 378.4375 C 103.902344 363.628906 98.636719 336.355469 97.410156 330.214844 C 99.3125 331.496094 101.230469 332.746094 103.152344 334.042969 C 106.558594 336.324219 111.125 338.9375 115.410156 338.183594 C 115.609375 338.144531 115.738281 337.929688 115.746094 337.742188 C 115.941406 333.71875 113.066406 329.585938 110.535156 326.71875 C 107.023438 322.738281 103.683594 318.65625 99.902344 314.921875 C 98.292969 313.324219 96.660156 311.746094 95.03125 310.167969 C 94.820312 300.6875 95.457031 291.164062 97.15625 281.636719 C 100.097656 265.113281 105.175781 249.015625 111.007812 233.171875 C 115.878906 229.578125 120.613281 225.796875 124.992188 221.664062 C 135.539062 211.714844 143.589844 199.542969 150.492188 186.738281 C 150.574219 186.703125 150.664062 186.65625 150.746094 186.621094 C 164.125 180.398438 177.390625 173.9375 190.554688 167.273438 C 197.34375 163.835938 204.089844 160.316406 210.835938 156.800781 C 214.503906 154.882812 218.285156 153.136719 222.035156 151.332031 C 221.023438 156.515625 219.664062 161.621094 218.007812 166.644531 C 216.644531 170.769531 220.808594 173.816406 224.492188 173.136719 C 237.03125 170.816406 249.152344 166.152344 260.0625 159.546875 C 265.464844 156.277344 270.609375 152.496094 275.378906 148.347656 C 280.148438 155.453125 285.941406 162.113281 291.789062 167.851562 C 295.734375 171.722656 299.859375 175.402344 304.144531 178.894531 C 302.203125 192.242188 300.542969 205.621094 298.4375 218.941406 C 297.339844 225.902344 296.011719 232.863281 295.183594 239.863281 C 294.277344 247.496094 296.800781 252.929688 301.824219 258.507812 C 308.84375 266.300781 308.835938 277.578125 306.148438 287.257812 C 305.820312 288.453125 305.410156 289.625 304.980469 290.78125 C 304.890625 291.023438 304.628906 291.671875 304.53125 291.929688 C 304.53125 291.9375 304.53125 291.945312 304.523438 291.957031 C 304.523438 291.964844 304.519531 291.972656 304.519531 291.980469 C 304.511719 291.980469 304.511719 291.988281 304.503906 291.996094 L 304.503906 292.019531 L 304.496094 292.027344 C 304.179688 292.757812 303.84375 293.476562 303.507812 294.195312 C 301.972656 297.4375 300.257812 300.605469 298.476562 303.722656 C 289.714844 319.097656 278.652344 333.164062 266.042969 345.578125 C 260.171875 351.359375 254.070312 356.734375 247.175781 361.136719 C 245.722656 362.058594 244.242188 362.949219 242.722656 363.765625 C 241.90625 364.207031 241.066406 364.617188 240.230469 365.035156 C 239 365.644531 239.511719 365.402344 238.761719 365.703125 C 237.40625 366.234375 236.019531 366.699219 234.605469 367.066406 C 233.851562 367.261719 233.085938 367.425781 232.316406 367.566406 C 232.308594 367.566406 232.292969 367.574219 232.269531 367.574219 C 232.261719 367.574219 232.253906 367.582031 232.246094 367.574219 C 232.238281 367.582031 232.226562 367.582031 232.210938 367.582031 C 231.925781 367.605469 231.417969 367.648438 231.320312 367.648438 C 220.566406 367.6875 209.90625 366.242188 199.5 363.570312 C 193.863281 362.117188 188.234375 360.359375 182.933594 357.941406 C 180.238281 356.703125 177.601562 355.335938 175.078125 353.785156 C 173.949219 353.089844 172.878906 352.25 171.6875 351.644531 C 169.90625 350.730469 168.160156 350.828125 166.238281 350.746094 C 163.300781 350.625 161.21875 353.695312 161.9375 356.390625 C 162.816406 359.675781 164.191406 361.617188 167.023438 363.570312 C 169.285156 365.128906 171.679688 366.503906 174.121094 367.753906 C 179.4375 370.488281 185.058594 372.710938 190.75 374.53125 C 201.402344 377.929688 212.617188 380.019531 223.773438 380.78125 C 231.894531 381.335938 238.933594 380.25 246.332031 376.828125 C 254.140625 373.210938 261.140625 367.816406 267.617188 362.214844 C 282.117188 349.679688 294.734375 334.476562 305.429688 318.609375 C 315.484375 303.699219 323.289062 287.457031 320.71875 268.945312 C 319.695312 261.515625 316.667969 255.125 311.644531 249.570312 " fill-opacity="1" fill-rule="evenodd"/></svg>