<svg xmlns="http://www.w3.org/2000/svg" xmlns:xlink="http://www.w3.org/1999/xlink" width="473" zoomAndPan="magnify" viewBox="0 0 354.75 425.249996" height="567" preserveAspectRatio="xMidYMid meet" version="1.0"><defs><clipPath id="a9afb33530"><path d="M 0.1875 28 L 354.3125 28 L 354.3125 369 L 0.1875 369 Z M 0.1875 28 " clip-rule="nonzero"/></clipPath></defs><path fill="#e9a45d" d="M 291.820312 112.15625 C 246.800781 82.355469 156.609375 85.59375 107.050781 103.851562 C 58.695312 119.1875 41.765625 161.917969 33.738281 208.082031 C 23.976562 259.96875 25.289062 334.765625 95.464844 333.859375 C 105.332031 338.628906 116.261719 340.699219 126.472656 344.652344 C 140.441406 349.480469 154.140625 355.089844 168.320312 359.320312 C 196.242188 368.3125 227.316406 367.53125 253.804688 354.371094 C 268.441406 347.300781 274.5 336.292969 284.070312 324.5625 C 311.914062 290.433594 325.921875 241.589844 324.667969 198.195312 C 322.464844 167.636719 317.410156 132.261719 291.820312 112.15625 Z M 291.820312 112.15625 " fill-opacity="1" fill-rule="evenodd"/><g clip-path="url(#a9afb33530)"><path fill="#000000" d="M 348.789062 237.941406 C 344.171875 209.269531 342.890625 180.105469 336.839844 151.65625 C 331.152344 124.886719 320.511719 99.585938 301.921875 79.175781 C 285.289062 60.917969 263.777344 47.507812 240.6875 39.011719 C 195.707031 22.457031 143.972656 26.199219 100.460938 45.523438 C 59.734375 63.605469 27.246094 97.054688 8.3125 137.199219 C -3.988281 163.285156 -10.171875 191.015625 -12.917969 219.636719 C -15.964844 251.433594 -16.296875 283.558594 -17.539062 315.46875 C -17.6875 319.40625 -17.90625 323.34375 -17.957031 327.28125 C -18.015625 331.59375 -16.273438 335.375 -14.851562 339.386719 C -14.753906 339.671875 -14.609375 339.941406 -14.4375 340.199219 C -15.507812 340.332031 -16.578125 340.488281 -17.652344 340.660156 C -18.847656 340.847656 -18.796875 342.792969 -17.652344 343.027344 C -7.957031 345.003906 2.007812 345.28125 11.871094 345.765625 C 22.089844 346.277344 32.324219 346.554688 42.558594 346.898438 C 52.539062 347.234375 62.519531 347.570312 72.496094 347.910156 C 77.738281 348.089844 82.980469 348.269531 88.21875 348.441406 C 90.714844 348.523438 93.207031 348.613281 95.707031 348.695312 C 96.949219 348.738281 98.199219 348.777344 99.441406 348.820312 C 100.453125 348.851562 102.101562 349.496094 102.207031 348.753906 C 102.394531 348.867188 102.59375 348.964844 102.8125 349.03125 C 103.050781 349.160156 103.285156 349.308594 103.507812 349.472656 C 104.726562 350.3125 106.578125 350.207031 107.8125 349.472656 C 107.925781 349.40625 108.046875 349.332031 108.164062 349.257812 C 109.085938 348.710938 109.730469 347.914062 110.089844 347.015625 C 115.210938 353.203125 124.277344 346.253906 119.035156 339.710938 C 116.21875 336.191406 88.21875 249.921875 99.808594 184.203125 L 146.289062 178.046875 C 151.953125 177.472656 160.054688 176.617188 170.597656 175.472656 C 173.179688 167.050781 174.835938 161.488281 175.574219 158.777344 C 175.660156 158.476562 175.742188 158.171875 175.832031 157.871094 C 176.9375 159.824219 178.054688 161.773438 179.175781 163.71875 L 184.910156 175.375 C 241.34375 174.433594 276.476562 174.003906 290.3125 174.09375 C 290.664062 174.09375 292.332031 199.324219 291.578125 210.4375 C 290.050781 232.746094 288.425781 255.042969 286.164062 277.292969 C 284.71875 291.539062 281.242188 305.511719 276.058594 318.644531 C 267.875 339.386719 244.109375 359.105469 220.9375 359.105469 C 206.515625 359.105469 173.921875 347.421875 169.175781 345.0625 C 164.429688 342.703125 161.601562 349.144531 165.925781 351.71875 C 174.6875 356.9375 198.839844 368.003906 220.9375 368.003906 C 253.027344 368.003906 277.253906 337.554688 280.226562 333.1875 C 309.449219 331.585938 339.335938 332.328125 368.519531 335.226562 C 370.964844 335.464844 373.078125 332.515625 372.292969 330.261719 C 361.808594 300.261719 353.835938 269.320312 348.789062 237.941406 Z M 348.789062 237.941406 " fill-opacity="1" fill-rule="evenodd"/></g></svg>