<svg xmlns="http://www.w3.org/2000/svg" xmlns:xlink="http://www.w3.org/1999/xlink" width="473" zoomAndPan="magnify" viewBox="0 0 354.75 425.249996" height="567" preserveAspectRatio="xMidYMid meet" version="1.0"><defs><clipPath id="c6eb861d35"><path d="M 0.1875 10 L 341 10 L 341 415 L 0.1875 415 Z M 0.1875 10 " clip-rule="nonzero"/></clipPath><clipPath id="1e8959c7c9"><path d="M 70.8125 234.171875 L 92.882812 234.171875 L 92.882812 256.9375 L 70.8125 256.9375 Z M 70.8125 234.171875 " clip-rule="nonzero"/></clipPath><clipPath id="a7f3601059"><path d="M 70.894531 237.699219 C 70.894531 237.699219 70.992188 237.476562 70.992188 237.367188 C 70.992188 237.257812 70.992188 237.148438 70.992188 237.148438 C 70.992188 237.148438 71.089844 236.925781 71.089844 236.816406 C 71.089844 236.707031 71.1875 236.597656 71.1875 236.597656 C 71.1875 236.597656 71.285156 236.375 71.285156 236.375 C 71.382812 236.265625 71.382812 236.265625 71.480469 236.15625 C 71.480469 236.15625 71.480469 236.046875 71.480469 235.9375 C 71.578125 235.9375 71.675781 235.714844 71.675781 235.714844 C 71.675781 235.714844 71.773438 235.605469 71.871094 235.496094 C 71.871094 235.386719 71.96875 235.273438 72.066406 235.273438 C 72.066406 235.273438 72.164062 235.164062 72.261719 235.164062 C 72.359375 235.054688 72.457031 234.945312 72.457031 234.945312 C 72.457031 234.945312 72.652344 234.945312 72.75 234.832031 C 72.847656 234.832031 72.945312 234.722656 72.945312 234.722656 C 72.945312 234.722656 73.140625 234.722656 73.238281 234.722656 C 73.339844 234.722656 73.535156 234.613281 73.535156 234.613281 C 73.535156 234.613281 73.730469 234.503906 73.828125 234.503906 C 73.828125 234.394531 74.023438 234.394531 74.023438 234.394531 C 74.023438 234.394531 74.21875 234.394531 74.316406 234.394531 C 74.414062 234.28125 74.609375 234.28125 74.609375 234.28125 C 74.609375 234.28125 74.804688 234.394531 74.902344 234.394531 C 75 234.394531 75.195312 234.394531 75.195312 234.394531 C 75.195312 234.394531 75.390625 234.503906 75.488281 234.503906 C 75.488281 234.613281 75.585938 234.613281 75.585938 234.613281 C 75.882812 234.722656 76.664062 234.832031 77.152344 234.945312 C 77.835938 235.054688 78.523438 235.164062 79.207031 235.496094 C 79.890625 235.714844 80.476562 235.9375 81.164062 236.265625 C 81.847656 236.707031 82.921875 237.476562 83.117188 237.589844 C 83.117188 237.699219 83.117188 237.699219 83.21875 237.699219 C 83.316406 237.808594 83.511719 237.917969 83.804688 238.027344 C 84.195312 238.46875 85.074219 239.242188 85.664062 239.792969 C 86.152344 240.234375 86.542969 240.671875 87.03125 241.113281 C 87.617188 241.554688 88.304688 241.996094 88.695312 242.4375 C 89.085938 242.878906 89.378906 243.429688 89.574219 243.648438 C 89.574219 243.648438 89.574219 243.648438 89.671875 243.757812 C 89.867188 243.980469 90.554688 245.082031 90.945312 245.523438 C 91.140625 245.851562 91.238281 245.960938 91.433594 246.292969 C 91.824219 246.953125 92.410156 248.167969 92.605469 249.15625 C 92.800781 250.039062 92.898438 251.25 92.703125 252.132812 C 92.605469 252.902344 92.117188 254.003906 91.824219 254.335938 C 91.726562 254.445312 91.628906 254.445312 91.628906 254.558594 C 91.53125 254.667969 91.628906 254.777344 91.53125 254.777344 C 91.433594 254.886719 91.335938 254.886719 91.140625 254.996094 C 90.945312 255.21875 90.554688 255.769531 90.160156 255.988281 C 89.867188 256.210938 89.378906 256.210938 88.988281 256.320312 C 88.597656 256.539062 88.304688 256.871094 87.910156 256.871094 C 87.324219 256.980469 86.347656 256.761719 85.761719 256.539062 C 85.367188 256.429688 84.878906 256.097656 84.78125 255.988281 C 84.683594 255.988281 84.683594 255.988281 84.683594 255.988281 C 84.683594 255.988281 84.585938 255.878906 84.585938 255.878906 C 84.488281 255.878906 84.292969 255.769531 84 255.546875 C 83.707031 255.21875 82.824219 254.226562 82.628906 253.894531 C 82.53125 253.785156 82.53125 253.785156 82.53125 253.675781 C 82.335938 253.234375 81.554688 252.242188 81.261719 251.691406 C 81.164062 251.25 81.066406 250.808594 80.96875 250.699219 C 80.96875 250.699219 80.96875 250.699219 80.96875 250.589844 C 80.871094 250.480469 80.671875 249.707031 80.574219 249.378906 C 80.476562 249.046875 80.28125 248.496094 80.183594 248.386719 C 80.085938 248.277344 79.988281 248.054688 79.988281 248.054688 C 79.988281 248.054688 79.5 246.84375 79.402344 246.734375 C 79.402344 246.625 79.402344 246.625 79.304688 246.625 C 79.207031 246.402344 78.914062 245.632812 78.621094 245.082031 C 78.425781 244.75 78.230469 244.417969 77.835938 243.980469 C 77.347656 243.429688 76.566406 242.765625 75.980469 242.328125 C 75.390625 241.777344 74.316406 241.113281 74.21875 241.003906 C 74.21875 241.003906 74.121094 240.894531 74.023438 240.894531 C 74.023438 240.785156 73.828125 240.671875 73.828125 240.671875 C 73.828125 240.671875 73.828125 240.5625 73.730469 240.453125 C 73.632812 240.34375 72.945312 240.121094 72.75 240.011719 C 72.652344 240.011719 72.554688 240.011719 72.457031 239.902344 C 72.359375 239.902344 72.261719 239.902344 72.261719 239.902344 C 72.261719 239.902344 72.066406 239.792969 72.066406 239.792969 C 71.96875 239.683594 71.773438 239.570312 71.773438 239.570312 C 71.773438 239.570312 71.675781 239.460938 71.578125 239.460938 C 71.578125 239.351562 71.382812 239.242188 71.382812 239.242188 C 71.382812 239.242188 71.382812 239.019531 71.285156 239.019531 C 71.285156 238.910156 71.1875 238.800781 71.1875 238.800781 C 71.1875 238.800781 71.089844 238.582031 71.089844 238.46875 C 70.992188 238.359375 70.992188 238.25 70.992188 238.25 C 70.992188 238.25 70.992188 238.027344 70.992188 237.917969 C 70.894531 237.808594 70.894531 237.699219 70.894531 237.699219 " clip-rule="nonzero"/></clipPath><clipPath id="e53d5ac505"><path d="M 60.667969 233.152344 L 94.265625 233.152344 L 94.265625 259.804688 L 60.667969 259.804688 Z M 60.667969 233.152344 " clip-rule="nonzero"/></clipPath><clipPath id="4777d2a398"><path d="M 68.816406 236.546875 C 69.027344 235.199219 70.808594 236.179688 70.914062 236.671875 C 71.019531 237.039062 70.808594 237.652344 70.597656 237.773438 C 69.96875 238.140625 66.828125 236.792969 66.722656 236.179688 C 66.617188 235.933594 66.933594 235.445312 67.246094 235.320312 C 68.085938 235.074219 71.542969 236.792969 71.960938 237.652344 C 72.171875 238.019531 72.066406 238.507812 71.855469 238.753906 C 71.226562 239.246094 66.933594 237.652344 66.511719 236.914062 C 66.304688 236.546875 66.40625 235.933594 66.617188 235.8125 C 66.933594 235.566406 67.875 236.058594 68.714844 236.300781 C 69.65625 236.671875 71.960938 237.160156 72.277344 237.894531 C 72.484375 238.140625 72.378906 238.753906 72.171875 239 C 71.542969 239.488281 66.617188 237.773438 66.511719 237.160156 C 66.40625 236.792969 67.035156 236.179688 67.5625 236.179688 C 68.609375 235.933594 72.484375 237.652344 72.90625 238.507812 C 73.113281 238.875 73.113281 239.488281 72.90625 239.613281 C 72.277344 240.101562 67.351562 238.386719 66.828125 237.527344 C 66.617188 237.160156 66.617188 236.546875 66.828125 236.300781 C 67.035156 236.058594 67.875 236.300781 68.609375 236.546875 C 70.285156 237.160156 75.523438 239.488281 75.839844 240.59375 C 75.941406 241.082031 75.734375 241.695312 75.316406 241.820312 C 74.371094 242.1875 68.398438 238.265625 68.398438 237.652344 C 68.503906 237.28125 69.65625 237.039062 70.496094 237.28125 C 72.066406 237.652344 75 240.101562 76.992188 242.675781 C 79.714844 245.863281 82.335938 253.710938 84.535156 256.164062 C 85.6875 257.511719 86.734375 258.371094 87.886719 258.492188 C 89.039062 258.492188 91.03125 257.023438 91.765625 255.917969 C 92.5 255.058594 92.707031 253.957031 92.8125 252.851562 C 92.8125 251.75 92.601562 250.648438 92.078125 249.421875 C 91.136719 247.214844 88.832031 244.027344 86.734375 241.820312 C 84.746094 239.734375 79.714844 237.28125 79.925781 236.425781 C 79.925781 236.058594 81.078125 235.933594 81.707031 236.058594 C 82.648438 236.300781 83.800781 237.28125 84.851562 238.386719 C 86.316406 239.859375 89.25 244.269531 89.144531 244.394531 C 88.9375 244.640625 83.488281 239.859375 83.171875 238.632812 C 83.171875 238.265625 83.382812 237.652344 83.695312 237.652344 C 84.011719 237.40625 84.953125 238.265625 85.6875 238.753906 C 86.839844 239.734375 89.144531 241.695312 89.566406 242.921875 C 89.773438 243.535156 89.667969 244.394531 89.460938 244.515625 C 88.621094 244.882812 82.125 238.753906 82.019531 237.40625 C 81.914062 237.039062 82.335938 236.546875 82.648438 236.425781 C 83.382812 236.300781 84.953125 237.527344 86.003906 238.632812 C 87.257812 239.980469 89.667969 244.269531 89.460938 244.394531 C 89.25 244.761719 84.117188 240.46875 84.011719 239.367188 C 84.011719 238.875 84.324219 238.386719 84.746094 238.386719 C 85.582031 238.140625 88.414062 240.714844 89.667969 242.308594 C 90.820312 243.78125 92.394531 246.476562 92.289062 247.457031 C 92.289062 247.949219 91.660156 248.441406 91.660156 248.441406 C 91.660156 248.441406 92.289062 247.335938 92.289062 247.335938 C 92.289062 247.214844 91.765625 248.316406 91.449219 248.195312 C 90.613281 248.070312 89.773438 244.515625 88.308594 242.675781 C 86.421875 240.46875 80.660156 237.039062 80.761719 236.546875 C 80.867188 236.300781 83.382812 236.914062 84.535156 237.652344 C 85.792969 238.507812 87.050781 239.859375 88.097656 241.453125 C 89.25 243.289062 91.242188 247.828125 91.136719 247.828125 C 91.03125 247.949219 88.203125 244.027344 88.308594 243.167969 C 88.414062 242.675781 88.832031 242.308594 89.25 242.433594 C 89.984375 242.554688 91.765625 245.742188 92.5 247.089844 C 93.023438 247.949219 93.652344 249.054688 93.441406 249.542969 C 93.441406 249.910156 92.917969 250.402344 92.601562 250.277344 C 91.765625 250.15625 89.355469 245.128906 89.355469 244.027344 C 89.355469 243.535156 89.773438 243.167969 89.984375 243.046875 C 90.296875 243.046875 90.71875 243.535156 91.03125 244.027344 C 91.660156 244.882812 92.917969 248.441406 92.707031 248.683594 C 92.394531 248.808594 89.460938 245.496094 89.460938 244.515625 C 89.355469 244.148438 89.667969 243.660156 89.878906 243.660156 C 90.195312 243.535156 90.71875 243.902344 91.136719 244.515625 C 92.078125 245.742188 94.28125 250.15625 94.175781 252.363281 C 94.070312 254.078125 92.917969 255.796875 91.765625 256.777344 C 90.402344 257.878906 87.574219 258.371094 86.210938 258.246094 C 85.476562 258.125 84.953125 257.878906 84.429688 257.390625 C 83.800781 256.652344 83.382812 255.550781 83.171875 254.203125 C 82.753906 252.484375 82.441406 248.5625 82.964844 247.582031 C 83.171875 247.214844 83.695312 247.089844 84.011719 247.214844 C 84.535156 247.457031 85.476562 250.035156 85.375 250.15625 C 84.953125 250.523438 78.351562 239.734375 75 237.652344 C 72.695312 236.300781 68.1875 237.039062 68.085938 236.425781 C 67.980469 236.058594 69.132812 235.199219 69.867188 235.074219 C 71.019531 234.707031 74.6875 235.6875 74.6875 235.933594 C 74.6875 236.179688 66.304688 236.546875 66.199219 236.058594 C 66.09375 235.8125 69.132812 234.464844 70.496094 234.339844 C 71.855469 234.09375 74.058594 234.464844 74.476562 235.074219 C 74.6875 235.320312 74.6875 235.933594 74.476562 236.300781 C 73.847656 237.039062 68.085938 236.792969 67.351562 236.058594 C 67.140625 235.8125 67.140625 235.199219 67.351562 234.953125 C 67.664062 234.464844 68.921875 234.21875 70.074219 234.09375 C 71.753906 234.09375 75.941406 234.832031 76.570312 235.6875 C 76.886719 236.058594 76.886719 236.671875 76.675781 236.914062 C 76.046875 237.773438 68.398438 236.792969 67.5625 235.8125 C 67.351562 235.445312 67.351562 234.953125 67.5625 234.585938 C 68.085938 234.09375 70.179688 233.851562 71.542969 233.851562 C 73.007812 233.972656 75.734375 234.339844 76.257812 235.074219 C 76.46875 235.320312 76.570312 235.933594 76.363281 236.179688 C 75.839844 236.914062 69.65625 236.671875 68.921875 235.8125 C 68.609375 235.566406 68.609375 234.953125 68.816406 234.707031 C 69.132812 234.09375 70.808594 233.851562 71.960938 233.851562 C 73.21875 233.851562 75.734375 234.21875 76.152344 234.832031 C 76.363281 235.074219 76.363281 235.6875 76.046875 236.058594 C 75.316406 236.792969 69.132812 236.546875 68.398438 235.8125 C 68.1875 235.445312 68.1875 234.953125 68.398438 234.585938 C 68.714844 234.09375 70.179688 233.972656 71.226562 233.972656 C 72.484375 233.851562 74.582031 233.851562 75.417969 234.339844 C 75.839844 234.585938 76.363281 235.320312 76.257812 235.566406 C 75.941406 236.300781 68.398438 236.058594 67.664062 235.074219 C 67.351562 234.832031 67.351562 234.21875 67.5625 233.972656 C 67.980469 233.359375 69.761719 233.238281 71.125 233.238281 C 73.007812 233.238281 77.828125 234.21875 78.144531 235.074219 C 78.25 235.320312 78.039062 235.933594 77.621094 236.058594 C 76.675781 236.546875 71.019531 234.832031 71.019531 234.585938 C 71.019531 234.339844 74.265625 234.339844 75.628906 234.464844 C 76.78125 234.707031 78.457031 235.074219 78.773438 235.566406 C 78.878906 235.933594 78.773438 236.546875 78.457031 236.792969 C 77.515625 237.40625 73.113281 235.566406 70.496094 235.566406 C 68.1875 235.566406 64.417969 237.28125 63.683594 236.546875 C 63.371094 236.300781 63.371094 235.566406 63.578125 235.199219 C 64.207031 234.464844 69.761719 235.199219 70.703125 235.933594 C 71.125 236.179688 71.332031 236.671875 71.332031 236.914062 C 71.226562 237.28125 70.703125 237.40625 70.074219 237.527344 C 68.714844 237.652344 62.742188 235.933594 62.742188 235.8125 C 62.742188 235.6875 69.550781 235.8125 70.074219 236.671875 C 70.390625 237.039062 70.285156 237.652344 69.96875 237.894531 C 69.34375 238.632812 64.3125 238.140625 63.789062 237.40625 C 63.578125 237.160156 63.789062 236.425781 64 236.179688 C 64.417969 235.8125 66.09375 236.546875 67.246094 236.792969 C 68.503906 237.039062 70.808594 237.40625 71.226562 238.019531 C 71.4375 238.386719 71.226562 239.246094 71.226562 239.246094 C 71.226562 239.246094 71.226562 238.019531 71.226562 238.019531 C 71.125 238.019531 71.125 239.121094 70.703125 239.367188 C 70.074219 239.613281 67.246094 237.894531 66.828125 237.039062 C 66.617188 236.546875 66.617188 235.8125 67.035156 235.566406 C 67.980469 234.832031 76.675781 239.121094 77.304688 240.59375 C 77.410156 240.960938 77.304688 241.574219 76.992188 241.820312 C 76.152344 242.308594 71.648438 238.386719 69.027344 237.527344 C 66.511719 236.671875 62.21875 237.40625 61.691406 236.671875 C 61.589844 236.300781 61.691406 235.8125 62.007812 235.445312 C 62.742188 234.707031 66.40625 234.585938 68.085938 234.464844 C 69.34375 234.464844 70.914062 234.09375 71.226562 234.585938 C 71.542969 234.832031 71.542969 235.566406 71.226562 235.8125 C 70.597656 236.671875 64.3125 236.300781 64.3125 235.933594 C 64.3125 235.6875 70.179688 233.238281 70.914062 233.851562 C 71.125 234.09375 71.125 234.832031 70.914062 235.199219 C 70.179688 236.058594 64.417969 237.160156 63.683594 236.546875 C 63.371094 236.300781 63.371094 235.6875 63.578125 235.320312 C 64 234.585938 66.199219 234.09375 67.457031 233.851562 C 68.503906 233.726562 70.074219 233.359375 70.496094 233.851562 C 70.703125 234.09375 70.808594 234.707031 70.597656 235.074219 C 69.96875 236.058594 63.054688 236.425781 62.949219 236.179688 C 62.949219 235.933594 66.40625 234.464844 67.980469 234.339844 C 69.550781 234.21875 71.960938 234.707031 72.589844 235.445312 C 73.007812 235.8125 73.21875 236.546875 73.007812 236.914062 C 72.378906 237.894531 62.636719 237.039062 62.636719 236.671875 C 62.53125 236.425781 64.417969 235.8125 65.359375 235.6875 C 66.40625 235.6875 68.085938 235.6875 68.398438 236.179688 C 68.609375 236.425781 68.714844 237.160156 68.398438 237.40625 C 67.875 238.140625 64.101562 237.773438 62.742188 237.527344 C 61.902344 237.28125 60.75 236.914062 60.75 236.671875 C 60.75 236.300781 61.796875 235.933594 62.636719 235.6875 C 63.894531 235.445312 66.828125 235.320312 67.5625 235.933594 C 67.769531 236.179688 67.980469 236.671875 67.875 237.039062 C 67.457031 237.652344 61.796875 238.386719 61.273438 237.652344 C 61.0625 237.40625 61.167969 236.546875 61.484375 236.179688 C 62.007812 235.566406 63.789062 235.445312 65.152344 235.445312 C 66.511719 235.445312 69.238281 235.445312 69.65625 236.179688 C 69.96875 236.425781 69.96875 237.160156 69.65625 237.527344 C 68.921875 238.265625 62.742188 238.019531 61.796875 237.28125 C 61.484375 237.039062 61.378906 236.546875 61.484375 236.179688 C 61.691406 235.445312 63.894531 234.707031 65.464844 234.339844 C 67.140625 233.972656 69.34375 233.851562 71.4375 234.21875 C 73.742188 234.707031 76.675781 235.8125 78.457031 237.160156 C 79.925781 238.265625 81.285156 241.207031 81.707031 241.082031 C 81.8125 240.960938 81.8125 239.980469 81.8125 239.980469 C 81.707031 239.980469 81.707031 240.960938 81.390625 241.082031 C 80.761719 241.328125 78.980469 238.632812 77.410156 237.773438 C 75.734375 236.792969 73.429688 236.058594 71.4375 235.6875 C 69.445312 235.320312 67.246094 235.320312 65.570312 235.6875 C 64.207031 235.933594 62.53125 237.527344 61.902344 237.28125 C 61.589844 237.160156 61.378906 236.425781 61.589844 236.058594 C 62.007812 235.320312 67.664062 235.566406 69.027344 235.933594 C 69.550781 236.058594 70.074219 236.300781 70.074219 236.546875 C 70.179688 236.792969 69.867188 237.28125 69.550781 237.527344 C 68.398438 238.140625 61.902344 238.507812 61.273438 237.652344 C 61.0625 237.40625 61.167969 236.671875 61.378906 236.425781 C 62.113281 235.6875 66.722656 235.199219 67.351562 235.933594 C 67.664062 236.179688 67.664062 237.039062 67.351562 237.28125 C 66.722656 238.019531 60.75 236.914062 60.75 236.671875 C 60.75 236.425781 66.09375 235.8125 67.457031 235.933594 C 67.980469 236.058594 68.503906 236.179688 68.609375 236.425781 C 68.714844 236.671875 68.503906 237.28125 68.1875 237.527344 C 67.351562 238.019531 63.054688 238.019531 62.320312 237.28125 C 62.007812 236.792969 62.007812 235.8125 62.320312 235.320312 C 63.265625 234.21875 69.445312 234.953125 71.226562 235.199219 C 72.171875 235.320312 73.007812 235.445312 73.21875 235.8125 C 73.324219 236.058594 73.21875 236.671875 72.90625 236.914062 C 72.171875 237.28125 69.867188 235.8125 68.292969 235.6875 C 66.617188 235.445312 63.371094 236.671875 62.949219 236.179688 C 62.84375 235.933594 63.054688 235.445312 63.371094 235.074219 C 64.207031 234.339844 68.085938 233.851562 69.445312 233.851562 C 69.96875 233.851562 70.597656 233.726562 70.703125 233.972656 C 70.914062 234.21875 70.808594 234.832031 70.496094 235.199219 C 69.65625 235.933594 63.371094 235.933594 63.371094 235.6875 C 63.371094 235.445312 70.179688 233.238281 70.914062 233.851562 C 71.125 234.09375 71.125 234.832031 70.914062 235.199219 C 70.285156 235.933594 64.3125 236.179688 64.3125 235.933594 C 64.3125 235.8125 68.503906 234.585938 69.761719 234.464844 C 70.496094 234.464844 71.332031 234.339844 71.542969 234.707031 C 71.648438 234.953125 71.542969 235.566406 71.226562 235.8125 C 70.285156 236.792969 62.21875 237.40625 61.691406 236.671875 C 61.589844 236.300781 61.796875 235.6875 62.113281 235.445312 C 63.054688 234.832031 66.617188 235.6875 68.921875 236.300781 C 71.226562 236.914062 74.476562 238.632812 75.941406 239.613281 C 76.675781 239.980469 77.304688 240.347656 77.410156 240.839844 C 77.515625 241.082031 77.304688 241.574219 76.992188 241.820312 C 75.839844 242.308594 67.980469 238.632812 67.035156 237.039062 C 66.722656 236.546875 66.722656 235.6875 67.035156 235.566406 C 67.457031 235.199219 71.125 237.28125 71.332031 238.140625 C 71.4375 238.507812 70.703125 239.367188 70.703125 239.367188 C 70.703125 239.367188 71.226562 238.140625 71.332031 238.140625 C 71.4375 238.140625 71.4375 239 71.226562 239.246094 C 70.496094 239.859375 64.417969 238.386719 63.789062 237.40625 C 63.578125 237.039062 63.683594 236.425781 64 236.179688 C 64.730469 235.566406 69.65625 235.933594 70.074219 236.671875 C 70.285156 236.914062 70.179688 237.652344 69.867188 237.894531 C 69.027344 238.507812 62.742188 236.179688 62.742188 235.8125 C 62.742188 235.445312 70.285156 235.199219 70.914062 236.058594 C 71.125 236.425781 71.019531 237.160156 70.808594 237.40625 C 69.96875 238.140625 64.207031 237.40625 63.578125 236.546875 C 63.265625 236.179688 63.265625 235.566406 63.578125 235.199219 C 64.523438 234.09375 73.429688 234.585938 76.046875 234.832031 C 77.304688 235.074219 78.5625 235.199219 78.773438 235.566406 C 78.878906 235.933594 78.457031 236.792969 78.457031 236.792969 C 78.351562 236.671875 78.667969 235.445312 78.667969 235.445312 C 78.667969 235.445312 78.773438 236.425781 78.457031 236.671875 C 77.621094 237.28125 71.019531 235.074219 71.125 234.707031 C 71.125 234.464844 76.992188 233.851562 77.722656 234.585938 C 77.933594 234.953125 77.515625 236.058594 77.621094 236.058594 C 77.722656 236.179688 78.144531 234.953125 78.144531 235.074219 C 78.144531 235.074219 78.039062 235.8125 77.621094 236.058594 C 76.46875 236.792969 67.351562 234.464844 67.351562 234.09375 C 67.351562 233.851562 73.636719 233.238281 75 234.09375 C 75.628906 234.464844 76.152344 235.445312 76.046875 235.8125 C 75.628906 236.546875 68.292969 235.933594 68.1875 235.566406 C 68.1875 235.320312 72.066406 234.09375 73.535156 234.09375 C 74.582031 234.09375 75.839844 234.339844 76.152344 234.832031 C 76.257812 235.199219 75.941406 236.058594 75.941406 236.058594 C 75.941406 236.058594 76.152344 234.832031 76.152344 234.832031 C 76.152344 234.832031 76.257812 235.6875 75.941406 236.058594 C 75.210938 236.792969 69.238281 236.546875 68.714844 235.6875 C 68.609375 235.445312 68.714844 234.832031 69.027344 234.585938 C 69.761719 233.972656 73.953125 234.585938 75.210938 234.832031 C 75.839844 234.953125 76.363281 234.953125 76.46875 235.199219 C 76.570312 235.445312 76.46875 236.058594 76.152344 236.300781 C 75.105469 237.039062 67.875 236.425781 67.457031 235.566406 C 67.246094 235.320312 67.457031 234.832031 67.769531 234.585938 C 68.503906 233.972656 71.960938 234.339844 73.535156 234.707031 C 74.789062 234.832031 76.363281 235.199219 76.675781 235.8125 C 76.886719 236.058594 76.886719 236.671875 76.570312 236.914062 C 75.734375 237.773438 68.085938 237.039062 67.351562 236.058594 C 67.140625 235.6875 67.246094 235.074219 67.5625 234.832031 C 68.1875 234.21875 71.332031 234.707031 72.695312 234.832031 C 73.429688 234.832031 74.371094 234.707031 74.582031 235.074219 C 74.789062 235.320312 74.6875 236.058594 74.371094 236.300781 C 73.429688 237.039062 66.199219 236.300781 66.199219 236.058594 C 66.199219 235.933594 72.589844 234.585938 73.429688 235.320312 C 73.847656 235.566406 73.953125 236.300781 73.847656 236.671875 C 73.429688 237.28125 68.921875 237.28125 68.398438 236.546875 C 68.1875 236.300781 68.503906 235.320312 68.503906 235.320312 C 68.503906 235.320312 68.292969 236.671875 68.292969 236.671875 C 68.292969 236.671875 68.1875 235.566406 68.503906 235.320312 C 68.921875 234.832031 70.390625 235.074219 71.542969 235.320312 C 73.21875 235.6875 75.316406 236.425781 77.304688 238.140625 C 80.132812 240.46875 85.375 247.214844 86.105469 249.421875 C 86.316406 250.035156 86.316406 250.769531 86.105469 250.890625 C 85.898438 251.136719 85.476562 251.015625 85.164062 250.890625 C 84.429688 250.402344 82.648438 248.316406 82.859375 247.828125 C 82.859375 247.457031 83.800781 247.089844 84.011719 247.335938 C 84.640625 247.828125 83.800781 252.242188 84.324219 253.957031 C 84.746094 255.183594 85.375 256.410156 86.210938 256.777344 C 87.257812 257.265625 88.9375 256.898438 90.089844 256.285156 C 91.242188 255.671875 92.601562 254.570312 93.023438 253.222656 C 93.335938 251.871094 92.394531 249.421875 91.765625 247.949219 C 91.136719 246.476562 89.25 244.882812 89.355469 244.269531 C 89.460938 243.902344 89.984375 243.660156 90.296875 243.78125 C 91.03125 244.027344 93.230469 246.96875 93.128906 247.828125 C 93.128906 248.195312 92.5 248.5625 92.183594 248.441406 C 91.449219 248.195312 89.460938 243.289062 89.566406 243.289062 C 89.667969 243.167969 93.652344 248.683594 93.441406 249.542969 C 93.441406 250.035156 92.917969 250.277344 92.5 250.15625 C 91.554688 249.910156 88.203125 244.515625 88.414062 243.289062 C 88.414062 242.800781 88.832031 242.308594 89.25 242.433594 C 89.878906 242.433594 91.554688 245.863281 91.871094 247.089844 C 92.078125 247.703125 92.078125 248.5625 91.871094 248.683594 C 91.765625 248.929688 91.242188 248.683594 90.820312 248.316406 C 89.878906 247.582031 88.832031 244.269531 87.257812 242.433594 C 85.6875 240.46875 81.601562 238.507812 81.285156 237.28125 C 81.183594 236.914062 81.390625 236.300781 81.707031 236.179688 C 82.542969 235.933594 87.050781 239.613281 88.832031 241.453125 C 90.089844 242.800781 91.242188 244.394531 91.660156 245.742188 C 91.976562 246.601562 91.976562 248.316406 91.765625 248.441406 C 91.449219 248.5625 90.296875 245.007812 89.039062 243.535156 C 87.785156 241.941406 84.117188 240.226562 84.011719 239.367188 C 84.011719 238.875 84.851562 238.386719 84.851562 238.386719 C 84.851562 238.386719 84.011719 239.246094 84.011719 239.246094 C 83.90625 239.246094 84.324219 238.386719 84.746094 238.386719 C 85.375 238.265625 87.050781 240.101562 87.992188 241.082031 C 88.726562 241.820312 89.878906 242.921875 89.878906 243.535156 C 89.878906 243.902344 89.460938 244.394531 89.039062 244.394531 C 87.886719 244.394531 82.230469 238.875 82.125 237.527344 C 82.019531 237.039062 82.859375 236.546875 82.753906 236.546875 C 82.753906 236.425781 82.019531 237.527344 82.019531 237.40625 C 82.019531 237.40625 82.230469 236.546875 82.542969 236.425781 C 82.964844 236.300781 83.800781 236.914062 84.640625 237.527344 C 86.105469 238.875 89.984375 244.269531 89.773438 244.515625 C 89.566406 244.761719 83.277344 239.859375 83.171875 238.632812 C 83.171875 238.265625 83.59375 237.773438 83.90625 237.652344 C 84.746094 237.527344 87.257812 239.859375 88.203125 241.328125 C 89.039062 242.554688 89.878906 245.253906 89.566406 245.496094 C 88.832031 246.109375 80.03125 238.265625 79.925781 236.792969 C 79.925781 236.300781 80.34375 235.8125 80.761719 235.8125 C 81.914062 235.6875 86.003906 239.246094 88.097656 241.328125 C 89.878906 243.289062 91.554688 245.621094 92.601562 247.703125 C 93.335938 249.175781 93.964844 250.648438 93.964844 252.242188 C 93.964844 253.957031 93.335938 256.285156 92.289062 257.511719 C 91.242188 258.859375 89.144531 259.84375 87.679688 259.71875 C 86.210938 259.597656 84.953125 258.371094 83.59375 256.898438 C 81.285156 254.203125 79.191406 247.089844 76.46875 243.78125 C 74.058594 240.960938 68.398438 238.753906 68.398438 237.652344 C 68.398438 237.28125 69.027344 236.914062 69.550781 236.914062 C 70.808594 236.792969 75.523438 239.613281 75.839844 240.59375 C 75.941406 241.082031 75.734375 241.695312 75.316406 241.820312 C 74.265625 242.308594 67.351562 238.753906 66.828125 237.527344 C 66.617188 237.039062 66.722656 236.546875 67.035156 236.300781 C 67.769531 235.8125 72.378906 237.652344 72.90625 238.507812 C 73.113281 238.875 73.113281 239.488281 72.90625 239.613281 C 72.277344 240.101562 66.722656 238.019531 66.511719 237.160156 C 66.40625 236.792969 66.722656 236.300781 67.140625 236.058594 C 67.980469 235.6875 71.855469 237.039062 72.277344 237.894531 C 72.484375 238.140625 72.378906 238.875 72.171875 239 C 71.542969 239.488281 66.828125 237.773438 66.511719 236.914062 C 66.304688 236.546875 66.511719 235.933594 66.722656 235.8125 C 67.457031 235.320312 71.542969 236.792969 71.960938 237.652344 C 72.171875 237.894531 72.066406 238.632812 71.855469 238.753906 C 71.226562 239.121094 66.617188 236.546875 66.722656 236.179688 C 66.722656 235.933594 70.914062 236.425781 71.019531 236.792969 C 71.019531 236.914062 70.179688 237.527344 69.761719 237.40625 C 69.34375 237.160156 68.921875 235.320312 68.816406 235.320312 C 68.714844 235.320312 68.816406 236.546875 68.816406 236.546875 " clip-rule="nonzero"/></clipPath><clipPath id="4598a592a4"><path d="M 74 234.476562 L 93 234.476562 L 93 258.78125 L 74 258.78125 Z M 74 234.476562 " clip-rule="nonzero"/></clipPath><clipPath id="20037d8d99"><path d="M 86.25 247.394531 C 89.671875 253.015625 89.378906 253.34375 89.085938 253.34375 C 88.402344 253.34375 85.5625 249.929688 85.5625 249.929688 C 85.5625 249.929688 88.695312 252.792969 88.695312 252.792969 C 88.695312 252.792969 87.617188 251.25 87.324219 251.359375 C 87.03125 251.472656 86.738281 252.574219 86.835938 253.125 C 87.03125 253.675781 88.109375 254.554688 88.304688 254.445312 C 88.402344 254.335938 87.910156 252.351562 87.617188 252.242188 C 87.324219 252.242188 86.640625 252.792969 86.542969 253.234375 C 86.542969 253.785156 87.8125 255.660156 88.207031 255.660156 C 88.597656 255.660156 89.183594 254.667969 89.085938 254.445312 C 88.988281 254.335938 87.714844 254.445312 87.617188 254.777344 C 87.421875 255.105469 87.8125 256.097656 88.207031 256.429688 C 88.5 256.648438 89.28125 256.871094 89.476562 256.648438 C 89.671875 256.429688 89.574219 255.546875 89.378906 255.328125 C 89.183594 254.996094 88.007812 254.886719 87.8125 255.105469 C 87.714844 255.328125 88.207031 256.761719 88.402344 256.761719 C 88.597656 256.761719 89.085938 255.878906 88.988281 255.660156 C 88.792969 255.21875 86.445312 254.886719 86.445312 254.996094 C 86.347656 255.21875 88.5 256.648438 88.5 256.761719 C 88.5 256.761719 87.128906 255.660156 87.03125 255.769531 C 87.03125 255.878906 88.207031 257.089844 88.109375 257.199219 C 88.109375 257.3125 87.03125 256.761719 87.03125 256.761719 C 87.03125 256.761719 88.695312 256.871094 88.792969 257.199219 C 88.890625 257.421875 88.207031 258.414062 88.007812 258.300781 C 87.8125 258.300781 87.519531 256.871094 87.714844 256.320312 C 88.109375 255.546875 90.355469 255.328125 90.75 254.667969 C 90.945312 254.335938 90.652344 253.453125 90.75 253.453125 C 90.847656 253.34375 91.238281 254.554688 91.433594 254.554688 C 91.726562 254.445312 92.507812 252.574219 92.3125 251.582031 C 91.824219 249.929688 88.109375 247.945312 86.835938 246.511719 C 85.957031 245.632812 84.878906 244.75 84.878906 244.089844 C 84.878906 243.757812 85.464844 243.316406 85.464844 243.316406 C 85.464844 243.316406 84.878906 244.308594 84.878906 244.308594 C 84.976562 244.308594 85.269531 243.429688 85.5625 243.429688 C 85.859375 243.429688 86.835938 244.859375 86.738281 245.410156 C 86.738281 245.851562 86.347656 246.402344 85.859375 246.625 C 85.074219 246.84375 82.238281 244.75 81.847656 245.191406 C 81.457031 245.632812 83.019531 248.496094 82.824219 248.605469 C 82.53125 248.828125 79.5 245.082031 79.5 244.199219 C 79.597656 243.867188 80.085938 243.539062 80.28125 243.539062 C 80.773438 243.757812 81.945312 248.386719 81.652344 248.496094 C 81.359375 248.714844 77.835938 243.097656 77.835938 243.097656 C 77.933594 242.988281 81.066406 246.183594 81.066406 247.0625 C 81.066406 247.394531 80.773438 247.835938 80.476562 247.835938 C 79.792969 247.835938 76.175781 241.554688 76.664062 240.894531 C 77.152344 240.34375 82.824219 244.199219 82.921875 243.980469 C 83.117188 243.539062 76.078125 238.800781 76.371094 238.027344 C 76.46875 237.589844 77.640625 237.589844 78.523438 237.808594 C 79.890625 238.140625 83.511719 240.34375 83.609375 241.003906 C 83.707031 241.335938 83.316406 241.773438 83.019531 241.773438 C 81.847656 241.886719 74.609375 236.265625 74.804688 235.714844 C 74.902344 235.273438 77.835938 235.9375 79.207031 236.488281 C 80.476562 237.039062 82.53125 238.25 82.824219 238.910156 C 82.921875 239.351562 82.824219 239.792969 82.53125 240.011719 C 81.75 240.34375 76.273438 237.148438 76.078125 236.15625 C 76.078125 235.824219 76.664062 235.273438 77.054688 235.164062 C 77.445312 235.054688 78.03125 235.496094 78.816406 235.9375 C 79.792969 236.488281 82.335938 237.476562 82.628906 238.25 C 82.824219 238.578125 82.726562 239.242188 82.433594 239.351562 C 81.75 239.683594 76.175781 235.605469 76.273438 235.164062 C 76.371094 234.832031 78.425781 235.164062 79.5 235.605469 C 80.773438 236.046875 82.921875 237.148438 83.117188 237.808594 C 83.21875 238.140625 83.117188 238.800781 82.726562 238.910156 C 81.945312 239.242188 76.859375 236.15625 76.761719 235.382812 C 76.761719 234.945312 77.445312 234.613281 77.933594 234.503906 C 78.71875 234.394531 79.988281 235.164062 81.066406 235.714844 C 82.140625 236.375 84.097656 237.367188 84.292969 238.027344 C 84.390625 238.25 84.195312 238.691406 83.902344 238.910156 C 83.019531 239.351562 77.25 237.148438 77.152344 236.375 C 77.054688 236.046875 77.640625 235.382812 78.128906 235.273438 C 79.109375 235.054688 81.164062 236.15625 82.628906 237.257812 C 84.488281 238.46875 87.8125 241.554688 88.207031 242.988281 C 88.402344 243.648438 88.304688 244.308594 87.910156 244.53125 C 86.640625 245.300781 74.023438 237.589844 74.121094 237.367188 C 74.21875 237.257812 77.25 238.25 78.71875 239.132812 C 80.574219 240.121094 84.097656 242.65625 84.292969 243.539062 C 84.390625 243.867188 84.097656 244.308594 83.804688 244.417969 C 82.921875 244.640625 76.664062 239.242188 76.859375 238.800781 C 76.957031 238.46875 78.816406 238.910156 79.890625 239.460938 C 81.652344 240.234375 85.464844 242.878906 85.957031 243.980469 C 86.054688 244.308594 85.957031 244.859375 85.761719 244.96875 C 85.269531 245.082031 82.140625 241.886719 82.140625 241.113281 C 82.042969 240.894531 82.433594 240.453125 82.628906 240.453125 C 83.316406 240.5625 85.859375 246.402344 85.761719 246.511719 C 85.664062 246.511719 81.945312 241.996094 82.042969 241.113281 C 82.042969 240.785156 82.335938 240.453125 82.628906 240.453125 C 83.316406 240.5625 85.957031 244.640625 85.761719 244.96875 C 85.367188 245.300781 76.957031 239.792969 76.859375 238.800781 C 76.859375 238.46875 77.152344 238.25 77.445312 238.140625 C 78.425781 238.140625 84.097656 242.4375 84.292969 243.539062 C 84.390625 243.867188 84.195312 244.308594 83.804688 244.417969 C 82.726562 244.640625 73.828125 238.46875 74.023438 237.808594 C 74.21875 237.367188 77.933594 238.027344 80.085938 238.800781 C 82.726562 239.792969 88.5 242.65625 88.597656 243.648438 C 88.597656 243.980469 88.207031 244.53125 87.8125 244.53125 C 86.835938 244.53125 84.390625 239.902344 82.53125 238.46875 C 80.773438 237.257812 77.152344 236.925781 77.152344 236.375 C 77.054688 236.046875 78.128906 235.382812 78.914062 235.382812 C 80.085938 235.273438 83.21875 236.707031 83.707031 237.589844 C 84 238.027344 83.902344 238.691406 83.609375 238.910156 C 82.921875 239.351562 76.761719 234.945312 76.761719 234.832031 C 76.859375 234.722656 82.921875 236.925781 83.117188 237.808594 C 83.21875 238.140625 82.921875 238.691406 82.53125 238.800781 C 81.652344 239.019531 76.957031 234.945312 76.957031 234.945312 C 76.957031 234.832031 82.335938 237.257812 82.628906 238.25 C 82.726562 238.578125 82.53125 239.132812 82.140625 239.242188 C 81.359375 239.570312 76.664062 236.375 76.761719 236.15625 C 76.761719 236.046875 80.871094 237.476562 81.945312 238.25 C 82.433594 238.578125 83.019531 238.910156 83.019531 239.242188 C 83.019531 239.570312 82.726562 239.902344 82.433594 240.011719 C 81.359375 240.121094 75.390625 235.605469 75.390625 235.714844 C 75.390625 235.714844 83.511719 240.011719 83.609375 241.003906 C 83.707031 241.335938 83.316406 241.773438 83.019531 241.773438 C 82.042969 241.886719 77.152344 237.589844 77.054688 237.699219 C 76.957031 237.917969 83.511719 242.765625 83.511719 243.867188 C 83.511719 244.308594 83.019531 244.75 82.53125 244.859375 C 81.457031 244.96875 77.445312 241.335938 77.25 241.664062 C 76.957031 242.105469 81.457031 246.292969 81.457031 247.394531 C 81.457031 247.835938 80.96875 248.386719 80.671875 248.277344 C 79.988281 248.277344 77.738281 243.207031 77.835938 243.097656 C 78.03125 242.878906 82.042969 246.734375 82.140625 247.613281 C 82.140625 248.054688 81.847656 248.496094 81.652344 248.496094 C 81.164062 248.496094 79.402344 244.96875 79.5 244.199219 C 79.597656 243.867188 79.988281 243.539062 80.28125 243.539062 C 80.96875 243.757812 82.824219 248.605469 82.824219 248.605469 C 82.824219 248.605469 80.476562 245.300781 80.773438 244.75 C 81.164062 244.089844 85.171875 246.074219 85.664062 245.410156 C 86.054688 245.082031 85.171875 243.429688 85.464844 243.316406 C 86.054688 242.988281 92.019531 249.15625 92.605469 250.921875 C 92.898438 251.691406 92.703125 252.792969 92.507812 252.902344 C 92.214844 253.015625 91.140625 251.582031 91.238281 251.359375 C 91.238281 251.140625 92.605469 251.140625 92.800781 251.472656 C 92.996094 251.800781 92.410156 253.566406 92.117188 253.566406 C 91.824219 253.675781 91.140625 252.242188 91.238281 252.023438 C 91.335938 251.691406 92.605469 251.800781 92.800781 252.132812 C 93.195312 252.574219 92.898438 254.554688 92.507812 254.667969 C 92.214844 254.886719 90.945312 254.003906 90.945312 253.566406 C 90.847656 253.125 91.824219 251.910156 92.117188 252.023438 C 92.410156 252.132812 92.800781 254.445312 92.507812 254.996094 C 92.214844 255.4375 91.042969 255.660156 90.75 255.4375 C 90.355469 254.996094 90.652344 252.351562 91.042969 252.132812 C 91.335938 252.023438 92.800781 253.566406 92.703125 254.117188 C 92.605469 254.777344 90.75 255.878906 90.355469 255.660156 C 89.964844 255.328125 90.160156 252.464844 90.453125 252.351562 C 90.75 252.242188 92.214844 254.003906 92.019531 254.554688 C 91.921875 255.105469 89.867188 255.878906 89.476562 255.546875 C 89.183594 255.328125 89.378906 253.125 89.867188 252.792969 C 90.160156 252.574219 91.042969 252.792969 91.238281 253.234375 C 91.53125 253.566406 91.628906 254.554688 91.335938 255.105469 C 91.042969 255.769531 89.28125 256.761719 88.792969 256.539062 C 88.402344 256.320312 88.207031 254.445312 88.5 254.003906 C 88.695312 253.675781 89.476562 253.566406 89.867188 253.785156 C 90.160156 254.003906 90.652344 254.667969 90.652344 255.21875 C 90.554688 255.878906 89.183594 257.199219 88.597656 257.421875 C 88.109375 257.421875 87.421875 257.089844 87.226562 256.648438 C 87.03125 256.320312 87.128906 255.4375 87.324219 255.21875 C 87.617188 254.996094 88.695312 255.328125 88.988281 255.660156 C 89.378906 256.097656 89.671875 257.089844 89.378906 257.53125 C 89.183594 258.082031 87.421875 258.742188 87.226562 258.523438 C 87.128906 258.414062 87.519531 257.199219 87.910156 257.089844 C 88.304688 256.980469 89.671875 258.414062 89.574219 258.632812 C 89.476562 258.855469 87.714844 258.742188 87.421875 258.300781 C 87.226562 257.863281 87.519531 256.320312 87.910156 256.097656 C 88.304688 255.878906 89.671875 256.429688 89.867188 256.761719 C 89.964844 257.199219 89.378906 258.191406 88.988281 258.300781 C 88.597656 258.523438 87.910156 258.191406 87.519531 257.863281 C 87.128906 257.640625 86.640625 257.089844 86.640625 256.648438 C 86.640625 256.097656 87.128906 255.21875 87.519531 254.996094 C 88.007812 254.886719 89.085938 255.546875 89.28125 255.988281 C 89.574219 256.429688 89.574219 257.3125 89.28125 257.53125 C 88.988281 257.972656 87.519531 257.863281 87.03125 257.640625 C 86.640625 257.421875 86.347656 256.871094 86.347656 256.539062 C 86.445312 256.210938 86.933594 255.4375 87.324219 255.4375 C 87.8125 255.4375 89.085938 256.761719 88.988281 257.199219 C 88.890625 257.53125 87.421875 258.082031 86.933594 257.863281 C 86.542969 257.75 86.054688 256.871094 86.054688 256.539062 C 86.054688 256.210938 86.445312 255.769531 86.738281 255.660156 C 87.226562 255.546875 88.792969 256.539062 88.988281 256.980469 C 89.085938 257.3125 88.890625 257.863281 88.597656 258.082031 C 88.304688 258.300781 87.421875 258.191406 86.933594 257.863281 C 86.347656 257.53125 85.464844 256.429688 85.367188 255.878906 C 85.367188 255.4375 85.761719 254.996094 86.054688 254.886719 C 86.640625 254.667969 87.910156 254.777344 88.5 255.21875 C 89.085938 255.546875 89.769531 256.320312 89.671875 256.871094 C 89.671875 257.199219 89.085938 257.75 88.597656 257.863281 C 88.109375 257.863281 87.324219 257.3125 86.835938 256.980469 C 86.347656 256.539062 85.664062 255.769531 85.5625 255.328125 C 85.464844 254.886719 85.664062 254.335938 85.957031 254.117188 C 86.542969 253.785156 89.183594 254.335938 89.769531 254.996094 C 90.160156 255.4375 90.257812 256.320312 90.0625 256.761719 C 89.867188 257.3125 88.695312 257.863281 88.109375 257.75 C 87.519531 257.75 86.738281 256.980469 86.640625 256.429688 C 86.445312 255.769531 86.835938 254.554688 87.324219 254.117188 C 87.8125 253.785156 88.988281 253.675781 89.574219 253.894531 C 90.0625 254.226562 90.453125 254.996094 90.554688 255.546875 C 90.554688 256.320312 90.257812 257.53125 89.769531 257.863281 C 89.183594 258.082031 87.910156 257.640625 87.421875 257.089844 C 86.835938 256.539062 86.347656 255.328125 86.542969 254.667969 C 86.640625 253.894531 87.714844 252.792969 88.304688 252.792969 C 88.890625 252.683594 89.769531 253.566406 89.964844 254.226562 C 90.257812 254.886719 89.964844 256.429688 89.476562 256.761719 C 88.890625 257.089844 86.835938 255.988281 86.25 255.105469 C 85.761719 254.445312 85.464844 253.015625 85.761719 252.351562 C 85.957031 251.800781 86.542969 251.140625 87.03125 251.25 C 87.714844 251.25 89.28125 253.015625 89.378906 253.785156 C 89.378906 254.445312 88.597656 255.660156 88.109375 255.769531 C 87.617188 255.878906 86.835938 255.21875 86.445312 254.554688 C 85.957031 253.894531 85.664062 252.792969 85.761719 252.023438 C 85.761719 251.359375 86.152344 250.589844 86.542969 250.371094 C 86.933594 250.148438 87.8125 250.371094 88.402344 250.699219 C 88.988281 251.140625 89.867188 252.464844 89.769531 253.015625 C 89.671875 253.566406 88.695312 254.335938 88.109375 254.226562 C 87.324219 254.226562 85.664062 252.242188 85.269531 251.25 C 84.976562 250.589844 84.78125 249.488281 85.074219 249.15625 C 85.269531 248.9375 86.152344 248.9375 86.738281 249.269531 C 87.617188 249.707031 89.867188 252.464844 89.671875 252.902344 C 89.574219 253.234375 88.792969 253.234375 88.304688 253.015625 C 87.617188 252.683594 86.738281 251.472656 86.25 250.589844 C 85.859375 249.707031 85.171875 247.835938 85.464844 247.394531 C 85.5625 247.285156 86.25 247.394531 86.25 247.394531 " clip-rule="nonzero"/></clipPath><clipPath id="8b5dd33ccd"><path d="M 85.117188 247.703125 L 92.425781 247.703125 L 92.425781 256.9375 L 85.117188 256.9375 Z M 85.117188 247.703125 " clip-rule="nonzero"/></clipPath><clipPath id="2810ef41ed"><path d="M 89.671875 253.125 C 90.652344 255.21875 90.945312 253.675781 91.140625 253.675781 C 91.238281 253.785156 91.042969 255.988281 91.042969 255.988281 C 91.042969 255.988281 91.628906 254.117188 91.238281 253.125 C 90.847656 251.800781 87.421875 249.820312 87.421875 248.9375 C 87.519531 248.605469 88.007812 248.054688 88.304688 248.167969 C 88.890625 248.277344 90.554688 252.242188 90.257812 252.464844 C 89.964844 252.792969 84.976562 247.945312 85.171875 247.726562 C 85.269531 247.503906 88.304688 249.15625 89.28125 249.929688 C 89.964844 250.480469 90.75 251.25 90.75 251.691406 C 90.75 252.023438 90.355469 252.464844 90.0625 252.351562 C 89.476562 252.242188 87.519531 248.167969 87.714844 248.054688 C 87.910156 247.835938 91.042969 250.371094 91.726562 251.800781 C 92.3125 252.792969 92.507812 254.335938 92.3125 255.109375 C 92.117188 255.769531 91.238281 256.320312 90.847656 256.320312 C 90.554688 256.210938 90.257812 255.660156 90.257812 255.21875 C 90.160156 254.558594 90.554688 253.234375 90.945312 253.015625 C 91.238281 252.792969 91.921875 253.015625 92.117188 253.34375 C 92.410156 253.894531 92.019531 256.539062 91.53125 256.871094 C 91.140625 257.089844 90.257812 256.648438 89.964844 256.210938 C 89.671875 255.769531 89.769531 254.777344 89.964844 254.117188 C 90.160156 253.453125 90.554688 252.574219 90.945312 252.464844 C 91.238281 252.351562 91.726562 252.574219 91.921875 252.902344 C 92.117188 253.453125 92.019531 255.4375 91.628906 255.988281 C 91.433594 256.320312 90.75 256.429688 90.453125 256.320312 C 90.0625 256.097656 89.769531 255.328125 89.769531 254.886719 C 89.867188 254.335938 90.355469 253.566406 90.75 253.453125 C 91.042969 253.453125 91.628906 253.785156 91.726562 254.226562 C 91.824219 254.667969 91.238281 256.539062 90.847656 256.539062 C 90.453125 256.648438 89.085938 254.777344 89.183594 254.335938 C 89.28125 254.003906 90.652344 253.566406 90.847656 253.894531 C 91.042969 254.117188 90.652344 256.210938 90.355469 256.210938 C 89.964844 256.320312 89.183594 255.21875 88.988281 254.667969 C 88.792969 254.117188 88.695312 253.015625 88.890625 252.902344 C 89.085938 252.683594 89.671875 253.125 89.671875 253.125 " clip-rule="nonzero"/></clipPath></defs><path fill="#e9a45d" d="M 192.28125 29.183594 C 234.792969 29.183594 288.035156 77.675781 303.617188 98.308594 C 316.71875 115.660156 314.863281 205.039062 314.863281 258.054688 C 314.863281 269.144531 309.851562 290.132812 308.03125 300.738281 C 301.363281 339.605469 272.3125 372.203125 214.816406 372.203125 C 168 372.203125 131.972656 357.375 97.132812 319.445312 C 89.183594 310.792969 50.367188 341.769531 42.425781 330.613281 C 21.691406 330.613281 4.351562 136.875 45.0625 78.761719 C 85.777344 20.652344 149.769531 29.183594 192.28125 29.183594 Z M 192.28125 29.183594 " fill-opacity="1" fill-rule="evenodd"/><g clip-path="url(#c6eb861d35)"><path fill="#ffde59" d="M 64.511719 42.828125 C 89.074219 20.480469 121.800781 9.730469 154.816406 10.523438 C 171.917969 10.933594 188.957031 14.191406 205.105469 19.769531 C 213.183594 22.570312 221.007812 26.222656 228.488281 30.355469 C 231.183594 31.839844 233.667969 33.582031 236.058594 35.429688 L 236.65625 35.894531 L 236.664062 35.894531 C 243.078125 38.203125 248.804688 42.339844 254.003906 47.183594 C 264.417969 46.355469 274.914062 47.289062 284.984375 50.503906 C 298.996094 54.980469 311.972656 63.175781 321.085938 74.820312 C 331.695312 88.371094 335.226562 104.8125 333.964844 121.785156 L 333.734375 124.667969 C 332.488281 139.660156 330.257812 158.941406 317.953125 168.792969 C 317.019531 169.542969 315.984375 170.109375 314.914062 170.457031 C 322.84375 184.035156 329.347656 199.113281 333.242188 214.34375 C 348.105469 272.507812 336.679688 333.167969 318.808594 389.226562 C 317.339844 393.847656 310.355469 396.917969 306.800781 392.402344 C 300.449219 384.332031 291.226562 378.175781 280.851562 377.023438 C 274.449219 376.3125 268.078125 377.601562 262.027344 374.695312 C 259.65625 373.550781 257.363281 371.679688 255.71875 369.402344 C 245.503906 373.273438 234.507812 375.097656 223.597656 374.652344 C 205.699219 373.917969 186.5625 367.71875 174.246094 354.121094 C 172.269531 351.9375 171.769531 349.488281 172.222656 347.28125 C 173.769531 346.730469 175.355469 346.320312 176.988281 346.0625 C 192.605469 355.265625 209.820312 361.417969 228.320312 361.804688 C 239.011719 362.027344 249.4375 360.53125 258.105469 353.855469 C 259.984375 352.410156 261.707031 350.8125 263.300781 349.09375 C 281.425781 337.433594 294.203125 317.632812 300.277344 296.421875 C 305.9375 276.640625 305.242188 256.042969 303.296875 235.753906 L 302.269531 225.050781 C 300.773438 209.335938 299.382812 193.574219 298.992188 177.792969 L 299.109375 177.785156 C 302.9375 177.539062 302.964844 171.546875 299.109375 171.796875 C 289.140625 172.441406 279.242188 170.808594 269.300781 171.519531 C 269.21875 166.820312 268.882812 162.140625 267.5 157.609375 C 266.710938 155.019531 262.203125 154.507812 261.722656 157.609375 C 261.085938 161.757812 260.851562 165.882812 260.78125 170.046875 C 245.90625 169.851562 231.042969 168.597656 216.164062 169.113281 C 213.417969 166.183594 212.542969 160.996094 211.261719 157.382812 C 211.074219 156.851562 210.886719 156.328125 210.691406 155.796875 C 209.5625 160.957031 207.964844 166.003906 205.859375 170.945312 L 202.210938 170.957031 C 181.507812 171.054688 160.378906 171.671875 140.164062 175.972656 C 138.757812 174.894531 137.921875 173.011719 137.695312 171.300781 C 136.226562 160.179688 134.136719 149.351562 130.425781 138.753906 L 129.894531 137.257812 C 129.851562 137.132812 129.804688 137.003906 129.757812 136.863281 C 127.023438 141.277344 123.761719 145.386719 120.207031 149.21875 C 118.109375 151.476562 115.914062 153.632812 113.65625 155.730469 C 111.464844 158.164062 109.199219 160.558594 107.003906 163 C 107.089844 163.445312 107.167969 163.894531 107.226562 164.355469 C 107.898438 169.417969 107.96875 174.554688 107.476562 179.640625 C 106.585938 188.832031 103.992188 197.6875 99.824219 205.882812 L 99.691406 206.703125 C 99.058594 210.542969 98.15625 214.511719 96.054688 217.402344 C 98.679688 220.34375 100.703125 223.855469 101.875 227.757812 C 102.917969 231.234375 98.109375 234.246094 95.617188 231.402344 C 93.636719 229.140625 91.4375 227.273438 89.019531 225.78125 C 88.867188 225.988281 88.589844 226.089844 88.28125 225.917969 C 81.550781 222.183594 70.121094 223.3125 63.394531 226.832031 C 55.035156 231.203125 51.769531 240.179688 52.699219 249.277344 C 53.589844 257.96875 57.390625 268.128906 64.765625 272.582031 C 68.148438 274.625 70.785156 274.800781 74.378906 273.816406 C 75.527344 273.507812 76.953125 272.550781 77.5625 272.074219 L 78.164062 271.589844 C 80.523438 269.730469 82.714844 268.453125 85.496094 268.40625 C 88.339844 267.519531 91.199219 268.75 92.289062 271.730469 L 92.355469 271.925781 C 92.863281 273.445312 93.792969 275.351562 93.589844 277.675781 C 93.378906 280.160156 92.242188 282.421875 90.542969 284.238281 C 90.25 284.554688 89.9375 284.867188 89.613281 285.160156 C 118.886719 316.851562 122.648438 366.234375 107.636719 405.824219 C 106.984375 407.5625 106.289062 409.277344 105.5625 410.976562 C 103.054688 416.800781 93.394531 414.996094 92.167969 409.222656 C 91.800781 407.496094 91.398438 405.773438 90.953125 404.066406 C 90.144531 400.910156 89.210938 397.785156 88.164062 394.707031 L 87.765625 393.554688 C 86.875 391.007812 86.042969 388.441406 85.144531 385.894531 L 85.054688 385.605469 C 85.023438 385.488281 84.984375 385.355469 84.941406 385.207031 L 83.421875 388.523438 L 78.804688 398.535156 C 76.640625 403.203125 69.773438 400.664062 69.519531 396.164062 L 69.511719 396.011719 C 69.492188 395.179688 69.460938 394.355469 69.40625 393.539062 C 69.078125 387.421875 68.023438 381.476562 66.347656 375.660156 L 65.742188 376.414062 C 56.730469 387.550781 46.15625 397.992188 31.652344 400.5625 C 28.011719 401.207031 23.894531 397.402344 26.394531 393.726562 C 27.429688 392.207031 28.425781 390.648438 29.367188 389.070312 C 28.550781 388.6875 27.78125 388.292969 27.070312 387.886719 C 21.566406 384.796875 16.984375 380.394531 13.195312 375.398438 C 5.164062 364.8125 2.289062 351.484375 1.585938 338.445312 C 0.835938 324.660156 2.050781 310.128906 5.816406 296.832031 C 7.445312 291.082031 9.65625 285.566406 12.207031 280.210938 C 12.027344 279.734375 11.855469 279.253906 11.683594 278.773438 C 8.929688 271.09375 6.667969 263.238281 4.789062 255.296875 C 1 239.257812 -1.035156 222.714844 -1.28125 206.234375 C -1.730469 176.714844 3.359375 146.722656 14.089844 119.195312 C 25.167969 90.804688 41.835938 63.453125 64.511719 42.828125 Z M 50.714844 300.929688 C 48.679688 297.722656 43.585938 300.609375 45.476562 303.835938 L 45.546875 303.953125 C 48.773438 309.035156 50.285156 314.816406 52.144531 320.484375 C 53.332031 324.128906 59.121094 322.570312 57.914062 318.890625 L 57.515625 317.660156 C 55.667969 311.910156 53.984375 306.070312 50.714844 300.929688 Z M 68.433594 239.777344 L 69.785156 239.121094 C 74.050781 237.085938 77.785156 235.699219 82.824219 237.476562 C 89.570312 239.851562 96.792969 247.40625 92.234375 254.734375 C 90.558594 257.4375 87.578125 258.515625 84.507812 257.878906 C 79.332031 256.804688 78 252.144531 75.371094 248.320312 L 74.921875 247.671875 C 73.320312 245.359375 71.292969 242.15625 68.628906 241.25 C 68.023438 241.039062 67.769531 240.097656 68.433594 239.777344 Z M 72.238281 84.15625 L 72.671875 83.765625 C 75.570312 81.207031 71.316406 76.984375 68.433594 79.527344 C 55.242188 91.183594 50.660156 109.429688 43.816406 124.980469 C 42.285156 128.476562 47.441406 131.53125 48.992188 128.003906 C 55.519531 113.167969 59.851562 95.417969 72.238281 84.15625 Z M 230.761719 79.058594 C 227.316406 77.503906 224.300781 82.519531 227.613281 84.171875 L 227.738281 84.230469 C 239.386719 89.492188 244.34375 101.414062 249.089844 112.476562 C 250.601562 116.011719 255.761719 112.964844 254.265625 109.460938 L 253.40625 107.476562 C 248.453125 96.070312 242.679688 84.449219 230.761719 79.058594 Z M 249.023438 71.855469 C 245.371094 70.589844 243.804688 76.367188 247.429688 77.632812 C 257.304688 81.070312 264.078125 88.484375 269.792969 96.957031 C 271.933594 100.132812 277.121094 97.136719 274.957031 93.933594 C 268.324219 84.09375 260.449219 75.835938 249.023438 71.855469 Z M 249.023438 71.855469 " fill-opacity="1" fill-rule="evenodd"/></g><g clip-path="url(#1e8959c7c9)"><g clip-path="url(#a7f3601059)"><path fill="#000000" d="M 66.980469 229.875 L 96.714844 229.875 L 96.714844 261.238281 L 66.980469 261.238281 Z M 66.980469 229.875 " fill-opacity="1" fill-rule="nonzero"/></g></g><g clip-path="url(#e53d5ac505)"><g clip-path="url(#4777d2a398)"><path fill="#000000" d="M 56.558594 228.332031 L 98.519531 228.332031 L 98.519531 264.625 L 56.558594 264.625 Z M 56.558594 228.332031 " fill-opacity="1" fill-rule="nonzero"/></g></g><g clip-path="url(#4598a592a4)"><g clip-path="url(#20037d8d99)"><path fill="#000000" d="M 70.109375 230.097656 L 96.8125 230.097656 L 96.8125 263.058594 L 70.109375 263.058594 Z M 70.109375 230.097656 " fill-opacity="1" fill-rule="nonzero"/></g></g><g clip-path="url(#8b5dd33ccd)"><g clip-path="url(#2810ef41ed)"><path fill="#000000" d="M 81.261719 243.316406 L 96.226562 243.316406 L 96.226562 261.382812 L 81.261719 261.382812 Z M 81.261719 243.316406 " fill-opacity="1" fill-rule="nonzero"/></g></g></svg>