<svg xmlns="http://www.w3.org/2000/svg" xmlns:xlink="http://www.w3.org/1999/xlink" width="473" zoomAndPan="magnify" viewBox="0 0 354.75 425.249996" height="567" preserveAspectRatio="xMidYMid meet" version="1.0"><defs><clipPath id="a1bd329aaa"><path d="M 0.1875 46 L 352 46 L 352 404 L 0.1875 404 Z M 0.1875 46 " clip-rule="nonzero"/></clipPath></defs><path fill="#e9a45d" d="M 293.539062 125.457031 C 271.039062 94.488281 229.605469 85.582031 193.675781 93.113281 C 123.4375 105.917969 56.328125 159.507812 43.917969 232.386719 C 24.554688 276.476562 36.921875 345.925781 93.234375 351.113281 C 101.25 351.5625 109.191406 349.71875 117.222656 350.714844 C 166.238281 358.546875 224.164062 392.0625 267.550781 352.535156 C 269.726562 354.09375 272.589844 354.847656 275.03125 353.902344 C 293.5 346.765625 294.367188 326.121094 295.941406 309.148438 C 297.976562 287.21875 299.882812 265.277344 301.660156 243.328125 C 302.296875 205.472656 317.300781 158.167969 293.539062 125.457031 Z M 293.539062 125.457031 " fill-opacity="1" fill-rule="evenodd"/><g clip-path="url(#a1bd329aaa)"><path fill="#000000" d="M 157.359375 46.542969 C 186.929688 44.96875 241.421875 58.515625 267.21875 74.394531 C 309.257812 100.269531 312.515625 151.882812 310.800781 160.804688 C 310.148438 164.210938 308.066406 167.363281 304.808594 166.316406 C 307.574219 189.765625 307.355469 203.167969 307.820312 226.75 L 308.140625 242.496094 C 308.347656 252.992188 308.523438 263.488281 308.570312 273.992188 C 309.632812 273.59375 310.679688 274.082031 311.070312 275.101562 C 311.167969 275.347656 310.828125 275.480469 310.664062 275.339844 C 308.792969 273.707031 310.125 277.425781 310.769531 278.183594 C 311.660156 279.226562 313.144531 280.207031 314.183594 281.097656 L 317.011719 283.542969 L 319.835938 285.984375 C 323.488281 289.136719 327.019531 292.292969 330.425781 295.683594 L 331.351562 296.617188 C 337.558594 302.921875 345.335938 309.023438 349.199219 317.175781 C 352.890625 324.960938 351.753906 333.789062 345.621094 339.996094 C 343.390625 342.246094 340.785156 343.972656 337.953125 345.273438 C 342.992188 353.570312 343.726562 364.535156 338.472656 373.070312 C 333.207031 381.636719 323.085938 386.121094 313.339844 385.433594 C 313.039062 386.652344 312.574219 387.84375 311.960938 388.972656 C 308.09375 396.078125 300.40625 397 293.117188 396.617188 L 292.832031 396.601562 C 276.421875 395.660156 260.632812 391.550781 246.257812 383.5625 C 241.269531 383.898438 236.824219 379.800781 235.851562 375.308594 C 233.230469 375.214844 230.59375 374.996094 227.90625 374.6875 C 219.933594 373.769531 211.757812 372.054688 204.726562 368.003906 C 203.648438 367.382812 204.152344 365.742188 205.347656 365.710938 C 213.914062 365.515625 222.484375 366.109375 231.035156 365.179688 C 238.882812 364.335938 247.246094 362.171875 254.558594 359.230469 C 267.707031 353.929688 278.980469 344.9375 285.203125 332.476562 C 293.257812 316.351562 292.523438 296.984375 293.402344 279.464844 C 294.371094 260.070312 295.566406 240.699219 296.84375 221.324219 L 297.460938 212.039062 C 298.703125 193.941406 299.730469 184.257812 302.871094 165.46875 C 293.402344 166.316406 254.058594 152.15625 241.824219 128.992188 C 218.605469 178.269531 100.960938 158.101562 95.742188 233.960938 C 95.699219 234.601562 94.679688 234.425781 94.640625 233.808594 L 94.542969 232.082031 C 94.496094 231.226562 94.453125 230.386719 94.425781 229.550781 L 94.402344 228.71875 L 92.550781 228.742188 C 92.550781 228.972656 92.222656 229.054688 92.140625 228.808594 C 90.394531 223.859375 82.085938 225.453125 78.46875 226.628906 C 75.214844 227.691406 72.144531 229.324219 69.386719 231.339844 C 63.855469 235.382812 59.566406 240.824219 58.144531 247.628906 C 55.441406 260.554688 63.667969 273.714844 74.589844 279.949219 C 81.480469 283.882812 89.027344 286.417969 95.628906 290.875 C 101.460938 294.804688 106.898438 299.410156 111.605469 304.640625 C 130.261719 325.375 141.238281 356.816406 132.410156 384.183594 C 131.738281 386.269531 129.957031 388.660156 127.597656 388.996094 C 123.699219 389.558594 119.796875 388.988281 117.609375 385.273438 C 116.757812 383.824219 116.351562 382.167969 116.441406 380.535156 C 114.929688 385.730469 110.027344 390.867188 105.503906 392.800781 C 99.34375 395.433594 92.402344 394.648438 86.96875 391.25 L 86.28125 391.757812 C 77.441406 398.261719 67.566406 404.195312 56.242188 402.996094 C 48.035156 402.128906 39.980469 397.949219 35.441406 391.363281 C 29.410156 394.753906 22.960938 397.457031 16.3125 399.296875 L 15.605469 399.492188 C 6.460938 401.980469 -5.207031 404.265625 -13.746094 399.207031 C -21.941406 394.347656 -24.667969 383.738281 -22.746094 374.882812 C -22.511719 373.828125 -22.21875 372.800781 -21.859375 371.804688 C -28.03125 372.136719 -34.191406 371.542969 -40.046875 369.734375 C -46.027344 367.882812 -51.734375 364.328125 -54.601562 358.5625 C -57.835938 352.039062 -56.972656 344.628906 -54.5625 337.988281 C -50.707031 327.335938 -44.507812 317.855469 -36.789062 309.597656 C -29.367188 301.652344 -20.414062 294.910156 -11.105469 289.289062 L -9.539062 288.351562 C -1.160156 283.355469 8.941406 277.5 18.835938 277.886719 C 18.808594 277.757812 18.785156 277.636719 18.769531 277.511719 C 17.273438 266.480469 17.445312 255.238281 17.09375 244.121094 C 16.769531 233.890625 16.402344 223.664062 16.164062 213.429688 C 15.773438 196.03125 15.902344 178.558594 18.171875 161.277344 C 20.183594 145.945312 23.808594 130.992188 30.417969 116.957031 C 37.359375 102.207031 47.8125 89.621094 60.71875 79.722656 C 87.804688 58.949219 123.585938 48.339844 157.359375 46.542969 Z M 65.351562 250.910156 C 68.300781 245.347656 75.019531 243.59375 80.910156 244.597656 C 89.167969 246.003906 94.785156 253.222656 99.605469 259.429688 C 104.664062 265.933594 94.109375 272.066406 91.390625 265.765625 L 90.746094 264.273438 C 88.566406 259.277344 85.992188 254.003906 81.539062 250.746094 C 76.808594 247.285156 70.128906 246.777344 65.953125 251.375 C 65.652344 251.710938 65.152344 251.277344 65.351562 250.910156 Z M 65.351562 250.910156 " fill-opacity="1" fill-rule="evenodd"/></g></svg>