<svg xmlns="http://www.w3.org/2000/svg" xmlns:xlink="http://www.w3.org/1999/xlink" width="473" zoomAndPan="magnify" viewBox="0 0 354.75 425.249996" height="567" preserveAspectRatio="xMidYMid meet" version="1.0"><defs><clipPath id="f35f4a6ca7"><path d="M 0.1875 46 L 352 46 L 352 404 L 0.1875 404 Z M 0.1875 46 " clip-rule="nonzero"/></clipPath><clipPath id="2615cae4c4"><path d="M 75.882812 246.078125 L 99.394531 246.078125 L 99.394531 267.621094 L 75.882812 267.621094 Z M 75.882812 246.078125 " clip-rule="nonzero"/></clipPath><clipPath id="1efd6261e2"><path d="M 75.988281 249.410156 C 75.988281 249.410156 76.09375 249.203125 76.09375 249.101562 C 76.09375 248.996094 76.09375 248.890625 76.09375 248.890625 C 76.09375 248.890625 76.199219 248.683594 76.199219 248.578125 C 76.199219 248.476562 76.300781 248.371094 76.300781 248.371094 C 76.300781 248.371094 76.40625 248.164062 76.40625 248.164062 C 76.507812 248.058594 76.507812 248.058594 76.613281 247.957031 C 76.613281 247.957031 76.613281 247.851562 76.613281 247.746094 C 76.71875 247.746094 76.820312 247.539062 76.820312 247.539062 C 76.820312 247.539062 76.925781 247.433594 77.03125 247.332031 C 77.03125 247.226562 77.132812 247.125 77.238281 247.125 C 77.238281 247.125 77.339844 247.019531 77.445312 247.019531 C 77.550781 246.914062 77.652344 246.8125 77.652344 246.8125 C 77.652344 246.8125 77.863281 246.8125 77.964844 246.707031 C 78.070312 246.707031 78.175781 246.601562 78.175781 246.601562 C 78.175781 246.601562 78.382812 246.601562 78.484375 246.601562 C 78.589844 246.601562 78.796875 246.5 78.796875 246.5 C 78.796875 246.5 79.007812 246.394531 79.109375 246.394531 C 79.109375 246.289062 79.320312 246.289062 79.320312 246.289062 C 79.320312 246.289062 79.527344 246.289062 79.628906 246.289062 C 79.734375 246.1875 79.941406 246.1875 79.941406 246.1875 C 79.941406 246.1875 80.152344 246.289062 80.253906 246.289062 C 80.359375 246.289062 80.566406 246.289062 80.566406 246.289062 C 80.566406 246.289062 80.773438 246.394531 80.878906 246.394531 C 80.878906 246.5 80.984375 246.5 80.984375 246.5 C 81.296875 246.601562 82.128906 246.707031 82.648438 246.8125 C 83.375 246.914062 84.105469 247.019531 84.832031 247.332031 C 85.558594 247.539062 86.183594 247.746094 86.914062 248.058594 C 87.640625 248.476562 88.785156 249.203125 88.992188 249.308594 C 88.992188 249.410156 88.992188 249.410156 89.097656 249.410156 C 89.203125 249.515625 89.410156 249.621094 89.722656 249.722656 C 90.136719 250.140625 91.074219 250.867188 91.699219 251.390625 C 92.21875 251.804688 92.636719 252.222656 93.15625 252.636719 C 93.78125 253.054688 94.507812 253.46875 94.921875 253.886719 C 95.339844 254.300781 95.652344 254.820312 95.859375 255.03125 C 95.859375 255.03125 95.859375 255.03125 95.964844 255.132812 C 96.171875 255.34375 96.898438 256.382812 97.316406 256.796875 C 97.523438 257.109375 97.628906 257.214844 97.835938 257.527344 C 98.253906 258.152344 98.878906 259.296875 99.085938 260.230469 C 99.292969 261.0625 99.398438 262.207031 99.1875 263.039062 C 99.085938 263.769531 98.566406 264.808594 98.253906 265.121094 C 98.148438 265.226562 98.042969 265.226562 98.042969 265.328125 C 97.941406 265.433594 98.042969 265.539062 97.941406 265.539062 C 97.835938 265.640625 97.734375 265.640625 97.523438 265.746094 C 97.316406 265.953125 96.898438 266.472656 96.484375 266.683594 C 96.171875 266.890625 95.652344 266.890625 95.234375 266.992188 C 94.820312 267.203125 94.507812 267.515625 94.089844 267.515625 C 93.46875 267.617188 92.425781 267.410156 91.800781 267.203125 C 91.386719 267.097656 90.867188 266.785156 90.761719 266.683594 C 90.660156 266.683594 90.660156 266.683594 90.660156 266.683594 C 90.660156 266.683594 90.554688 266.578125 90.554688 266.578125 C 90.449219 266.578125 90.242188 266.472656 89.929688 266.265625 C 89.617188 265.953125 88.679688 265.015625 88.472656 264.707031 C 88.371094 264.601562 88.371094 264.601562 88.371094 264.496094 C 88.160156 264.082031 87.328125 263.144531 87.015625 262.625 C 86.914062 262.207031 86.808594 261.792969 86.703125 261.6875 C 86.703125 261.6875 86.703125 261.6875 86.703125 261.585938 C 86.601562 261.480469 86.394531 260.75 86.289062 260.441406 C 86.183594 260.128906 85.976562 259.609375 85.871094 259.503906 C 85.769531 259.398438 85.664062 259.191406 85.664062 259.191406 C 85.664062 259.191406 85.144531 258.046875 85.039062 257.941406 C 85.039062 257.839844 85.039062 257.839844 84.9375 257.839844 C 84.832031 257.628906 84.519531 256.902344 84.207031 256.382812 C 84 256.070312 83.792969 255.757812 83.375 255.34375 C 82.855469 254.820312 82.023438 254.199219 81.398438 253.78125 C 80.773438 253.261719 79.628906 252.636719 79.527344 252.53125 C 79.527344 252.53125 79.421875 252.429688 79.320312 252.429688 C 79.320312 252.324219 79.109375 252.222656 79.109375 252.222656 C 79.109375 252.222656 79.109375 252.117188 79.007812 252.011719 C 78.902344 251.910156 78.175781 251.699219 77.964844 251.597656 C 77.863281 251.597656 77.757812 251.597656 77.652344 251.492188 C 77.550781 251.492188 77.445312 251.492188 77.445312 251.492188 C 77.445312 251.492188 77.238281 251.390625 77.238281 251.390625 C 77.132812 251.285156 76.925781 251.179688 76.925781 251.179688 C 76.925781 251.179688 76.820312 251.078125 76.71875 251.078125 C 76.71875 250.972656 76.507812 250.867188 76.507812 250.867188 C 76.507812 250.867188 76.507812 250.660156 76.40625 250.660156 C 76.40625 250.554688 76.300781 250.453125 76.300781 250.453125 C 76.300781 250.453125 76.199219 250.246094 76.199219 250.140625 C 76.09375 250.035156 76.09375 249.933594 76.09375 249.933594 C 76.09375 249.933594 76.09375 249.722656 76.09375 249.621094 C 75.988281 249.515625 75.988281 249.410156 75.988281 249.410156 " clip-rule="nonzero"/></clipPath><clipPath id="36c569ab7a"><path d="M 65.160156 245.121094 L 100.765625 245.121094 L 100.765625 270.285156 L 65.160156 270.285156 Z M 65.160156 245.121094 " clip-rule="nonzero"/></clipPath><clipPath id="7eaf12b39a"><path d="M 73.78125 248.324219 C 74.003906 247.050781 75.898438 247.976562 76.011719 248.441406 C 76.125 248.789062 75.898438 249.367188 75.675781 249.484375 C 75.007812 249.828125 71.664062 248.554688 71.554688 247.976562 C 71.441406 247.746094 71.777344 247.28125 72.109375 247.167969 C 73.003906 246.9375 76.679688 248.554688 77.125 249.367188 C 77.347656 249.714844 77.238281 250.175781 77.015625 250.410156 C 76.347656 250.871094 71.777344 249.367188 71.332031 248.671875 C 71.109375 248.324219 71.21875 247.746094 71.441406 247.628906 C 71.777344 247.398438 72.78125 247.863281 73.671875 248.09375 C 74.675781 248.441406 77.125 248.902344 77.460938 249.597656 C 77.683594 249.828125 77.570312 250.410156 77.347656 250.640625 C 76.679688 251.101562 71.441406 249.484375 71.332031 248.902344 C 71.21875 248.554688 71.886719 247.976562 72.445312 247.976562 C 73.558594 247.746094 77.683594 249.367188 78.128906 250.175781 C 78.351562 250.523438 78.351562 251.101562 78.128906 251.21875 C 77.460938 251.683594 72.222656 250.0625 71.664062 249.25 C 71.441406 248.902344 71.441406 248.324219 71.664062 248.09375 C 71.886719 247.863281 72.78125 248.09375 73.558594 248.324219 C 75.34375 248.902344 80.914062 251.101562 81.25 252.144531 C 81.359375 252.609375 81.136719 253.1875 80.691406 253.304688 C 79.691406 253.648438 73.335938 249.945312 73.335938 249.367188 C 73.449219 249.019531 74.675781 248.789062 75.566406 249.019531 C 77.238281 249.367188 80.359375 251.683594 82.476562 254.113281 C 85.375 257.121094 88.160156 264.53125 90.5 266.847656 C 91.726562 268.121094 92.839844 268.929688 94.066406 269.046875 C 95.292969 269.046875 97.410156 267.65625 98.191406 266.617188 C 98.96875 265.804688 99.191406 264.761719 99.304688 263.722656 C 99.304688 262.679688 99.082031 261.636719 98.523438 260.480469 C 97.519531 258.394531 95.070312 255.386719 92.839844 253.304688 C 90.722656 251.335938 85.375 249.019531 85.597656 248.210938 C 85.597656 247.863281 86.820312 247.746094 87.492188 247.863281 C 88.492188 248.09375 89.71875 249.019531 90.835938 250.0625 C 92.394531 251.449219 95.515625 255.617188 95.402344 255.734375 C 95.179688 255.964844 89.386719 251.449219 89.050781 250.292969 C 89.050781 249.945312 89.273438 249.367188 89.609375 249.367188 C 89.941406 249.136719 90.945312 249.945312 91.726562 250.410156 C 92.953125 251.335938 95.402344 253.1875 95.847656 254.34375 C 96.074219 254.921875 95.960938 255.734375 95.738281 255.847656 C 94.847656 256.195312 87.9375 250.410156 87.824219 249.136719 C 87.714844 248.789062 88.160156 248.324219 88.492188 248.210938 C 89.273438 248.09375 90.945312 249.25 92.058594 250.292969 C 93.398438 251.566406 95.960938 255.617188 95.738281 255.734375 C 95.515625 256.082031 90.054688 252.03125 89.941406 250.988281 C 89.941406 250.523438 90.277344 250.0625 90.722656 250.0625 C 91.613281 249.828125 94.625 252.261719 95.960938 253.765625 C 97.1875 255.15625 98.859375 257.703125 98.746094 258.628906 C 98.746094 259.089844 98.078125 259.554688 98.078125 259.554688 C 98.078125 259.554688 98.746094 258.511719 98.746094 258.511719 C 98.746094 258.394531 98.191406 259.4375 97.855469 259.324219 C 96.964844 259.207031 96.074219 255.847656 94.511719 254.113281 C 92.507812 252.03125 86.375 248.789062 86.488281 248.324219 C 86.597656 248.09375 89.273438 248.671875 90.5 249.367188 C 91.835938 250.175781 93.175781 251.449219 94.289062 252.957031 C 95.515625 254.691406 97.632812 258.976562 97.519531 258.976562 C 97.410156 259.089844 94.402344 255.386719 94.511719 254.578125 C 94.625 254.113281 95.070312 253.765625 95.515625 253.882812 C 96.296875 253.996094 98.191406 257.007812 98.96875 258.28125 C 99.527344 259.089844 100.195312 260.132812 99.972656 260.597656 C 99.972656 260.941406 99.414062 261.40625 99.082031 261.289062 C 98.191406 261.175781 95.625 256.429688 95.625 255.386719 C 95.625 254.921875 96.074219 254.578125 96.296875 254.460938 C 96.628906 254.460938 97.074219 254.921875 97.410156 255.386719 C 98.078125 256.195312 99.414062 259.554688 99.191406 259.785156 C 98.859375 259.902344 95.738281 256.777344 95.738281 255.847656 C 95.625 255.503906 95.960938 255.039062 96.183594 255.039062 C 96.519531 254.921875 97.074219 255.269531 97.519531 255.847656 C 98.523438 257.007812 100.863281 261.175781 100.753906 263.257812 C 100.640625 264.878906 99.414062 266.5 98.191406 267.425781 C 96.742188 268.46875 93.730469 268.929688 92.28125 268.816406 C 91.503906 268.699219 90.945312 268.46875 90.386719 268.003906 C 89.71875 267.308594 89.273438 266.269531 89.050781 264.996094 C 88.605469 263.375 88.269531 259.667969 88.828125 258.742188 C 89.050781 258.394531 89.609375 258.28125 89.941406 258.394531 C 90.5 258.628906 91.503906 261.058594 91.390625 261.175781 C 90.945312 261.523438 83.925781 251.335938 80.359375 249.367188 C 77.90625 248.09375 73.113281 248.789062 73.003906 248.210938 C 72.890625 247.863281 74.117188 247.050781 74.898438 246.9375 C 76.125 246.589844 80.023438 247.515625 80.023438 247.746094 C 80.023438 247.976562 71.109375 248.324219 70.996094 247.863281 C 70.886719 247.628906 74.117188 246.355469 75.566406 246.242188 C 77.015625 246.011719 79.355469 246.355469 79.800781 246.9375 C 80.023438 247.167969 80.023438 247.746094 79.800781 248.09375 C 79.132812 248.789062 73.003906 248.554688 72.222656 247.863281 C 72 247.628906 72 247.050781 72.222656 246.820312 C 72.558594 246.355469 73.894531 246.125 75.121094 246.011719 C 76.902344 246.011719 81.359375 246.703125 82.03125 247.515625 C 82.363281 247.863281 82.363281 248.441406 82.140625 248.671875 C 81.472656 249.484375 73.335938 248.554688 72.445312 247.628906 C 72.222656 247.28125 72.222656 246.820312 72.445312 246.472656 C 73.003906 246.011719 75.230469 245.777344 76.679688 245.777344 C 78.242188 245.894531 81.136719 246.242188 81.695312 246.9375 C 81.917969 247.167969 82.03125 247.746094 81.808594 247.976562 C 81.25 248.671875 74.675781 248.441406 73.894531 247.628906 C 73.558594 247.398438 73.558594 246.820312 73.78125 246.589844 C 74.117188 246.011719 75.898438 245.777344 77.125 245.777344 C 78.464844 245.777344 81.136719 246.125 81.585938 246.703125 C 81.808594 246.9375 81.808594 247.515625 81.472656 247.863281 C 80.691406 248.554688 74.117188 248.324219 73.335938 247.628906 C 73.113281 247.28125 73.113281 246.820312 73.335938 246.472656 C 73.671875 246.011719 75.230469 245.894531 76.347656 245.894531 C 77.683594 245.777344 79.914062 245.777344 80.804688 246.242188 C 81.25 246.472656 81.808594 247.167969 81.695312 247.398438 C 81.359375 248.09375 73.335938 247.863281 72.558594 246.9375 C 72.222656 246.703125 72.222656 246.125 72.445312 245.894531 C 72.890625 245.316406 74.785156 245.199219 76.234375 245.199219 C 78.242188 245.199219 83.367188 246.125 83.703125 246.9375 C 83.8125 247.167969 83.589844 247.746094 83.144531 247.863281 C 82.140625 248.324219 76.125 246.703125 76.125 246.472656 C 76.125 246.242188 79.578125 246.242188 81.027344 246.355469 C 82.253906 246.589844 84.035156 246.9375 84.371094 247.398438 C 84.480469 247.746094 84.371094 248.324219 84.035156 248.554688 C 83.03125 249.136719 78.351562 247.398438 75.566406 247.398438 C 73.113281 247.398438 69.101562 249.019531 68.320312 248.324219 C 67.988281 248.09375 67.988281 247.398438 68.210938 247.050781 C 68.878906 246.355469 74.785156 247.050781 75.789062 247.746094 C 76.234375 247.976562 76.457031 248.441406 76.457031 248.671875 C 76.347656 249.019531 75.789062 249.136719 75.121094 249.25 C 73.671875 249.367188 67.320312 247.746094 67.320312 247.628906 C 67.320312 247.515625 74.5625 247.628906 75.121094 248.441406 C 75.453125 248.789062 75.34375 249.367188 75.007812 249.597656 C 74.339844 250.292969 68.992188 249.828125 68.433594 249.136719 C 68.210938 248.902344 68.433594 248.210938 68.65625 247.976562 C 69.101562 247.628906 70.886719 248.324219 72.109375 248.554688 C 73.449219 248.789062 75.898438 249.136719 76.347656 249.714844 C 76.570312 250.0625 76.347656 250.871094 76.347656 250.871094 C 76.347656 250.871094 76.347656 249.714844 76.347656 249.714844 C 76.234375 249.714844 76.234375 250.757812 75.789062 250.988281 C 75.121094 251.21875 72.109375 249.597656 71.664062 248.789062 C 71.441406 248.324219 71.441406 247.628906 71.886719 247.398438 C 72.890625 246.703125 82.140625 250.757812 82.808594 252.144531 C 82.921875 252.492188 82.808594 253.070312 82.476562 253.304688 C 81.585938 253.765625 76.792969 250.0625 74.003906 249.25 C 71.332031 248.441406 66.761719 249.136719 66.203125 248.441406 C 66.09375 248.09375 66.203125 247.628906 66.539062 247.28125 C 67.320312 246.589844 71.21875 246.472656 73.003906 246.355469 C 74.339844 246.355469 76.011719 246.011719 76.347656 246.472656 C 76.679688 246.703125 76.679688 247.398438 76.347656 247.628906 C 75.675781 248.441406 68.992188 248.09375 68.992188 247.746094 C 68.992188 247.515625 75.230469 245.199219 76.011719 245.777344 C 76.234375 246.011719 76.234375 246.703125 76.011719 247.050781 C 75.230469 247.863281 69.101562 248.902344 68.320312 248.324219 C 67.988281 248.09375 67.988281 247.515625 68.210938 247.167969 C 68.65625 246.472656 70.996094 246.011719 72.332031 245.777344 C 73.449219 245.664062 75.121094 245.316406 75.566406 245.777344 C 75.789062 246.011719 75.898438 246.589844 75.675781 246.9375 C 75.007812 247.863281 67.652344 248.210938 67.542969 247.976562 C 67.542969 247.746094 71.21875 246.355469 72.890625 246.242188 C 74.5625 246.125 77.125 246.589844 77.792969 247.28125 C 78.242188 247.628906 78.464844 248.324219 78.242188 248.671875 C 77.570312 249.597656 67.207031 248.789062 67.207031 248.441406 C 67.097656 248.210938 69.101562 247.628906 70.105469 247.515625 C 71.21875 247.515625 73.003906 247.515625 73.335938 247.976562 C 73.558594 248.210938 73.671875 248.902344 73.335938 249.136719 C 72.78125 249.828125 68.765625 249.484375 67.320312 249.25 C 66.425781 249.019531 65.199219 248.671875 65.199219 248.441406 C 65.199219 248.09375 66.316406 247.746094 67.207031 247.515625 C 68.542969 247.28125 71.664062 247.167969 72.445312 247.746094 C 72.667969 247.976562 72.890625 248.441406 72.78125 248.789062 C 72.332031 249.367188 66.316406 250.0625 65.757812 249.367188 C 65.535156 249.136719 65.648438 248.324219 65.980469 247.976562 C 66.539062 247.398438 68.433594 247.28125 69.882812 247.28125 C 71.332031 247.28125 74.226562 247.28125 74.675781 247.976562 C 75.007812 248.210938 75.007812 248.902344 74.675781 249.25 C 73.894531 249.945312 67.320312 249.714844 66.316406 249.019531 C 65.980469 248.789062 65.871094 248.324219 65.980469 247.976562 C 66.203125 247.28125 68.542969 246.589844 70.214844 246.242188 C 72 245.894531 74.339844 245.777344 76.570312 246.125 C 79.019531 246.589844 82.140625 247.628906 84.035156 248.902344 C 85.597656 249.945312 87.046875 252.722656 87.492188 252.609375 C 87.601562 252.492188 87.601562 251.566406 87.601562 251.566406 C 87.492188 251.566406 87.492188 252.492188 87.15625 252.609375 C 86.488281 252.839844 84.59375 250.292969 82.921875 249.484375 C 81.136719 248.554688 78.6875 247.863281 76.570312 247.515625 C 74.453125 247.167969 72.109375 247.167969 70.328125 247.515625 C 68.878906 247.746094 67.097656 249.25 66.425781 249.019531 C 66.09375 248.902344 65.871094 248.210938 66.09375 247.863281 C 66.539062 247.167969 72.558594 247.398438 74.003906 247.746094 C 74.5625 247.863281 75.121094 248.09375 75.121094 248.324219 C 75.230469 248.554688 74.898438 249.019531 74.5625 249.25 C 73.335938 249.828125 66.425781 250.175781 65.757812 249.367188 C 65.535156 249.136719 65.648438 248.441406 65.871094 248.210938 C 66.648438 247.515625 71.554688 247.050781 72.222656 247.746094 C 72.558594 247.976562 72.558594 248.789062 72.222656 249.019531 C 71.554688 249.714844 65.199219 248.671875 65.199219 248.441406 C 65.199219 248.210938 70.886719 247.628906 72.332031 247.746094 C 72.890625 247.863281 73.449219 247.976562 73.558594 248.210938 C 73.671875 248.441406 73.449219 249.019531 73.113281 249.25 C 72.222656 249.714844 67.652344 249.714844 66.871094 249.019531 C 66.539062 248.554688 66.539062 247.628906 66.871094 247.167969 C 67.875 246.125 74.453125 246.820312 76.347656 247.050781 C 77.347656 247.167969 78.242188 247.28125 78.464844 247.628906 C 78.574219 247.863281 78.464844 248.441406 78.128906 248.671875 C 77.347656 249.019531 74.898438 247.628906 73.226562 247.515625 C 71.441406 247.28125 67.988281 248.441406 67.542969 247.976562 C 67.429688 247.746094 67.652344 247.28125 67.988281 246.9375 C 68.878906 246.242188 73.003906 245.777344 74.453125 245.777344 C 75.007812 245.777344 75.675781 245.664062 75.789062 245.894531 C 76.011719 246.125 75.898438 246.703125 75.566406 247.050781 C 74.675781 247.746094 67.988281 247.746094 67.988281 247.515625 C 67.988281 247.28125 75.230469 245.199219 76.011719 245.777344 C 76.234375 246.011719 76.234375 246.703125 76.011719 247.050781 C 75.34375 247.746094 68.992188 247.976562 68.992188 247.746094 C 68.992188 247.628906 73.449219 246.472656 74.785156 246.355469 C 75.566406 246.355469 76.457031 246.242188 76.679688 246.589844 C 76.792969 246.820312 76.679688 247.398438 76.347656 247.628906 C 75.34375 248.554688 66.761719 249.136719 66.203125 248.441406 C 66.09375 248.09375 66.316406 247.515625 66.648438 247.28125 C 67.652344 246.703125 71.441406 247.515625 73.894531 248.09375 C 76.347656 248.671875 79.800781 250.292969 81.359375 251.21875 C 82.140625 251.566406 82.808594 251.914062 82.921875 252.375 C 83.03125 252.609375 82.808594 253.070312 82.476562 253.304688 C 81.25 253.765625 72.890625 250.292969 71.886719 248.789062 C 71.554688 248.324219 71.554688 247.515625 71.886719 247.398438 C 72.332031 247.050781 76.234375 249.019531 76.457031 249.828125 C 76.570312 250.175781 75.789062 250.988281 75.789062 250.988281 C 75.789062 250.988281 76.347656 249.828125 76.457031 249.828125 C 76.570312 249.828125 76.570312 250.640625 76.347656 250.871094 C 75.566406 251.449219 69.101562 250.0625 68.433594 249.136719 C 68.210938 248.789062 68.320312 248.210938 68.65625 247.976562 C 69.4375 247.398438 74.675781 247.746094 75.121094 248.441406 C 75.34375 248.671875 75.230469 249.367188 74.898438 249.597656 C 74.003906 250.175781 67.320312 247.976562 67.320312 247.628906 C 67.320312 247.28125 75.34375 247.050781 76.011719 247.863281 C 76.234375 248.210938 76.125 248.902344 75.898438 249.136719 C 75.007812 249.828125 68.878906 249.136719 68.210938 248.324219 C 67.875 247.976562 67.875 247.398438 68.210938 247.050781 C 69.214844 246.011719 78.6875 246.472656 81.472656 246.703125 C 82.808594 246.9375 84.148438 247.050781 84.371094 247.398438 C 84.480469 247.746094 84.035156 248.554688 84.035156 248.554688 C 83.925781 248.441406 84.257812 247.28125 84.257812 247.28125 C 84.257812 247.28125 84.371094 248.210938 84.035156 248.441406 C 83.144531 249.019531 76.125 246.9375 76.234375 246.589844 C 76.234375 246.355469 82.476562 245.777344 83.253906 246.472656 C 83.480469 246.820312 83.03125 247.863281 83.144531 247.863281 C 83.253906 247.976562 83.703125 246.820312 83.703125 246.9375 C 83.703125 246.9375 83.589844 247.628906 83.144531 247.863281 C 81.917969 248.554688 72.222656 246.355469 72.222656 246.011719 C 72.222656 245.777344 78.910156 245.199219 80.359375 246.011719 C 81.027344 246.355469 81.585938 247.28125 81.472656 247.628906 C 81.027344 248.324219 73.226562 247.746094 73.113281 247.398438 C 73.113281 247.167969 77.238281 246.011719 78.796875 246.011719 C 79.914062 246.011719 81.25 246.242188 81.585938 246.703125 C 81.695312 247.050781 81.359375 247.863281 81.359375 247.863281 C 81.359375 247.863281 81.585938 246.703125 81.585938 246.703125 C 81.585938 246.703125 81.695312 247.515625 81.359375 247.863281 C 80.582031 248.554688 74.226562 248.324219 73.671875 247.515625 C 73.558594 247.28125 73.671875 246.703125 74.003906 246.472656 C 74.785156 245.894531 79.242188 246.472656 80.582031 246.703125 C 81.25 246.820312 81.808594 246.820312 81.917969 247.050781 C 82.03125 247.28125 81.917969 247.863281 81.585938 248.09375 C 80.46875 248.789062 72.78125 248.210938 72.332031 247.398438 C 72.109375 247.167969 72.332031 246.703125 72.667969 246.472656 C 73.449219 245.894531 77.125 246.242188 78.796875 246.589844 C 80.136719 246.703125 81.808594 247.050781 82.140625 247.628906 C 82.363281 247.863281 82.363281 248.441406 82.03125 248.671875 C 81.136719 249.484375 73.003906 248.789062 72.222656 247.863281 C 72 247.515625 72.109375 246.9375 72.445312 246.703125 C 73.113281 246.125 76.457031 246.589844 77.90625 246.703125 C 78.6875 246.703125 79.691406 246.589844 79.914062 246.9375 C 80.136719 247.167969 80.023438 247.863281 79.691406 248.09375 C 78.6875 248.789062 70.996094 248.09375 70.996094 247.863281 C 70.996094 247.746094 77.792969 246.472656 78.6875 247.167969 C 79.132812 247.398438 79.242188 248.09375 79.132812 248.441406 C 78.6875 249.019531 73.894531 249.019531 73.335938 248.324219 C 73.113281 248.09375 73.449219 247.167969 73.449219 247.167969 C 73.449219 247.167969 73.226562 248.441406 73.226562 248.441406 C 73.226562 248.441406 73.113281 247.398438 73.449219 247.167969 C 73.894531 246.703125 75.453125 246.9375 76.679688 247.167969 C 78.464844 247.515625 80.691406 248.210938 82.808594 249.828125 C 85.820312 252.03125 91.390625 258.394531 92.171875 260.480469 C 92.394531 261.058594 92.394531 261.753906 92.171875 261.871094 C 91.949219 262.101562 91.503906 261.984375 91.167969 261.871094 C 90.386719 261.40625 88.492188 259.4375 88.71875 258.976562 C 88.71875 258.628906 89.71875 258.28125 89.941406 258.511719 C 90.613281 258.976562 89.71875 263.144531 90.277344 264.761719 C 90.722656 265.921875 91.390625 267.078125 92.28125 267.425781 C 93.398438 267.890625 95.179688 267.542969 96.40625 266.960938 C 97.632812 266.382812 99.082031 265.34375 99.527344 264.070312 C 99.863281 262.796875 98.859375 260.480469 98.191406 259.089844 C 97.519531 257.703125 95.515625 256.195312 95.625 255.617188 C 95.738281 255.269531 96.296875 255.039062 96.628906 255.15625 C 97.410156 255.386719 99.75 258.164062 99.640625 258.976562 C 99.640625 259.324219 98.96875 259.667969 98.636719 259.554688 C 97.855469 259.324219 95.738281 254.691406 95.847656 254.691406 C 95.960938 254.578125 100.195312 259.785156 99.972656 260.597656 C 99.972656 261.058594 99.414062 261.289062 98.96875 261.175781 C 97.96875 260.941406 94.402344 255.847656 94.625 254.691406 C 94.625 254.230469 95.070312 253.765625 95.515625 253.882812 C 96.183594 253.882812 97.96875 257.121094 98.300781 258.28125 C 98.523438 258.859375 98.523438 259.667969 98.300781 259.785156 C 98.191406 260.015625 97.632812 259.785156 97.1875 259.4375 C 96.183594 258.742188 95.070312 255.617188 93.398438 253.882812 C 91.726562 252.03125 87.378906 250.175781 87.046875 249.019531 C 86.933594 248.671875 87.15625 248.09375 87.492188 247.976562 C 88.382812 247.746094 93.175781 251.21875 95.070312 252.957031 C 96.40625 254.230469 97.632812 255.734375 98.078125 257.007812 C 98.414062 257.816406 98.414062 259.4375 98.191406 259.554688 C 97.855469 259.667969 96.628906 256.3125 95.292969 254.921875 C 93.953125 253.417969 90.054688 251.796875 89.941406 250.988281 C 89.941406 250.523438 90.835938 250.0625 90.835938 250.0625 C 90.835938 250.0625 89.941406 250.871094 89.941406 250.871094 C 89.832031 250.871094 90.277344 250.0625 90.722656 250.0625 C 91.390625 249.945312 93.175781 251.683594 94.179688 252.609375 C 94.957031 253.304688 96.183594 254.34375 96.183594 254.921875 C 96.183594 255.269531 95.738281 255.734375 95.292969 255.734375 C 94.066406 255.734375 88.046875 250.523438 87.9375 249.25 C 87.824219 248.789062 88.71875 248.324219 88.605469 248.324219 C 88.605469 248.210938 87.824219 249.25 87.824219 249.136719 C 87.824219 249.136719 88.046875 248.324219 88.382812 248.210938 C 88.828125 248.09375 89.71875 248.671875 90.613281 249.25 C 92.171875 250.523438 96.296875 255.617188 96.074219 255.847656 C 95.847656 256.082031 89.164062 251.449219 89.050781 250.292969 C 89.050781 249.945312 89.496094 249.484375 89.832031 249.367188 C 90.722656 249.25 93.398438 251.449219 94.402344 252.839844 C 95.292969 253.996094 96.183594 256.542969 95.847656 256.777344 C 95.070312 257.355469 85.707031 249.945312 85.597656 248.554688 C 85.597656 248.09375 86.042969 247.628906 86.488281 247.628906 C 87.714844 247.515625 92.058594 250.871094 94.289062 252.839844 C 96.183594 254.691406 97.96875 256.890625 99.082031 258.859375 C 99.863281 260.25 100.53125 261.636719 100.53125 263.144531 C 100.53125 264.761719 99.863281 266.960938 98.746094 268.121094 C 97.632812 269.394531 95.402344 270.320312 93.84375 270.203125 C 92.28125 270.089844 90.945312 268.929688 89.496094 267.542969 C 87.046875 264.996094 84.816406 258.28125 81.917969 255.15625 C 79.355469 252.492188 73.335938 250.410156 73.335938 249.367188 C 73.335938 249.019531 74.003906 248.671875 74.5625 248.671875 C 75.898438 248.554688 80.914062 251.21875 81.25 252.144531 C 81.359375 252.609375 81.136719 253.1875 80.691406 253.304688 C 79.578125 253.765625 72.222656 250.410156 71.664062 249.25 C 71.441406 248.789062 71.554688 248.324219 71.886719 248.09375 C 72.667969 247.628906 77.570312 249.367188 78.128906 250.175781 C 78.351562 250.523438 78.351562 251.101562 78.128906 251.21875 C 77.460938 251.683594 71.554688 249.714844 71.332031 248.902344 C 71.21875 248.554688 71.554688 248.09375 72 247.863281 C 72.890625 247.515625 77.015625 248.789062 77.460938 249.597656 C 77.683594 249.828125 77.570312 250.523438 77.347656 250.640625 C 76.679688 251.101562 71.664062 249.484375 71.332031 248.671875 C 71.109375 248.324219 71.332031 247.746094 71.554688 247.628906 C 72.332031 247.167969 76.679688 248.554688 77.125 249.367188 C 77.347656 249.597656 77.238281 250.292969 77.015625 250.410156 C 76.347656 250.757812 71.441406 248.324219 71.554688 247.976562 C 71.554688 247.746094 76.011719 248.210938 76.125 248.554688 C 76.125 248.671875 75.230469 249.25 74.785156 249.136719 C 74.339844 248.902344 73.894531 247.167969 73.78125 247.167969 C 73.671875 247.167969 73.78125 248.324219 73.78125 248.324219 " clip-rule="nonzero"/></clipPath><clipPath id="b954bc7d2d"><path d="M 79.261719 246.339844 L 99.566406 246.339844 L 99.566406 269.304688 L 79.261719 269.304688 Z M 79.261719 246.339844 " clip-rule="nonzero"/></clipPath><clipPath id="a90cc946f0"><path d="M 92.324219 258.566406 C 95.964844 263.871094 95.652344 264.183594 95.339844 264.183594 C 94.613281 264.183594 91.59375 260.960938 91.59375 260.960938 C 91.59375 260.960938 94.921875 263.664062 94.921875 263.664062 C 94.921875 263.664062 93.78125 262.207031 93.46875 262.3125 C 93.15625 262.417969 92.84375 263.457031 92.945312 263.976562 C 93.15625 264.496094 94.300781 265.328125 94.507812 265.226562 C 94.613281 265.121094 94.089844 263.25 93.78125 263.144531 C 93.46875 263.144531 92.738281 263.664062 92.636719 264.082031 C 92.636719 264.601562 93.988281 266.371094 94.402344 266.371094 C 94.820312 266.371094 95.445312 265.433594 95.339844 265.226562 C 95.234375 265.121094 93.882812 265.226562 93.78125 265.539062 C 93.570312 265.847656 93.988281 266.785156 94.402344 267.097656 C 94.714844 267.304688 95.546875 267.515625 95.757812 267.304688 C 95.964844 267.097656 95.859375 266.265625 95.652344 266.058594 C 95.445312 265.746094 94.195312 265.640625 93.988281 265.847656 C 93.882812 266.058594 94.402344 267.410156 94.613281 267.410156 C 94.820312 267.410156 95.339844 266.578125 95.234375 266.371094 C 95.027344 265.953125 92.53125 265.640625 92.53125 265.746094 C 92.425781 265.953125 94.714844 267.304688 94.714844 267.410156 C 94.714844 267.410156 93.257812 266.371094 93.15625 266.472656 C 93.15625 266.578125 94.402344 267.722656 94.300781 267.828125 C 94.300781 267.929688 93.15625 267.410156 93.15625 267.410156 C 93.15625 267.410156 94.921875 267.515625 95.027344 267.828125 C 95.132812 268.035156 94.402344 268.96875 94.195312 268.867188 C 93.988281 268.867188 93.675781 267.515625 93.882812 266.992188 C 94.300781 266.265625 96.691406 266.058594 97.109375 265.433594 C 97.316406 265.121094 97.003906 264.289062 97.109375 264.289062 C 97.210938 264.183594 97.628906 265.328125 97.835938 265.328125 C 98.148438 265.226562 98.980469 263.457031 98.773438 262.519531 C 98.253906 260.960938 94.300781 259.085938 92.945312 257.734375 C 92.011719 256.902344 90.867188 256.070312 90.867188 255.445312 C 90.867188 255.132812 91.492188 254.71875 91.492188 254.71875 C 91.492188 254.71875 90.867188 255.652344 90.867188 255.652344 C 90.96875 255.652344 91.28125 254.820312 91.59375 254.820312 C 91.90625 254.820312 92.945312 256.175781 92.84375 256.695312 C 92.84375 257.109375 92.425781 257.628906 91.90625 257.839844 C 91.074219 258.046875 88.058594 256.070312 87.640625 256.488281 C 87.226562 256.902344 88.890625 259.605469 88.679688 259.710938 C 88.371094 259.917969 85.144531 256.382812 85.144531 255.550781 C 85.25 255.238281 85.769531 254.925781 85.976562 254.925781 C 86.496094 255.132812 87.746094 259.503906 87.433594 259.605469 C 87.121094 259.816406 83.375 254.507812 83.375 254.507812 C 83.480469 254.40625 86.808594 257.421875 86.808594 258.253906 C 86.808594 258.566406 86.496094 258.984375 86.183594 258.984375 C 85.457031 258.984375 81.605469 253.054688 82.128906 252.429688 C 82.648438 251.910156 88.679688 255.550781 88.785156 255.34375 C 88.992188 254.925781 81.503906 250.453125 81.816406 249.722656 C 81.917969 249.308594 83.167969 249.308594 84.105469 249.515625 C 85.558594 249.828125 89.410156 251.910156 89.515625 252.53125 C 89.617188 252.84375 89.203125 253.261719 88.890625 253.261719 C 87.640625 253.367188 79.941406 248.058594 80.152344 247.539062 C 80.253906 247.125 83.375 247.746094 84.832031 248.265625 C 86.183594 248.789062 88.371094 249.933594 88.679688 250.554688 C 88.785156 250.972656 88.679688 251.386719 88.371094 251.597656 C 87.539062 251.910156 81.710938 248.890625 81.503906 247.957031 C 81.503906 247.644531 82.128906 247.125 82.542969 247.019531 C 82.960938 246.914062 83.582031 247.332031 84.417969 247.746094 C 85.457031 248.265625 88.160156 249.203125 88.472656 249.933594 C 88.679688 250.246094 88.578125 250.867188 88.265625 250.972656 C 87.539062 251.285156 81.605469 247.433594 81.710938 247.019531 C 81.816406 246.707031 84 247.019531 85.144531 247.433594 C 86.496094 247.851562 88.785156 248.890625 88.992188 249.515625 C 89.097656 249.828125 88.992188 250.453125 88.578125 250.554688 C 87.746094 250.867188 82.335938 247.957031 82.230469 247.226562 C 82.230469 246.8125 82.960938 246.5 83.480469 246.394531 C 84.3125 246.289062 85.664062 247.019531 86.808594 247.539062 C 87.953125 248.164062 90.035156 249.101562 90.242188 249.722656 C 90.347656 249.933594 90.136719 250.347656 89.824219 250.554688 C 88.890625 250.972656 82.75 248.890625 82.648438 248.164062 C 82.542969 247.851562 83.167969 247.226562 83.6875 247.125 C 84.726562 246.914062 86.914062 247.957031 88.472656 248.996094 C 90.449219 250.140625 93.988281 253.054688 94.402344 254.40625 C 94.613281 255.03125 94.507812 255.652344 94.089844 255.863281 C 92.738281 256.589844 79.320312 249.308594 79.421875 249.101562 C 79.527344 248.996094 82.75 249.933594 84.3125 250.765625 C 86.289062 251.699219 90.035156 254.09375 90.242188 254.925781 C 90.347656 255.238281 90.035156 255.652344 89.722656 255.757812 C 88.785156 255.964844 82.128906 250.867188 82.335938 250.453125 C 82.441406 250.140625 84.417969 250.554688 85.558594 251.078125 C 87.433594 251.804688 91.492188 254.300781 92.011719 255.34375 C 92.113281 255.652344 92.011719 256.175781 91.800781 256.277344 C 91.28125 256.382812 87.953125 253.367188 87.953125 252.636719 C 87.847656 252.429688 88.265625 252.011719 88.472656 252.011719 C 89.203125 252.117188 91.90625 257.628906 91.800781 257.734375 C 91.699219 257.734375 87.746094 253.46875 87.847656 252.636719 C 87.847656 252.324219 88.160156 252.011719 88.472656 252.011719 C 89.203125 252.117188 92.011719 255.964844 91.800781 256.277344 C 91.386719 256.589844 82.441406 251.386719 82.335938 250.453125 C 82.335938 250.140625 82.648438 249.933594 82.960938 249.828125 C 84 249.828125 90.035156 253.886719 90.242188 254.925781 C 90.347656 255.238281 90.136719 255.652344 89.722656 255.757812 C 88.578125 255.964844 79.109375 250.140625 79.320312 249.515625 C 79.527344 249.101562 83.480469 249.722656 85.769531 250.453125 C 88.578125 251.386719 94.714844 254.09375 94.820312 255.03125 C 94.820312 255.34375 94.402344 255.863281 93.988281 255.863281 C 92.945312 255.863281 90.347656 251.492188 88.371094 250.140625 C 86.496094 248.996094 82.648438 248.683594 82.648438 248.164062 C 82.542969 247.851562 83.6875 247.226562 84.519531 247.226562 C 85.769531 247.125 89.097656 248.476562 89.617188 249.308594 C 89.929688 249.722656 89.824219 250.347656 89.515625 250.554688 C 88.785156 250.972656 82.230469 246.8125 82.230469 246.707031 C 82.335938 246.601562 88.785156 248.683594 88.992188 249.515625 C 89.097656 249.828125 88.785156 250.347656 88.371094 250.453125 C 87.433594 250.660156 82.441406 246.8125 82.441406 246.8125 C 82.441406 246.707031 88.160156 248.996094 88.472656 249.933594 C 88.578125 250.246094 88.371094 250.765625 87.953125 250.867188 C 87.121094 251.179688 82.128906 248.164062 82.230469 247.957031 C 82.230469 247.851562 86.601562 249.203125 87.746094 249.933594 C 88.265625 250.246094 88.890625 250.554688 88.890625 250.867188 C 88.890625 251.179688 88.578125 251.492188 88.265625 251.597656 C 87.121094 251.699219 80.773438 247.433594 80.773438 247.539062 C 80.773438 247.539062 89.410156 251.597656 89.515625 252.53125 C 89.617188 252.84375 89.203125 253.261719 88.890625 253.261719 C 87.847656 253.367188 82.648438 249.308594 82.542969 249.410156 C 82.441406 249.621094 89.410156 254.199219 89.410156 255.238281 C 89.410156 255.652344 88.890625 256.070312 88.371094 256.175781 C 87.226562 256.277344 82.960938 252.84375 82.75 253.15625 C 82.441406 253.574219 87.226562 257.527344 87.226562 258.566406 C 87.226562 258.984375 86.703125 259.503906 86.394531 259.398438 C 85.664062 259.398438 83.273438 254.613281 83.375 254.507812 C 83.582031 254.300781 87.847656 257.941406 87.953125 258.773438 C 87.953125 259.191406 87.640625 259.605469 87.433594 259.605469 C 86.914062 259.605469 85.039062 256.277344 85.144531 255.550781 C 85.25 255.238281 85.664062 254.925781 85.976562 254.925781 C 86.703125 255.132812 88.679688 259.710938 88.679688 259.710938 C 88.679688 259.710938 86.183594 256.589844 86.496094 256.070312 C 86.914062 255.445312 91.179688 257.320312 91.699219 256.695312 C 92.113281 256.382812 91.179688 254.820312 91.492188 254.71875 C 92.113281 254.40625 98.460938 260.230469 99.085938 261.894531 C 99.398438 262.625 99.1875 263.664062 98.980469 263.769531 C 98.667969 263.871094 97.523438 262.519531 97.628906 262.3125 C 97.628906 262.105469 99.085938 262.105469 99.292969 262.417969 C 99.5 262.726562 98.878906 264.394531 98.566406 264.394531 C 98.253906 264.496094 97.523438 263.144531 97.628906 262.9375 C 97.734375 262.625 99.085938 262.726562 99.292969 263.039062 C 99.710938 263.457031 99.398438 265.328125 98.980469 265.433594 C 98.667969 265.640625 97.316406 264.808594 97.316406 264.394531 C 97.210938 263.976562 98.253906 262.832031 98.566406 262.9375 C 98.878906 263.039062 99.292969 265.226562 98.980469 265.746094 C 98.667969 266.160156 97.421875 266.371094 97.109375 266.160156 C 96.691406 265.746094 97.003906 263.25 97.421875 263.039062 C 97.734375 262.9375 99.292969 264.394531 99.1875 264.914062 C 99.085938 265.539062 97.109375 266.578125 96.691406 266.371094 C 96.277344 266.058594 96.484375 263.351562 96.796875 263.25 C 97.109375 263.144531 98.667969 264.808594 98.460938 265.328125 C 98.355469 265.847656 96.171875 266.578125 95.757812 266.265625 C 95.445312 266.058594 95.652344 263.976562 96.171875 263.664062 C 96.484375 263.457031 97.421875 263.664062 97.628906 264.082031 C 97.941406 264.394531 98.042969 265.328125 97.734375 265.847656 C 97.421875 266.472656 95.546875 267.410156 95.027344 267.203125 C 94.613281 266.992188 94.402344 265.226562 94.714844 264.808594 C 94.921875 264.496094 95.757812 264.394531 96.171875 264.601562 C 96.484375 264.808594 97.003906 265.433594 97.003906 265.953125 C 96.898438 266.578125 95.445312 267.828125 94.820312 268.035156 C 94.300781 268.035156 93.570312 267.722656 93.363281 267.304688 C 93.15625 266.992188 93.257812 266.160156 93.46875 265.953125 C 93.78125 265.746094 94.921875 266.058594 95.234375 266.371094 C 95.652344 266.785156 95.964844 267.722656 95.652344 268.136719 C 95.445312 268.660156 93.570312 269.28125 93.363281 269.074219 C 93.257812 268.96875 93.675781 267.828125 94.089844 267.722656 C 94.507812 267.617188 95.964844 268.96875 95.859375 269.179688 C 95.757812 269.386719 93.882812 269.28125 93.570312 268.867188 C 93.363281 268.449219 93.675781 266.992188 94.089844 266.785156 C 94.507812 266.578125 95.964844 267.097656 96.171875 267.410156 C 96.277344 267.828125 95.652344 268.761719 95.234375 268.867188 C 94.820312 269.074219 94.089844 268.761719 93.675781 268.449219 C 93.257812 268.242188 92.738281 267.722656 92.738281 267.304688 C 92.738281 266.785156 93.257812 265.953125 93.675781 265.746094 C 94.195312 265.640625 95.339844 266.265625 95.546875 266.683594 C 95.859375 267.097656 95.859375 267.929688 95.546875 268.136719 C 95.234375 268.554688 93.675781 268.449219 93.15625 268.242188 C 92.738281 268.035156 92.425781 267.515625 92.425781 267.203125 C 92.53125 266.890625 93.050781 266.160156 93.46875 266.160156 C 93.988281 266.160156 95.339844 267.410156 95.234375 267.828125 C 95.132812 268.136719 93.570312 268.660156 93.050781 268.449219 C 92.636719 268.347656 92.113281 267.515625 92.113281 267.203125 C 92.113281 266.890625 92.53125 266.472656 92.84375 266.371094 C 93.363281 266.265625 95.027344 267.203125 95.234375 267.617188 C 95.339844 267.929688 95.132812 268.449219 94.820312 268.660156 C 94.507812 268.867188 93.570312 268.761719 93.050781 268.449219 C 92.425781 268.136719 91.492188 267.097656 91.386719 266.578125 C 91.386719 266.160156 91.800781 265.746094 92.113281 265.640625 C 92.738281 265.433594 94.089844 265.539062 94.714844 265.953125 C 95.339844 266.265625 96.066406 266.992188 95.964844 267.515625 C 95.964844 267.828125 95.339844 268.347656 94.820312 268.449219 C 94.300781 268.449219 93.46875 267.929688 92.945312 267.617188 C 92.425781 267.203125 91.699219 266.472656 91.59375 266.058594 C 91.492188 265.640625 91.699219 265.121094 92.011719 264.914062 C 92.636719 264.601562 95.445312 265.121094 96.066406 265.746094 C 96.484375 266.160156 96.589844 266.992188 96.378906 267.410156 C 96.171875 267.929688 94.921875 268.449219 94.300781 268.347656 C 93.675781 268.347656 92.84375 267.617188 92.738281 267.097656 C 92.53125 266.472656 92.945312 265.328125 93.46875 264.914062 C 93.988281 264.601562 95.234375 264.496094 95.859375 264.707031 C 96.378906 265.015625 96.796875 265.746094 96.898438 266.265625 C 96.898438 266.992188 96.589844 268.136719 96.066406 268.449219 C 95.445312 268.660156 94.089844 268.242188 93.570312 267.722656 C 92.945312 267.203125 92.425781 266.058594 92.636719 265.433594 C 92.738281 264.707031 93.882812 263.664062 94.507812 263.664062 C 95.132812 263.5625 96.066406 264.394531 96.277344 265.015625 C 96.589844 265.640625 96.277344 267.097656 95.757812 267.410156 C 95.132812 267.722656 92.945312 266.683594 92.324219 265.847656 C 91.800781 265.226562 91.492188 263.871094 91.800781 263.25 C 92.011719 262.726562 92.636719 262.105469 93.15625 262.207031 C 93.882812 262.207031 95.546875 263.871094 95.652344 264.601562 C 95.652344 265.226562 94.820312 266.371094 94.300781 266.472656 C 93.78125 266.578125 92.945312 265.953125 92.53125 265.328125 C 92.011719 264.707031 91.699219 263.664062 91.800781 262.9375 C 91.800781 262.3125 92.21875 261.585938 92.636719 261.375 C 93.050781 261.167969 93.988281 261.375 94.613281 261.6875 C 95.234375 262.105469 96.171875 263.351562 96.066406 263.871094 C 95.964844 264.394531 94.921875 265.121094 94.300781 265.015625 C 93.46875 265.015625 91.699219 263.144531 91.28125 262.207031 C 90.96875 261.585938 90.761719 260.542969 91.074219 260.230469 C 91.28125 260.023438 92.21875 260.023438 92.84375 260.335938 C 93.78125 260.75 96.171875 263.351562 95.964844 263.769531 C 95.859375 264.082031 95.027344 264.082031 94.507812 263.871094 C 93.78125 263.5625 92.84375 262.417969 92.324219 261.585938 C 91.90625 260.75 91.179688 258.984375 91.492188 258.566406 C 91.59375 258.464844 92.324219 258.566406 92.324219 258.566406 " clip-rule="nonzero"/></clipPath><clipPath id="dc682fbf79"><path d="M 91.121094 258.820312 L 98.894531 258.820312 L 98.894531 267.589844 L 91.121094 267.589844 Z M 91.121094 258.820312 " clip-rule="nonzero"/></clipPath><clipPath id="867c3ee0cb"><path d="M 95.964844 263.976562 C 97.003906 265.953125 97.316406 264.496094 97.523438 264.496094 C 97.628906 264.601562 97.421875 266.683594 97.421875 266.683594 C 97.421875 266.683594 98.042969 264.914062 97.628906 263.976562 C 97.210938 262.726562 93.570312 260.855469 93.570312 260.023438 C 93.675781 259.710938 94.195312 259.191406 94.507812 259.296875 C 95.132812 259.398438 96.898438 263.144531 96.589844 263.351562 C 96.277344 263.664062 90.96875 259.085938 91.179688 258.878906 C 91.28125 258.671875 94.507812 260.230469 95.546875 260.960938 C 96.277344 261.480469 97.109375 262.207031 97.109375 262.625 C 97.109375 262.9375 96.691406 263.351562 96.378906 263.25 C 95.757812 263.144531 93.675781 259.296875 93.882812 259.191406 C 94.089844 258.984375 97.421875 261.375 98.148438 262.726562 C 98.773438 263.664062 98.980469 265.121094 98.773438 265.847656 C 98.566406 266.472656 97.628906 266.992188 97.210938 266.992188 C 96.898438 266.890625 96.589844 266.371094 96.589844 265.953125 C 96.484375 265.328125 96.898438 264.082031 97.316406 263.871094 C 97.628906 263.664062 98.355469 263.871094 98.566406 264.183594 C 98.878906 264.707031 98.460938 267.203125 97.941406 267.515625 C 97.523438 267.722656 96.589844 267.304688 96.277344 266.890625 C 95.964844 266.472656 96.066406 265.539062 96.277344 264.914062 C 96.484375 264.289062 96.898438 263.457031 97.316406 263.351562 C 97.628906 263.25 98.148438 263.457031 98.355469 263.769531 C 98.566406 264.289062 98.460938 266.160156 98.042969 266.683594 C 97.835938 266.992188 97.109375 267.097656 96.796875 266.992188 C 96.378906 266.785156 96.066406 266.058594 96.066406 265.640625 C 96.171875 265.121094 96.691406 264.394531 97.109375 264.289062 C 97.421875 264.289062 98.042969 264.601562 98.148438 265.015625 C 98.253906 265.433594 97.628906 267.203125 97.210938 267.203125 C 96.796875 267.304688 95.339844 265.539062 95.445312 265.121094 C 95.546875 264.808594 97.003906 264.394531 97.210938 264.707031 C 97.421875 264.914062 97.003906 266.890625 96.691406 266.890625 C 96.277344 266.992188 95.445312 265.953125 95.234375 265.433594 C 95.027344 264.914062 94.921875 263.871094 95.132812 263.769531 C 95.339844 263.5625 95.964844 263.976562 95.964844 263.976562 " clip-rule="nonzero"/></clipPath></defs><path fill="#e9a45d" d="M 293.539062 125.457031 C 271.039062 94.488281 229.605469 85.582031 193.675781 93.113281 C 123.4375 105.917969 56.328125 159.507812 43.917969 232.386719 C 24.554688 276.476562 36.921875 345.925781 93.234375 351.113281 C 101.25 351.5625 109.191406 349.71875 117.222656 350.714844 C 166.238281 358.546875 224.164062 392.0625 267.550781 352.535156 C 269.726562 354.09375 272.589844 354.847656 275.03125 353.902344 C 293.5 346.765625 294.367188 326.121094 295.941406 309.148438 C 297.976562 287.21875 299.882812 265.277344 301.660156 243.328125 C 302.296875 205.472656 317.300781 158.167969 293.539062 125.457031 Z M 293.539062 125.457031 " fill-opacity="1" fill-rule="evenodd"/><g clip-path="url(#f35f4a6ca7)"><path fill="#ffde59" d="M 157.359375 46.542969 C 186.929688 44.96875 241.421875 58.515625 267.21875 74.394531 C 309.257812 100.269531 312.515625 151.882812 310.800781 160.804688 C 310.148438 164.210938 308.066406 167.363281 304.808594 166.316406 C 307.574219 189.765625 307.355469 203.167969 307.820312 226.75 L 308.140625 242.496094 C 308.347656 252.992188 308.523438 263.488281 308.570312 273.992188 C 309.632812 273.59375 310.679688 274.082031 311.070312 275.101562 C 311.167969 275.347656 310.828125 275.480469 310.664062 275.339844 C 308.792969 273.707031 310.125 277.425781 310.769531 278.183594 C 311.660156 279.226562 313.144531 280.207031 314.183594 281.097656 L 317.011719 283.542969 L 319.835938 285.984375 C 323.488281 289.136719 327.019531 292.292969 330.425781 295.683594 L 331.351562 296.617188 C 337.558594 302.921875 345.335938 309.023438 349.199219 317.175781 C 352.890625 324.960938 351.753906 333.789062 345.621094 339.996094 C 343.390625 342.246094 340.785156 343.972656 337.953125 345.273438 C 342.992188 353.570312 343.726562 364.535156 338.472656 373.070312 C 333.207031 381.636719 323.085938 386.121094 313.339844 385.433594 C 313.039062 386.652344 312.574219 387.84375 311.960938 388.972656 C 308.09375 396.078125 300.40625 397 293.117188 396.617188 L 292.832031 396.601562 C 276.421875 395.660156 260.632812 391.550781 246.257812 383.5625 C 241.269531 383.898438 236.824219 379.800781 235.851562 375.308594 C 233.230469 375.214844 230.59375 374.996094 227.90625 374.6875 C 219.933594 373.769531 211.757812 372.054688 204.726562 368.003906 C 203.648438 367.382812 204.152344 365.742188 205.347656 365.710938 C 213.914062 365.515625 222.484375 366.109375 231.035156 365.179688 C 238.882812 364.335938 247.246094 362.171875 254.558594 359.230469 C 267.707031 353.929688 278.980469 344.9375 285.203125 332.476562 C 293.257812 316.351562 292.523438 296.984375 293.402344 279.464844 C 294.371094 260.070312 295.566406 240.699219 296.84375 221.324219 L 297.460938 212.039062 C 298.703125 193.941406 299.730469 184.257812 302.871094 165.46875 C 293.402344 166.316406 254.058594 152.15625 241.824219 128.992188 C 218.605469 178.269531 100.960938 158.101562 95.742188 233.960938 C 95.699219 234.601562 94.679688 234.425781 94.640625 233.808594 L 94.542969 232.082031 C 94.496094 231.226562 94.453125 230.386719 94.425781 229.550781 L 94.402344 228.71875 L 92.550781 228.742188 C 92.550781 228.972656 92.222656 229.054688 92.140625 228.808594 C 90.394531 223.859375 82.085938 225.453125 78.46875 226.628906 C 75.214844 227.691406 72.144531 229.324219 69.386719 231.339844 C 63.855469 235.382812 59.566406 240.824219 58.144531 247.628906 C 55.441406 260.554688 63.667969 273.714844 74.589844 279.949219 C 81.480469 283.882812 89.027344 286.417969 95.628906 290.875 C 101.460938 294.804688 106.898438 299.410156 111.605469 304.640625 C 130.261719 325.375 141.238281 356.816406 132.410156 384.183594 C 131.738281 386.269531 129.957031 388.660156 127.597656 388.996094 C 123.699219 389.558594 119.796875 388.988281 117.609375 385.273438 C 116.757812 383.824219 116.351562 382.167969 116.441406 380.535156 C 114.929688 385.730469 110.027344 390.867188 105.503906 392.800781 C 99.34375 395.433594 92.402344 394.648438 86.96875 391.25 L 86.28125 391.757812 C 77.441406 398.261719 67.566406 404.195312 56.242188 402.996094 C 48.035156 402.128906 39.980469 397.949219 35.441406 391.363281 C 29.410156 394.753906 22.960938 397.457031 16.3125 399.296875 L 15.605469 399.492188 C 6.460938 401.980469 -5.207031 404.265625 -13.746094 399.207031 C -21.941406 394.347656 -24.667969 383.738281 -22.746094 374.882812 C -22.511719 373.828125 -22.21875 372.800781 -21.859375 371.804688 C -28.03125 372.136719 -34.191406 371.542969 -40.046875 369.734375 C -46.027344 367.882812 -51.734375 364.328125 -54.601562 358.5625 C -57.835938 352.039062 -56.972656 344.628906 -54.5625 337.988281 C -50.707031 327.335938 -44.507812 317.855469 -36.789062 309.597656 C -29.367188 301.652344 -20.414062 294.910156 -11.105469 289.289062 L -9.539062 288.351562 C -1.160156 283.355469 8.941406 277.5 18.835938 277.886719 C 18.808594 277.757812 18.785156 277.636719 18.769531 277.511719 C 17.273438 266.480469 17.445312 255.238281 17.09375 244.121094 C 16.769531 233.890625 16.402344 223.664062 16.164062 213.429688 C 15.773438 196.03125 15.902344 178.558594 18.171875 161.277344 C 20.183594 145.945312 23.808594 130.992188 30.417969 116.957031 C 37.359375 102.207031 47.8125 89.621094 60.71875 79.722656 C 87.804688 58.949219 123.585938 48.339844 157.359375 46.542969 Z M 65.351562 250.910156 C 68.300781 245.347656 75.019531 243.59375 80.910156 244.597656 C 89.167969 246.003906 94.785156 253.222656 99.605469 259.429688 C 104.664062 265.933594 94.109375 272.066406 91.390625 265.765625 L 90.746094 264.273438 C 88.566406 259.277344 85.992188 254.003906 81.539062 250.746094 C 76.808594 247.285156 70.128906 246.777344 65.953125 251.375 C 65.652344 251.710938 65.152344 251.277344 65.351562 250.910156 Z M 65.351562 250.910156 " fill-opacity="1" fill-rule="evenodd"/></g><g clip-path="url(#2615cae4c4)"><g clip-path="url(#1efd6261e2)"><path fill="#000000" d="M 71.828125 242.027344 L 103.445312 242.027344 L 103.445312 271.675781 L 71.828125 271.675781 Z M 71.828125 242.027344 " fill-opacity="1" fill-rule="nonzero"/></g></g><g clip-path="url(#36c569ab7a)"><g clip-path="url(#7eaf12b39a)"><path fill="#000000" d="M 60.742188 240.570312 L 105.316406 240.570312 L 105.316406 274.835938 L 60.742188 274.835938 Z M 60.742188 240.570312 " fill-opacity="1" fill-rule="nonzero"/></g></g><g clip-path="url(#b954bc7d2d)"><g clip-path="url(#a90cc946f0)"><path fill="#000000" d="M 75.15625 242.234375 L 103.558594 242.234375 L 103.558594 273.296875 L 75.15625 273.296875 Z M 75.15625 242.234375 " fill-opacity="1" fill-rule="nonzero"/></g></g><g clip-path="url(#dc682fbf79)"><g clip-path="url(#867c3ee0cb)"><path fill="#000000" d="M 87.015625 254.71875 L 102.933594 254.71875 L 102.933594 271.753906 L 87.015625 271.753906 Z M 87.015625 254.71875 " fill-opacity="1" fill-rule="nonzero"/></g></g></svg>